<svg width="22" height="22" viewBox="0 0 22 22" fill="none" xmlns="http://www.w3.org/2000/svg">
<path d="M7.91622 1.47296C8.2418 1.66831 8.34738 2.09061 8.15203 2.4162L4.65176 8.24998H17.3482L13.848 2.4162C13.6526 2.09061 13.7582 1.66831 14.0838 1.47296C14.4094 1.2776 14.8317 1.38318 15.027 1.70877L18.9518 8.24998H20.625C21.3844 8.24998 22 8.86559 22 9.62498V11C22 11.7594 21.3844 12.375 20.625 12.375V18.5628C20.625 20.4614 19.0859 22 17.1875 22H4.8125C2.91413 22 1.375 20.4614 1.375 18.5628V12.375C0.615609 12.375 0 11.7594 0 11V9.62498C0 8.86559 0.615609 8.24998 1.375 8.24998H3.04824L6.97297 1.70877C7.16833 1.38318 7.59063 1.2776 7.91622 1.47296ZM2.75 12.375V18.5628C2.75 19.7018 3.67331 20.625 4.8125 20.625H17.1875C18.3267 20.625 19.25 19.7018 19.25 18.5628V12.375H2.75ZM1.375 9.62498V11H20.625V9.62498H1.375ZM5.5 13.75C5.8797 13.75 6.1875 14.0578 6.1875 14.4375V18.5625C6.1875 18.9422 5.8797 19.25 5.5 19.25C5.1203 19.25 4.8125 18.9422 4.8125 18.5625V14.4375C4.8125 14.0578 5.1203 13.75 5.5 13.75ZM8.25 13.75C8.6297 13.75 8.9375 14.0578 8.9375 14.4375V18.5625C8.9375 18.9422 8.6297 19.25 8.25 19.25C7.8703 19.25 7.5625 18.9422 7.5625 18.5625V14.4375C7.5625 14.0578 7.8703 13.75 8.25 13.75ZM11 13.75C11.3797 13.75 11.6875 14.0578 11.6875 14.4375V18.5625C11.6875 18.9422 11.3797 19.25 11 19.25C10.6203 19.25 10.3125 18.9422 10.3125 18.5625V14.4375C10.3125 14.0578 10.6203 13.75 11 13.75ZM13.75 13.75C14.1297 13.75 14.4375 14.0578 14.4375 14.4375V18.5625C14.4375 18.9422 14.1297 19.25 13.75 19.25C13.3703 19.25 13.0625 18.9422 13.0625 18.5625V14.4375C13.0625 14.0578 13.3703 13.75 13.75 13.75ZM16.5 13.75C16.8797 13.75 17.1875 14.0578 17.1875 14.4375V18.5625C17.1875 18.9422 16.8797 19.25 16.5 19.25C16.1203 19.25 15.8125 18.9422 15.8125 18.5625V14.4375C15.8125 14.0578 16.1203 13.75 16.5 13.75Z" fill="#5F352F"/>
</svg>
