<svg width="50" height="50" viewBox="0 0 50 50" fill="none" xmlns="http://www.w3.org/2000/svg">
<g clip-path="url(#clip0_664_508)">
<path d="M2.14231 30.7925L3.33831 32.1849C4.07019 33.0417 4.51646 34.0949 4.60572 35.2374L4.74852 37.076C5.10554 41.4673 8.55074 44.9125 12.942 45.2695L14.7807 45.4123C15.9053 45.5016 16.9584 45.9478 17.8331 46.6797L19.2255 47.8757C22.5814 50.7319 27.4547 50.7319 30.8106 47.8757L32.203 46.6797C33.0598 45.9478 34.113 45.5016 35.2555 45.4123L37.0763 45.2695C41.4676 44.9125 44.9127 41.4852 45.2698 37.076L45.4126 35.2552C45.5018 34.1306 45.9481 33.0774 46.68 32.2028L47.876 30.8104C50.7321 27.4545 50.7321 22.5812 47.876 19.2252L46.68 17.8329C45.9481 16.976 45.5018 15.9229 45.4126 14.7804L45.2698 12.9418C44.9127 8.55049 41.4676 5.10529 37.0763 4.74827L35.2376 4.60546C34.113 4.51621 33.0598 4.06995 32.1852 3.33806L30.7928 2.14206C29.1148 0.714001 27.062 -3.05176e-05 25.0091 -3.05176e-05C22.9563 -3.05176e-05 20.9035 0.714001 19.2255 2.14206L17.8331 3.33806C16.9763 4.06995 15.9231 4.51621 14.7807 4.60546L12.9599 4.74827C8.56859 5.10529 5.12339 8.53263 4.76637 12.9418L4.62357 14.7626C4.53431 15.8872 4.08805 16.9403 3.35616 17.815L2.16016 19.2074C-0.695961 22.5633 -0.695961 27.4366 2.16016 30.7925H2.14231ZM4.87348 21.528L6.06948 20.1356C7.30118 18.6897 8.01521 16.9403 8.17587 15.0482L8.31868 13.2274C8.53289 10.5855 10.5857 8.53263 13.2276 8.31842L15.0484 8.17562C16.9406 8.03281 18.69 7.30093 20.1359 6.06923L21.5282 4.87323C23.5454 3.15955 26.4729 3.15955 28.4722 4.87323L29.8646 6.06923C31.3105 7.30093 33.0598 8.01496 34.952 8.17562L36.7906 8.31842C39.4326 8.53263 41.5033 10.5855 41.6996 13.2274L41.8424 15.066C42.0031 16.9582 42.7171 18.7076 43.9488 20.1356L45.1448 21.528C46.8585 23.5451 46.8585 26.4548 45.1448 28.4719L43.9488 29.8643C42.7171 31.3102 41.9852 33.0596 41.8424 34.9518L41.6996 36.7726C41.4854 39.4145 39.4147 41.4673 36.7906 41.6815L34.9699 41.8243C33.0777 41.9671 31.3283 42.699 29.8824 43.9307L28.49 45.1267C27.4904 45.9835 26.2408 46.412 25.0091 46.412C23.7774 46.412 22.5457 45.9835 21.5282 45.1267L20.1359 43.9307C18.69 42.699 16.9406 41.985 15.0663 41.8243L13.2276 41.6815C10.5857 41.4673 8.51503 39.3966 8.31868 36.7726L8.17587 34.9339C8.03306 33.0417 7.30118 31.2924 6.06948 29.8465L4.87348 28.4541C3.15981 26.437 3.15981 23.5273 4.87348 21.5101V21.528Z" fill="#5F352F"/>
<path d="M13.7275 26.7939L35.3805 26.7939C36.3663 26.7939 37.1655 25.9947 37.1655 25.0089C37.1655 24.023 36.3663 23.2238 35.3805 23.2238L13.7275 23.2238C12.7416 23.2238 11.9424 24.023 11.9424 25.0089C11.9424 25.9947 12.7416 26.7939 13.7275 26.7939Z" fill="#5F352F"/>
<path d="M15.0045 26.2605L21.707 19.558C22.4041 18.8609 22.4041 17.7307 21.707 17.0335C21.0099 16.3364 19.8796 16.3364 19.1825 17.0335L12.48 23.736C11.7829 24.4331 11.7829 25.5634 12.48 26.2605C13.1771 26.9576 14.3074 26.9576 15.0045 26.2605Z" fill="#5F352F"/>
<path d="M21.7064 30.4461L15.0039 23.7436C14.3068 23.0464 13.1766 23.0464 12.4795 23.7436C11.7823 24.4407 11.7823 25.5709 12.4795 26.268L19.182 32.9705C19.8791 33.6677 21.0093 33.6677 21.7064 32.9705C22.4035 32.2734 22.4035 31.1432 21.7064 30.4461Z" fill="#5F352F"/>
</g>
<defs>
<clipPath id="clip0_664_508">
<rect width="50" height="50" fill="white" transform="matrix(-1 0 0 -1 50 50)"/>
</clipPath>
</defs>
</svg>
