<svg width="41" height="38" viewBox="0 0 41 38" fill="none" xmlns="http://www.w3.org/2000/svg">
<path d="M16.5722 22.7658C16.3235 23.0146 15.9752 23.1638 15.5772 23.3131C15.1792 23.4623 14.7812 23.5121 14.3334 23.5121C13.8857 23.5121 13.4877 23.4623 13.0897 23.3131C12.7414 23.1638 12.3931 23.0146 12.0946 22.7658C11.7464 22.4673 11.1991 22.5171 10.9006 22.8653C10.6021 23.2136 10.6518 23.7609 11.0001 24.0594C11.4479 24.4574 11.9454 24.7061 12.5424 24.9051C13.0896 25.1041 13.6867 25.2036 14.3334 25.2036C14.9802 25.2036 15.5772 25.1041 16.1245 24.9051C16.6717 24.7061 17.219 24.4076 17.6668 24.0594C18.015 23.7609 18.0648 23.2136 17.7663 22.8653C17.4678 22.5171 16.9205 22.4673 16.5722 22.7658Z" fill="#FFB3B8"/>
<path d="M11.8955 17.2434C12.3432 17.2434 12.7413 16.8454 12.7413 16.3977C12.7413 15.6016 12.393 14.8554 11.8457 14.3579C11.2985 13.8603 10.6019 13.5121 9.80593 13.5121C9.00991 13.5121 8.26364 13.8106 7.76613 14.3579C7.21886 14.8554 6.92036 15.6016 6.87061 16.3977C6.87061 16.8454 7.21886 17.2434 7.71638 17.2434C8.16414 17.2434 8.56215 16.8952 8.56215 16.3977C8.56215 16.0494 8.7114 15.7509 8.96016 15.5021C9.20891 15.3031 9.50742 15.1539 9.85568 15.1539C10.2039 15.1539 10.5024 15.3031 10.7512 15.5021C11 15.7011 11.0995 16.0494 11.1492 16.3977C11.1492 16.8454 11.5472 17.2434 11.995 17.2434H11.8955Z" fill="#FFB3B8"/>
<path d="M18.9104 13.5121C18.1144 13.5121 17.4179 13.8106 16.8706 14.3579C16.3234 14.9051 16.0248 15.6016 15.9751 16.3977C15.9751 16.8454 16.3234 17.2434 16.8209 17.2434C17.2686 17.2434 17.6666 16.8952 17.6666 16.3977C17.6666 16.0494 17.8159 15.7509 18.0647 15.5021C18.0647 15.5021 18.6119 15.1539 18.9104 15.1539C19.2089 15.1539 19.5572 15.3031 19.8059 15.5021C20.0547 15.7011 20.1542 16.0494 20.204 16.3977C20.204 16.8454 20.602 17.2434 21.0497 17.2434C21.4975 17.2434 21.8955 16.8454 21.8955 16.3977C21.8955 15.6016 21.5472 14.8554 21 14.3579C20.4527 13.8603 19.7562 13.5121 18.9602 13.5121H18.9104Z" fill="#FFB3B8"/>
<path d="M40.9004 4.85541C40.6517 3.86039 40.0049 2.96487 39.0099 2.4176L35.7761 0.527055C34.8308 -0.020209 33.7363 -0.119711 32.7412 0.129045C31.7462 0.377801 30.9004 1.02457 30.3034 1.96984L25.3283 10.5768C24.8805 9.93004 24.3333 9.28327 23.786 8.73601C21.398 6.34795 18.0149 4.80566 14.3333 4.80566C10.6517 4.80566 7.31835 6.2982 4.88054 8.73601C2.49248 11.1241 0.950195 14.5072 0.950195 18.139C0.950195 21.7708 2.44273 25.1042 4.83079 27.542C7.21885 29.9798 10.6019 31.4723 14.2835 31.4723C14.5323 31.4723 14.8308 31.4723 15.0795 31.4723L15.9253 37.1937C15.9253 37.1937 15.9253 37.343 15.9751 37.3927C16.1243 37.8405 16.6218 38.0395 17.0696 37.8902L24.6318 34.9052C24.6318 34.9052 24.9303 34.7062 25.0298 34.5569L40.4527 7.89024C40.9999 6.94496 41.0995 5.85044 40.8507 4.85541H40.9004ZM27.5671 10.0295L30.5024 11.7211L27.6169 16.6962C27.4676 15.1042 27.0198 13.5619 26.3233 12.1688L27.5671 10.0295ZM14.3333 29.731C11.0994 29.731 8.21388 28.4375 6.07457 26.2982C3.98502 24.1589 2.69149 21.2733 2.69149 18.0395C2.69149 14.8057 3.98502 11.9201 6.12432 9.78079C8.21388 7.69123 11.1492 6.34795 14.383 6.34795C17.6169 6.34795 20.5024 7.64148 22.6417 9.78079C24.781 11.9201 26.0746 14.8057 26.0746 18.0395C26.0746 21.2733 24.781 24.1589 22.6417 26.2982C20.5522 28.4375 17.6169 29.731 14.4328 29.731H14.3333ZM17.5174 35.8504L16.8208 31.1738C17.1691 31.1241 17.5174 31.0246 17.8656 30.9251L22.791 33.7609L17.5671 35.8504H17.5174ZM24.2338 32.7161C24.2338 32.7161 24.184 32.7161 24.1343 32.6664L19.9054 30.2285C21.3482 29.5818 22.592 28.6863 23.6865 27.5917C25.6268 25.6017 26.9701 23.0644 27.4179 20.2783L31.8457 12.6166L34.781 14.3082L24.1343 32.7659L24.2338 32.7161ZM35.6766 12.8156L28.3631 8.58676L29.8557 6.04944L37.1691 10.2783L35.6766 12.8156ZM39.0099 7.04447L38.0149 8.78576L30.7014 4.55691L31.7462 2.76586C32.0447 2.2186 32.592 1.87034 33.1393 1.72108C33.7363 1.57183 34.383 1.62158 34.9303 1.96984L38.1641 3.86039C38.7114 4.1589 39.1094 4.70616 39.2587 5.30317C39.4079 5.90019 39.3582 6.54695 39.0099 7.09422V7.04447Z" fill="#FFB3B8"/>
</svg>
