<svg width="42" height="35" viewBox="0 0 42 35" fill="none" xmlns="http://www.w3.org/2000/svg">
<g clip-path="url(#clip0_424_61)">
<path d="M38.6744 23.2804C38.5682 20.2934 38.2124 17.5255 36.8857 12.8125C36.4435 11.2404 35.9782 10.1442 35.4898 9.05883H35.7657C37.7924 9.05883 39.4807 7.4373 39.5293 5.44518C39.5803 3.34765 37.8979 1.64706 35.8242 1.64706H30.8921C29.2253 1.64706 27.8986 2.93835 27.7775 4.52941H26.3536C25.899 4.52941 25.5301 4.89835 25.5301 5.35294C25.5301 5.80753 25.899 6.17647 26.3536 6.17647H28.0106L28.5277 8.4173C28.5516 8.52188 28.452 8.25012 30.0529 12.2665C30.8114 14.1672 30.5882 16.2285 29.4402 17.9225C28.2922 19.6165 26.4607 20.5882 24.4142 20.5882H18.5293C17.5937 20.5882 16.9069 19.7095 17.1334 18.8012L17.9758 15.4321C19.025 15.0006 19.7662 13.9679 19.7662 12.7655C19.7662 11.1761 18.4733 9.88318 16.8838 9.88318H14.0015V0.82353C14.0015 0.368941 13.6326 0 13.178 0H0.823376C0.368788 0 -0.000153033 0.368941 -0.000153033 0.82353V10.7059C-0.000153033 11.1605 0.368788 11.5294 0.823376 11.5294H3.57232C2.94808 12.8405 3.39773 14.4398 4.67173 15.2221C2.84596 16.478 1.64608 18.5805 1.64608 20.9588C1.64608 21.7782 1.64526 24.6573 1.64773 24.7298C0.619965 25.9486 -0.000976562 27.5199 -0.000976562 29.2353V29.6471C-0.000976562 30.1017 0.367965 30.4706 0.822553 30.4706H1.78938C2.34855 32.8399 4.47655 34.5882 6.99902 34.5882C9.52149 34.5882 11.6495 32.8374 12.2087 30.4706H13.1755C13.6301 30.4706 13.999 30.1017 13.999 29.6471C13.9966 29.2971 14.0064 29.1678 13.9858 28.8235H28.0122C27.9924 29.1678 28.0015 29.2979 27.999 29.6471C27.999 30.1017 28.368 30.4706 28.8226 30.4706H29.7894C30.3486 32.8399 32.4766 34.5882 34.999 34.5882C37.5215 34.5882 39.6495 32.8374 40.2087 30.4706H41.1755C41.6301 30.4706 41.999 30.1017 41.999 29.6471V29.2353C41.999 26.7227 40.6674 24.5157 38.6736 23.2804H38.6744ZM35.8234 3.29412C36.9755 3.29412 37.9102 4.23871 37.8814 5.40482C37.8567 6.41365 37.0653 7.25118 36.0614 7.39118L35.5936 3.29412H35.8234ZM29.9854 7.41177L29.4526 5.10341C29.2393 4.17859 29.9409 3.29412 30.8921 3.29412H33.9358L34.4061 7.41177H29.9846H29.9854ZM16.8822 11.5294C17.5633 11.5294 18.1175 12.0837 18.1175 12.7647C18.1175 13.4458 17.5633 14 16.8822 14H6.17632C5.49526 14 4.94102 13.4458 4.94102 12.7647C4.94102 12.0837 5.49526 11.5294 6.17632 11.5294H16.8822ZM1.64691 1.64706H12.3528V3.29412H1.64691V1.64706ZM1.64691 9.88236V4.94118H12.3528V9.88236H1.64691ZM6.99985 32.9412C5.38326 32.9412 4.00961 31.9266 3.50314 30.4706H10.4974C9.99091 31.9266 8.61644 32.9412 7.00067 32.9412H6.99985ZM1.66255 28.8235C1.87338 26.0639 4.18667 23.8824 6.99985 23.8824C9.81302 23.8824 12.1263 26.0639 12.3371 28.8235H1.66255ZM28.3095 27.1765H13.691C12.8098 24.318 10.1441 22.2353 7.00067 22.2353C5.6402 22.2353 4.37032 22.6265 3.29479 23.3009V20.9588C3.29479 18.0295 5.67726 15.6471 8.60655 15.6471H16.2234L15.5349 18.4018C15.049 20.3478 16.519 22.2353 18.5284 22.2353H24.4134C26.9762 22.2353 29.3653 20.9687 30.8031 18.8465C32.241 16.7242 32.5326 14.0362 31.5822 11.6554L30.5462 9.058H33.6822C34.3484 10.5272 34.817 11.536 35.3013 13.258C36.4616 17.3789 36.8536 19.9508 36.9936 22.5252C33.2828 21.4217 29.4303 23.5464 28.3111 27.1757L28.3095 27.1765ZM34.9998 32.9412C33.3833 32.9412 32.0096 31.9266 31.5031 30.4706H38.4974C37.9909 31.9266 36.6164 32.9412 35.0007 32.9412H34.9998ZM29.6626 28.8235C29.8734 26.0639 32.1867 23.8824 34.9998 23.8824C37.813 23.8824 40.1263 26.0639 40.3371 28.8235H29.6626Z" fill="#FFB3B8"/>
</g>
<defs>
<clipPath id="clip0_424_61">
<rect width="42" height="34.5882" fill="white"/>
</clipPath>
</defs>
</svg>
