<svg width="44" height="47" viewBox="0 0 44 47" fill="none" xmlns="http://www.w3.org/2000/svg">
<path fill-rule="evenodd" clip-rule="evenodd" d="M27.1832 36.5587C27.1832 40.5462 30.4321 43.7787 34.4398 43.7787C38.4475 43.7787 41.6963 40.5462 41.6963 36.5587C41.6963 35.7101 41.2948 34.5914 40.5384 33.296C39.7986 32.0289 38.796 30.7207 37.7687 29.5256C36.7451 28.335 35.7181 27.2813 34.9453 26.5239C34.7607 26.3431 34.591 26.1794 34.4398 26.0354C34.2886 26.1794 34.1189 26.3431 33.9342 26.5239C33.1615 27.2813 32.1345 28.335 31.1109 29.5256C30.0836 30.7207 29.081 32.0289 28.3412 33.296C27.5848 34.5914 27.1832 35.7101 27.1832 36.5587ZM33.6722 23.6136C33.6724 23.6133 33.6727 23.6132 34.4398 24.4681L33.6727 23.6132C34.1097 23.2249 34.7699 23.2249 35.2069 23.6132L34.4398 24.4681C35.2069 23.6132 35.2071 23.6133 35.2074 23.6136L35.2078 23.614L35.2096 23.6155L35.2151 23.6204C35.2199 23.6247 35.2266 23.6308 35.2354 23.6385C35.2526 23.6541 35.2777 23.6767 35.3101 23.7061C35.3747 23.7646 35.4683 23.8501 35.5866 23.9599C35.8231 24.1794 36.1594 24.4965 36.5619 24.8909C37.3657 25.6787 38.4408 26.7813 39.5193 28.0358C40.594 29.2859 41.6936 30.7115 42.5304 32.1446C43.3505 33.5493 44 35.0971 44 36.5587C44 41.8121 39.7198 46.0708 34.4398 46.0708C29.1598 46.0708 24.8796 41.8121 24.8796 36.5587C24.8796 35.0971 25.5291 33.5493 26.3492 32.1446C27.186 30.7115 28.2856 29.2859 29.3603 28.0358C30.4388 26.7813 31.5139 25.6787 32.3177 24.8909C32.7202 24.4965 33.0564 24.1794 33.293 23.9599C33.4113 23.8501 33.5048 23.7646 33.5695 23.7061C33.6018 23.6767 33.6269 23.6541 33.6442 23.6385L33.6527 23.6309L33.67 23.6155L33.6717 23.614L33.6722 23.6136ZM37.8001 4.54802L22 20.2688L6.19985 4.54802C6.30202 4.46677 6.4058 4.38746 6.51119 4.30999C7.80597 3.35855 9.43339 2.83504 11.9023 2.56572C14.3934 2.29388 17.5999 2.29228 22 2.29228C26.4001 2.29228 29.6066 2.29388 32.0977 2.56572C34.5666 2.83504 36.194 3.35855 37.4888 4.30999C37.5942 4.38746 37.698 4.46677 37.8001 4.54802ZM39.4292 6.16886L6.19985 39.2309C6.30202 39.3122 6.4058 39.3915 6.51119 39.469C7.80597 40.4204 9.43339 40.9439 11.9023 41.2133C14.3934 41.485 17.5999 41.4867 22 41.4867V43.7787H21.928C17.6147 43.7787 14.2824 43.7787 11.6512 43.4917C8.98349 43.2006 6.89844 42.603 5.14259 41.3126C4.12679 40.5661 3.22886 39.6727 2.47859 38.662C1.18164 36.915 0.581076 34.8405 0.288522 32.1861C-1.16164e-05 29.5682 -1.13741e-05 26.2527 1.44211e-07 21.9611V21.8178C-1.13741e-05 17.5263 -1.16164e-05 14.2107 0.288522 11.5928C0.581076 8.93848 1.18164 6.86393 2.47859 5.11691C3.22886 4.10622 4.12679 3.21278 5.14259 2.46637C6.89844 1.17593 8.98349 0.578388 11.6512 0.287296C14.2824 0.000213623 17.6147 0.000213623 21.9279 0.000213623H22.0721C26.3853 0.000213623 29.7176 0.000213623 32.3488 0.287296C35.0165 0.578388 37.1016 1.17593 38.8574 2.46637C39.8732 3.21278 40.7712 4.10622 41.5214 5.11691C42.8183 6.86393 43.4189 8.93848 43.7115 11.5928C44 14.2107 44 17.5263 44 21.8177V27.0753H41.6963V21.8895C41.6963 17.5115 41.6947 14.3212 41.4215 11.8426C41.1508 9.38612 40.6247 7.76689 39.6684 6.47863C39.5906 6.37377 39.5108 6.27051 39.4292 6.16886ZM4.57082 37.6101C4.48915 37.5084 4.40945 37.4052 4.33158 37.3003C3.37528 36.0121 2.84922 34.3928 2.57846 31.9363C2.30529 29.4578 2.30367 26.2674 2.30367 21.8895C2.30367 17.5115 2.30529 14.3212 2.57846 11.8426C2.84922 9.38612 3.37528 7.76689 4.33158 6.47863C4.40945 6.37377 4.48915 6.27051 4.57082 6.16886L20.3711 21.8895L4.57082 37.6101ZM32.1361 36.5587C32.1361 37.8246 33.1675 38.8508 34.4398 38.8508C35.7121 38.8508 36.7435 37.8246 36.7435 36.5587C36.7435 35.2928 35.7121 34.2666 34.4398 34.2666C33.1675 34.2666 32.1361 35.2928 32.1361 36.5587Z" fill="#3E2724"/>
</svg>
