<?xml version="1.0" encoding="UTF-8"?>
<svg xmlns="http://www.w3.org/2000/svg" version="1.1" xmlns:cc="http://creativecommons.org/ns#" xmlns:dc="http://purl.org/dc/elements/1.1/" xmlns:inkscape="http://www.inkscape.org/namespaces/inkscape" xmlns:rdf="http://www.w3.org/1999/02/22-rdf-syntax-ns#" xmlns:sodipodi="http://sodipodi.sourceforge.net/DTD/sodipodi-0.dtd" xmlns:svg="http://www.w3.org/2000/svg" viewBox="0 0 88.1 68.4">
  <defs>
    <style>
      .cls-1 {
        fill: #5f352f;
      }
    </style>
  </defs>
  <!-- Generator: Adobe Illustrator 28.6.0, SVG Export Plug-In . SVG Version: 1.2.0 Build 709)  -->
  <g>
    <g id="Layer_1">
      <g id="Layer_1-2" data-name="Layer_1">
        <path class="cls-1" d="M7,2.6c-2.8,0-5,2.2-5,5s2.2,5,5,5h74c2.8,0,5-2.2,5-5s-2.2-5-5-5c0,0-74,0-74,0ZM7,29.6c-2.8,0-5,2.2-5,5s2.2,5,5,5h74c2.8,0,5-2.2,5-5s-2.2-5-5-5c0,0-74,0-74,0ZM7,56.6c-2.8,0-5,2.2-5,5s2.2,5,5,5h74c2.8,0,5-2.2,5-5s-2.2-5-5-5H7Z"/>
      </g>
    </g>
  </g>
</svg>