<svg width="22" height="22" viewBox="0 0 22 22" fill="none" xmlns="http://www.w3.org/2000/svg">
<path fill-rule="evenodd" clip-rule="evenodd" d="M4.2625 15.4C4.39234 15.2269 4.59611 15.125 4.8125 15.125H8.25C8.6297 15.125 8.9375 15.4328 8.9375 15.8125C8.9375 16.1922 8.6297 16.5 8.25 16.5H5.15625L2.0625 20.625H19.9375L16.8438 16.5H13.75C13.3703 16.5 13.0625 16.1922 13.0625 15.8125C13.0625 15.4328 13.3703 15.125 13.75 15.125H17.1875C17.4039 15.125 17.6077 15.2269 17.7375 15.4L21.8625 20.9C22.0187 21.1083 22.0439 21.387 21.9274 21.62C21.811 21.8529 21.5729 22 21.3125 22H0.687504C0.427098 22 0.189042 21.8529 0.0725853 21.62C-0.0438717 21.387 -0.0187395 21.1083 0.137504 20.9L4.2625 15.4Z" fill="#5F352F"/>
<path fill-rule="evenodd" clip-rule="evenodd" d="M11 1.375C8.72183 1.375 6.875 3.22183 6.875 5.5C6.875 7.77817 8.72183 9.625 11 9.625C13.2782 9.625 15.125 7.77817 15.125 5.5C15.125 3.22183 13.2782 1.375 11 1.375ZM5.5 5.5C5.5 2.46243 7.96244 0 11 0C14.0376 0 16.5 2.46243 16.5 5.5C16.5 8.30474 14.4006 10.6191 11.6875 10.9574V18.5625C11.6875 18.9422 11.3797 19.25 11 19.25C10.6203 19.25 10.3125 18.9422 10.3125 18.5625V10.9574C7.59941 10.6191 5.5 8.30474 5.5 5.5Z" fill="#5F352F"/>
</svg>
