<svg width="41" height="29" viewBox="0 0 41 29" fill="none" xmlns="http://www.w3.org/2000/svg">
<path d="M19.7641 19.1796C19.7641 21.8893 18.8033 24.1955 16.9003 26.1173C15.0527 28.0391 12.8541 29 10.323 29C7.20055 29 4.7248 27.8085 2.87722 25.387C1.08508 23.1577 0.198242 20.4288 0.198242 17.2001C0.198242 11.2618 5.03889 5.51557 14.7571 0L16.1428 2.24851C12.8541 5.07356 11.2098 7.3605 11.2098 9.09013C11.2098 9.62823 11.9119 10.1663 13.2791 10.7044C15.3668 11.4924 16.771 12.2419 17.5285 12.9529C19.025 14.279 19.7825 16.3545 19.7825 19.1604L19.7641 19.1796ZM40.1982 19.1796C40.1982 21.8893 39.3299 24.1955 37.5932 26.1173C35.7456 28.0391 33.5285 29 30.9234 29C27.801 29 25.3253 27.8085 23.4777 25.387C21.6301 23.1577 20.7063 20.4288 20.7063 17.2001C20.7063 11.2618 25.547 5.51557 35.2652 0L36.8172 2.24851C33.4176 5.07356 31.6994 7.3605 31.6994 9.09013C31.6994 9.62823 32.4569 10.1663 33.9534 10.7044C35.9673 11.4924 37.3715 12.2419 38.1105 12.9529C39.4962 14.279 40.1982 16.3545 40.1982 19.1604V19.1796Z" fill="#FFB3B8"/>
</svg>
