<svg width="40" height="29" viewBox="0 0 40 29" fill="none" xmlns="http://www.w3.org/2000/svg">
<path id="Vector" d="M20.4342 9.82041C20.4342 7.11067 21.3949 4.80451 23.2979 2.8827C25.1455 0.960901 27.3441 0 29.8753 0C32.9977 0 35.4734 1.19152 37.321 3.61299C39.1132 5.84228 40 8.57124 40 11.7999C40 17.7382 35.1594 23.4844 25.4411 29L24.0554 26.7515C27.3441 23.9264 28.9885 21.6395 28.9885 19.9099C28.9885 19.3718 28.2864 18.8337 26.9192 18.2956C24.8314 17.5076 23.4273 16.7581 22.6697 16.0471C21.1732 14.721 20.4157 12.6455 20.4157 9.83963L20.4342 9.82041ZM0 9.82041C0 7.11067 0.86836 4.80451 2.60508 2.8827C4.45266 0.960901 6.66975 0 9.27483 0C12.3972 0 14.873 1.19152 16.7206 3.61299C18.5681 5.84228 19.4919 8.57124 19.4919 11.7999C19.4919 17.7382 14.6513 23.4844 4.93303 29L3.38106 26.7515C6.7806 23.9264 8.49885 21.6395 8.49885 19.9099C8.49885 19.3718 7.74134 18.8337 6.2448 18.2956C4.23095 17.5076 2.82679 16.7581 2.08776 16.0471C0.702079 14.721 0 12.6455 0 9.83963L0 9.82041Z" fill="#FFB3B8"/>
</svg>
