<?xml version="1.0" standalone="no"?>
<!DOCTYPE svg PUBLIC "-//W3C//DTD SVG 1.1//EN" "http://www.w3.org/Graphics/SVG/1.1/DTD/svg11.dtd" >
<svg xmlns="http://www.w3.org/2000/svg" xmlns:xlink="http://www.w3.org/1999/xlink" version="1.1">
<metadata>
Created by FontForge 20201107 at Wed Jun 14 10:44:23 2023
 By 
Copyright 2022 The Bricolage Grotesque Project Authors (https://github.com/ateliertriay/bricolage)
</metadata>
<defs>
<font id="BricolageGrotesque-Light" horiz-adv-x="0" >
  <font-face 
    font-family="Bricolage Grotesque Light"
    font-weight="300"
    font-stretch="normal"
    units-per-em="1000"
    panose-1="2 11 6 5 4 4 2 0 2 4"
    ascent="800"
    descent="-200"
    x-height="514"
    cap-height="660"
    bbox="-174 -327 1288 1119.13"
    underline-thickness="50"
    underline-position="-125"
    unicode-range="U+0020-27E9"
  />
<missing-glyph horiz-adv-x="650" 
d="M87 -54v739h476v-739h-476zM145 4h360v623h-360v-623zM287 104q-35 0 -35 32t35 32t35 -32t-35 -32zM264 212q-4 46 6.5 74t29 45.5t37.5 30.5t32 29.5t13 43.5q0 34 -23 52t-57 18q-16 0 -32 -4.5t-32 -15t-31 -28.5l-6 42q19 25 47 37t57 12q33 0 61 -13t45.5 -38
t17.5 -61q0 -33 -14 -53t-33.5 -34.5t-38.5 -30t-30.5 -40.5t-8.5 -66h-40z" />
    <glyph glyph-name=".notdef" horiz-adv-x="650" 
d="M87 -54v739h476v-739h-476zM145 4h360v623h-360v-623zM287 104q-35 0 -35 32t35 32t35 -32t-35 -32zM264 212q-4 46 6.5 74t29 45.5t37.5 30.5t32 29.5t13 43.5q0 34 -23 52t-57 18q-16 0 -32 -4.5t-32 -15t-31 -28.5l-6 42q19 25 47 37t57 12q33 0 61 -13t45.5 -38
t17.5 -61q0 -33 -14 -53t-33.5 -34.5t-38.5 -30t-30.5 -40.5t-8.5 -66h-40z" />
    <glyph glyph-name=".null" 
 />
    <glyph glyph-name="nonmarkingreturn" horiz-adv-x="333" 
 />
    <glyph glyph-name="space" unicode=" " horiz-adv-x="257" 
 />
    <glyph glyph-name="exclam" unicode="!" horiz-adv-x="237" 
d="M95 156l-23 505h93l-23 -505h-47zM118 -11q-27 0 -40.5 12t-13.5 37q0 27 13.5 39t40.5 12q28 0 42 -12t14 -39q0 -49 -56 -49z" />
    <glyph glyph-name="quotedbl" unicode="&#x22;" horiz-adv-x="270" 
d="M44 461l-11 233h73l-13 -233h-49zM176 461l-11 233h73l-13 -233h-49z" />
    <glyph glyph-name="numbersign" unicode="#" horiz-adv-x="595" 
d="M314 0l131 660h70l-132 -660h-69zM26 207v63h520v-63h-520zM81 0l131 660h70l-131 -660h-70zM49 422v64h520v-64h-520z" />
    <glyph glyph-name="dollar" unicode="$" horiz-adv-x="614" 
d="M278 648l-17 133h83l-17 -133h-49zM261 -124l17 132h49l17 -132h-83zM306 -1q-64 0 -112.5 14t-80 40.5t-46.5 66.5t-10 92l67 11q-6 -55 15.5 -90t65 -52.5t103.5 -17.5q58 0 98 14t61 40t21 61q0 39 -24.5 60.5t-63.5 33t-85 21.5q-45 10 -88.5 21.5t-79.5 31.5
t-57.5 51.5t-21.5 81.5q0 56 28.5 97t79.5 63.5t120 22.5q67 0 121 -21.5t86 -65t33 -108.5l-70 -15q0 37 -12 64.5t-35 45.5t-54.5 27.5t-70.5 9.5q-45 0 -80 -14.5t-55 -40t-20 -61.5q0 -41 28 -64.5t73 -36.5t96 -23q42 -9 81.5 -21t71.5 -31.5t51 -50.5t19 -79
q0 -54 -28.5 -94t-84.5 -62t-140 -22z" />
    <glyph glyph-name="percent" unicode="%" horiz-adv-x="914" 
d="M211 302q-49 0 -90 21.5t-65 63.5t-24 102q0 47 14.5 82t39.5 58t57.5 34.5t67.5 11.5q48 0 88.5 -21.5t65 -63t24.5 -103.5q0 -64 -26 -105t-66.5 -60.5t-85.5 -19.5zM214 366q26 0 50.5 12.5t40.5 38.5t16 69q0 47 -18 74.5t-44.5 39t-51.5 11.5q-26 0 -50.5 -12.5
t-40.5 -38.5t-16 -68q0 -44 17 -72t44 -41t53 -13zM704 -18q-49 0 -90 21.5t-64.5 63.5t-23.5 102q0 47 14 82t39 58t57.5 34.5t67.5 11.5q49 0 89.5 -21.5t64.5 -63t24 -103.5q0 -64 -25.5 -105t-66 -60.5t-86.5 -19.5zM707 46q26 0 50.5 12.5t40.5 38t16 68.5q0 48 -18 75
t-44 39t-51 12q-27 0 -51.5 -12.5t-40.5 -39t-16 -68.5q0 -44 17.5 -71.5t44 -40.5t52.5 -13zM207 0l409 660h77l-408 -660h-78z" />
    <glyph glyph-name="ampersand" unicode="&#x26;" horiz-adv-x="749" 
d="M559 -12q-51 0 -97.5 25t-87 68t-73.5 96.5t-56.5 110t-36.5 110.5t-13 96q0 48 17.5 88.5t54 65.5t93.5 25q51 0 86.5 -19.5t54.5 -52.5t19 -74q0 -35 -17 -68.5t-55 -61.5t-103 -46l-8 21q61 37 86 70.5t25 73.5q0 41 -23.5 67t-64.5 26q-33 0 -53 -15.5t-29 -42
t-9 -58.5q0 -36 10.5 -82.5t30.5 -95.5t46.5 -96t58.5 -84t68 -59t74 -22q34 0 53.5 18.5t19.5 46.5q0 31 -21.5 58.5t-61.5 49t-98 32.5v79h232v-65l-184 23v-19q100 -20 151 -64t51 -104q0 -30 -12.5 -53t-32.5 -38t-45 -22.5t-50 -7.5zM213 -12q-52 0 -90.5 21
t-59.5 57.5t-21 81.5q0 38 14.5 68.5t41.5 55.5t65.5 43t87.5 29l6 -42q-68 -22 -105.5 -59.5t-37.5 -85.5q0 -26 12 -51t38 -40t67 -15q42 0 73 18t58 46l15 -16q-15 -32 -36.5 -57t-52.5 -39.5t-75 -14.5z" />
    <glyph glyph-name="quotesingle" unicode="'" horiz-adv-x="139" 
d="M44 461l-11 233h73l-13 -233h-49z" />
    <glyph glyph-name="parenleft" unicode="(" horiz-adv-x="285" 
d="M254 682q-29 -53 -49.5 -105.5t-33 -104t-18.5 -101.5t-6 -98q0 -76 12.5 -144.5t37 -131t58.5 -119.5h-85q-37 67 -59.5 133.5t-32 133.5t-9.5 134q0 66 9.5 134t31.5 135.5t60 133.5h84z" />
    <glyph glyph-name="parenright" unicode=")" horiz-adv-x="263" 
d="M9 682h84q38 -66 60 -133.5t31.5 -135.5t9.5 -134q0 -67 -9.5 -134t-32 -133.5t-60.5 -133.5h-84q34 57 58 119.5t37 131t13 144.5q0 48 -6 98t-18.5 101.5t-33 104t-49.5 105.5z" />
    <glyph glyph-name="asterisk" unicode="*" horiz-adv-x="354" 
d="M112 393l-62 44l93 88l-1 6l-127 26l22 73l117 -64l3 4l-18 124h75l-18 -124l4 -4l116 64l23 -73l-127 -26l-1 -5l97 -88l-61 -45l-66 111h-6z" />
    <glyph glyph-name="plus" unicode="+" horiz-adv-x="502" 
d="M218 109v383h67v-383h-67zM61 269v64h380v-64h-380z" />
    <glyph glyph-name="comma" unicode="," horiz-adv-x="132" 
d="M0 -137q18 46 25.5 82t9 66t1.5 56h72q0 -46 -6.5 -83.5t-17 -67.5t-21.5 -53h-63z" />
    <glyph glyph-name="hyphen" unicode="-" horiz-adv-x="322" 
d="M32 232v68h258v-68h-258z" />
    <glyph glyph-name="period" unicode="." horiz-adv-x="157" 
d="M78 -11q-27 0 -41 12t-14 37q0 27 14 39t41 12q28 0 41.5 -12t13.5 -39q0 -49 -55 -49z" />
    <glyph glyph-name="slash" unicode="/" horiz-adv-x="343" 
d="M6 -81l259 775h72l-259 -775h-72z" />
    <glyph glyph-name="zero" unicode="0" horiz-adv-x="642" 
d="M322 -14q-59 0 -107 24.5t-81.5 70t-51 108t-17.5 137.5q0 108 32.5 185.5t90.5 119.5t135 42q80 0 136.5 -44.5t87 -122t30.5 -180.5q0 -74 -17 -136t-50.5 -108t-80.5 -71t-107 -25zM321 53q41 0 74 18t57.5 53.5t38 87.5t13.5 120q0 84 -22.5 146t-63.5 95.5t-96 33.5
q-50 0 -92 -30t-67 -91.5t-25 -155.5q0 -67 13.5 -118.5t37.5 -87t57.5 -53.5t74.5 -18z" />
    <glyph glyph-name="one" unicode="1" horiz-adv-x="288" 
d="M126 0v525h-94v66q43 0 74 13t40 56h55v-660h-75z" />
    <glyph glyph-name="two" unicode="2" horiz-adv-x="560" 
d="M50 0v94l227 183q23 19 47.5 41.5t45.5 49.5t34.5 57t13.5 64t-16 60.5t-47.5 41.5t-78.5 15q-29 0 -56 -7.5t-48 -27.5t-32 -55.5t-9 -90.5l-72 11q-2 71 20.5 124.5t72 83.5t125.5 30q66 0 114 -22t74 -62.5t26 -94.5q0 -47 -15.5 -85.5t-39.5 -71t-53 -59.5t-56 -48
l-199 -161v-7l382 3v-66h-460z" />
    <glyph glyph-name="three" unicode="3" horiz-adv-x="582" 
d="M270 -14q-59 0 -103 14t-72.5 39.5t-43 61t-16.5 78.5l71 19q1 -45 16.5 -74t40 -44.5t53 -21.5t54.5 -6q49 0 90 13t65.5 42t24.5 78q0 60 -34.5 93.5t-96 47t-141.5 12.5v53l235 198v7l-353 -2v66h428v-85l-218 -184v-7q91 -1 147 -26.5t81.5 -69.5t25.5 -101
q0 -60 -28.5 -105.5t-85 -70.5t-140.5 -25z" />
    <glyph glyph-name="four" unicode="4" horiz-adv-x="565" 
d="M28 149v91q46 44 89.5 95.5t82 106.5t69 110.5t51.5 108.5h129v-661h-73v599h-8q-34 -78 -77 -146t-91 -125t-98 -105v-9h428v-65h-502z" />
    <glyph glyph-name="five" unicode="5" horiz-adv-x="585" 
d="M283 -14q-68 0 -118 20.5t-77 60.5t-27 97l68 19q3 -62 39.5 -96t112.5 -34q80 0 123.5 41.5t43.5 130.5q0 31 -6 60t-21.5 51.5t-42 36.5t-66.5 14q-36 0 -62 -9.5t-43 -25t-27 -33.5t-15 -36h-89l21 377h396v-66h-331l-16 -253h12q20 61 67 86t102 25q68 0 111.5 -28.5
t64.5 -79.5t21 -118q0 -86 -31.5 -139t-86 -77t-123.5 -24z" />
    <glyph glyph-name="six" unicode="6" horiz-adv-x="632" 
d="M338 -14q-127 0 -200 84.5t-73 251.5q0 105 29.5 184t88.5 123.5t147 44.5q46 0 83.5 -12.5t66 -37t46.5 -60.5t22 -84l-71 -16q-5 49 -25 80.5t-51 46.5t-71 15q-52 0 -89.5 -24t-60 -65.5t-33.5 -93.5t-11 -109q0 -37 5.5 -77t15.5 -75h10q-5 64 10 110t43.5 74.5
t66.5 42.5t78 14q55 0 101 -23t74.5 -68t28.5 -112q0 -44 -14 -82.5t-42.5 -68.5t-72 -46.5t-102.5 -16.5zM331 51q47 0 78 13.5t50 35t27 48t8 53.5q0 49 -21 80t-53 45.5t-68 14.5q-48 0 -83 -20.5t-54 -57t-19 -86.5q0 -39 12 -63.5t32 -38t43.5 -19t47.5 -5.5z" />
    <glyph glyph-name="seven" unicode="7" horiz-adv-x="475" 
d="M144 0q0 73 13 153.5t40.5 159.5t71 150t103.5 126v7l-344 -3v67h416v-76q-54 -53 -95.5 -117t-69.5 -137t-42.5 -156t-14.5 -174h-78z" />
    <glyph glyph-name="eight" unicode="8" horiz-adv-x="632" 
d="M316 -14q-76 0 -134 20t-90.5 59.5t-32.5 97.5q0 48 21.5 82.5t57.5 55.5t80 28v6l97 10l97 -8v-7q42 -4 78.5 -25t59 -56t22.5 -86q0 -58 -32 -97.5t-90 -59.5t-134 -20zM316 55q27 0 58.5 5t59.5 17t45.5 34t17.5 55q0 42 -27 72.5t-68.5 47t-86.5 16.5
q-43 0 -84.5 -16t-68.5 -45.5t-27 -72.5q0 -32 17.5 -54t45.5 -35t59 -18.5t59 -5.5zM315 368q37 0 73 14.5t60.5 42.5t24.5 69q0 31 -15.5 52t-39.5 34.5t-52 19t-55 5.5q-35 0 -71 -10t-60 -34t-24 -64q0 -41 23.5 -70t60 -44t75.5 -15zM315 315l-97 12v15q-37 8 -68.5 27
t-50.5 51t-19 78q0 57 30.5 96t83 59.5t121.5 20.5q73 0 125 -21.5t79.5 -61t27.5 -94.5q0 -63 -36 -102t-99 -53v-14z" />
    <glyph glyph-name="nine" unicode="9" horiz-adv-x="625" 
d="M299 -14q-49 0 -89.5 11.5t-70.5 35.5t-48 60t-23 84l69 18q5 -45 21.5 -73t39.5 -43t48.5 -20t49.5 -5q56 0 93 20.5t59 57.5t31.5 85.5t9.5 104.5q0 32 -3 62t-8 58.5t-10 54.5h-13q7 -62 -6 -107t-41.5 -74.5t-66.5 -44t-78 -14.5q-55 0 -100.5 24.5t-72.5 70.5
t-27 109q0 44 13.5 82.5t41.5 67.5t70 46t99 17q85 0 146 -41t94 -120.5t33 -196.5q0 -99 -26.5 -173.5t-84 -115.5t-150.5 -41zM278 318q44 0 78 20.5t53 58t19 86.5q0 51 -20 78t-49.5 37.5t-61.5 10.5q-46 0 -76.5 -13t-49 -35t-26.5 -48t-8 -52q0 -47 20 -79t52 -48
t69 -16z" />
    <glyph glyph-name="colon" unicode=":" horiz-adv-x="168" 
d="M83 36q-27 0 -41 12t-14 37q0 27 14 39t41 12q28 0 41.5 -12t13.5 -39q0 -49 -55 -49zM83 353q-27 0 -41 12t-14 37q0 27 14 39t41 12q28 0 41.5 -12t13.5 -39q0 -49 -55 -49z" />
    <glyph glyph-name="semicolon" unicode=";" horiz-adv-x="153" 
d="M0 -137q18 46 25.5 82t9 66t1.5 56h72q0 -46 -6.5 -83.5t-17 -67.5t-21.5 -53h-63zM73 352q-27 0 -41 12t-14 37q0 27 14 39t41 12q28 0 41.5 -12t13.5 -39q0 -49 -55 -49z" />
    <glyph glyph-name="less" unicode="&#x3c;" horiz-adv-x="502" 
d="M441 90l-380 184v94l380 184v-81l-314 -145v-12l314 -145v-79z" />
    <glyph glyph-name="equal" unicode="=" horiz-adv-x="502" 
d="M61 350v68h380v-68h-380zM61 177v67h380v-67h-380z" />
    <glyph glyph-name="greater" unicode="&#x3e;" horiz-adv-x="502" 
d="M61 90v79l314 145v12l-314 145v81l380 -184v-94z" />
    <glyph glyph-name="question" unicode="?" horiz-adv-x="404" 
d="M120 156q-5 59 5.5 98.5t31 65.5t45 45t47.5 36.5t37.5 40.5t14.5 56q0 53 -35 80.5t-87 27.5q-25 0 -50 -7.5t-49 -23.5t-47 -43l-10 67q19 25 45 41.5t55.5 24.5t60.5 8q38 0 72.5 -11t61.5 -33t42.5 -54t15.5 -75t-15.5 -70.5t-39 -47.5t-49.5 -38.5t-48 -41.5
t-33.5 -58t-7.5 -88h-63zM156 -11q-27 0 -41 12t-14 37q0 27 14 39t41 12t41 -12t14 -39q0 -49 -55 -49z" />
    <glyph glyph-name="at" unicode="@" horiz-adv-x="911" 
d="M455 -93q-90 0 -161.5 23.5t-121.5 69.5t-76 114.5t-26 158.5t26 158.5t76 115t121.5 70.5t161.5 24q91 0 162.5 -24t121 -70.5t76 -115t26.5 -158.5t-26.5 -158.5t-76.5 -114.5t-121.5 -69.5t-161.5 -23.5zM455 -30q102 0 173 33.5t108 100.5t37 169t-37 169.5t-108 101
t-173 33.5t-173 -33.5t-107.5 -101t-36.5 -169.5t36.5 -169t107.5 -100.5t173 -33.5zM411 129q19 0 38 6t36.5 19t33.5 33t28 49v73l22 -3q-14 -15 -41 -21.5t-59 -11t-61 -12t-48 -23.5t-19 -47q0 -29 20 -45.5t50 -16.5zM393 75q-32 0 -59.5 11.5t-44.5 36t-17 61.5
q0 38 16 61.5t43 37t59 20.5t65 11q35 5 55 10t28.5 14t8.5 24q0 18 -10 33t-28.5 24.5t-48.5 9.5q-23 0 -47 -7.5t-41.5 -26t-21.5 -52.5l-67 20q5 29 19.5 52.5t37.5 39.5t53.5 24.5t66.5 8.5q52 0 83 -15t47 -39t21.5 -51t5.5 -50v-91q0 -19 1 -39t1.5 -40.5t2 -39.5
t2.5 -37h-62q-2 28 -3 53.5t-2 49.5h-11q-11 -35 -32.5 -60.5t-51.5 -39.5t-69 -14z" />
    <glyph glyph-name="A" unicode="A" horiz-adv-x="640" 
d="M32 0l234 660h108l234 -660h-79l-204 595h-10l-203 -595h-80zM136 154v61h376v-61h-376z" />
    <glyph glyph-name="B" unicode="B" horiz-adv-x="642" 
d="M87 0v660h231q54 0 98.5 -10t76 -30.5t48.5 -53t17 -77.5q0 -38 -15 -67t-47.5 -48t-84.5 -28v-11q91 -8 132 -50t41 -110q0 -56 -25.5 -95t-79 -59.5t-137.5 -20.5h-255zM159 66h194q36 0 65 6t49.5 19t31.5 34.5t11 51.5q0 28 -10 50t-28.5 37.5t-45 25.5t-60.5 14.5
t-74 4.5h-133v-243zM159 369h118q48 0 86.5 6.5t65 20t40.5 35t14 52.5q0 30 -12.5 51t-35.5 34.5t-56 20t-74 6.5h-146v-226z" />
    <glyph glyph-name="C" unicode="C" horiz-adv-x="658" 
d="M359 -12q-69 0 -124 22t-93 65.5t-57.5 105.5t-19.5 141q0 80 20 144.5t58 110.5t91.5 70.5t120.5 24.5q51 0 94.5 -14.5t75 -42t49.5 -67t18 -87.5l-71 -17q1 54 -21.5 89.5t-61 53.5t-84.5 18q-43 0 -81.5 -17t-68 -51t-47 -87t-17.5 -127q0 -93 27.5 -152t77.5 -86.5
t118 -27.5q63 0 102.5 23t59 65.5t22.5 101.5l68 -13q-1 -51 -16 -95.5t-46 -78.5t-79 -53t-115 -19z" />
    <glyph glyph-name="D" unicode="D" horiz-adv-x="675" 
d="M129 0v66h196q52 0 91.5 19t65.5 54t39 83t13 106t-11.5 107t-38 84.5t-72.5 55t-116 19.5h-167v66h166q109 0 178.5 -39t103 -112t33.5 -174q0 -78 -17 -135t-46 -95.5t-66 -61.5t-76.5 -33t-77.5 -10h-198zM87 0v660h74v-660h-74z" />
    <glyph glyph-name="E" unicode="E" horiz-adv-x="572" 
d="M87 0v660h75v-660h-75zM117 0v66h418v-66h-418zM117 306v64h371v-64h-371zM117 594v66h417v-66h-417z" />
    <glyph glyph-name="F" unicode="F" horiz-adv-x="558" 
d="M87 0v660h74v-660h-74zM113 294v66h375v-66h-375zM113 593v67h421v-67h-421z" />
    <glyph glyph-name="G" unicode="G" horiz-adv-x="686" 
d="M342 -12q-80 0 -143 37.5t-98.5 112.5t-35.5 190q0 80 19 143.5t56.5 108.5t92 68.5t126.5 23.5q52 0 95 -13.5t75.5 -39.5t52.5 -64.5t26 -88.5l-72 -19q-4 44 -20.5 74.5t-41.5 49t-55 26.5t-61 8q-46 0 -85.5 -15.5t-68.5 -48t-45.5 -85t-16.5 -127.5
q0 -79 17.5 -131.5t47 -83.5t67.5 -44t77 -13q56 0 96 21.5t64.5 65.5t31.5 111h-157v64h231v-93v-226h-67l24 184h-13q-13 -66 -40.5 -109.5t-71.5 -65t-107 -21.5z" />
    <glyph glyph-name="H" unicode="H" horiz-adv-x="688" 
d="M526 0v660h75v-660h-75zM87 0v660h74v-660h-74zM120 305v66h436v-66h-436z" />
    <glyph glyph-name="I" unicode="I" horiz-adv-x="250" 
d="M87 0v660h76v-660h-76z" />
    <glyph glyph-name="J" unicode="J" horiz-adv-x="337" 
d="M24 -9l-16 71q10 -1 19 -1.5t15 -0.5q58 0 87 19t39 56.5t10 91.5v433h74v-433q0 -69 -16.5 -122.5t-60.5 -84t-125 -30.5h-11t-15 1z" />
    <glyph glyph-name="K" unicode="K" horiz-adv-x="640" 
d="M87 0v660h74v-321q59 18 114 50t102 74.5t82 92.5t52 104h81q-20 -61 -53.5 -112.5t-75.5 -93.5t-87 -72.5t-91 -48.5v-12q54 -1 95 -15t73.5 -41t58.5 -66.5t47 -92.5l38 -106h-83l-25 78q-24 66 -55.5 110.5t-81.5 67.5t-131 23h-60v-279h-74z" />
    <glyph glyph-name="L" unicode="L" horiz-adv-x="501" 
d="M87 0v660h74v-660h-74zM117 0v67h362v-67h-362z" />
    <glyph glyph-name="M" unicode="M" horiz-adv-x="868" 
d="M87 0v660h118l228 -586h5l229 586h114v-660h-72l5 585h-6l-234 -585h-80l-232 586h-7l5 -586h-73z" />
    <glyph glyph-name="N" unicode="N" horiz-adv-x="712" 
d="M87 0v660h101l363 -564h6l-5 564h72v-660h-93l-369 573h-7l5 -573h-73z" />
    <glyph glyph-name="O" unicode="O" horiz-adv-x="705" 
d="M354 -13q-72 0 -126.5 24.5t-90.5 70t-54 107.5t-18 138q0 114 37 191t102 115.5t149 38.5q66 0 118.5 -23t90.5 -68t58.5 -109t20.5 -146q0 -75 -18.5 -137.5t-54 -107.5t-89.5 -69.5t-125 -24.5zM351 54q33 0 70 11.5t70 40t53.5 82t20.5 137.5q0 101 -30 162
t-77.5 89.5t-102.5 28.5q-31 0 -68 -11t-70.5 -40t-55 -84t-21.5 -143q0 -81 19 -134t50 -83.5t68.5 -43t73.5 -12.5z" />
    <glyph glyph-name="P" unicode="P" horiz-adv-x="608" 
d="M118 209v66h159q21 0 48.5 1.5t56.5 9t53.5 25t39.5 48t15 79.5q0 47 -15 76.5t-39 46t-51 24t-50.5 9t-38.5 1.5h-178v65h186q57 0 105 -13.5t83.5 -41t55 -70t19.5 -100.5q0 -72 -32.5 -122.5t-99 -77t-165.5 -26.5h-152zM87 0v660h74v-660h-74z" />
    <glyph glyph-name="Q" unicode="Q" horiz-adv-x="709" 
d="M635 -130q-60 -11 -104 -13t-79.5 0t-70.5 7.5t-76.5 11t-97 8.5t-134.5 1v69q38 0 73 0.5t68 4t64.5 10t63 17.5t63.5 29v13q-61 -19 -113.5 -14.5t-94.5 28.5t-71.5 66t-45 97.5t-15.5 122.5q0 77 19 140.5t56.5 109t90.5 70t122 24.5q88 0 153.5 -40.5t101.5 -117.5
t36 -187q0 -78 -19.5 -138.5t-61 -106t-106.5 -79t-155 -57.5v-10q47 -5 85 -8.5t75 -4.5t78 3t95 14v-70zM353 57q38 0 76.5 12t70 42t50 84.5t18.5 137.5q0 67 -14.5 114.5t-37.5 78t-51.5 47.5t-57 24t-52.5 7q-62 0 -110.5 -29t-76 -91t-27.5 -159q0 -83 20.5 -135.5
t53 -81t69.5 -40t69 -11.5z" />
    <glyph glyph-name="R" unicode="R" horiz-adv-x="635" 
d="M87 0v660h217q48 0 88.5 -8t72.5 -23.5t54 -38.5t34 -54t12 -68q0 -35 -10.5 -64t-30.5 -51t-51 -36t-72 -19v-12q30 -5 56 -17t47 -39.5t35 -76.5l43 -153h-79l-35 136q-10 44 -34.5 70.5t-56.5 38.5t-69 12h-147v-257h-74zM161 321h116q21 0 48.5 1.5t56.5 7.5t53 20.5
t39 40.5t15 67t-15 67t-38 40.5t-50.5 21t-52 7.5t-42.5 1h-130v-274z" />
    <glyph glyph-name="S" unicode="S" horiz-adv-x="624" 
d="M311 -12q-65 0 -114.5 14t-81.5 42t-47 69t-11 95l68 11q-5 -56 16.5 -93t66 -54.5t105.5 -17.5q59 0 100 14.5t62.5 41.5t21.5 62q0 40 -25 62.5t-64.5 35t-87.5 22.5q-45 9 -90 21.5t-81 33t-58 53.5t-22 84q0 58 29 100t81 65t122 23q69 0 123.5 -22t87.5 -66.5
t34 -111.5l-71 -16q0 38 -12.5 66.5t-36 47.5t-55.5 28.5t-72 9.5q-46 0 -81.5 -15t-56 -41.5t-20.5 -62.5q0 -43 28.5 -67.5t74.5 -37.5t97 -25q44 -9 84 -21t73 -32t52 -52.5t19 -81.5q0 -56 -29 -97.5t-86 -64t-143 -22.5z" />
    <glyph glyph-name="T" unicode="T" horiz-adv-x="532" 
d="M229 0v660h74v-660h-74zM26 593v67h479v-67h-479z" />
    <glyph glyph-name="U" unicode="U" horiz-adv-x="701" 
d="M351 -13q-51 0 -93.5 11.5t-75 33.5t-55 53.5t-34 72.5t-11.5 90v412h75v-408q0 -53 18 -97.5t60.5 -71t114.5 -26.5q76 0 118 27t59 71.5t17 96.5v408h75v-412q0 -64 -18.5 -112.5t-53.5 -82t-84.5 -50t-111.5 -16.5z" />
    <glyph glyph-name="V" unicode="V" horiz-adv-x="636" 
d="M264 0l-232 660h81l200 -592h9l202 592h80l-234 -660h-106z" />
    <glyph glyph-name="W" unicode="W" horiz-adv-x="924" 
d="M207 0l-171 660h79l144 -590h8l144 590h103l140 -590h8l148 590h78l-175 -660h-109l-138 588h-8l-142 -588h-109z" />
    <glyph glyph-name="X" unicode="X" horiz-adv-x="603" 
d="M38 0l216 329l-220 331h88l175 -281h5l175 281h89l-219 -330l223 -330h-88l-180 283h-5l-172 -283h-87z" />
    <glyph glyph-name="Y" unicode="Y" horiz-adv-x="557" 
d="M241 0v216l-226 444h85l177 -368h4l175 368h86l-226 -444v-216h-75z" />
    <glyph glyph-name="Z" unicode="Z" horiz-adv-x="547" 
d="M34 0v73l380 509v11h-365v67h453v-76l-379 -507v-10h390v-67h-479z" />
    <glyph glyph-name="bracketleft" unicode="[" horiz-adv-x="302" 
d="M87 -120v784h73v-784h-73zM87 -120v63h190v-63h-190zM87 614v65h190v-65h-190z" />
    <glyph glyph-name="backslash" unicode="\" horiz-adv-x="325" 
d="M319 -81h-72l-259 775h72z" />
    <glyph glyph-name="bracketright" unicode="]" horiz-adv-x="279" 
d="M197 -120h-73v784h73v-784zM197 -120h-190v63h190v-63zM197 614h-190v65h190v-65z" />
    <glyph glyph-name="asciicircum" unicode="^" horiz-adv-x="519" 
d="M21 317l190 340h98l189 -340h-81l-150 276h-13l-152 -276h-81z" />
    <glyph glyph-name="underscore" unicode="_" horiz-adv-x="603" 
d="M0 -93v69h603v-69h-603z" />
    <glyph glyph-name="grave" unicode="`" horiz-adv-x="283" 
d="M109 595l-89 148h86l70 -148h-67z" />
    <glyph glyph-name="a" unicode="a" horiz-adv-x="543" 
d="M199 -12q-42 0 -76 15.5t-54 47t-20 80.5q0 50 21 81t55.5 48.5t75 26t81.5 14.5q44 6 68 11.5t34 16.5t10 33q0 29 -12.5 51.5t-37.5 35.5t-64 13q-31 0 -63 -10t-55.5 -35t-29.5 -70l-69 23q6 36 23.5 64.5t45 49.5t64.5 32t81 11q63 0 101 -18.5t57 -48.5t26 -65
t7 -68v-118q0 -31 1 -67.5t4 -73.5t6 -68h-70q-3 35 -4 68t-2 67h-11q-14 -39 -39.5 -72.5t-63 -54t-90.5 -20.5zM215 51q23 0 47.5 8t49 25.5t45.5 45.5t38 68v98l28 -3q-15 -17 -42.5 -25.5t-61.5 -13.5t-68.5 -11t-63.5 -17.5t-46.5 -32.5t-17.5 -57q0 -42 25.5 -63.5
t66.5 -21.5z" />
    <glyph glyph-name="b" unicode="b" horiz-adv-x="593" 
d="M331 -12q-50 0 -84.5 20t-56 54.5t-33.5 76.5h-14l7 -139h-70v253v441h74v-157q0 -26 -2 -56t-6 -60.5t-9 -60.5h16q11 42 31 80t56.5 62.5t91.5 24.5q65 0 110.5 -34.5t70.5 -95.5t25 -140t-24.5 -139.5t-70 -95t-112.5 -34.5zM320 54q44 0 76 24.5t48.5 69.5t16.5 106
q0 59 -16.5 105t-48 73t-78.5 27q-34 0 -61 -14t-46.5 -37t-32 -49.5t-18.5 -53t-6 -46.5v-10q0 -31 11.5 -65.5t33 -63.5t52 -47.5t69.5 -18.5z" />
    <glyph glyph-name="c" unicode="c" horiz-adv-x="541" 
d="M296 -12q-67 0 -113 22t-74 59.5t-41 85t-13 97.5q0 56 14.5 105.5t43.5 88t73.5 60t103.5 21.5q44 0 80 -11.5t63 -33.5t44 -53t22 -69l-71 -18q-2 28 -17 55.5t-45 45.5t-75 18q-40 0 -70 -15t-50 -43t-31 -66t-11 -84q0 -61 18.5 -106t55.5 -70t94 -25q43 0 73.5 15
t49 42.5t24.5 67.5l69 -15q-7 -45 -26.5 -78t-47.5 -54t-64.5 -31.5t-78.5 -10.5z" />
    <glyph glyph-name="d" unicode="d" horiz-adv-x="591" 
d="M261 -12q-65 0 -111.5 34t-70.5 95t-24 140q0 78 24 139t69.5 96t111.5 35q56 0 91.5 -24.5t56.5 -62.5t31 -80h15q-4 30 -8 62.5t-6.5 63.5t-2.5 56v152h74v-441v-253h-69l7 139h-14q-12 -43 -34 -77t-56 -54t-84 -20zM272 54q39 0 69.5 18.5t52 48t32.5 63.5t11 65v10
q0 20 -5.5 46t-18 53t-31.5 50t-45.5 37t-60.5 14q-48 0 -80 -27t-48.5 -73t-16.5 -106t16.5 -104.5t48.5 -69.5t76 -25z" />
    <glyph glyph-name="e" unicode="e" horiz-adv-x="555" 
d="M297 -12q-60 0 -105.5 18.5t-76 53.5t-46 83t-15.5 106q0 60 15.5 110.5t45.5 88.5t74 58.5t100 20.5q48 0 88.5 -16.5t69.5 -50.5t43.5 -86t12.5 -123l-404 -4v57l357 3l-24 -42q4 65 -13 108.5t-50.5 65.5t-79.5 22q-50 0 -86.5 -25t-56.5 -72.5t-20 -113.5
q0 -95 43 -146.5t129 -51.5q34 0 59 8t43 22.5t29 34t17 42.5l65 -15q-9 -37 -27 -66t-45.5 -49t-62.5 -30.5t-79 -10.5z" />
    <glyph glyph-name="f" unicode="f" horiz-adv-x="357" 
d="M123 0v373h-94v62l126 -9v17q-23 10 -39 27t-24 40t-8 49q0 41 17.5 72t50 49.5t78.5 18.5q35 0 63.5 -10.5t48.5 -28.5l-12 -70q-18 18 -44 29t-53 11q-35 0 -56.5 -23t-21.5 -68q0 -25 6.5 -45.5t18 -34.5t24.5 -23h126v-63h-134v-373h-73z" />
    <glyph glyph-name="g" unicode="g" horiz-adv-x="574" 
d="M270 -171q-82 0 -133 12.5t-75.5 38t-24.5 62.5q0 45 35.5 75t110.5 42v17q-54 -1 -80 12.5t-26 38.5q0 27 26.5 44.5t85.5 34.5v17q-61 1 -92.5 37t-31.5 92q0 51 28 88t79 56.5t121 19.5h237v-66l-158 25v-17q57 -13 88 -43.5t31 -80.5q0 -43 -24.5 -75.5t-72.5 -50.5
t-119 -18q-15 0 -30 1.5t-37 5.5q-31 -17 -49 -32t-18 -27t17.5 -18.5t42 -9t44.5 -2.5h111q19 0 49 -4t60.5 -16.5t51 -39.5t20.5 -72q0 -53 -31.5 -85.5t-91 -47t-144.5 -14.5zM267 -108q69 0 113.5 8.5t65.5 28t21 49.5q0 28 -14.5 43t-36.5 21.5t-44.5 8t-39.5 1.5h-114
q-63 -17 -86 -40.5t-23 -49.5q0 -30 22 -45t58 -20t78 -5zM283 244q67 0 102 27t35 74q0 49 -35.5 81t-105.5 32q-67 0 -103.5 -30.5t-36.5 -78.5q0 -32 16.5 -55.5t48.5 -36.5t79 -13z" />
    <glyph glyph-name="h" unicode="h" horiz-adv-x="578" 
d="M80 0v300v394h77v-159q0 -22 -1.5 -45.5t-3.5 -48t-5.5 -49.5t-6.5 -50h15q14 63 37.5 104t59 61t83.5 20q51 0 83.5 -19t50 -49.5t26 -64.5t10 -65.5t1.5 -51.5v-277h-74v262q0 31 -3 65.5t-13.5 64t-33.5 48.5t-64 19q-49 0 -82.5 -29t-54 -79t-27.5 -114v-237h-74z
" />
    <glyph glyph-name="i" unicode="i" horiz-adv-x="235" 
d="M81 0v514h74v-514h-74zM118 607q-27 0 -41 11.5t-14 33.5q0 23 14 34.5t41 11.5q28 0 42 -11.5t14 -34.5q0 -22 -14 -33.5t-42 -11.5z" />
    <glyph glyph-name="j" unicode="j" horiz-adv-x="245" 
d="M31 -175q-15 0 -33 3.5t-38 9.5l-6 70q72 -19 104.5 -4.5t32.5 81.5v529h74v-514q0 -42 -8 -75t-24.5 -55t-41.5 -33.5t-60 -11.5zM127 607q-27 0 -41 11.5t-14 33.5q0 23 14 34.5t41 11.5q28 0 42 -11.5t14 -34.5q0 -22 -14 -33.5t-42 -11.5z" />
    <glyph glyph-name="k" unicode="k" horiz-adv-x="527" 
d="M80 0v694h74v-398q42 20 81.5 48t72.5 59t57 60.5t35 51.5h87q-20 -37 -50 -74t-66.5 -69.5t-75.5 -56t-76 -34.5v-10q46 2 82.5 -14.5t66 -45.5t55.5 -67t51 -81l33 -63h-84l-25 48q-29 52 -60 94t-69.5 66.5t-91.5 24.5h-23v-233h-74z" />
    <glyph glyph-name="l" unicode="l" horiz-adv-x="234" 
d="M80 0v694h74v-694h-74z" />
    <glyph glyph-name="m" unicode="m" horiz-adv-x="873" 
d="M80 0v307v207h70l-12 -173h15q12 63 34.5 104t55 61.5t74.5 20.5q38 0 65.5 -15t45 -40.5t26 -58.5t6.5 -69h15q10 60 32 100.5t56 61.5t79 21t75 -19.5t47 -49.5t24.5 -63t9.5 -61t2 -43v-291h-74v275q0 22 -2 52.5t-12 60.5t-30.5 50t-56.5 20q-40 0 -71 -27.5t-51 -76
t-27 -112.5v-242h-72v257q0 22 -2 55.5t-11 67t-30 56t-61 22.5q-41 0 -71.5 -29t-49.5 -79.5t-25 -111.5v-238h-74z" />
    <glyph glyph-name="n" unicode="n" horiz-adv-x="578" 
d="M80 0v314v200h71l-12 -173h14q14 67 38.5 107.5t60.5 59.5t83 19q41 0 70.5 -13.5t49 -37.5t31 -54.5t16 -65.5t4.5 -71v-285h-74v273q0 23 -2.5 54.5t-13 61t-33.5 50t-64 20.5q-50 0 -86 -32.5t-56 -85.5t-23 -117v-224h-74z" />
    <glyph glyph-name="o" unicode="o" horiz-adv-x="595" 
d="M299 -12q-72 0 -127.5 32t-86.5 93t-31 147q0 89 33 148t87.5 89t121.5 30q69 0 124.5 -31.5t88 -92t32.5 -148.5t-32 -147.5t-86.5 -89.5t-123.5 -30zM302 52q27 0 56 10t53.5 33t40 62t15.5 97q0 59 -15.5 98.5t-41 63.5t-56.5 34.5t-60 10.5q-27 0 -56 -9.5t-54 -32
t-40.5 -61t-15.5 -96.5q0 -59 15.5 -99t40.5 -64.5t56 -35.5t62 -11z" />
    <glyph glyph-name="p" unicode="p" horiz-adv-x="592" 
d="M80 -158v417v255h70l-8 -132h14q13 43 34.5 75.5t55 51t81.5 18.5q70 0 117 -35.5t70 -96.5t23 -137q0 -79 -24 -140t-69.5 -95.5t-111.5 -34.5q-55 0 -91 23.5t-56.5 62t-31.5 78.5h-15q5 -29 8.5 -59.5t5.5 -59.5t2 -55v-136h-74zM318 55q47 0 78.5 26.5t48 73
t16.5 106.5q0 61 -16.5 105t-48.5 69t-77 25q-38 0 -68.5 -17.5t-52 -46.5t-33 -63t-11.5 -68v-10q0 -20 6 -46t18.5 -53t32 -50t46.5 -37t61 -14z" />
    <glyph glyph-name="q" unicode="q" horiz-adv-x="591" 
d="M437 -158v136q0 26 2.5 55.5t6.5 59.5t8 58h-15q-10 -40 -31 -78t-56.5 -61.5t-92.5 -23.5q-65 0 -110.5 34.5t-69.5 95.5t-24 139q0 77 23 138t70 96.5t116 35.5q51 0 85 -19.5t55 -52t31 -73.5h15l-8 132h69v-252v-420h-74zM276 55q34 0 60.5 14t45.5 36.5t31.5 49.5
t18 53.5t5.5 46.5v10q0 34 -11.5 68.5t-32.5 63t-51.5 45.5t-68.5 17q-45 0 -77 -24.5t-48.5 -69t-16.5 -105.5q0 -59 16.5 -105.5t48.5 -73t80 -26.5z" />
    <glyph glyph-name="r" unicode="r" horiz-adv-x="383" 
d="M80 0v284v230h70l-12 -186h16q10 59 28.5 103.5t49.5 70t75 25.5q11 0 25 -2t31 -8l-5 -76q-14 5 -28.5 8t-27.5 3q-40 0 -68.5 -28.5t-47.5 -75.5t-32 -104v-244h-74z" />
    <glyph glyph-name="s" unicode="s" horiz-adv-x="521" 
d="M267 -12q-54 0 -95 11.5t-68.5 34t-41.5 54t-12 69.5l66 12q-4 -38 14.5 -64.5t54.5 -40t86 -13.5q64 0 99 22t35 60q0 31 -19 48t-53 27t-77 18q-37 8 -72 18t-63.5 26t-45.5 42t-17 65q0 46 24 79.5t69 52t106 18.5q63 0 107 -20t68.5 -56.5t25.5 -85.5l-67 -14
q0 38 -17 63t-48 37t-73 12q-57 0 -90.5 -22t-33.5 -60q0 -30 20 -47t53 -26.5t73 -18.5q39 -7 75 -17t64.5 -26t45 -42t16.5 -67q0 -50 -26.5 -83t-73.5 -49.5t-109 -16.5z" />
    <glyph glyph-name="t" unicode="t" horiz-adv-x="359" 
d="M231 -10q-32 0 -57 9t-42 27.5t-25 46t-8 64.5v314h-77v63h46q23 0 33.5 9t12.5 30l9 77h48v-116h152v-64h-152v-313q0 -43 19.5 -60.5t52.5 -17.5q19 0 40 5.5t43 21.5v-76q-27 -10 -51 -15t-44 -5z" />
    <glyph glyph-name="u" unicode="u" horiz-adv-x="570" 
d="M244 -12q-39 0 -68 12t-49 33.5t-32 52t-17.5 66.5t-5.5 77v285h75v-268q0 -33 3 -67t14 -62t34 -45t63 -17q33 0 59 16t46 46t32.5 71t18.5 91v235h73v-293v-221h-69l11 172h-14q-12 -65 -36 -105.5t-59 -59.5t-79 -19z" />
    <glyph glyph-name="v" unicode="v" horiz-adv-x="519" 
d="M209 0l-188 514h81l152 -449h12l151 449h81l-188 -514h-101z" />
    <glyph glyph-name="w" unicode="w" horiz-adv-x="788" 
d="M168 0l-141 514h76l111 -449h14l117 449h99l116 -449h13l113 449h75l-142 -514h-104l-116 448h-9l-117 -448h-105z" />
    <glyph glyph-name="x" unicode="x" horiz-adv-x="496" 
d="M26 0l175 257l-177 257h86l132 -211h10l130 211h86l-176 -257l181 -257h-88l-133 212h-10l-129 -212h-87z" />
    <glyph glyph-name="y" unicode="y" horiz-adv-x="573" 
d="M261 -169q-40 0 -79 9.5t-70.5 30t-51.5 51.5l47 48q21 -34 61 -52.5t90 -18.5q46 0 78.5 15.5t53.5 46t31 75.5t10 103l12 108h-17q-11 -76 -35.5 -120.5t-59 -63.5t-79.5 -19q-50 0 -82.5 20t-50.5 50.5t-26.5 65t-10.5 64t-2 45.5v225h73v-204q0 -16 1 -41t6.5 -52.5
t18 -51t35 -39t57.5 -15.5q34 0 60.5 17t45.5 49.5t29.5 79.5t13.5 107v150h74v-380q0 -43 -5 -82t-15.5 -73t-28.5 -61t-44 -47t-60.5 -30t-79.5 -10z" />
    <glyph glyph-name="z" unicode="z" horiz-adv-x="472" 
d="M35 0v70l301 368v12h-298v64h397v-64l-307 -373v-11h308v-66h-401z" />
    <glyph glyph-name="braceleft" unicode="{" horiz-adv-x="354" 
d="M32 242v57q21 2 37.5 15.5t28 47t15.5 94.5q6 69 19 111.5t33 65.5t46 31.5t56 9.5q12 0 29 -2t35 -7v-58q-34 8 -64 2.5t-50.5 -33.5t-26.5 -89q-2 -33 -9 -67.5t-18.5 -64.5t-28.5 -50t-38 -23v-21q20 -4 36.5 -21.5t28 -46t19 -64t10.5 -75.5q6 -59 26 -87.5t50.5 -34
t64.5 2.5v-58q-18 -4 -35.5 -6.5t-28.5 -2.5q-30 0 -56 8.5t-45.5 31.5t-33 66.5t-18.5 112.5q-5 64 -16 96.5t-27.5 44.5t-38.5 14z" />
    <glyph glyph-name="bar" unicode="|" horiz-adv-x="241" 
d="M87 -153v813h67v-813h-67z" />
    <glyph glyph-name="braceright" unicode="}" horiz-adv-x="322" 
d="M290 242q-21 -2 -38 -14t-28 -44.5t-15 -96.5q-5 -69 -18.5 -112.5t-33.5 -66.5t-46 -31.5t-56 -8.5q-11 0 -28.5 2.5t-35.5 6.5v58q35 -8 65 -2.5t50.5 34t25.5 87.5q3 40 10.5 75.5t19 64t28.5 46t36 21.5v21q-21 3 -38 23t-28.5 50t-18.5 64.5t-9 67.5q-5 61 -26 89
t-51 33.5t-64 -2.5v58q18 5 35 7t29 2q30 -1 56 -9.5t46 -31.5t33 -65.5t19 -111.5q5 -61 16 -94.5t28 -47t37 -15.5v-57z" />
    <glyph glyph-name="asciitilde" unicode="~" horiz-adv-x="502" 
d="M373 246q-33 0 -66 5.5t-63 12t-55.5 11.5t-43.5 5q-12 0 -18.5 -8t-5.5 -29h-61q-8 31 -4 55t21.5 37.5t46.5 13.5q32 0 64 -5t63 -11.5t58 -11.5t47 -5q15 0 21.5 7.5t3.5 30.5h60q9 -31 5 -55.5t-22 -38.5t-51 -14z" />
    <glyph glyph-name="uni00A0" unicode="&#xa0;" horiz-adv-x="257" 
 />
    <glyph glyph-name="exclamdown" unicode="&#xa1;" horiz-adv-x="237" 
d="M95 371h47l23 -505h-93zM118 538q56 0 56 -49q0 -26 -14 -38.5t-42 -12.5q-27 0 -40.5 12.5t-13.5 38.5q0 25 13.5 37t40.5 12z" />
    <glyph glyph-name="cent" unicode="&#xa2;" horiz-adv-x="541" 
d="M259 571l-17 132h84l-17 -132h-50zM242 -68l17 133h49l18 -133h-84zM296 47q-67 0 -113 22t-74 60t-41 85t-13 98q0 56 14.5 105.5t43.5 88t73.5 60t103.5 21.5q44 0 80 -12t63 -34t44 -52.5t22 -68.5l-71 -18q-2 28 -17 55.5t-45 45.5t-75 18q-40 0 -70 -15.5t-50 -43
t-31 -65.5t-11 -84q0 -61 18.5 -106t55.5 -70t94 -25q43 0 73.5 15t49 43t24.5 67l69 -16q-7 -44 -26.5 -77t-47.5 -54.5t-64.5 -32t-78.5 -10.5z" />
    <glyph glyph-name="sterling" unicode="&#xa3;" horiz-adv-x="714" 
d="M177 -13q-67 0 -106 36t-39 92q0 35 15.5 64t45 46.5t72.5 17.5q35 0 62 -13.5t46 -42.5l14 2l-1 -57q-20 29 -48 42t-57 13q-41 0 -61 -22t-20 -50q0 -32 22.5 -51t58.5 -19t59 18t34 48t11 66q0 42 -11.5 72.5t-28 56t-33.5 51t-28 56.5t-11 73q0 65 28.5 106
t75.5 60.5t101 19.5q46 0 85.5 -14t68 -40t43 -64t12.5 -87l-71 -8q1 46 -13 78.5t-44 50.5t-79 18q-70 0 -101 -34.5t-31 -86.5q0 -35 10.5 -63t25.5 -54t30.5 -54t26 -61t10.5 -76q0 -42 -11.5 -76.5t-34 -60t-54.5 -39.5t-74 -14zM100 319v61l143 -1l4 -46zM512 -13
q-48 0 -84.5 19.5t-61.5 47.5t-40 52l-14 5l17 59q10 -12 27.5 -32t40.5 -40t50 -33.5t56 -13.5q34 0 54 18.5t28.5 48.5t8.5 63q0 17 -2.5 36t-6.5 37t-11 34l74 5q11 -28 15.5 -59.5t4.5 -58.5q0 -37 -8.5 -71t-27.5 -60.5t-48.5 -41.5t-71.5 -15zM255 335l-5 46l227 16
v-60z" />
    <glyph glyph-name="yen" unicode="&#xa5;" horiz-adv-x="546" 
d="M70 134v58h429v-58h-429zM70 276v58h166v-58h-166zM337 276v58h162v-58h-162zM236 6v212l-221 435h83l173 -361h5l171 361h84l-222 -435v-212h-73z" />
    <glyph glyph-name="brokenbar" unicode="&#xa6;" horiz-adv-x="241" 
d="M79 370h85v-207h-85v207zM87 -153v813h67v-813h-67z" />
    <glyph glyph-name="section" unicode="&#xa7;" horiz-adv-x="539" 
d="M275 -167q-54 0 -96 12t-69.5 36t-41 57.5t-12.5 75.5l66 11q-3 -43 15.5 -72t54.5 -42.5t85 -13.5q66 0 101 23.5t35 66.5q0 33 -19.5 54t-52.5 34t-77 20q-40 8 -76 17t-64.5 25.5t-44.5 44t-16 70.5q0 35 13 62t43 45.5t81 26.5v10q-51 11 -81.5 30t-42.5 44t-12 54
q0 46 24.5 79.5t70 52t105.5 18.5q63 0 107.5 -20.5t69 -59t25.5 -92.5l-67 -14q1 42 -16 69t-48.5 40t-73.5 13q-59 0 -92.5 -24t-33.5 -66q0 -33 20 -53.5t54 -32.5t76 -21q41 -8 77 -18t63.5 -26t43 -43t15.5 -70q0 -33 -12 -59.5t-41.5 -44t-83.5 -24.5v-11
q52 -12 82 -31t42.5 -44.5t12.5 -56.5q0 -52 -26.5 -85.5t-73.5 -50t-109 -16.5zM282 155q39 0 68.5 11t46 31t16.5 51q0 33 -17 53.5t-42 31.5t-51.5 15.5t-45.5 4.5q-54 0 -88.5 -23.5t-34.5 -71.5q0 -31 14 -50.5t36 -31t48 -16.5t50 -5z" />
    <glyph glyph-name="dieresis" unicode="&#xa8;" horiz-adv-x="337" 
d="M265 610q-26 0 -39 10.5t-13 34.5q0 23 13 34.5t39 11.5q25 0 38.5 -11t13.5 -35t-13 -34.5t-39 -10.5zM72 610q-25 0 -38.5 10.5t-13.5 34.5t13.5 35t38.5 11t38.5 -11t13.5 -35t-13 -34.5t-39 -10.5z" />
    <glyph glyph-name="copyright" unicode="&#xa9;" horiz-adv-x="879" 
d="M439 -79q-90 0 -161.5 23.5t-121.5 69.5t-76 114.5t-26 158.5t26 158.5t76 115t121.5 70t161.5 23.5t161.5 -23.5t121.5 -70t76.5 -115t26.5 -158.5t-26.5 -158.5t-76.5 -114.5t-121.5 -69.5t-161.5 -23.5zM439 -16q102 0 173 33t108 100.5t37 169.5t-37 169.5t-108 101
t-173 33.5t-173 -33.5t-107.5 -101t-36.5 -169.5t36.5 -169.5t107.5 -100.5t173 -33zM450 78q-75 0 -120 28.5t-65.5 76.5t-20.5 103q0 60 21.5 109t65.5 78t111 29q48 0 85 -16t60 -45t29 -69l-66 -20q-2 36 -30 63.5t-80 27.5q-30 0 -53.5 -11t-39 -31.5t-23.5 -49
t-8 -62.5q0 -48 14.5 -82t45 -52.5t74.5 -18.5q33 0 57 11.5t38.5 33.5t18.5 53l66 -16q-5 -34 -20.5 -60t-39 -44t-54.5 -27t-66 -9z" />
    <glyph glyph-name="ordfeminine" unicode="&#xaa;" horiz-adv-x="391" 
d="M139 289q-32 0 -58 11t-41 33.5t-15 55.5q0 37 16.5 58.5t43 33.5t58 18t59.5 10q32 4 49.5 8t25.5 12t8 22q0 18 -9 31.5t-26.5 22t-45.5 8.5q-23 0 -46 -7t-39.5 -23.5t-20.5 -43.5l-62 17q5 27 19 48.5t35.5 35.5t50 22t62.5 8q52 0 82 -16t43.5 -39t17.5 -48.5
t4 -46.5v-75q1 -23 1.5 -49t3 -51.5t4.5 -46.5h-62q-1 18 -2.5 43.5t-1.5 48.5h-10q-19 -48 -55.5 -74.5t-88.5 -26.5zM159 343q22 0 45.5 9t44.5 29.5t37 53.5l-1 65l22 -2q-14 -13 -39.5 -19t-56 -10t-57.5 -10.5t-44.5 -20t-17.5 -40.5t18.5 -41t48.5 -14z" />
    <glyph glyph-name="guillemotleft" unicode="&#xab;" horiz-adv-x="375" 
d="M92 80q-10 51 -24.5 97t-30.5 90q17 44 31 89t24 95h78q-14 -50 -31 -95t-36 -89q19 -44 36 -90t31 -97h-78zM252 80q-10 51 -24.5 97t-30.5 90q17 44 31 89t24 95h78q-14 -50 -31 -95t-36 -89q19 -44 36 -90t31 -97h-78z" />
    <glyph glyph-name="logicalnot" unicode="&#xac;" horiz-adv-x="502" 
d="M61 267v66h380v-66h-380zM372 125v185h69v-185h-69z" />
    <glyph glyph-name="registered" unicode="&#xae;" horiz-adv-x="623" 
d="M311 163q-87 0 -149.5 30.5t-96 89.5t-33.5 146q0 86 33 145t96 89.5t150 30.5q89 0 151.5 -30t95.5 -89t33 -146t-33 -146t-95.5 -89.5t-151.5 -30.5zM311 223q71 0 119 22.5t72 68t24 115.5t-24 115.5t-72 67.5t-119 22q-105 0 -159.5 -50.5t-54.5 -154.5t54.5 -155
t159.5 -51zM210 281v301h114q46 0 75.5 -22.5t29.5 -67.5q0 -30 -18 -51t-58 -24v-8q35 -1 49 -18t22 -52l14 -58h-58l-10 53q-4 24 -15 40t-40 16h-51v-109h-54zM264 433h44q21 0 35.5 5t22 16t7.5 30q0 21 -6.5 32.5t-18.5 16.5t-29 5h-55v-105z" />
    <glyph glyph-name="macron" unicode="&#xaf;" horiz-adv-x="298" 
d="M20 623v61h258v-61h-258z" />
    <glyph glyph-name="degree" unicode="&#xb0;" horiz-adv-x="338" 
d="M167 400q-39 0 -69.5 17.5t-48 47.5t-17.5 70q0 31 10.5 55.5t29 42.5t43.5 27.5t54 9.5q40 0 71 -17.5t48 -47.5t17 -72q0 -40 -18 -70t-49 -46.5t-71 -16.5zM170 457q34 0 54 22t20 56t-20.5 56t-55.5 22q-33 0 -54 -21.5t-21 -54.5q0 -35 21.5 -57.5t55.5 -22.5z" />
    <glyph glyph-name="plusminus" unicode="&#xb1;" horiz-adv-x="502" 
d="M218 246v335h67v-335h-67zM62 382v64h379v-64h-379zM61 93v66h379v-66h-379z" />
    <glyph glyph-name="uni00B2" unicode="&#xb2;" horiz-adv-x="387" 
d="M39 270v72l149 108q17 13 35.5 29.5t31.5 36.5t13 43q0 28 -20.5 45.5t-59.5 17.5q-29 0 -47.5 -11.5t-26.5 -33.5t-8 -54l-63 13q-1 62 34.5 102.5t112.5 40.5q43 0 75.5 -13.5t50.5 -39.5t18 -62q0 -25 -9 -47.5t-24.5 -41.5t-34.5 -36t-40 -31l-114 -83v-5l231 8v-58
h-304z" />
    <glyph glyph-name="uni00B3" unicode="&#xb3;" horiz-adv-x="396" 
d="M180 262q-79 0 -116.5 32t-40.5 84l60 14q1 -26 13.5 -44t34 -26t49.5 -8q41 0 69.5 17t28.5 55q0 27 -16.5 46t-53 29t-96.5 8v38l142 105v5l-214 -2v55h280v-66l-135 -97v-7q78 2 118.5 -28.5t40.5 -86.5t-42 -89.5t-122 -33.5z" />
    <glyph glyph-name="acute" unicode="&#xb4;" horiz-adv-x="283" 
d="M86 595h-66l70 148h86z" />
    <glyph glyph-name="uni00B5" unicode="&#xb5;" horiz-adv-x="577" 
d="M72 -159v673h75v-246q0 -32 2 -68.5t12 -69.5t33.5 -53.5t66.5 -20.5t71 17.5t45.5 48t28 70t15.5 82.5v240h73v-293l3 -221h-71l11 164h-14q-9 -54 -30.5 -93.5t-54.5 -61t-79 -21.5q-21 0 -45 7t-44 25t-30 48h-13l19 -180v-47h-74z" />
    <glyph glyph-name="paragraph" unicode="&#xb6;" horiz-adv-x="613" 
d="M350 -154v376h-35q-93 0 -154 26t-90.5 75.5t-29.5 116.5q0 56 18 96.5t50.5 68.5t77 41.5t96.5 13.5h135v-814h-68zM375 -154v60h135v-60h-135zM460 -154v814h66v-814h-66zM371 600v60h145v-60h-145z" />
    <glyph glyph-name="periodcentered" unicode="&#xb7;" horiz-adv-x="157" 
d="M78 281q-27 0 -41 12t-14 37q0 27 14 39t41 12q28 0 41.5 -12t13.5 -39q0 -49 -55 -49z" />
    <glyph glyph-name="cedilla" unicode="&#xb8;" horiz-adv-x="262" 
d="M20 -229l10 47q19 -4 45 -7t51 -1t42 13t17 33q0 10 -4.5 18.5t-17 15t-37 9t-64.5 -0.5l13 105h47l-6 -77q42 4 69.5 -3t42 -24.5t14.5 -46.5q0 -37 -22 -58t-56.5 -29t-73 -5.5t-70.5 11.5z" />
    <glyph glyph-name="uni00B9" unicode="&#xb9;" horiz-adv-x="232" 
d="M96 270v297h-56v57q26 0 44 9.5t23 36.5h53v-400h-64z" />
    <glyph glyph-name="ordmasculine" unicode="&#xba;" horiz-adv-x="400" 
d="M200 290q-77 0 -125 49.5t-48 141.5q0 64 22.5 105.5t62 62.5t87.5 21q76 0 125 -48.5t49 -142.5q0 -63 -22.5 -105t-61.5 -63t-89 -21zM202 345q24 0 47 12t39 40.5t16 77.5q0 52 -16.5 82t-41 42.5t-49.5 12.5q-23 0 -46.5 -11.5t-39.5 -39.5t-16 -78q0 -51 16 -81
t40.5 -43.5t50.5 -13.5z" />
    <glyph glyph-name="guillemotright" unicode="&#xbb;" horiz-adv-x="375" 
d="M283 80h-78q14 51 31 97t36 90q-18 44 -35.5 89t-31.5 95h78q10 -50 24.5 -95t30.5 -89q-16 -44 -30.5 -90t-24.5 -97zM123 80h-78q14 51 31 97t36 90q-19 44 -36 89t-31 95h78q10 -50 24.5 -95t30.5 -89q-16 -44 -30.5 -90t-24.5 -97z" />
    <glyph glyph-name="onequarter" unicode="&#xbc;" horiz-adv-x="816" 
d="M96 300v297h-56v57q26 0 44 9.5t23 36.5h53v-400h-64zM100 0l408 660h78l-409 -660h-77zM429 44v69q41 42 73 84t56 83t40 81h114v-401h-65v355h-5q-27 -58 -66 -112t-84 -100v-6h272v-53h-335z" />
    <glyph glyph-name="onehalf" unicode="&#xbd;" horiz-adv-x="836" 
d="M96 300v297h-56v57q26 0 44 9.5t23 36.5h53v-400h-64zM100 0l408 660h78l-409 -660h-77zM488 -40v72l149 108q17 13 35.5 29.5t31.5 36.5t13 43q0 28 -20.5 45.5t-59.5 17.5q-29 0 -47.5 -11.5t-26.5 -33.5t-8 -54l-63 13q-1 62 34.5 102.5t112.5 40.5q43 0 75.5 -13.5
t50.5 -39.5t18 -62q0 -25 -9 -47.5t-24.5 -41.5t-34.5 -36t-40 -31l-114 -83v-5l231 8v-58h-304z" />
    <glyph glyph-name="threequarters" unicode="&#xbe;" horiz-adv-x="969" 
d="M180 292q-79 0 -116.5 32t-40.5 84l60 14q1 -26 13.5 -44t34 -26t49.5 -8q41 0 69.5 17t28.5 55q0 27 -16.5 46t-53 29t-96.5 8v38l142 105v5l-214 -2v55h280v-66l-135 -97v-7q78 2 118.5 -28.5t40.5 -86.5t-42 -89.5t-122 -33.5zM253 0l408 660h78l-409 -660h-77z
M582 44v69q41 42 73 84t56 83t40 81h114v-401h-65v355h-5q-27 -58 -66 -112t-84 -100v-6h272v-53h-335z" />
    <glyph glyph-name="questiondown" unicode="&#xbf;" horiz-adv-x="391" 
d="M271 358q6 -59 -5 -98t-31.5 -65.5t-45 -45.5t-47.5 -36.5t-37.5 -40t-14.5 -56.5q0 -52 35 -79.5t87 -27.5q26 0 50.5 7t49 23.5t47.5 43.5l10 -68q-19 -25 -45.5 -41t-56 -24t-60.5 -8q-38 0 -72.5 11t-61.5 33t-42 54t-15 74q0 43 15 71t38.5 48t49.5 38.5t48 41.5
t34 58t7 87h63zM236 526q27 0 40.5 -12t13.5 -38t-13.5 -38t-40.5 -12q-28 0 -42 12t-14 38q0 50 56 50z" />
    <glyph glyph-name="Agrave" unicode="&#xc0;" horiz-adv-x="640" 
d="M32 0l234 660h108l234 -660h-79l-204 595h-10l-203 -595h-80zM136 154v61h376v-61h-376zM298 741l-89 147h86l70 -147h-67z" />
    <glyph glyph-name="Aacute" unicode="&#xc1;" horiz-adv-x="640" 
d="M32 0l234 660h108l234 -660h-79l-204 595h-10l-203 -595h-80zM136 154v61h376v-61h-376zM341 741h-66l70 148h86z" />
    <glyph glyph-name="Acircumflex" unicode="&#xc2;" horiz-adv-x="640" 
d="M32 0l234 660h108l234 -660h-79l-204 595h-10l-203 -595h-80zM136 154v61h376v-61h-376zM177 725v70l143 101l141 -101v-70l-141 102z" />
    <glyph glyph-name="Atilde" unicode="&#xc3;" horiz-adv-x="640" 
d="M32 0l234 660h108l234 -660h-79l-204 595h-10l-203 -595h-80zM136 154v61h376v-61h-376zM400 747q-19 0 -40.5 7.5t-42.5 17t-39 17t-29 7.5t-17.5 -10t-5.5 -33h-43q-6 32 -1.5 54t18.5 34.5t35 12.5q19 0 40.5 -7.5t43.5 -17t40.5 -17t28.5 -7.5q14 0 21 12.5t5 30.5
h43q6 -28 1.5 -51t-19 -36.5t-39.5 -13.5z" />
    <glyph glyph-name="Adieresis" unicode="&#xc4;" horiz-adv-x="640" 
d="M32 0l234 660h108l234 -660h-79l-204 595h-10l-203 -595h-80zM136 154v61h376v-61h-376zM417 756q-26 0 -39 10.5t-13 34.5q0 23 13 34.5t39 11.5q25 0 38.5 -11t13.5 -35t-13 -34.5t-39 -10.5zM224 756q-25 0 -38.5 10.5t-13.5 34.5t13.5 35t38.5 11t38.5 -11t13.5 -35
t-13 -34.5t-39 -10.5z" />
    <glyph glyph-name="Aring" unicode="&#xc5;" horiz-adv-x="640" 
d="M32 0l234 660h108l234 -660h-79l-204 595h-10l-203 -595h-80zM136 154v61h376v-61h-376zM319 729q-35 0 -59.5 20.5t-24.5 61.5q0 40 24.5 60.5t58.5 20.5q37 0 61 -21.5t24 -60.5q0 -41 -24.5 -61t-59.5 -20zM321 768q17 0 26.5 11.5t9.5 29.5q0 21 -9.5 31.5
t-27.5 10.5t-28 -10.5t-10 -29.5q0 -20 10 -31.5t29 -11.5z" />
    <glyph glyph-name="AE" unicode="&#xc6;" horiz-adv-x="876" 
d="M32 0l320 660h134l-49 -65h-35l-289 -595h-81zM158 154v61h313v-61h-313zM468 0v66h370v-66h-370zM437 0v660h74v-660h-74zM468 301v65h325v-65h-325zM468 594v66h370v-66h-370z" />
    <glyph glyph-name="Ccedilla" unicode="&#xc7;" horiz-adv-x="658" 
d="M359 -12q-69 0 -124 22t-93 65.5t-57.5 105.5t-19.5 141q0 80 20 144.5t58 110.5t91.5 70.5t120.5 24.5q51 0 94.5 -14.5t75 -42t49.5 -67t18 -87.5l-71 -17q1 54 -21.5 89.5t-61 53.5t-84.5 18q-43 0 -81.5 -17t-68 -51t-47 -87t-17.5 -127q0 -93 27.5 -152t77.5 -86.5
t118 -27.5q63 0 102.5 23t59 65.5t22.5 101.5l68 -13q-1 -51 -16 -95.5t-46 -78.5t-79 -53t-115 -19zM236 -229l10 47q19 -4 45 -7t51 -1t42 13t17 33q0 10 -4.5 18.5t-17 15t-37 9t-64.5 -0.5l13 105h47l-6 -77q42 4 69.5 -3t42 -24.5t14.5 -46.5q0 -37 -22 -58t-56.5 -29
t-73 -5.5t-70.5 11.5z" />
    <glyph glyph-name="Egrave" unicode="&#xc8;" horiz-adv-x="572" 
d="M87 0v660h75v-660h-75zM117 0v66h418v-66h-418zM117 306v64h371v-64h-371zM117 594v66h417v-66h-417zM270 741l-90 147h86l69 -147h-65z" />
    <glyph glyph-name="Eacute" unicode="&#xc9;" horiz-adv-x="572" 
d="M87 0v660h75v-660h-75zM117 0v66h418v-66h-418zM117 306v64h371v-64h-371zM117 594v66h417v-66h-417zM312 741h-66l70 148h86z" />
    <glyph glyph-name="Ecircumflex" unicode="&#xca;" horiz-adv-x="572" 
d="M87 0v660h75v-660h-75zM117 0v66h418v-66h-418zM117 306v64h371v-64h-371zM117 594v66h417v-66h-417zM148 725v70l143 101l141 -101v-70l-141 102z" />
    <glyph glyph-name="Edieresis" unicode="&#xcb;" horiz-adv-x="572" 
d="M87 0v660h75v-660h-75zM117 0v66h418v-66h-418zM117 306v64h371v-64h-371zM117 594v66h417v-66h-417zM387 756q-26 0 -39 10.5t-13 34.5q0 23 13 34.5t39 11.5q25 0 38.5 -11t13.5 -35t-13 -34.5t-39 -10.5zM194 756q-25 0 -38.5 10.5t-13.5 34.5t13.5 35t38.5 11
t38.5 -11t13.5 -35t-13 -34.5t-39 -10.5z" />
    <glyph glyph-name="Igrave" unicode="&#xcc;" horiz-adv-x="250" 
d="M87 0v660h76v-660h-76zM104 741l-90 147h86l70 -147h-66z" />
    <glyph glyph-name="Iacute" unicode="&#xcd;" horiz-adv-x="250" 
d="M87 0v660h76v-660h-76zM146 741h-66l70 148h86z" />
    <glyph glyph-name="Icircumflex" unicode="&#xce;" horiz-adv-x="250" 
d="M87 0v660h76v-660h-76zM2 719v73l123 90l121 -90v-73l-121 91z" />
    <glyph glyph-name="Idieresis" unicode="&#xcf;" horiz-adv-x="250" 
d="M87 0v660h76v-660h-76zM194 757q-22 0 -34 10.5t-12 33.5q0 25 12.5 34.5t32.5 9.5q22 0 34 -10t12 -34q0 -23 -12 -33.5t-33 -10.5zM57 757q-23 0 -35.5 10.5t-12.5 34.5t12 33.5t35 9.5q22 0 34 -10t12 -34q0 -23 -11.5 -33.5t-33.5 -10.5z" />
    <glyph glyph-name="Eth" unicode="&#xd0;" horiz-adv-x="737" 
d="M61 379h265v-60h-265v60zM192 0v66h196q52 0 91 19t65.5 54t39 83t12.5 106t-11.5 107t-38 84.5t-72.5 55t-115 19.5h-167v66h166q109 0 178.5 -39t103 -112t33.5 -174q0 -78 -17.5 -135t-46.5 -95.5t-66 -61.5t-76.5 -33t-77.5 -10h-197zM149 0v660h75v-660h-75z" />
    <glyph glyph-name="Ntilde" unicode="&#xd1;" horiz-adv-x="712" 
d="M87 0v660h101l363 -564h6l-5 564h72v-660h-93l-369 573h-7l5 -573h-73zM437 747q-19 0 -40.5 7.5t-42.5 17t-39 17t-29 7.5t-17.5 -10t-5.5 -33h-43q-6 32 -1.5 54t18.5 34.5t35 12.5q19 0 40.5 -7.5t43.5 -17t40.5 -17t28.5 -7.5q14 0 21 12.5t5 30.5h43q6 -28 1.5 -51
t-19 -36.5t-39.5 -13.5z" />
    <glyph glyph-name="Ograve" unicode="&#xd2;" horiz-adv-x="705" 
d="M354 -13q-72 0 -126.5 24.5t-90.5 70t-54 107.5t-18 138q0 114 37 191t102 115.5t149 38.5q66 0 118.5 -23t90.5 -68t58.5 -109t20.5 -146q0 -75 -18.5 -137.5t-54 -107.5t-89.5 -69.5t-125 -24.5zM351 54q33 0 70 11.5t70 40t53.5 82t20.5 137.5q0 101 -30 162
t-77.5 89.5t-102.5 28.5q-31 0 -68 -11t-70.5 -40t-55 -84t-21.5 -143q0 -81 19 -134t50 -83.5t68.5 -43t73.5 -12.5zM332 741l-89 147h86l69 -147h-66z" />
    <glyph glyph-name="Oacute" unicode="&#xd3;" horiz-adv-x="705" 
d="M354 -13q-72 0 -126.5 24.5t-90.5 70t-54 107.5t-18 138q0 114 37 191t102 115.5t149 38.5q66 0 118.5 -23t90.5 -68t58.5 -109t20.5 -146q0 -75 -18.5 -137.5t-54 -107.5t-89.5 -69.5t-125 -24.5zM351 54q33 0 70 11.5t70 40t53.5 82t20.5 137.5q0 101 -30 162
t-77.5 89.5t-102.5 28.5q-31 0 -68 -11t-70.5 -40t-55 -84t-21.5 -143q0 -81 19 -134t50 -83.5t68.5 -43t73.5 -12.5zM374 741h-66l70 148h86z" />
    <glyph glyph-name="Ocircumflex" unicode="&#xd4;" horiz-adv-x="705" 
d="M354 -13q-72 0 -126.5 24.5t-90.5 70t-54 107.5t-18 138q0 114 37 191t102 115.5t149 38.5q66 0 118.5 -23t90.5 -68t58.5 -109t20.5 -146q0 -75 -18.5 -137.5t-54 -107.5t-89.5 -69.5t-125 -24.5zM351 54q33 0 70 11.5t70 40t53.5 82t20.5 137.5q0 101 -30 162
t-77.5 89.5t-102.5 28.5q-31 0 -68 -11t-70.5 -40t-55 -84t-21.5 -143q0 -81 19 -134t50 -83.5t68.5 -43t73.5 -12.5zM211 725v70l143 101l141 -101v-70l-141 102z" />
    <glyph glyph-name="Otilde" unicode="&#xd5;" horiz-adv-x="705" 
d="M354 -13q-72 0 -126.5 24.5t-90.5 70t-54 107.5t-18 138q0 114 37 191t102 115.5t149 38.5q66 0 118.5 -23t90.5 -68t58.5 -109t20.5 -146q0 -75 -18.5 -137.5t-54 -107.5t-89.5 -69.5t-125 -24.5zM351 54q33 0 70 11.5t70 40t53.5 82t20.5 137.5q0 101 -30 162
t-77.5 89.5t-102.5 28.5q-31 0 -68 -11t-70.5 -40t-55 -84t-21.5 -143q0 -81 19 -134t50 -83.5t68.5 -43t73.5 -12.5zM434 747q-19 0 -40.5 7.5t-42.5 17t-39 17t-29 7.5t-17.5 -10t-5.5 -33h-43q-6 32 -1.5 54t18.5 34.5t35 12.5q19 0 40.5 -7.5t43.5 -17t40.5 -17
t28.5 -7.5q14 0 21 12.5t5 30.5h43q6 -28 1.5 -51t-19 -36.5t-39.5 -13.5z" />
    <glyph glyph-name="Odieresis" unicode="&#xd6;" horiz-adv-x="705" 
d="M354 -13q-72 0 -126.5 24.5t-90.5 70t-54 107.5t-18 138q0 114 37 191t102 115.5t149 38.5q66 0 118.5 -23t90.5 -68t58.5 -109t20.5 -146q0 -75 -18.5 -137.5t-54 -107.5t-89.5 -69.5t-125 -24.5zM351 54q33 0 70 11.5t70 40t53.5 82t20.5 137.5q0 101 -30 162
t-77.5 89.5t-102.5 28.5q-31 0 -68 -11t-70.5 -40t-55 -84t-21.5 -143q0 -81 19 -134t50 -83.5t68.5 -43t73.5 -12.5zM450 756q-26 0 -39 10.5t-13 34.5q0 23 13 34.5t39 11.5q25 0 38.5 -11t13.5 -35t-13 -34.5t-39 -10.5zM257 756q-25 0 -38.5 10.5t-13.5 34.5t13.5 35
t38.5 11t38.5 -11t13.5 -35t-13 -34.5t-39 -10.5z" />
    <glyph glyph-name="multiply" unicode="&#xd7;" horiz-adv-x="502" 
d="M109 109l-48 47l333 331l47 -47zM394 109l-333 330l48 48l332 -330z" />
    <glyph glyph-name="Oslash" unicode="&#xd8;" horiz-adv-x="707" 
d="M66 -17l475 695h73l-476 -695h-72zM355 -10q-72 0 -126 24.5t-90 70t-54.5 107.5t-18.5 138q0 114 37 191t102.5 115.5t149.5 38.5q65 0 118 -23t91 -68t58 -109t20 -146q0 -75 -18 -137.5t-54 -107.5t-90 -69.5t-125 -24.5zM353 57q33 0 70 11.5t70 40t53 82t20 137.5
q0 101 -29.5 162t-77.5 89.5t-103 28.5q-30 0 -67 -11t-70.5 -40t-55 -84t-21.5 -143q0 -81 19 -134t50 -83.5t68 -43t74 -12.5z" />
    <glyph glyph-name="Ugrave" unicode="&#xd9;" horiz-adv-x="701" 
d="M351 -13q-51 0 -93.5 11.5t-75 33.5t-55 53.5t-34 72.5t-11.5 90v412h75v-408q0 -53 18 -97.5t60.5 -71t114.5 -26.5q76 0 118 27t59 71.5t17 96.5v408h75v-412q0 -64 -18.5 -112.5t-53.5 -82t-84.5 -50t-111.5 -16.5zM329 741l-89 147h86l70 -147h-67z" />
    <glyph glyph-name="Uacute" unicode="&#xda;" horiz-adv-x="701" 
d="M351 -13q-51 0 -93.5 11.5t-75 33.5t-55 53.5t-34 72.5t-11.5 90v412h75v-408q0 -53 18 -97.5t60.5 -71t114.5 -26.5q76 0 118 27t59 71.5t17 96.5v408h75v-412q0 -64 -18.5 -112.5t-53.5 -82t-84.5 -50t-111.5 -16.5zM372 741h-66l70 148h86z" />
    <glyph glyph-name="Ucircumflex" unicode="&#xdb;" horiz-adv-x="701" 
d="M351 -13q-51 0 -93.5 11.5t-75 33.5t-55 53.5t-34 72.5t-11.5 90v412h75v-408q0 -53 18 -97.5t60.5 -71t114.5 -26.5q76 0 118 27t59 71.5t17 96.5v408h75v-412q0 -64 -18.5 -112.5t-53.5 -82t-84.5 -50t-111.5 -16.5zM208 725v70l143 101l141 -101v-70l-141 102z" />
    <glyph glyph-name="Udieresis" unicode="&#xdc;" horiz-adv-x="701" 
d="M351 -13q-51 0 -93.5 11.5t-75 33.5t-55 53.5t-34 72.5t-11.5 90v412h75v-408q0 -53 18 -97.5t60.5 -71t114.5 -26.5q76 0 118 27t59 71.5t17 96.5v408h75v-412q0 -64 -18.5 -112.5t-53.5 -82t-84.5 -50t-111.5 -16.5zM447 756q-26 0 -39 10.5t-13 34.5q0 23 13 34.5
t39 11.5q25 0 38.5 -11t13.5 -35t-13 -34.5t-39 -10.5zM254 756q-25 0 -38.5 10.5t-13.5 34.5t13.5 35t38.5 11t38.5 -11t13.5 -35t-13 -34.5t-39 -10.5z" />
    <glyph glyph-name="Yacute" unicode="&#xdd;" horiz-adv-x="557" 
d="M241 0v216l-226 444h85l177 -368h4l175 368h86l-226 -444v-216h-75zM300 741h-66l70 148h86z" />
    <glyph glyph-name="Thorn" unicode="&#xde;" horiz-adv-x="614" 
d="M118 105v66h159q20 0 48.5 2t58.5 9.5t55.5 25.5t42 51.5t16.5 84.5q0 49 -16 80.5t-41.5 49t-53 25t-52.5 9.5t-40 2h-177v65h186q56 0 105 -14t86 -43t58 -73t21 -105q0 -77 -34.5 -129.5t-102.5 -79t-167 -26.5h-152zM87 0v660h74v-660h-74z" />
    <glyph glyph-name="germandbls" unicode="&#xdf;" horiz-adv-x="642" 
d="M380 -14q-48 0 -84.5 14.5t-59.5 42.5t-31 68l58 30q7 -32 23 -51t39 -27.5t50 -8.5q22 0 45.5 5.5t44 18.5t33 34.5t12.5 54.5q0 46 -24 73t-63.5 39t-85.5 15.5t-89 3.5v59q68 0 118.5 12t79 41t28.5 78q0 44 -21.5 68.5t-56.5 35t-76 10.5q-49 0 -81 -12.5
t-49.5 -32.5t-25 -43.5t-9 -45.5t-1.5 -37v-431h-74v428q0 26 3.5 58t16.5 64.5t39.5 59.5t71.5 43t113 16q69 0 119.5 -19t77.5 -58t27 -98q0 -44 -15 -75t-47.5 -50.5t-83.5 -28.5v-14q63 -5 103 -26t59.5 -55t19.5 -80q0 -54 -25.5 -94.5t-71 -62.5t-107.5 -22z" />
    <glyph glyph-name="agrave" unicode="&#xe0;" horiz-adv-x="543" 
d="M199 -12q-42 0 -76 15.5t-54 47t-20 80.5q0 50 21 81t55.5 48.5t75 26t81.5 14.5q44 6 68 11.5t34 16.5t10 33q0 29 -12.5 51.5t-37.5 35.5t-64 13q-31 0 -63 -10t-55.5 -35t-29.5 -70l-69 23q6 36 23.5 64.5t45 49.5t64.5 32t81 11q63 0 101 -18.5t57 -48.5t26 -65
t7 -68v-118q0 -31 1 -67.5t4 -73.5t6 -68h-70q-3 35 -4 68t-2 67h-11q-14 -39 -39.5 -72.5t-63 -54t-90.5 -20.5zM215 51q23 0 47.5 8t49 25.5t45.5 45.5t38 68v98l28 -3q-15 -17 -42.5 -25.5t-61.5 -13.5t-68.5 -11t-63.5 -17.5t-46.5 -32.5t-17.5 -57q0 -42 25.5 -63.5
t66.5 -21.5zM254 595l-89 148h86l70 -148h-67z" />
    <glyph glyph-name="aacute" unicode="&#xe1;" horiz-adv-x="543" 
d="M199 -12q-42 0 -76 15.5t-54 47t-20 80.5q0 50 21 81t55.5 48.5t75 26t81.5 14.5q44 6 68 11.5t34 16.5t10 33q0 29 -12.5 51.5t-37.5 35.5t-64 13q-31 0 -63 -10t-55.5 -35t-29.5 -70l-69 23q6 36 23.5 64.5t45 49.5t64.5 32t81 11q63 0 101 -18.5t57 -48.5t26 -65
t7 -68v-118q0 -31 1 -67.5t4 -73.5t6 -68h-70q-3 35 -4 68t-2 67h-11q-14 -39 -39.5 -72.5t-63 -54t-90.5 -20.5zM215 51q23 0 47.5 8t49 25.5t45.5 45.5t38 68v98l28 -3q-15 -17 -42.5 -25.5t-61.5 -13.5t-68.5 -11t-63.5 -17.5t-46.5 -32.5t-17.5 -57q0 -42 25.5 -63.5
t66.5 -21.5zM297 595h-66l70 148h86z" />
    <glyph glyph-name="acircumflex" unicode="&#xe2;" horiz-adv-x="543" 
d="M199 -12q-42 0 -76 15.5t-54 47t-20 80.5q0 50 21 81t55.5 48.5t75 26t81.5 14.5q44 6 68 11.5t34 16.5t10 33q0 29 -12.5 51.5t-37.5 35.5t-64 13q-31 0 -63 -10t-55.5 -35t-29.5 -70l-69 23q6 36 23.5 64.5t45 49.5t64.5 32t81 11q63 0 101 -18.5t57 -48.5t26 -65
t7 -68v-118q0 -31 1 -67.5t4 -73.5t6 -68h-70q-3 35 -4 68t-2 67h-11q-14 -39 -39.5 -72.5t-63 -54t-90.5 -20.5zM215 51q23 0 47.5 8t49 25.5t45.5 45.5t38 68v98l28 -3q-15 -17 -42.5 -25.5t-61.5 -13.5t-68.5 -11t-63.5 -17.5t-46.5 -32.5t-17.5 -57q0 -42 25.5 -63.5
t66.5 -21.5zM133 579v70l143 101l141 -101v-70l-141 102z" />
    <glyph glyph-name="atilde" unicode="&#xe3;" horiz-adv-x="543" 
d="M199 -12q-42 0 -76 15.5t-54 47t-20 80.5q0 50 21 81t55.5 48.5t75 26t81.5 14.5q44 6 68 11.5t34 16.5t10 33q0 29 -12.5 51.5t-37.5 35.5t-64 13q-31 0 -63 -10t-55.5 -35t-29.5 -70l-69 23q6 36 23.5 64.5t45 49.5t64.5 32t81 11q63 0 101 -18.5t57 -48.5t26 -65
t7 -68v-118q0 -31 1 -67.5t4 -73.5t6 -68h-70q-3 35 -4 68t-2 67h-11q-14 -39 -39.5 -72.5t-63 -54t-90.5 -20.5zM215 51q23 0 47.5 8t49 25.5t45.5 45.5t38 68v98l28 -3q-15 -17 -42.5 -25.5t-61.5 -13.5t-68.5 -11t-63.5 -17.5t-46.5 -32.5t-17.5 -57q0 -42 25.5 -63.5
t66.5 -21.5zM356 601q-19 0 -40.5 7.5t-42.5 17t-39 17t-29 7.5t-17.5 -10t-5.5 -33h-43q-6 32 -1.5 54t18.5 34.5t35 12.5q19 0 40.5 -7.5t43.5 -17t40.5 -17t28.5 -7.5q14 0 21 12.5t5 30.5h43q6 -28 1.5 -51t-19 -36.5t-39.5 -13.5z" />
    <glyph glyph-name="adieresis" unicode="&#xe4;" horiz-adv-x="543" 
d="M199 -12q-42 0 -76 15.5t-54 47t-20 80.5q0 50 21 81t55.5 48.5t75 26t81.5 14.5q44 6 68 11.5t34 16.5t10 33q0 29 -12.5 51.5t-37.5 35.5t-64 13q-31 0 -63 -10t-55.5 -35t-29.5 -70l-69 23q6 36 23.5 64.5t45 49.5t64.5 32t81 11q63 0 101 -18.5t57 -48.5t26 -65
t7 -68v-118q0 -31 1 -67.5t4 -73.5t6 -68h-70q-3 35 -4 68t-2 67h-11q-14 -39 -39.5 -72.5t-63 -54t-90.5 -20.5zM215 51q23 0 47.5 8t49 25.5t45.5 45.5t38 68v98l28 -3q-15 -17 -42.5 -25.5t-61.5 -13.5t-68.5 -11t-63.5 -17.5t-46.5 -32.5t-17.5 -57q0 -42 25.5 -63.5
t66.5 -21.5zM372 610q-26 0 -39 10.5t-13 34.5q0 23 13 34.5t39 11.5q25 0 38.5 -11t13.5 -35t-13 -34.5t-39 -10.5zM179 610q-25 0 -38.5 10.5t-13.5 34.5t13.5 35t38.5 11t38.5 -11t13.5 -35t-13 -34.5t-39 -10.5z" />
    <glyph glyph-name="aring" unicode="&#xe5;" horiz-adv-x="543" 
d="M199 -12q-42 0 -76 15.5t-54 47t-20 80.5q0 50 21 81t55.5 48.5t75 26t81.5 14.5q44 6 68 11.5t34 16.5t10 33q0 29 -12.5 51.5t-37.5 35.5t-64 13q-31 0 -63 -10t-55.5 -35t-29.5 -70l-69 23q6 36 23.5 64.5t45 49.5t64.5 32t81 11q63 0 101 -18.5t57 -48.5t26 -65
t7 -68v-118q0 -31 1 -67.5t4 -73.5t6 -68h-70q-3 35 -4 68t-2 67h-11q-14 -39 -39.5 -72.5t-63 -54t-90.5 -20.5zM215 51q23 0 47.5 8t49 25.5t45.5 45.5t38 68v98l28 -3q-15 -17 -42.5 -25.5t-61.5 -13.5t-68.5 -11t-63.5 -17.5t-46.5 -32.5t-17.5 -57q0 -42 25.5 -63.5
t66.5 -21.5zM275 583q-35 0 -59.5 20.5t-24.5 61.5q0 40 24.5 60.5t58.5 20.5q37 0 61 -21.5t24 -60.5q0 -41 -24.5 -61t-59.5 -20zM277 622q17 0 26.5 11.5t9.5 29.5q0 21 -9.5 31.5t-27.5 10.5t-28 -10.5t-10 -29.5q0 -20 10 -31.5t29 -11.5z" />
    <glyph glyph-name="ae" unicode="&#xe6;" horiz-adv-x="880" 
d="M200 -13q-43 0 -77 16t-54 48t-20 80q0 51 21 82t55 48t75 25.5t80 14.5q42 7 65 12.5t32.5 16t9.5 32.5q0 30 -12 52.5t-36.5 36t-62.5 13.5q-29 0 -60.5 -10.5t-54.5 -35.5t-29 -70l-69 23q8 48 35 83t71.5 54.5t101.5 19.5q40 0 70.5 -9.5t50.5 -29.5t30.5 -50.5
t10.5 -71.5h10q5 45 22.5 76.5t43 50t55.5 26.5t59 8q45 0 83.5 -16.5t67 -51t43 -86.5t10.5 -123l-388 -4l1 56l350 4l-34 -32q3 61 -14 103t-49 63.5t-73 21.5q-45 0 -79.5 -25.5t-54 -73t-19.5 -113.5q0 -64 18.5 -108.5t55.5 -68t90 -23.5q31 0 54.5 8t40 23t28 36
t16.5 45l66 -20q-9 -37 -27 -66t-45 -49t-60.5 -30.5t-73.5 -10.5q-56 0 -99.5 19.5t-71 57.5t-37.5 93h-12q-11 -36 -30.5 -66.5t-46.5 -53.5t-60.5 -36.5t-72.5 -13.5zM215 51q23 0 47 8t47 25.5t44 44.5t38 66v111l17 -23q-25 -15 -61 -22.5t-74.5 -13.5t-72.5 -16.5
t-55.5 -32t-21.5 -62.5q0 -42 25.5 -63.5t66.5 -21.5z" />
    <glyph glyph-name="ccedilla" unicode="&#xe7;" horiz-adv-x="541" 
d="M296 -12q-67 0 -113 22t-74 59.5t-41 85t-13 97.5q0 56 14.5 105.5t43.5 88t73.5 60t103.5 21.5q44 0 80 -11.5t63 -33.5t44 -53t22 -69l-71 -18q-2 28 -17 55.5t-45 45.5t-75 18q-40 0 -70 -15t-50 -43t-31 -66t-11 -84q0 -61 18.5 -106t55.5 -70t94 -25q43 0 73.5 15
t49 42.5t24.5 67.5l69 -15q-7 -45 -26.5 -78t-47.5 -54t-64.5 -31.5t-78.5 -10.5zM192 -229l10 47q19 -4 45 -7t51 -1t42 13t17 33q0 10 -4.5 18.5t-17 15t-37 9t-64.5 -0.5l13 105h47l-6 -77q42 4 69.5 -3t42 -24.5t14.5 -46.5q0 -37 -22 -58t-56.5 -29t-73 -5.5
t-70.5 11.5z" />
    <glyph glyph-name="egrave" unicode="&#xe8;" horiz-adv-x="555" 
d="M297 -12q-60 0 -105.5 18.5t-76 53.5t-46 83t-15.5 106q0 60 15.5 110.5t45.5 88.5t74 58.5t100 20.5q48 0 88.5 -16.5t69.5 -50.5t43.5 -86t12.5 -123l-404 -4v57l357 3l-24 -42q4 65 -13 108.5t-50.5 65.5t-79.5 22q-50 0 -86.5 -25t-56.5 -72.5t-20 -113.5
q0 -95 43 -146.5t129 -51.5q34 0 59 8t43 22.5t29 34t17 42.5l65 -15q-9 -37 -27 -66t-45.5 -49t-62.5 -30.5t-79 -10.5zM263 595l-90 148h86l70 -148h-66z" />
    <glyph glyph-name="eacute" unicode="&#xe9;" horiz-adv-x="555" 
d="M297 -12q-60 0 -105.5 18.5t-76 53.5t-46 83t-15.5 106q0 60 15.5 110.5t45.5 88.5t74 58.5t100 20.5q48 0 88.5 -16.5t69.5 -50.5t43.5 -86t12.5 -123l-404 -4v57l357 3l-24 -42q4 65 -13 108.5t-50.5 65.5t-79.5 22q-50 0 -86.5 -25t-56.5 -72.5t-20 -113.5
q0 -95 43 -146.5t129 -51.5q34 0 59 8t43 22.5t29 34t17 42.5l65 -15q-9 -37 -27 -66t-45.5 -49t-62.5 -30.5t-79 -10.5zM305 595h-66l70 148h86z" />
    <glyph glyph-name="ecircumflex" unicode="&#xea;" horiz-adv-x="555" 
d="M297 -12q-60 0 -105.5 18.5t-76 53.5t-46 83t-15.5 106q0 60 15.5 110.5t45.5 88.5t74 58.5t100 20.5q48 0 88.5 -16.5t69.5 -50.5t43.5 -86t12.5 -123l-404 -4v57l357 3l-24 -42q4 65 -13 108.5t-50.5 65.5t-79.5 22q-50 0 -86.5 -25t-56.5 -72.5t-20 -113.5
q0 -95 43 -146.5t129 -51.5q34 0 59 8t43 22.5t29 34t17 42.5l65 -15q-9 -37 -27 -66t-45.5 -49t-62.5 -30.5t-79 -10.5zM141 579v70l143 101l141 -101v-70l-141 102z" />
    <glyph glyph-name="edieresis" unicode="&#xeb;" horiz-adv-x="555" 
d="M297 -12q-60 0 -105.5 18.5t-76 53.5t-46 83t-15.5 106q0 60 15.5 110.5t45.5 88.5t74 58.5t100 20.5q48 0 88.5 -16.5t69.5 -50.5t43.5 -86t12.5 -123l-404 -4v57l357 3l-24 -42q4 65 -13 108.5t-50.5 65.5t-79.5 22q-50 0 -86.5 -25t-56.5 -72.5t-20 -113.5
q0 -95 43 -146.5t129 -51.5q34 0 59 8t43 22.5t29 34t17 42.5l65 -15q-9 -37 -27 -66t-45.5 -49t-62.5 -30.5t-79 -10.5zM381 610q-26 0 -39 10.5t-13 34.5q0 23 13 34.5t39 11.5q25 0 38.5 -11t13.5 -35t-13 -34.5t-39 -10.5zM188 610q-25 0 -38.5 10.5t-13.5 34.5t13.5 35
t38.5 11t38.5 -11t13.5 -35t-13 -34.5t-39 -10.5z" />
    <glyph glyph-name="igrave" unicode="&#xec;" horiz-adv-x="234" 
d="M81 0v514h73v-514h-73zM97 595l-90 148h86l70 -148h-66z" />
    <glyph glyph-name="iacute" unicode="&#xed;" horiz-adv-x="234" 
d="M80 0v514h74v-514h-74zM139 595h-66l70 148h86z" />
    <glyph glyph-name="icircumflex" unicode="&#xee;" horiz-adv-x="234" 
d="M80 0v514h74v-514h-74zM-5 573v73l123 90l121 -90v-73l-121 91z" />
    <glyph glyph-name="idieresis" unicode="&#xef;" horiz-adv-x="234" 
d="M80 0v514h74v-514h-74zM186 611q-22 0 -34 10.5t-12 33.5q0 25 12.5 34.5t32.5 9.5q22 0 34 -10t12 -34q0 -23 -12 -33.5t-33 -10.5zM49 611q-23 0 -35.5 10.5t-12.5 34.5t12 33.5t35 9.5q22 0 34 -10t12 -34q0 -23 -11.5 -33.5t-33.5 -10.5z" />
    <glyph glyph-name="eth" unicode="&#xf0;" horiz-adv-x="579" 
d="M286 -13q-47 0 -89 14.5t-74.5 45t-50.5 78t-18 112.5q0 80 27 135.5t73 84.5t103 29q45 0 85.5 -18.5t70.5 -55.5t41 -95h16q-3 26 -14.5 67t-35 85.5t-62 83.5t-95.5 63t-135 23l-2 60q76 -1 135 -19.5t104 -49.5t75.5 -72t49 -87t27 -93t8.5 -93q0 -64 -15 -118.5
t-45.5 -94.5t-75 -62.5t-103.5 -22.5zM286 53q44 0 74 17.5t49.5 45.5t28 59.5t8.5 58.5v9q0 20 -11 50t-33 59.5t-54 49t-74 19.5q-41 0 -73.5 -22t-51.5 -63t-19 -98t19.5 -98.5t54.5 -64t82 -22.5zM175 572l262 119l24 -35l-265 -121z" />
    <glyph glyph-name="ntilde" unicode="&#xf1;" horiz-adv-x="578" 
d="M80 0v314v200h71l-12 -173h14q14 67 38.5 107.5t60.5 59.5t83 19q41 0 70.5 -13.5t49 -37.5t31 -54.5t16 -65.5t4.5 -71v-285h-74v273q0 23 -2.5 54.5t-13 61t-33.5 50t-64 20.5q-50 0 -86 -32.5t-56 -85.5t-23 -117v-224h-74zM375 600q-19 0 -40.5 7.5t-42.5 17t-39 17
t-29 7.5t-17.5 -10t-5.5 -33h-43q-6 32 -1.5 54t18.5 34.5t35 12.5q19 0 40.5 -7.5t43.5 -17t40.5 -17t28.5 -7.5q14 0 21 12.5t5 30.5h43q6 -28 1.5 -51t-19 -36.5t-39.5 -13.5z" />
    <glyph glyph-name="ograve" unicode="&#xf2;" horiz-adv-x="595" 
d="M299 -12q-72 0 -127.5 32t-86.5 93t-31 147q0 89 33 148t87.5 89t121.5 30q69 0 124.5 -31.5t88 -92t32.5 -148.5t-32 -147.5t-86.5 -89.5t-123.5 -30zM302 52q27 0 56 10t53.5 33t40 62t15.5 97q0 59 -15.5 98.5t-41 63.5t-56.5 34.5t-60 10.5q-27 0 -56 -9.5t-54 -32
t-40.5 -61t-15.5 -96.5q0 -59 15.5 -99t40.5 -64.5t56 -35.5t62 -11zM277 595l-89 148h86l69 -148h-66z" />
    <glyph glyph-name="oacute" unicode="&#xf3;" horiz-adv-x="595" 
d="M299 -12q-72 0 -127.5 32t-86.5 93t-31 147q0 89 33 148t87.5 89t121.5 30q69 0 124.5 -31.5t88 -92t32.5 -148.5t-32 -147.5t-86.5 -89.5t-123.5 -30zM302 52q27 0 56 10t53.5 33t40 62t15.5 97q0 59 -15.5 98.5t-41 63.5t-56.5 34.5t-60 10.5q-27 0 -56 -9.5t-54 -32
t-40.5 -61t-15.5 -96.5q0 -59 15.5 -99t40.5 -64.5t56 -35.5t62 -11zM319 595h-66l70 148h86z" />
    <glyph glyph-name="ocircumflex" unicode="&#xf4;" horiz-adv-x="595" 
d="M299 -12q-72 0 -127.5 32t-86.5 93t-31 147q0 89 33 148t87.5 89t121.5 30q69 0 124.5 -31.5t88 -92t32.5 -148.5t-32 -147.5t-86.5 -89.5t-123.5 -30zM302 52q27 0 56 10t53.5 33t40 62t15.5 97q0 59 -15.5 98.5t-41 63.5t-56.5 34.5t-60 10.5q-27 0 -56 -9.5t-54 -32
t-40.5 -61t-15.5 -96.5q0 -59 15.5 -99t40.5 -64.5t56 -35.5t62 -11zM156 579v70l143 101l141 -101v-70l-141 102z" />
    <glyph glyph-name="otilde" unicode="&#xf5;" horiz-adv-x="595" 
d="M299 -12q-72 0 -127.5 32t-86.5 93t-31 147q0 89 33 148t87.5 89t121.5 30q69 0 124.5 -31.5t88 -92t32.5 -148.5t-32 -147.5t-86.5 -89.5t-123.5 -30zM302 52q27 0 56 10t53.5 33t40 62t15.5 97q0 59 -15.5 98.5t-41 63.5t-56.5 34.5t-60 10.5q-27 0 -56 -9.5t-54 -32
t-40.5 -61t-15.5 -96.5q0 -59 15.5 -99t40.5 -64.5t56 -35.5t62 -11zM379 601q-19 0 -40.5 7.5t-42.5 17t-39 17t-29 7.5t-17.5 -10t-5.5 -33h-43q-6 32 -1.5 54t18.5 34.5t35 12.5q19 0 40.5 -7.5t43.5 -17t40.5 -17t28.5 -7.5q14 0 21 12.5t5 30.5h43q6 -28 1.5 -51
t-19 -36.5t-39.5 -13.5z" />
    <glyph glyph-name="odieresis" unicode="&#xf6;" horiz-adv-x="595" 
d="M299 -12q-72 0 -127.5 32t-86.5 93t-31 147q0 89 33 148t87.5 89t121.5 30q69 0 124.5 -31.5t88 -92t32.5 -148.5t-32 -147.5t-86.5 -89.5t-123.5 -30zM302 52q27 0 56 10t53.5 33t40 62t15.5 97q0 59 -15.5 98.5t-41 63.5t-56.5 34.5t-60 10.5q-27 0 -56 -9.5t-54 -32
t-40.5 -61t-15.5 -96.5q0 -59 15.5 -99t40.5 -64.5t56 -35.5t62 -11zM395 610q-26 0 -39 10.5t-13 34.5q0 23 13 34.5t39 11.5q25 0 38.5 -11t13.5 -35t-13 -34.5t-39 -10.5zM202 610q-25 0 -38.5 10.5t-13.5 34.5t13.5 35t38.5 11t38.5 -11t13.5 -35t-13 -34.5t-39 -10.5z
" />
    <glyph glyph-name="divide" unicode="&#xf7;" horiz-adv-x="502" 
d="M61 266v67h380v-67h-380zM251 411q-26 0 -39 12.5t-13 34.5t13 34t39 12t39.5 -12t13.5 -34q0 -21 -13.5 -34t-39.5 -13zM250 95q-25 0 -38 12t-13 34q0 23 13 34.5t39 11.5t39.5 -11.5t13.5 -33.5q0 -23 -13.5 -35t-40.5 -12z" />
    <glyph glyph-name="oslash" unicode="&#xf8;" horiz-adv-x="595" 
d="M108 -42l307 605h58l-307 -605h-58zM299 -12q-72 0 -127.5 32t-86.5 93t-31 147q0 89 33 148t87.5 89t121.5 30q69 0 124.5 -31.5t88 -92t32.5 -148.5t-32 -147.5t-86.5 -89.5t-123.5 -30zM302 52q27 0 56 10t53.5 33t40 62t15.5 97q0 59 -15.5 98.5t-41 63.5t-56.5 34.5
t-60 10.5q-27 0 -56 -9.5t-54 -32t-40.5 -61t-15.5 -96.5q0 -59 15.5 -99t40.5 -64.5t56 -35.5t62 -11z" />
    <glyph glyph-name="ugrave" unicode="&#xf9;" horiz-adv-x="570" 
d="M244 -12q-39 0 -68 12t-49 33.5t-32 52t-17.5 66.5t-5.5 77v285h75v-268q0 -33 3 -67t14 -62t34 -45t63 -17q33 0 59 16t46 46t32.5 71t18.5 91v235h73v-293v-221h-69l11 172h-14q-12 -65 -36 -105.5t-59 -59.5t-79 -19zM260 595l-89 148h86l70 -148h-67z" />
    <glyph glyph-name="uacute" unicode="&#xfa;" horiz-adv-x="570" 
d="M244 -12q-39 0 -68 12t-49 33.5t-32 52t-17.5 66.5t-5.5 77v285h75v-268q0 -33 3 -67t14 -62t34 -45t63 -17q33 0 59 16t46 46t32.5 71t18.5 91v235h73v-293v-221h-69l11 172h-14q-12 -65 -36 -105.5t-59 -59.5t-79 -19zM303 595h-66l70 148h86z" />
    <glyph glyph-name="ucircumflex" unicode="&#xfb;" horiz-adv-x="570" 
d="M244 -12q-39 0 -68 12t-49 33.5t-32 52t-17.5 66.5t-5.5 77v285h75v-268q0 -33 3 -67t14 -62t34 -45t63 -17q33 0 59 16t46 46t32.5 71t18.5 91v235h73v-293v-221h-69l11 172h-14q-12 -65 -36 -105.5t-59 -59.5t-79 -19zM139 579v70l143 101l141 -101v-70l-141 102z" />
    <glyph glyph-name="udieresis" unicode="&#xfc;" horiz-adv-x="570" 
d="M244 -12q-39 0 -68 12t-49 33.5t-32 52t-17.5 66.5t-5.5 77v285h75v-268q0 -33 3 -67t14 -62t34 -45t63 -17q33 0 59 16t46 46t32.5 71t18.5 91v235h73v-293v-221h-69l11 172h-14q-12 -65 -36 -105.5t-59 -59.5t-79 -19zM379 610q-26 0 -39 10.5t-13 34.5q0 23 13 34.5
t39 11.5q25 0 38.5 -11t13.5 -35t-13 -34.5t-39 -10.5zM186 610q-25 0 -38.5 10.5t-13.5 34.5t13.5 35t38.5 11t38.5 -11t13.5 -35t-13 -34.5t-39 -10.5z" />
    <glyph glyph-name="yacute" unicode="&#xfd;" horiz-adv-x="573" 
d="M261 -169q-40 0 -79 9.5t-70.5 30t-51.5 51.5l47 48q21 -34 61 -52.5t90 -18.5q46 0 78.5 15.5t53.5 46t31 75.5t10 103l12 108h-17q-11 -76 -35.5 -120.5t-59 -63.5t-79.5 -19q-50 0 -82.5 20t-50.5 50.5t-26.5 65t-10.5 64t-2 45.5v225h73v-204q0 -16 1 -41t6.5 -52.5
t18 -51t35 -39t57.5 -15.5q34 0 60.5 17t45.5 49.5t29.5 79.5t13.5 107v150h74v-380q0 -43 -5 -82t-15.5 -73t-28.5 -61t-44 -47t-60.5 -30t-79.5 -10zM310 595h-66l70 148h86z" />
    <glyph glyph-name="thorn" unicode="&#xfe;" horiz-adv-x="592" 
d="M80 -153v409v438h74v-157q0 -26 -2.5 -56t-6 -60.5t-8.5 -60.5h16q10 42 30.5 80t57 62.5t91.5 24.5q65 0 110.5 -34.5t70 -95.5t24.5 -141q0 -79 -24 -139.5t-70 -95t-112 -34.5q-50 0 -84.5 20.5t-56 55t-33.5 76.5h-16q2 -17 5 -37t5 -41.5t2.5 -42t0.5 -39.5v-132
h-74zM320 53q44 0 75.5 24.5t48.5 69.5t17 107q0 59 -16.5 105t-48.5 73.5t-78 27.5q-34 0 -61 -14t-46.5 -37.5t-32 -50.5t-18.5 -53t-6 -46v-10q0 -31 11 -65.5t32.5 -64t52 -48t70.5 -18.5z" />
    <glyph glyph-name="ydieresis" unicode="&#xff;" horiz-adv-x="573" 
d="M261 -169q-40 0 -79 9.5t-70.5 30t-51.5 51.5l47 48q21 -34 61 -52.5t90 -18.5q46 0 78.5 15.5t53.5 46t31 75.5t10 103l12 108h-17q-11 -76 -35.5 -120.5t-59 -63.5t-79.5 -19q-50 0 -82.5 20t-50.5 50.5t-26.5 65t-10.5 64t-2 45.5v225h73v-204q0 -16 1 -41t6.5 -52.5
t18 -51t35 -39t57.5 -15.5q34 0 60.5 17t45.5 49.5t29.5 79.5t13.5 107v150h74v-380q0 -43 -5 -82t-15.5 -73t-28.5 -61t-44 -47t-60.5 -30t-79.5 -10zM386 610q-26 0 -39 10.5t-13 34.5q0 23 13 34.5t39 11.5q25 0 38.5 -11t13.5 -35t-13 -34.5t-39 -10.5zM193 610
q-25 0 -38.5 10.5t-13.5 34.5t13.5 35t38.5 11t38.5 -11t13.5 -35t-13 -34.5t-39 -10.5z" />
    <glyph glyph-name="Amacron" unicode="&#x100;" horiz-adv-x="640" 
d="M32 0l234 660h108l234 -660h-79l-204 595h-10l-203 -595h-80zM136 154v61h376v-61h-376zM190 769v61h258v-61h-258z" />
    <glyph glyph-name="amacron" unicode="&#x101;" horiz-adv-x="543" 
d="M199 -12q-42 0 -76 15.5t-54 47t-20 80.5q0 50 21 81t55.5 48.5t75 26t81.5 14.5q44 6 68 11.5t34 16.5t10 33q0 29 -12.5 51.5t-37.5 35.5t-64 13q-31 0 -63 -10t-55.5 -35t-29.5 -70l-69 23q6 36 23.5 64.5t45 49.5t64.5 32t81 11q63 0 101 -18.5t57 -48.5t26 -65
t7 -68v-118q0 -31 1 -67.5t4 -73.5t6 -68h-70q-3 35 -4 68t-2 67h-11q-14 -39 -39.5 -72.5t-63 -54t-90.5 -20.5zM215 51q23 0 47.5 8t49 25.5t45.5 45.5t38 68v98l28 -3q-15 -17 -42.5 -25.5t-61.5 -13.5t-68.5 -11t-63.5 -17.5t-46.5 -32.5t-17.5 -57q0 -42 25.5 -63.5
t66.5 -21.5zM146 623v61h258v-61h-258z" />
    <glyph glyph-name="Abreve" unicode="&#x102;" horiz-adv-x="640" 
d="M32 0l234 660h108l234 -660h-79l-204 595h-10l-203 -595h-80zM136 154v61h376v-61h-376zM196 859h58q-2 -25 12 -46.5t54 -21.5q39 0 52.5 20.5t12.5 47.5h57q2 -35 -11.5 -61.5t-41.5 -42t-70 -15.5q-43 0 -71 15.5t-41 42.5t-11 61z" />
    <glyph glyph-name="abreve" unicode="&#x103;" horiz-adv-x="543" 
d="M199 -12q-42 0 -76 15.5t-54 47t-20 80.5q0 50 21 81t55.5 48.5t75 26t81.5 14.5q44 6 68 11.5t34 16.5t10 33q0 29 -12.5 51.5t-37.5 35.5t-64 13q-31 0 -63 -10t-55.5 -35t-29.5 -70l-69 23q6 36 23.5 64.5t45 49.5t64.5 32t81 11q63 0 101 -18.5t57 -48.5t26 -65
t7 -68v-118q0 -31 1 -67.5t4 -73.5t6 -68h-70q-3 35 -4 68t-2 67h-11q-14 -39 -39.5 -72.5t-63 -54t-90.5 -20.5zM215 51q23 0 47.5 8t49 25.5t45.5 45.5t38 68v98l28 -3q-15 -17 -42.5 -25.5t-61.5 -13.5t-68.5 -11t-63.5 -17.5t-46.5 -32.5t-17.5 -57q0 -42 25.5 -63.5
t66.5 -21.5zM152 713h58q-2 -25 12 -46.5t54 -21.5q39 0 52.5 20.5t12.5 47.5h57q2 -35 -11.5 -61.5t-41.5 -42t-70 -15.5q-43 0 -71 15.5t-41 42.5t-11 61z" />
    <glyph glyph-name="Aogonek" unicode="&#x104;" horiz-adv-x="640" 
d="M32 0l234 660h108l234 -660h-79l-204 595h-10l-203 -595h-80zM136 154v61h376v-61h-376zM606 -177q-20 -6 -44 -6t-45.5 6.5t-35 22.5t-13.5 44q0 27 14.5 46.5t36 33.5t40.5 21v14h44v-5q-33 -16 -53.5 -42t-20.5 -49q0 -14 8 -21t19.5 -9t25 -0.5t24.5 3.5v-59z" />
    <glyph glyph-name="aogonek" unicode="&#x105;" horiz-adv-x="543" 
d="M199 -12q-42 0 -76 15.5t-54 47t-20 80.5q0 50 21 81t55.5 48.5t75 26t81.5 14.5q44 6 68 11.5t34 16.5t10 33q0 29 -12.5 51.5t-37.5 35.5t-64 13q-31 0 -63 -10t-55.5 -35t-29.5 -70l-69 23q6 36 23.5 64.5t45 49.5t64.5 32t81 11q63 0 101 -18.5t57 -48.5t26 -65
t7 -68v-118q0 -31 1 -67.5t4 -73.5t6 -68h-70q-3 35 -4 68t-2 67h-11q-14 -39 -39.5 -72.5t-63 -54t-90.5 -20.5zM215 51q23 0 47.5 8t49 25.5t45.5 45.5t38 68v98l28 -3q-15 -17 -42.5 -25.5t-61.5 -13.5t-68.5 -11t-63.5 -17.5t-46.5 -32.5t-17.5 -57q0 -42 25.5 -63.5
t66.5 -21.5zM481 -177q-20 -6 -44 -6t-45.5 6.5t-35 22.5t-13.5 44q0 27 14.5 46.5t36 33.5t40.5 21v14h44v-5q-33 -16 -53.5 -42t-20.5 -49q0 -14 8 -21t19.5 -9t25 -0.5t24.5 3.5v-59z" />
    <glyph glyph-name="Cacute" unicode="&#x106;" horiz-adv-x="658" 
d="M359 -12q-69 0 -124 22t-93 65.5t-57.5 105.5t-19.5 141q0 80 20 144.5t58 110.5t91.5 70.5t120.5 24.5q51 0 94.5 -14.5t75 -42t49.5 -67t18 -87.5l-71 -17q1 54 -21.5 89.5t-61 53.5t-84.5 18q-43 0 -81.5 -17t-68 -51t-47 -87t-17.5 -127q0 -93 27.5 -152t77.5 -86.5
t118 -27.5q63 0 102.5 23t59 65.5t22.5 101.5l68 -13q-1 -51 -16 -95.5t-46 -78.5t-79 -53t-115 -19zM356 741h-66l70 148h86z" />
    <glyph glyph-name="cacute" unicode="&#x107;" horiz-adv-x="541" 
d="M296 -12q-67 0 -113 22t-74 59.5t-41 85t-13 97.5q0 56 14.5 105.5t43.5 88t73.5 60t103.5 21.5q44 0 80 -11.5t63 -33.5t44 -53t22 -69l-71 -18q-2 28 -17 55.5t-45 45.5t-75 18q-40 0 -70 -15t-50 -43t-31 -66t-11 -84q0 -61 18.5 -106t55.5 -70t94 -25q43 0 73.5 15
t49 42.5t24.5 67.5l69 -15q-7 -45 -26.5 -78t-47.5 -54t-64.5 -31.5t-78.5 -10.5zM307 595h-66l70 148h86z" />
    <glyph glyph-name="Cdotaccent" unicode="&#x10a;" horiz-adv-x="658" 
d="M359 -12q-69 0 -124 22t-93 65.5t-57.5 105.5t-19.5 141q0 80 20 144.5t58 110.5t91.5 70.5t120.5 24.5q51 0 94.5 -14.5t75 -42t49.5 -67t18 -87.5l-71 -17q1 54 -21.5 89.5t-61 53.5t-84.5 18q-43 0 -81.5 -17t-68 -51t-47 -87t-17.5 -127q0 -93 27.5 -152t77.5 -86.5
t118 -27.5q63 0 102.5 23t59 65.5t22.5 101.5l68 -13q-1 -51 -16 -95.5t-46 -78.5t-79 -53t-115 -19zM334 753q-27 0 -41 11.5t-14 33.5q0 23 14 34.5t41 11.5q28 0 42 -11.5t14 -34.5q0 -22 -14 -33.5t-42 -11.5z" />
    <glyph glyph-name="cdotaccent" unicode="&#x10b;" horiz-adv-x="541" 
d="M296 -12q-67 0 -113 22t-74 59.5t-41 85t-13 97.5q0 56 14.5 105.5t43.5 88t73.5 60t103.5 21.5q44 0 80 -11.5t63 -33.5t44 -53t22 -69l-71 -18q-2 28 -17 55.5t-45 45.5t-75 18q-40 0 -70 -15t-50 -43t-31 -66t-11 -84q0 -61 18.5 -106t55.5 -70t94 -25q43 0 73.5 15
t49 42.5t24.5 67.5l69 -15q-7 -45 -26.5 -78t-47.5 -54t-64.5 -31.5t-78.5 -10.5zM285 607q-27 0 -41 11.5t-14 33.5q0 23 14 34.5t41 11.5q28 0 42 -11.5t14 -34.5q0 -22 -14 -33.5t-42 -11.5z" />
    <glyph glyph-name="Ccaron" unicode="&#x10c;" horiz-adv-x="658" 
d="M359 -12q-69 0 -124 22t-93 65.5t-57.5 105.5t-19.5 141q0 80 20 144.5t58 110.5t91.5 70.5t120.5 24.5q51 0 94.5 -14.5t75 -42t49.5 -67t18 -87.5l-71 -17q1 54 -21.5 89.5t-61 53.5t-84.5 18q-43 0 -81.5 -17t-68 -51t-47 -87t-17.5 -127q0 -93 27.5 -152t77.5 -86.5
t118 -27.5q63 0 102.5 23t59 65.5t22.5 101.5l68 -13q-1 -51 -16 -95.5t-46 -78.5t-79 -53t-115 -19zM193 896l143 -102l141 102v-70l-141 -101l-143 101v70z" />
    <glyph glyph-name="ccaron" unicode="&#x10d;" horiz-adv-x="541" 
d="M296 -12q-67 0 -113 22t-74 59.5t-41 85t-13 97.5q0 56 14.5 105.5t43.5 88t73.5 60t103.5 21.5q44 0 80 -11.5t63 -33.5t44 -53t22 -69l-71 -18q-2 28 -17 55.5t-45 45.5t-75 18q-40 0 -70 -15t-50 -43t-31 -66t-11 -84q0 -61 18.5 -106t55.5 -70t94 -25q43 0 73.5 15
t49 42.5t24.5 67.5l69 -15q-7 -45 -26.5 -78t-47.5 -54t-64.5 -31.5t-78.5 -10.5zM145 751l142 -102l141 102v-70l-141 -101l-142 101v70z" />
    <glyph glyph-name="Dcaron" unicode="&#x10e;" horiz-adv-x="675" 
d="M129 0v66h196q52 0 91.5 19t65.5 54t39 83t13 106t-11.5 107t-38 84.5t-72.5 55t-116 19.5h-167v66h166q109 0 178.5 -39t103 -112t33.5 -174q0 -78 -17 -135t-46 -95.5t-66 -61.5t-76.5 -33t-77.5 -10h-198zM87 0v660h74v-660h-74zM181 896l142 -102l141 102v-70
l-141 -101l-142 101v70z" />
    <glyph glyph-name="dcaron" unicode="&#x10f;" horiz-adv-x="591" 
d="M261 -12q-65 0 -111.5 34t-70.5 95t-24 140q0 78 24 139t69.5 96t111.5 35q56 0 91.5 -24.5t56.5 -62.5t31 -80h15q-4 30 -8 62.5t-6.5 63.5t-2.5 56v152h74v-441v-253h-69l7 139h-14q-12 -43 -34 -77t-56 -54t-84 -20zM272 54q39 0 69.5 18.5t52 48t32.5 63.5t11 65v10
q0 20 -5.5 46t-18 53t-31.5 50t-45.5 37t-60.5 14q-48 0 -80 -27t-48.5 -73t-16.5 -106t16.5 -104.5t48.5 -69.5t76 -25zM576 598q8 34 12.5 59.5t5.5 43t1 27.5h70q0 -28 -9.5 -63t-26.5 -67h-53z" />
    <glyph glyph-name="Dcroat" unicode="&#x110;" horiz-adv-x="737" 
d="M61 379h265v-60h-265v60zM192 0v66h196q52 0 91 19t65.5 54t39 83t12.5 106t-11.5 107t-38 84.5t-72.5 55t-115 19.5h-167v66h166q109 0 178.5 -39t103 -112t33.5 -174q0 -78 -17.5 -135t-46.5 -95.5t-66 -61.5t-76.5 -33t-77.5 -10h-197zM149 0v660h75v-660h-75z" />
    <glyph glyph-name="dcroat" unicode="&#x111;" horiz-adv-x="579" 
d="M227 635h356v-43h-356v43zM261 -12q-65 0 -111.5 34t-70.5 95t-24 140q0 78 24 139t69.5 96t111.5 35q56 0 91.5 -24.5t56.5 -62.5t31 -80h15q-4 30 -8 62.5t-6.5 63.5t-2.5 56v152h74v-441v-253h-69l7 139h-14q-12 -43 -34 -77t-56 -54t-84 -20zM272 54q39 0 69.5 18.5
t52 48t32.5 63.5t11 65v10q0 20 -5.5 46t-18 53t-31.5 50t-45.5 37t-60.5 14q-48 0 -80 -27t-48.5 -73t-16.5 -106t16.5 -104.5t48.5 -69.5t76 -25z" />
    <glyph glyph-name="Emacron" unicode="&#x112;" horiz-adv-x="572" 
d="M87 0v660h75v-660h-75zM117 0v66h418v-66h-418zM117 306v64h371v-64h-371zM117 594v66h417v-66h-417zM161 769v61h258v-61h-258z" />
    <glyph glyph-name="emacron" unicode="&#x113;" horiz-adv-x="555" 
d="M297 -12q-60 0 -105.5 18.5t-76 53.5t-46 83t-15.5 106q0 60 15.5 110.5t45.5 88.5t74 58.5t100 20.5q48 0 88.5 -16.5t69.5 -50.5t43.5 -86t12.5 -123l-404 -4v57l357 3l-24 -42q4 65 -13 108.5t-50.5 65.5t-79.5 22q-50 0 -86.5 -25t-56.5 -72.5t-20 -113.5
q0 -95 43 -146.5t129 -51.5q34 0 59 8t43 22.5t29 34t17 42.5l65 -15q-9 -37 -27 -66t-45.5 -49t-62.5 -30.5t-79 -10.5zM155 623v61h258v-61h-258z" />
    <glyph glyph-name="Edotaccent" unicode="&#x116;" horiz-adv-x="572" 
d="M87 0v660h75v-660h-75zM117 0v66h418v-66h-418zM117 306v64h371v-64h-371zM117 594v66h417v-66h-417zM289 753q-27 0 -41 11.5t-14 33.5q0 23 14 34.5t41 11.5q28 0 42 -11.5t14 -34.5q0 -22 -14 -33.5t-42 -11.5z" />
    <glyph glyph-name="edotaccent" unicode="&#x117;" horiz-adv-x="555" 
d="M297 -12q-60 0 -105.5 18.5t-76 53.5t-46 83t-15.5 106q0 60 15.5 110.5t45.5 88.5t74 58.5t100 20.5q48 0 88.5 -16.5t69.5 -50.5t43.5 -86t12.5 -123l-404 -4v57l357 3l-24 -42q4 65 -13 108.5t-50.5 65.5t-79.5 22q-50 0 -86.5 -25t-56.5 -72.5t-20 -113.5
q0 -95 43 -146.5t129 -51.5q34 0 59 8t43 22.5t29 34t17 42.5l65 -15q-9 -37 -27 -66t-45.5 -49t-62.5 -30.5t-79 -10.5zM283 607q-27 0 -41 11.5t-14 33.5q0 23 14 34.5t41 11.5q28 0 42 -11.5t14 -34.5q0 -22 -14 -33.5t-42 -11.5z" />
    <glyph glyph-name="Eogonek" unicode="&#x118;" horiz-adv-x="572" 
d="M87 0v660h75v-660h-75zM117 0v66h418v-66h-418zM117 306v64h371v-64h-371zM117 594v66h417v-66h-417zM538 -177q-20 -6 -44 -6t-45.5 6.5t-35 22.5t-13.5 44q0 27 14.5 46.5t36 33.5t40.5 21v14h44v-5q-33 -16 -53.5 -42t-20.5 -49q0 -14 8 -21t19.5 -9t25 -0.5t24.5 3.5
v-59z" />
    <glyph glyph-name="eogonek" unicode="&#x119;" horiz-adv-x="555" 
d="M481 -161q-20 -6 -45 -7t-48 5t-38.5 21.5t-15.5 44.5q0 17 7.5 33.5t21 30.5t32.5 25v43l75 46l4 -10q-16 -25 -35 -48t-32.5 -45.5t-13.5 -44.5q0 -19 9.5 -27.5t23.5 -10t29 0.5t26 4v-61zM297 -12q-60 0 -105.5 18.5t-76 53.5t-46 83t-15.5 106q0 60 15.5 110.5
t45.5 88.5t74 58.5t100 20.5q48 0 88.5 -16.5t69.5 -50.5t43.5 -86t12.5 -123l-404 -4v57l357 3l-24 -42q4 65 -13 108.5t-50.5 65.5t-79.5 22q-50 0 -86.5 -25t-56.5 -72.5t-20 -113.5q0 -95 43 -146.5t129 -51.5q34 0 59 8t43 22.5t29 34t17 42.5l65 -15q-9 -37 -27 -66
t-45.5 -49t-62.5 -30.5t-79 -10.5z" />
    <glyph glyph-name="Ecaron" unicode="&#x11a;" horiz-adv-x="572" 
d="M87 0v660h75v-660h-75zM117 0v66h418v-66h-418zM117 306v64h371v-64h-371zM117 594v66h417v-66h-417zM149 896l142 -102l141 102v-70l-141 -101l-142 101v70z" />
    <glyph glyph-name="ecaron" unicode="&#x11b;" horiz-adv-x="555" 
d="M297 -12q-60 0 -105.5 18.5t-76 53.5t-46 83t-15.5 106q0 60 15.5 110.5t45.5 88.5t74 58.5t100 20.5q48 0 88.5 -16.5t69.5 -50.5t43.5 -86t12.5 -123l-404 -4v57l357 3l-24 -42q4 65 -13 108.5t-50.5 65.5t-79.5 22q-50 0 -86.5 -25t-56.5 -72.5t-20 -113.5
q0 -95 43 -146.5t129 -51.5q34 0 59 8t43 22.5t29 34t17 42.5l65 -15q-9 -37 -27 -66t-45.5 -49t-62.5 -30.5t-79 -10.5zM142 751l143 -102l141 102v-70l-141 -101l-143 101v70z" />
    <glyph glyph-name="Gbreve" unicode="&#x11e;" horiz-adv-x="686" 
d="M342 -12q-80 0 -143 37.5t-98.5 112.5t-35.5 190q0 80 19 143.5t56.5 108.5t92 68.5t126.5 23.5q52 0 95 -13.5t75.5 -39.5t52.5 -64.5t26 -88.5l-72 -19q-4 44 -20.5 74.5t-41.5 49t-55 26.5t-61 8q-46 0 -85.5 -15.5t-68.5 -48t-45.5 -85t-16.5 -127.5
q0 -79 17.5 -131.5t47 -83.5t67.5 -44t77 -13q56 0 96 21.5t64.5 65.5t31.5 111h-157v64h231v-93v-226h-67l24 184h-13q-13 -66 -40.5 -109.5t-71.5 -65t-107 -21.5zM221 859h58q-2 -25 12 -46.5t54 -21.5q39 0 52.5 20.5t12.5 47.5h57q2 -35 -11.5 -61.5t-41.5 -42
t-70 -15.5q-43 0 -71 15.5t-41 42.5t-11 61z" />
    <glyph glyph-name="gbreve" unicode="&#x11f;" horiz-adv-x="574" 
d="M270 -171q-82 0 -133 12.5t-75.5 38t-24.5 62.5q0 45 35.5 75t110.5 42v17q-54 -1 -80 12.5t-26 38.5q0 27 26.5 44.5t85.5 34.5v17q-61 1 -92.5 37t-31.5 92q0 51 28 88t79 56.5t121 19.5h237v-66l-158 25v-17q57 -13 88 -43.5t31 -80.5q0 -43 -24.5 -75.5t-72.5 -50.5
t-119 -18q-15 0 -30 1.5t-37 5.5q-31 -17 -49 -32t-18 -27t17.5 -18.5t42 -9t44.5 -2.5h111q19 0 49 -4t60.5 -16.5t51 -39.5t20.5 -72q0 -53 -31.5 -85.5t-91 -47t-144.5 -14.5zM267 -108q69 0 113.5 8.5t65.5 28t21 49.5q0 28 -14.5 43t-36.5 21.5t-44.5 8t-39.5 1.5h-114
q-63 -17 -86 -40.5t-23 -49.5q0 -30 22 -45t58 -20t78 -5zM283 244q67 0 102 27t35 74q0 49 -35.5 81t-105.5 32q-67 0 -103.5 -30.5t-36.5 -78.5q0 -32 16.5 -55.5t48.5 -36.5t79 -13zM159 715h58q-2 -25 12 -46.5t54 -21.5q39 0 52.5 20.5t12.5 47.5h57q2 -35 -11.5 -61.5
t-41.5 -42t-70 -15.5q-43 0 -71 15.5t-41 42.5t-11 61z" />
    <glyph glyph-name="Gdotaccent" unicode="&#x120;" horiz-adv-x="686" 
d="M342 -12q-80 0 -143 37.5t-98.5 112.5t-35.5 190q0 80 19 143.5t56.5 108.5t92 68.5t126.5 23.5q52 0 95 -13.5t75.5 -39.5t52.5 -64.5t26 -88.5l-72 -19q-4 44 -20.5 74.5t-41.5 49t-55 26.5t-61 8q-46 0 -85.5 -15.5t-68.5 -48t-45.5 -85t-16.5 -127.5
q0 -79 17.5 -131.5t47 -83.5t67.5 -44t77 -13q56 0 96 21.5t64.5 65.5t31.5 111h-157v64h231v-93v-226h-67l24 184h-13q-13 -66 -40.5 -109.5t-71.5 -65t-107 -21.5zM344 753q-27 0 -41 11.5t-14 33.5q0 23 14 34.5t41 11.5q28 0 42 -11.5t14 -34.5q0 -22 -14 -33.5
t-42 -11.5z" />
    <glyph glyph-name="gdotaccent" unicode="&#x121;" horiz-adv-x="574" 
d="M270 -171q-82 0 -133 12.5t-75.5 38t-24.5 62.5q0 45 35.5 75t110.5 42v17q-54 -1 -80 12.5t-26 38.5q0 27 26.5 44.5t85.5 34.5v17q-61 1 -92.5 37t-31.5 92q0 51 28 88t79 56.5t121 19.5h237v-66l-158 25v-17q57 -13 88 -43.5t31 -80.5q0 -43 -24.5 -75.5t-72.5 -50.5
t-119 -18q-15 0 -30 1.5t-37 5.5q-31 -17 -49 -32t-18 -27t17.5 -18.5t42 -9t44.5 -2.5h111q19 0 49 -4t60.5 -16.5t51 -39.5t20.5 -72q0 -53 -31.5 -85.5t-91 -47t-144.5 -14.5zM267 -108q69 0 113.5 8.5t65.5 28t21 49.5q0 28 -14.5 43t-36.5 21.5t-44.5 8t-39.5 1.5h-114
q-63 -17 -86 -40.5t-23 -49.5q0 -30 22 -45t58 -20t78 -5zM283 244q67 0 102 27t35 74q0 49 -35.5 81t-105.5 32q-67 0 -103.5 -30.5t-36.5 -78.5q0 -32 16.5 -55.5t48.5 -36.5t79 -13zM282 609q-27 0 -41 11.5t-14 33.5q0 23 14 34.5t41 11.5q28 0 42 -11.5t14 -34.5
q0 -22 -14 -33.5t-42 -11.5z" />
    <glyph glyph-name="uni0122" unicode="&#x122;" horiz-adv-x="686" 
d="M342 -12q-80 0 -143 37.5t-98.5 112.5t-35.5 190q0 80 19 143.5t56.5 108.5t92 68.5t126.5 23.5q52 0 95 -13.5t75.5 -39.5t52.5 -64.5t26 -88.5l-72 -19q-4 44 -20.5 74.5t-41.5 49t-55 26.5t-61 8q-46 0 -85.5 -15.5t-68.5 -48t-45.5 -85t-16.5 -127.5
q0 -79 17.5 -131.5t47 -83.5t67.5 -44t77 -13q56 0 96 21.5t64.5 65.5t31.5 111h-157v64h231v-93v-226h-67l24 184h-13q-13 -66 -40.5 -109.5t-71.5 -65t-107 -21.5zM289 -219q14 64 17.5 103.5t3.5 59.5h70q0 -35 -9 -76.5t-24 -86.5h-58z" />
    <glyph glyph-name="uni0123" unicode="&#x123;" horiz-adv-x="574" 
d="M270 -171q-82 0 -133 12.5t-75.5 38t-24.5 62.5q0 45 35.5 75t110.5 42v17q-54 -1 -80 12.5t-26 38.5q0 27 26.5 44.5t85.5 34.5v17q-61 1 -92.5 37t-31.5 92q0 51 28 88t79 56.5t121 19.5h237v-66l-158 25v-17q57 -13 88 -43.5t31 -80.5q0 -43 -24.5 -75.5t-72.5 -50.5
t-119 -18q-15 0 -30 1.5t-37 5.5q-31 -17 -49 -32t-18 -27t17.5 -18.5t42 -9t44.5 -2.5h111q19 0 49 -4t60.5 -16.5t51 -39.5t20.5 -72q0 -53 -31.5 -85.5t-91 -47t-144.5 -14.5zM267 -108q69 0 113.5 8.5t65.5 28t21 49.5q0 28 -14.5 43t-36.5 21.5t-44.5 8t-39.5 1.5h-114
q-63 -17 -86 -40.5t-23 -49.5q0 -30 22 -45t58 -20t78 -5zM283 244q67 0 102 27t35 74q0 49 -35.5 81t-105.5 32q-67 0 -103.5 -30.5t-36.5 -78.5q0 -32 16.5 -55.5t48.5 -36.5t79 -13zM328 727q-8 -29 -12.5 -53.5t-6 -42.5t-1.5 -31h-71q0 21 4.5 43.5t13 44.5t18.5 39h55
z" />
    <glyph glyph-name="Hbar" unicode="&#x126;" horiz-adv-x="821" 
d="M80 548h662v-58h-662v58zM602 0v660h74v-660h-74zM162 0v660h75v-660h-75zM195 305v66h437v-66h-437z" />
    <glyph glyph-name="hbar" unicode="&#x127;" horiz-adv-x="575" 
d="M-4 635h342v-43h-342v43zM77 0v300v394h77v-159q0 -22 -1.5 -45.5t-4 -48t-5.5 -49.5l-6 -50h15q14 63 37.5 104t59 61t83.5 20q51 0 83.5 -19t50 -49.5t26 -64.5t10 -65.5t1.5 -51.5v-277h-74v262q0 31 -3 65.5t-13.5 64t-33.5 48.5t-64 19q-49 0 -83 -29t-54 -79
t-27 -114v-237h-74z" />
    <glyph glyph-name="Itilde" unicode="&#x128;" horiz-adv-x="250" 
d="M87 0v660h76v-660h-76zM188 738q-25 0 -46.5 12t-38.5 24t-31 12q-12 0 -17 -10.5t-4 -25.5h-43q-6 28 -3 49t16 33t36 12q25 0 46 -12.5t39.5 -24.5t33.5 -12q13 0 18 10.5t3 26.5h44q7 -24 3.5 -46t-17 -35t-39.5 -13z" />
    <glyph glyph-name="itilde" unicode="&#x129;" horiz-adv-x="234" 
d="M80 0v514h74v-514h-74zM181 592q-25 0 -46.5 12t-38.5 24t-31 12q-12 0 -17 -10.5t-4 -25.5h-43q-6 28 -3 49t16 33t36 12q25 0 46 -12.5t39.5 -24.5t33.5 -12q13 0 18 10.5t3 26.5h44q7 -24 3.5 -46t-17 -35t-39.5 -13z" />
    <glyph glyph-name="Imacron" unicode="&#x12a;" horiz-adv-x="250" 
d="M87 0v660h76v-660h-76zM14 765v61h222v-61h-222z" />
    <glyph glyph-name="imacron" unicode="&#x12b;" horiz-adv-x="234" 
d="M80 0v514h74v-514h-74zM7 619v61h222v-61h-222z" />
    <glyph glyph-name="Iogonek" unicode="&#x12e;" horiz-adv-x="250" 
d="M87 0v660h76v-660h-76zM166 -177q-20 -6 -44 -6t-45.5 6.5t-35 22.5t-13.5 44q0 27 14.5 46.5t36 33.5t40.5 21v14h44v-5q-33 -16 -53.5 -42t-20.5 -49q0 -14 8 -21t19.5 -9t25 -0.5t24.5 3.5v-59z" />
    <glyph glyph-name="iogonek" unicode="&#x12f;" horiz-adv-x="234" 
d="M80 0v514h74v-514h-74zM117 607q-27 0 -41 11.5t-14 33.5q0 23 14 34.5t41 11.5q28 0 42 -11.5t14 -34.5q0 -22 -14 -33.5t-42 -11.5zM158 -177q-20 -6 -44 -6t-45.5 6.5t-35 22.5t-13.5 44q0 27 14.5 46.5t36 33.5t40.5 21v14h44v-5q-33 -16 -53.5 -42t-20.5 -49
q0 -14 8 -21t19.5 -9t25 -0.5t24.5 3.5v-59z" />
    <glyph glyph-name="Idotaccent" unicode="&#x130;" horiz-adv-x="250" 
d="M87 0v660h76v-660h-76zM124 753q-27 0 -41 11.5t-14 33.5q0 23 14 34.5t41 11.5q28 0 42 -11.5t14 -34.5q0 -22 -14 -33.5t-42 -11.5z" />
    <glyph glyph-name="dotlessi" unicode="&#x131;" horiz-adv-x="234" 
d="M80 0v514h74v-514h-74z" />
    <glyph glyph-name="IJ" unicode="&#x132;" horiz-adv-x="587" 
d="M87 0v660h76v-660h-76zM274 -9l-16 71q10 -1 19 -1.5t15 -0.5q58 0 87 19t39 56.5t10 91.5v433h74v-433q0 -69 -16.5 -122.5t-60.5 -84t-125 -30.5h-11t-15 1z" />
    <glyph glyph-name="ij" unicode="&#x133;" horiz-adv-x="480" 
d="M81 0v514h74v-514h-74zM118 607q-27 0 -41 11.5t-14 33.5q0 23 14 34.5t41 11.5q28 0 42 -11.5t14 -34.5q0 -22 -14 -33.5t-42 -11.5zM266 -175q-15 0 -33 3.5t-38 9.5l-6 70q72 -19 104.5 -4.5t32.5 81.5v529h74v-514q0 -42 -8 -75t-24.5 -55t-41.5 -33.5t-60 -11.5z
M362 607q-27 0 -41 11.5t-14 33.5q0 23 14 34.5t41 11.5q28 0 42 -11.5t14 -34.5q0 -22 -14 -33.5t-42 -11.5z" />
    <glyph glyph-name="uni0136" unicode="&#x136;" horiz-adv-x="640" 
d="M87 0v660h74v-321q59 18 114 50t102 74.5t82 92.5t52 104h81q-20 -61 -53.5 -112.5t-75.5 -93.5t-87 -72.5t-91 -48.5v-12q54 -1 95 -15t73.5 -41t58.5 -66.5t47 -92.5l38 -106h-83l-25 78q-24 66 -55.5 110.5t-81.5 67.5t-131 23h-60v-279h-74zM269 -219
q14 64 17.5 103.5t3.5 59.5h70q0 -35 -9 -76.5t-24 -86.5h-58z" />
    <glyph glyph-name="uni0137" unicode="&#x137;" horiz-adv-x="527" 
d="M80 0v694h74v-398q42 20 81.5 48t72.5 59t57 60.5t35 51.5h87q-20 -37 -50 -74t-66.5 -69.5t-75.5 -56t-76 -34.5v-10q46 2 82.5 -14.5t66 -45.5t55.5 -67t51 -81l33 -63h-84l-25 48q-29 52 -60 94t-69.5 66.5t-91.5 24.5h-23v-233h-74zM221 -219q14 64 17.5 103.5
t3.5 59.5h70q0 -35 -9 -76.5t-24 -86.5h-58z" />
    <glyph glyph-name="Lacute" unicode="&#x139;" horiz-adv-x="501" 
d="M87 0v660h74v-660h-74zM117 0v67h362v-67h-362zM147 741h-66l70 148h86z" />
    <glyph glyph-name="lacute" unicode="&#x13a;" horiz-adv-x="234" 
d="M80 0v694h74v-694h-74zM138 773h-66l70 148h86z" />
    <glyph glyph-name="uni013B" unicode="&#x13b;" horiz-adv-x="501" 
d="M87 0v660h74v-660h-74zM117 0v67h362v-67h-362zM222 -219q14 64 17.5 103.5t3.5 59.5h70q0 -35 -9 -76.5t-24 -86.5h-58z" />
    <glyph glyph-name="uni013C" unicode="&#x13c;" horiz-adv-x="234" 
d="M80 0v694h74v-694h-74zM63 -219q14 64 17.5 103.5t3.5 59.5h70q0 -35 -9 -76.5t-24 -86.5h-58z" />
    <glyph glyph-name="Lcaron" unicode="&#x13d;" horiz-adv-x="501" 
d="M87 0v660h74v-660h-74zM117 0v67h362v-67h-362zM293 565q8 34 12.5 59.5t5.5 43t1 27.5h70q0 -28 -9.5 -63t-26.5 -67h-53z" />
    <glyph glyph-name="lcaron" unicode="&#x13e;" horiz-adv-x="234" 
d="M80 0v694h74v-694h-74zM222 598q8 34 12.5 59.5t5.5 43t1 27.5h70q0 -28 -9.5 -63t-26.5 -67h-53z" />
    <glyph glyph-name="Lslash" unicode="&#x141;" horiz-adv-x="584" 
d="M77 314l361 136v-68l-361 -135v67zM169 0v660h74v-660h-74zM199 0v67h362v-67h-362z" />
    <glyph glyph-name="lslash" unicode="&#x142;" horiz-adv-x="334" 
d="M44 370l246 82v-62l-246 -82v62zM128 0v694h74v-694h-74z" />
    <glyph glyph-name="Nacute" unicode="&#x143;" horiz-adv-x="712" 
d="M87 0v660h101l363 -564h6l-5 564h72v-660h-93l-369 573h-7l5 -573h-73zM378 741h-66l70 148h86z" />
    <glyph glyph-name="nacute" unicode="&#x144;" horiz-adv-x="578" 
d="M80 0v314v200h71l-12 -173h14q14 67 38.5 107.5t60.5 59.5t83 19q41 0 70.5 -13.5t49 -37.5t31 -54.5t16 -65.5t4.5 -71v-285h-74v273q0 23 -2.5 54.5t-13 61t-33.5 50t-64 20.5q-50 0 -86 -32.5t-56 -85.5t-23 -117v-224h-74zM315 594h-66l70 148h86z" />
    <glyph glyph-name="uni0145" unicode="&#x145;" horiz-adv-x="712" 
d="M87 0v660h101l363 -564h6l-5 564h72v-660h-93l-369 573h-7l5 -573h-73zM302 -219q14 64 17.5 103.5t3.5 59.5h70q0 -35 -9 -76.5t-24 -86.5h-58z" />
    <glyph glyph-name="uni0146" unicode="&#x146;" horiz-adv-x="578" 
d="M80 0v314v200h71l-12 -173h14q14 67 38.5 107.5t60.5 59.5t83 19q41 0 70.5 -13.5t49 -37.5t31 -54.5t16 -65.5t4.5 -71v-285h-74v273q0 23 -2.5 54.5t-13 61t-33.5 50t-64 20.5q-50 0 -86 -32.5t-56 -85.5t-23 -117v-224h-74zM239 -219q14 64 17.5 103.5t3.5 59.5h70
q0 -35 -9 -76.5t-24 -86.5h-58z" />
    <glyph glyph-name="Ncaron" unicode="&#x147;" horiz-adv-x="712" 
d="M87 0v660h101l363 -564h6l-5 564h72v-660h-93l-369 573h-7l5 -573h-73zM215 896l143 -102l141 102v-70l-141 -101l-143 101v70z" />
    <glyph glyph-name="ncaron" unicode="&#x148;" horiz-adv-x="578" 
d="M80 0v314v200h71l-12 -173h14q14 67 38.5 107.5t60.5 59.5t83 19q41 0 70.5 -13.5t49 -37.5t31 -54.5t16 -65.5t4.5 -71v-285h-74v273q0 23 -2.5 54.5t-13 61t-33.5 50t-64 20.5q-50 0 -86 -32.5t-56 -85.5t-23 -117v-224h-74zM152 749l143 -102l141 102v-70l-141 -101
l-143 101v70z" />
    <glyph glyph-name="Eng" unicode="&#x14a;" horiz-adv-x="712" 
d="M392 -185l-18 70q10 0 18.5 -0.5t15.5 -0.5q55 0 84 16t40 43.5t11 61.5v36h73v-39q0 -37 -9 -70.5t-31.5 -60t-61.5 -42t-99 -15.5q-5 0 -10 0.5t-13 0.5zM87 0v660h101l363 -564h6l-5 564h72v-660h-93l-369 573h-7l5 -573h-73z" />
    <glyph glyph-name="eng" unicode="&#x14b;" horiz-adv-x="579" 
d="M379 -167q-18 0 -38 3.5t-44 10.5l-5 70q73 -23 107 -8.5t34 81.5v30h74v-20q0 -54 -14 -91.5t-42 -56.5t-72 -19zM80 0v314v200h71l-12 -173h14q14 67 38.5 107.5t60.5 59.5t83 19q41 0 70.5 -13.5t49 -37.5t31 -54.5t16 -65.5t4.5 -71v-285h-74v273q0 23 -2.5 54.5
t-13 61t-33.5 50t-64 20.5q-50 0 -86 -32.5t-56 -85.5t-23 -117v-224h-74z" />
    <glyph glyph-name="Omacron" unicode="&#x14c;" horiz-adv-x="705" 
d="M354 -13q-72 0 -126.5 24.5t-90.5 70t-54 107.5t-18 138q0 114 37 191t102 115.5t149 38.5q66 0 118.5 -23t90.5 -68t58.5 -109t20.5 -146q0 -75 -18.5 -137.5t-54 -107.5t-89.5 -69.5t-125 -24.5zM351 54q33 0 70 11.5t70 40t53.5 82t20.5 137.5q0 101 -30 162
t-77.5 89.5t-102.5 28.5q-31 0 -68 -11t-70.5 -40t-55 -84t-21.5 -143q0 -81 19 -134t50 -83.5t68.5 -43t73.5 -12.5zM224 769v61h258v-61h-258z" />
    <glyph glyph-name="omacron" unicode="&#x14d;" horiz-adv-x="595" 
d="M299 -12q-72 0 -127.5 32t-86.5 93t-31 147q0 89 33 148t87.5 89t121.5 30q69 0 124.5 -31.5t88 -92t32.5 -148.5t-32 -147.5t-86.5 -89.5t-123.5 -30zM302 52q27 0 56 10t53.5 33t40 62t15.5 97q0 59 -15.5 98.5t-41 63.5t-56.5 34.5t-60 10.5q-27 0 -56 -9.5t-54 -32
t-40.5 -61t-15.5 -96.5q0 -59 15.5 -99t40.5 -64.5t56 -35.5t62 -11zM169 623v61h258v-61h-258z" />
    <glyph glyph-name="Ohungarumlaut" unicode="&#x150;" horiz-adv-x="705" 
d="M354 -13q-72 0 -126.5 24.5t-90.5 70t-54 107.5t-18 138q0 114 37 191t102 115.5t149 38.5q66 0 118.5 -23t90.5 -68t58.5 -109t20.5 -146q0 -75 -18.5 -137.5t-54 -107.5t-89.5 -69.5t-125 -24.5zM351 54q33 0 70 11.5t70 40t53.5 82t20.5 137.5q0 101 -30 162
t-77.5 89.5t-102.5 28.5q-31 0 -68 -11t-70.5 -40t-55 -84t-21.5 -143q0 -81 19 -134t50 -83.5t68.5 -43t73.5 -12.5zM302 756h-60l42 130h79zM448 756h-59l42 130h78z" />
    <glyph glyph-name="ohungarumlaut" unicode="&#x151;" horiz-adv-x="595" 
d="M299 -12q-72 0 -127.5 32t-86.5 93t-31 147q0 89 33 148t87.5 89t121.5 30q69 0 124.5 -31.5t88 -92t32.5 -148.5t-32 -147.5t-86.5 -89.5t-123.5 -30zM302 52q27 0 56 10t53.5 33t40 62t15.5 97q0 59 -15.5 98.5t-41 63.5t-56.5 34.5t-60 10.5q-27 0 -56 -9.5t-54 -32
t-40.5 -61t-15.5 -96.5q0 -59 15.5 -99t40.5 -64.5t56 -35.5t62 -11zM247 611h-60l42 130h79zM393 611h-59l42 130h78z" />
    <glyph glyph-name="OE" unicode="&#x152;" horiz-adv-x="974" 
d="M309 -14q-76 0 -131 43.5t-84 121t-29 178.5q0 102 29.5 179.5t84 121t130.5 43.5q55 0 96.5 -24.5t67.5 -71.5t39 -116h17q-5 35 -9 65t-5.5 58.5t-1.5 57.5v18h70v-660h-71v20q0 24 1.5 50.5t4.5 54t7 54.5h-18q-8 -53 -32.5 -97t-65.5 -70t-100 -26zM543 0v66h393v-66
h-393zM315 52q37 0 67.5 16.5t54 44t40 62t25 72t8.5 74.5v8q0 27 -6.5 63t-21 73t-36.5 69t-54 51.5t-73 19.5q-59 0 -98.5 -38t-60 -102t-20.5 -142q0 -80 21 -141t60 -95.5t94 -34.5zM543 301v64h347v-64h-347zM543 594v66h393v-66h-393z" />
    <glyph glyph-name="oe" unicode="&#x153;" horiz-adv-x="952" 
d="M288 -12q-69 0 -121.5 32t-82.5 93t-30 147q0 89 31 148t84 89t116 30q46 0 86 -16.5t70.5 -52.5t44.5 -94h15q10 54 36 90t65.5 54.5t88.5 18.5q48 0 87 -17.5t67 -52t42.5 -86.5t11.5 -120l-404 -4v56l334 3q-5 74 -43 114.5t-98 40.5q-48 0 -83 -26t-54 -73t-19 -112
q0 -94 41.5 -146t124.5 -52q32 0 56.5 8t42 23t28.5 35.5t17 45.5l66 -20q-9 -36 -27.5 -65.5t-45.5 -49.5t-61 -30.5t-74 -10.5q-50 0 -92 16t-71 49.5t-39 87.5h-13q-15 -55 -44.5 -88.5t-68.5 -49t-84 -15.5zM291 52q26 0 54.5 10t52.5 33.5t39.5 62.5t15.5 96
q0 58 -15.5 97.5t-40.5 63.5t-54.5 34.5t-57.5 10.5q-25 0 -53 -9.5t-51.5 -31.5t-38 -61t-14.5 -97t14.5 -98t38.5 -64.5t53 -35.5t57 -11z" />
    <glyph glyph-name="Racute" unicode="&#x154;" horiz-adv-x="635" 
d="M87 0v660h217q48 0 88.5 -8t72.5 -23.5t54 -38.5t34 -54t12 -68q0 -35 -10.5 -64t-30.5 -51t-51 -36t-72 -19v-12q30 -5 56 -17t47 -39.5t35 -76.5l43 -153h-79l-35 136q-10 44 -34.5 70.5t-56.5 38.5t-69 12h-147v-257h-74zM161 321h116q21 0 48.5 1.5t56.5 7.5t53 20.5
t39 40.5t15 67t-15 67t-38 40.5t-50.5 21t-52 7.5t-42.5 1h-130v-274zM322 741h-66l70 148h86z" />
    <glyph glyph-name="racute" unicode="&#x155;" horiz-adv-x="383" 
d="M80 0v284v230h70l-12 -186h16q10 59 28.5 103.5t49.5 70t75 25.5q11 0 25 -2t31 -8l-5 -76q-14 5 -28.5 8t-27.5 3q-40 0 -68.5 -28.5t-47.5 -75.5t-32 -104v-244h-74zM210 595h-66l70 148h86z" />
    <glyph glyph-name="uni0156" unicode="&#x156;" horiz-adv-x="635" 
d="M87 0v660h217q48 0 88.5 -8t72.5 -23.5t54 -38.5t34 -54t12 -68q0 -35 -10.5 -64t-30.5 -51t-51 -36t-72 -19v-12q30 -5 56 -17t47 -39.5t35 -76.5l43 -153h-79l-35 136q-10 44 -34.5 70.5t-56.5 38.5t-69 12h-147v-257h-74zM161 321h116q21 0 48.5 1.5t56.5 7.5t53 20.5
t39 40.5t15 67t-15 67t-38 40.5t-50.5 21t-52 7.5t-42.5 1h-130v-274zM275 -219q14 64 17.5 103.5t3.5 59.5h70q0 -35 -9 -76.5t-24 -86.5h-58z" />
    <glyph glyph-name="uni0157" unicode="&#x157;" horiz-adv-x="383" 
d="M80 0v284v230h70l-12 -186h16q10 59 28.5 103.5t49.5 70t75 25.5q11 0 25 -2t31 -8l-5 -76q-14 5 -28.5 8t-27.5 3q-40 0 -68.5 -28.5t-47.5 -75.5t-32 -104v-244h-74zM63 -219q14 64 17.5 103.5t3.5 59.5h70q0 -35 -9 -76.5t-24 -86.5h-58z" />
    <glyph glyph-name="Rcaron" unicode="&#x158;" horiz-adv-x="635" 
d="M87 0v660h217q48 0 88.5 -8t72.5 -23.5t54 -38.5t34 -54t12 -68q0 -35 -10.5 -64t-30.5 -51t-51 -36t-72 -19v-12q30 -5 56 -17t47 -39.5t35 -76.5l43 -153h-79l-35 136q-10 44 -34.5 70.5t-56.5 38.5t-69 12h-147v-257h-74zM161 321h116q21 0 48.5 1.5t56.5 7.5t53 20.5
t39 40.5t15 67t-15 67t-38 40.5t-50.5 21t-52 7.5t-42.5 1h-130v-274zM159 896l143 -102l141 102v-70l-141 -101l-143 101v70z" />
    <glyph glyph-name="rcaron" unicode="&#x159;" horiz-adv-x="383" 
d="M80 0v284v230h70l-12 -186h16q10 59 28.5 103.5t49.5 70t75 25.5q11 0 25 -2t31 -8l-5 -76q-14 5 -28.5 8t-27.5 3q-40 0 -68.5 -28.5t-47.5 -75.5t-32 -104v-244h-74zM47 751l143 -102l141 102v-70l-141 -101l-143 101v70z" />
    <glyph glyph-name="Sacute" unicode="&#x15a;" horiz-adv-x="624" 
d="M311 -12q-65 0 -114.5 14t-81.5 42t-47 69t-11 95l68 11q-5 -56 16.5 -93t66 -54.5t105.5 -17.5q59 0 100 14.5t62.5 41.5t21.5 62q0 40 -25 62.5t-64.5 35t-87.5 22.5q-45 9 -90 21.5t-81 33t-58 53.5t-22 84q0 58 29 100t81 65t122 23q69 0 123.5 -22t87.5 -66.5
t34 -111.5l-71 -16q0 38 -12.5 66.5t-36 47.5t-55.5 28.5t-72 9.5q-46 0 -81.5 -15t-56 -41.5t-20.5 -62.5q0 -43 28.5 -67.5t74.5 -37.5t97 -25q44 -9 84 -21t73 -32t52 -52.5t19 -81.5q0 -56 -29 -97.5t-86 -64t-143 -22.5zM331 740h-66l70 148h86z" />
    <glyph glyph-name="sacute" unicode="&#x15b;" horiz-adv-x="521" 
d="M267 -12q-54 0 -95 11.5t-68.5 34t-41.5 54t-12 69.5l66 12q-4 -38 14.5 -64.5t54.5 -40t86 -13.5q64 0 99 22t35 60q0 31 -19 48t-53 27t-77 18q-37 8 -72 18t-63.5 26t-45.5 42t-17 65q0 46 24 79.5t69 52t106 18.5q63 0 107 -20t68.5 -56.5t25.5 -85.5l-67 -14
q0 38 -17 63t-48 37t-73 12q-57 0 -90.5 -22t-33.5 -60q0 -30 20 -47t53 -26.5t73 -18.5q39 -7 75 -17t64.5 -26t45 -42t16.5 -67q0 -50 -26.5 -83t-73.5 -49.5t-109 -16.5zM279 595h-66l70 148h86z" />
    <glyph glyph-name="Scedilla" unicode="&#x15e;" horiz-adv-x="624" 
d="M311 -12q-65 0 -114.5 14t-81.5 42t-47 69t-11 95l68 11q-5 -56 16.5 -93t66 -54.5t105.5 -17.5q59 0 100 14.5t62.5 41.5t21.5 62q0 40 -25 62.5t-64.5 35t-87.5 22.5q-45 9 -90 21.5t-81 33t-58 53.5t-22 84q0 58 29 100t81 65t122 23q69 0 123.5 -22t87.5 -66.5
t34 -111.5l-71 -16q0 38 -12.5 66.5t-36 47.5t-55.5 28.5t-72 9.5q-46 0 -81.5 -15t-56 -41.5t-20.5 -62.5q0 -43 28.5 -67.5t74.5 -37.5t97 -25q44 -9 84 -21t73 -32t52 -52.5t19 -81.5q0 -56 -29 -97.5t-86 -64t-143 -22.5zM213 -229l10 47q19 -4 45 -7t51 -1t42 13t17 33
q0 10 -4.5 18.5t-17 15t-37 9t-64.5 -0.5l13 105h47l-6 -77q42 4 69.5 -3t42 -24.5t14.5 -46.5q0 -37 -22 -58t-56.5 -29t-73 -5.5t-70.5 11.5z" />
    <glyph glyph-name="scedilla" unicode="&#x15f;" horiz-adv-x="521" 
d="M267 -12q-54 0 -95 11.5t-68.5 34t-41.5 54t-12 69.5l66 12q-4 -38 14.5 -64.5t54.5 -40t86 -13.5q64 0 99 22t35 60q0 31 -19 48t-53 27t-77 18q-37 8 -72 18t-63.5 26t-45.5 42t-17 65q0 46 24 79.5t69 52t106 18.5q63 0 107 -20t68.5 -56.5t25.5 -85.5l-67 -14
q0 38 -17 63t-48 37t-73 12q-57 0 -90.5 -22t-33.5 -60q0 -30 20 -47t53 -26.5t73 -18.5q39 -7 75 -17t64.5 -26t45 -42t16.5 -67q0 -50 -26.5 -83t-73.5 -49.5t-109 -16.5zM161 -229l10 47q19 -4 45 -7t51 -1t42 13t17 33q0 10 -4.5 18.5t-17 15t-37 9t-64.5 -0.5l13 105
h47l-6 -77q42 4 69.5 -3t42 -24.5t14.5 -46.5q0 -37 -22 -58t-56.5 -29t-73 -5.5t-70.5 11.5z" />
    <glyph glyph-name="Scaron" unicode="&#x160;" horiz-adv-x="624" 
d="M311 -12q-65 0 -114.5 14t-81.5 42t-47 69t-11 95l68 11q-5 -56 16.5 -93t66 -54.5t105.5 -17.5q59 0 100 14.5t62.5 41.5t21.5 62q0 40 -25 62.5t-64.5 35t-87.5 22.5q-45 9 -90 21.5t-81 33t-58 53.5t-22 84q0 58 29 100t81 65t122 23q69 0 123.5 -22t87.5 -66.5
t34 -111.5l-71 -16q0 38 -12.5 66.5t-36 47.5t-55.5 28.5t-72 9.5q-46 0 -81.5 -15t-56 -41.5t-20.5 -62.5q0 -43 28.5 -67.5t74.5 -37.5t97 -25q44 -9 84 -21t73 -32t52 -52.5t19 -81.5q0 -56 -29 -97.5t-86 -64t-143 -22.5zM168 896l143 -102l141 102v-70l-141 -101
l-143 101v70z" />
    <glyph glyph-name="scaron" unicode="&#x161;" horiz-adv-x="521" 
d="M267 -12q-54 0 -95 11.5t-68.5 34t-41.5 54t-12 69.5l66 12q-4 -38 14.5 -64.5t54.5 -40t86 -13.5q64 0 99 22t35 60q0 31 -19 48t-53 27t-77 18q-37 8 -72 18t-63.5 26t-45.5 42t-17 65q0 46 24 79.5t69 52t106 18.5q63 0 107 -20t68.5 -56.5t25.5 -85.5l-67 -14
q0 38 -17 63t-48 37t-73 12q-57 0 -90.5 -22t-33.5 -60q0 -30 20 -47t53 -26.5t73 -18.5q39 -7 75 -17t64.5 -26t45 -42t16.5 -67q0 -50 -26.5 -83t-73.5 -49.5t-109 -16.5zM116 751l143 -102l141 102v-71l-141 -101l-143 101v71z" />
    <glyph glyph-name="Tcaron" unicode="&#x164;" horiz-adv-x="532" 
d="M229 0v660h74v-660h-74zM26 593v67h479v-67h-479zM124 896l142 -102l141 102v-70l-141 -101l-142 101v70z" />
    <glyph glyph-name="tcaron" unicode="&#x165;" horiz-adv-x="359" 
d="M231 -10q-32 0 -57 9t-42 27.5t-25 46t-8 64.5v314h-77v63h46q23 0 33.5 9t12.5 30l9 77h48v-116h152v-64h-152v-313q0 -43 19.5 -60.5t52.5 -17.5q19 0 40 5.5t43 21.5v-76q-27 -10 -51 -15t-44 -5zM247 595q8 34 12.5 59.5t5.5 43t1 27.5h70q0 -28 -9.5 -63t-26.5 -67
h-53z" />
    <glyph glyph-name="Utilde" unicode="&#x168;" horiz-adv-x="701" 
d="M351 -13q-51 0 -93.5 11.5t-75 33.5t-55 53.5t-34 72.5t-11.5 90v412h75v-408q0 -53 18 -97.5t60.5 -71t114.5 -26.5q76 0 118 27t59 71.5t17 96.5v408h75v-412q0 -64 -18.5 -112.5t-53.5 -82t-84.5 -50t-111.5 -16.5zM431 747q-19 0 -40.5 7.5t-42.5 17t-39 17t-29 7.5
t-17.5 -10t-5.5 -33h-43q-6 32 -1.5 54t18.5 34.5t35 12.5q19 0 40.5 -7.5t43.5 -17t40.5 -17t28.5 -7.5q14 0 21 12.5t5 30.5h43q6 -28 1.5 -51t-19 -36.5t-39.5 -13.5z" />
    <glyph glyph-name="utilde" unicode="&#x169;" horiz-adv-x="570" 
d="M244 -12q-39 0 -68 12t-49 33.5t-32 52t-17.5 66.5t-5.5 77v285h75v-268q0 -33 3 -67t14 -62t34 -45t63 -17q33 0 59 16t46 46t32.5 71t18.5 91v235h73v-293v-221h-69l11 172h-14q-12 -65 -36 -105.5t-59 -59.5t-79 -19zM362 601q-19 0 -40.5 7.5t-42.5 17t-39 17
t-29 7.5t-17.5 -10t-5.5 -33h-43q-6 32 -1.5 54t18.5 34.5t35 12.5q19 0 40.5 -7.5t43.5 -17t40.5 -17t28.5 -7.5q14 0 21 12.5t5 30.5h43q6 -28 1.5 -51t-19 -36.5t-39.5 -13.5z" />
    <glyph glyph-name="Umacron" unicode="&#x16a;" horiz-adv-x="701" 
d="M351 -13q-51 0 -93.5 11.5t-75 33.5t-55 53.5t-34 72.5t-11.5 90v412h75v-408q0 -53 18 -97.5t60.5 -71t114.5 -26.5q76 0 118 27t59 71.5t17 96.5v408h75v-412q0 -64 -18.5 -112.5t-53.5 -82t-84.5 -50t-111.5 -16.5zM221 769v61h258v-61h-258z" />
    <glyph glyph-name="umacron" unicode="&#x16b;" horiz-adv-x="570" 
d="M244 -12q-39 0 -68 12t-49 33.5t-32 52t-17.5 66.5t-5.5 77v285h75v-268q0 -33 3 -67t14 -62t34 -45t63 -17q33 0 59 16t46 46t32.5 71t18.5 91v235h73v-293v-221h-69l11 172h-14q-12 -65 -36 -105.5t-59 -59.5t-79 -19zM152 623v61h258v-61h-258z" />
    <glyph glyph-name="Ubreve" unicode="&#x16c;" horiz-adv-x="701" 
d="M351 -13q-51 0 -93.5 11.5t-75 33.5t-55 53.5t-34 72.5t-11.5 90v412h75v-408q0 -53 18 -97.5t60.5 -71t114.5 -26.5q76 0 118 27t59 71.5t17 96.5v408h75v-412q0 -64 -18.5 -112.5t-53.5 -82t-84.5 -50t-111.5 -16.5zM227 859h58q-2 -25 12 -46.5t54 -21.5
q39 0 52.5 20.5t12.5 47.5h57q2 -35 -11.5 -61.5t-41.5 -42t-70 -15.5q-43 0 -71 15.5t-41 42.5t-11 61z" />
    <glyph glyph-name="ubreve" unicode="&#x16d;" horiz-adv-x="570" 
d="M244 -12q-39 0 -68 12t-49 33.5t-32 52t-17.5 66.5t-5.5 77v285h75v-268q0 -33 3 -67t14 -62t34 -45t63 -17q33 0 59 16t46 46t32.5 71t18.5 91v235h73v-293v-221h-69l11 172h-14q-12 -65 -36 -105.5t-59 -59.5t-79 -19zM158 713h58q-2 -25 12 -46.5t54 -21.5
q39 0 52.5 20.5t12.5 47.5h57q2 -35 -11.5 -61.5t-41.5 -42t-70 -15.5q-43 0 -71 15.5t-41 42.5t-11 61z" />
    <glyph glyph-name="Uring" unicode="&#x16e;" horiz-adv-x="701" 
d="M351 -13q-51 0 -93.5 11.5t-75 33.5t-55 53.5t-34 72.5t-11.5 90v412h75v-408q0 -53 18 -97.5t60.5 -71t114.5 -26.5q76 0 118 27t59 71.5t17 96.5v408h75v-412q0 -64 -18.5 -112.5t-53.5 -82t-84.5 -50t-111.5 -16.5zM350 729q-35 0 -59.5 20.5t-24.5 61.5
q0 40 24.5 60.5t58.5 20.5q37 0 61 -21.5t24 -60.5q0 -41 -24.5 -61t-59.5 -20zM352 768q17 0 26.5 11.5t9.5 29.5q0 21 -9.5 31.5t-27.5 10.5t-28 -10.5t-10 -29.5q0 -20 10 -31.5t29 -11.5z" />
    <glyph glyph-name="uring" unicode="&#x16f;" horiz-adv-x="570" 
d="M244 -12q-39 0 -68 12t-49 33.5t-32 52t-17.5 66.5t-5.5 77v285h75v-268q0 -33 3 -67t14 -62t34 -45t63 -17q33 0 59 16t46 46t32.5 71t18.5 91v235h73v-293v-221h-69l11 172h-14q-12 -65 -36 -105.5t-59 -59.5t-79 -19zM281 583q-35 0 -59.5 20.5t-24.5 61.5
q0 40 24.5 60.5t58.5 20.5q37 0 61 -21.5t24 -60.5q0 -41 -24.5 -61t-59.5 -20zM283 622q17 0 26.5 11.5t9.5 29.5q0 21 -9.5 31.5t-27.5 10.5t-28 -10.5t-10 -29.5q0 -20 10 -31.5t29 -11.5z" />
    <glyph glyph-name="Uhungarumlaut" unicode="&#x170;" horiz-adv-x="701" 
d="M351 -13q-51 0 -93.5 11.5t-75 33.5t-55 53.5t-34 72.5t-11.5 90v412h75v-408q0 -53 18 -97.5t60.5 -71t114.5 -26.5q76 0 118 27t59 71.5t17 96.5v408h75v-412q0 -64 -18.5 -112.5t-53.5 -82t-84.5 -50t-111.5 -16.5zM299 756h-60l42 130h79zM445 756h-59l42 130h78z
" />
    <glyph glyph-name="uhungarumlaut" unicode="&#x171;" horiz-adv-x="570" 
d="M244 -12q-39 0 -68 12t-49 33.5t-32 52t-17.5 66.5t-5.5 77v285h75v-268q0 -33 3 -67t14 -62t34 -45t63 -17q33 0 59 16t46 46t32.5 71t18.5 91v235h73v-293v-221h-69l11 172h-14q-12 -65 -36 -105.5t-59 -59.5t-79 -19zM230 611h-60l42 130h79zM376 611h-59l42 130h78z
" />
    <glyph glyph-name="Uogonek" unicode="&#x172;" horiz-adv-x="701" 
d="M414 -179q-20 -3 -43.5 -4t-45.5 4t-35.5 18.5t-13.5 39.5q0 29 15.5 48.5t37 32t36.5 17.5v15l47 3v-5q-35 -18 -55 -43.5t-20 -45.5q0 -12 8 -17.5t20 -6.5t25.5 0.5t23.5 2.5v-59zM351 -13q-51 0 -93.5 11.5t-75 33.5t-55 53.5t-34 72.5t-11.5 90v412h75v-408
q0 -53 18 -97.5t60.5 -71t114.5 -26.5q76 0 118 27t59 71.5t17 96.5v408h75v-412q0 -64 -18.5 -112.5t-53.5 -82t-84.5 -50t-111.5 -16.5z" />
    <glyph glyph-name="uogonek" unicode="&#x173;" horiz-adv-x="570" 
d="M244 -12q-39 0 -68 12t-49 33.5t-32 52t-17.5 66.5t-5.5 77v285h75v-268q0 -33 3 -67t14 -62t34 -45t63 -17q33 0 59 16t46 46t32.5 71t18.5 91v235h73v-293v-221h-69l11 172h-14q-12 -65 -36 -105.5t-59 -59.5t-79 -19zM493 -177q-20 -6 -44 -6t-45.5 6.5t-35 22.5
t-13.5 44q0 27 14.5 46.5t36 33.5t40.5 21v14h44v-5q-33 -16 -53.5 -42t-20.5 -49q0 -14 8 -21t19.5 -9t25 -0.5t24.5 3.5v-59z" />
    <glyph glyph-name="Wcircumflex" unicode="&#x174;" horiz-adv-x="924" 
d="M207 0l-171 660h79l144 -590h8l144 590h103l140 -590h8l148 590h78l-175 -660h-109l-138 588h-8l-142 -588h-109zM320 725v70l143 101l141 -101v-70l-141 102z" />
    <glyph glyph-name="wcircumflex" unicode="&#x175;" horiz-adv-x="788" 
d="M168 0l-141 514h76l111 -449h14l117 449h99l116 -449h13l113 449h75l-142 -514h-104l-116 448h-9l-117 -448h-105zM254 579v70l143 101l141 -101v-70l-141 102z" />
    <glyph glyph-name="Ycircumflex" unicode="&#x176;" horiz-adv-x="557" 
d="M241 0v216l-226 444h85l177 -368h4l175 368h86l-226 -444v-216h-75zM136 725v70l143 101l141 -101v-70l-141 102z" />
    <glyph glyph-name="ycircumflex" unicode="&#x177;" horiz-adv-x="573" 
d="M261 -169q-40 0 -79 9.5t-70.5 30t-51.5 51.5l47 48q21 -34 61 -52.5t90 -18.5q46 0 78.5 15.5t53.5 46t31 75.5t10 103l12 108h-17q-11 -76 -35.5 -120.5t-59 -63.5t-79.5 -19q-50 0 -82.5 20t-50.5 50.5t-26.5 65t-10.5 64t-2 45.5v225h73v-204q0 -16 1 -41t6.5 -52.5
t18 -51t35 -39t57.5 -15.5q34 0 60.5 17t45.5 49.5t29.5 79.5t13.5 107v150h74v-380q0 -43 -5 -82t-15.5 -73t-28.5 -61t-44 -47t-60.5 -30t-79.5 -10zM146 579v70l143 101l141 -101v-70l-141 102z" />
    <glyph glyph-name="Ydieresis" unicode="&#x178;" horiz-adv-x="557" 
d="M241 0v216l-226 444h85l177 -368h4l175 368h86l-226 -444v-216h-75zM376 756q-26 0 -39 10.5t-13 34.5q0 23 13 34.5t39 11.5q25 0 38.5 -11t13.5 -35t-13 -34.5t-39 -10.5zM183 756q-25 0 -38.5 10.5t-13.5 34.5t13.5 35t38.5 11t38.5 -11t13.5 -35t-13 -34.5t-39 -10.5
z" />
    <glyph glyph-name="Zacute" unicode="&#x179;" horiz-adv-x="547" 
d="M34 0v73l380 509v11h-365v67h453v-76l-379 -507v-10h390v-67h-479zM294 741h-66l70 148h86z" />
    <glyph glyph-name="zacute" unicode="&#x17a;" horiz-adv-x="472" 
d="M35 0v70l301 368v12h-298v64h397v-64l-307 -373v-11h308v-66h-401zM260 595h-66l70 148h86z" />
    <glyph glyph-name="Zdotaccent" unicode="&#x17b;" horiz-adv-x="547" 
d="M34 0v73l380 509v11h-365v67h453v-76l-379 -507v-10h390v-67h-479zM272 753q-27 0 -41 11.5t-14 33.5q0 23 14 34.5t41 11.5q28 0 42 -11.5t14 -34.5q0 -22 -14 -33.5t-42 -11.5z" />
    <glyph glyph-name="zdotaccent" unicode="&#x17c;" horiz-adv-x="472" 
d="M35 0v70l301 368v12h-298v64h397v-64l-307 -373v-11h308v-66h-401zM237 607q-27 0 -41 11.5t-14 33.5q0 23 14 34.5t41 11.5q28 0 42 -11.5t14 -34.5q0 -22 -14 -33.5t-42 -11.5z" />
    <glyph glyph-name="Zcaron" unicode="&#x17d;" horiz-adv-x="547" 
d="M34 0v73l380 509v11h-365v67h453v-76l-379 -507v-10h390v-67h-479zM131 896l142 -102l142 102v-70l-142 -101l-142 101v70z" />
    <glyph glyph-name="zcaron" unicode="&#x17e;" horiz-adv-x="472" 
d="M35 0v70l301 368v12h-298v64h397v-64l-307 -373v-11h308v-66h-401zM97 751l142 -102l141 102v-70l-141 -101l-142 101v70z" />
    <glyph glyph-name="Ohorn" unicode="&#x1a0;" horiz-adv-x="705" 
d="M510 632l-69 5l1 13q46 0 64.5 15t20.5 41.5t-2 59.5h62q8 -49 0.5 -79.5t-27 -44t-50.5 -10.5zM354 -13q-72 0 -126.5 24.5t-90.5 70t-54 107.5t-18 138q0 114 37 191t102 115.5t149 38.5q66 0 118.5 -23t90.5 -68t58.5 -109t20.5 -146q0 -75 -18.5 -137.5t-54 -107.5
t-89.5 -69.5t-125 -24.5zM351 54q33 0 70 11.5t70 40t53.5 82t20.5 137.5q0 101 -30 162t-77.5 89.5t-102.5 28.5q-31 0 -68 -11t-70.5 -40t-55 -84t-21.5 -143q0 -81 19 -134t50 -83.5t68.5 -43t73.5 -12.5z" />
    <glyph glyph-name="ohorn" unicode="&#x1a1;" horiz-adv-x="608" 
d="M435 492l-66 6l1 17q43 0 61.5 15t21.5 40t0 54h62q7 -42 1.5 -73t-25.5 -46.5t-56 -12.5zM299 -12q-72 0 -127.5 32t-86.5 93t-31 147q0 89 33 148t87.5 89t121.5 30q69 0 124.5 -31.5t88 -92t32.5 -148.5t-32 -147.5t-86.5 -89.5t-123.5 -30zM302 52q27 0 56 10
t53.5 33t40 62t15.5 97q0 59 -15.5 98.5t-41 63.5t-56.5 34.5t-60 10.5q-27 0 -56 -9.5t-54 -32t-40.5 -61t-15.5 -96.5q0 -59 15.5 -99t40.5 -64.5t56 -35.5t62 -11z" />
    <glyph glyph-name="Uhorn" unicode="&#x1af;" horiz-adv-x="701" 
d="M351 -13q-51 0 -93.5 11.5t-75 33.5t-55 53.5t-34 72.5t-11.5 90v412h75v-408q0 -53 18 -97.5t60.5 -71t114.5 -26.5q76 0 118 27t59 71.5t17 96.5v408h75v-412q0 -64 -18.5 -112.5t-53.5 -82t-84.5 -50t-111.5 -16.5zM632 637l-61 7l2 16q33 0 50 10.5t23 27t5.5 36
t-3.5 37.5h64q6 -42 1 -73.5t-24.5 -47.5t-56.5 -13z" />
    <glyph glyph-name="uhorn" unicode="&#x1b0;" horiz-adv-x="612" 
d="M244 -12q-39 0 -68 12t-49 33.5t-32 52t-17.5 66.5t-5.5 77v285h75v-268q0 -33 3 -67t14 -62t34 -45t63 -17q33 0 59 16t46 46t32.5 71t18.5 91v235h73v-293v-221h-69l11 172h-14q-12 -65 -36 -105.5t-59 -59.5t-79 -19zM504 491l-61 7l2 16q33 0 50 10.5t23 27t5.5 36
t-3.5 37.5h64q6 -42 1 -73.5t-24.5 -47.5t-56.5 -13z" />
    <glyph glyph-name="uni01CD" unicode="&#x1cd;" horiz-adv-x="640" 
d="M32 0l234 660h108l234 -660h-79l-204 595h-10l-203 -595h-80zM136 154v61h376v-61h-376zM178 896l142 -102l142 102v-70l-142 -101l-142 101v70z" />
    <glyph glyph-name="uni01CE" unicode="&#x1ce;" horiz-adv-x="543" 
d="M199 -12q-42 0 -76 15.5t-54 47t-20 80.5q0 50 21 81t55.5 48.5t75 26t81.5 14.5q44 6 68 11.5t34 16.5t10 33q0 29 -12.5 51.5t-37.5 35.5t-64 13q-31 0 -63 -10t-55.5 -35t-29.5 -70l-69 23q6 36 23.5 64.5t45 49.5t64.5 32t81 11q63 0 101 -18.5t57 -48.5t26 -65
t7 -68v-118q0 -31 1 -67.5t4 -73.5t6 -68h-70q-3 35 -4 68t-2 67h-11q-14 -39 -39.5 -72.5t-63 -54t-90.5 -20.5zM215 51q23 0 47.5 8t49 25.5t45.5 45.5t38 68v98l28 -3q-15 -17 -42.5 -25.5t-61.5 -13.5t-68.5 -11t-63.5 -17.5t-46.5 -32.5t-17.5 -57q0 -42 25.5 -63.5
t66.5 -21.5zM134 750l142 -101l142 101v-70l-142 -101l-142 101v70z" />
    <glyph glyph-name="uni0218" unicode="&#x218;" horiz-adv-x="624" 
d="M311 -12q-65 0 -114.5 14t-81.5 42t-47 69t-11 95l68 11q-5 -56 16.5 -93t66 -54.5t105.5 -17.5q59 0 100 14.5t62.5 41.5t21.5 62q0 40 -25 62.5t-64.5 35t-87.5 22.5q-45 9 -90 21.5t-81 33t-58 53.5t-22 84q0 58 29 100t81 65t122 23q69 0 123.5 -22t87.5 -66.5
t34 -111.5l-71 -16q0 38 -12.5 66.5t-36 47.5t-55.5 28.5t-72 9.5q-46 0 -81.5 -15t-56 -41.5t-20.5 -62.5q0 -43 28.5 -67.5t74.5 -37.5t97 -25q44 -9 84 -21t73 -32t52 -52.5t19 -81.5q0 -56 -29 -97.5t-86 -64t-143 -22.5zM258 -219q14 64 17.5 103.5t3.5 59.5h70
q0 -35 -9 -76.5t-24 -86.5h-58z" />
    <glyph glyph-name="uni0219" unicode="&#x219;" horiz-adv-x="521" 
d="M267 -12q-54 0 -95 11.5t-68.5 34t-41.5 54t-12 69.5l66 12q-4 -38 14.5 -64.5t54.5 -40t86 -13.5q64 0 99 22t35 60q0 31 -19 48t-53 27t-77 18q-37 8 -72 18t-63.5 26t-45.5 42t-17 65q0 46 24 79.5t69 52t106 18.5q63 0 107 -20t68.5 -56.5t25.5 -85.5l-67 -14
q0 38 -17 63t-48 37t-73 12q-57 0 -90.5 -22t-33.5 -60q0 -30 20 -47t53 -26.5t73 -18.5q39 -7 75 -17t64.5 -26t45 -42t16.5 -67q0 -50 -26.5 -83t-73.5 -49.5t-109 -16.5zM206 -219q14 64 17.5 103.5t3.5 59.5h70q0 -35 -9 -76.5t-24 -86.5h-58z" />
    <glyph glyph-name="uni021A" unicode="&#x21a;" horiz-adv-x="532" 
d="M229 0v660h74v-660h-74zM26 593v67h479v-67h-479zM210 -219q14 64 17.5 103.5t3.5 59.5h70q0 -35 -9 -76.5t-24 -86.5h-58z" />
    <glyph glyph-name="uni021B" unicode="&#x21b;" horiz-adv-x="359" 
d="M231 -10q-32 0 -57 9t-42 27.5t-25 46t-8 64.5v314h-77v63h46q23 0 33.5 9t12.5 30l9 77h48v-116h152v-64h-152v-313q0 -43 19.5 -60.5t52.5 -17.5q19 0 40 5.5t43 21.5v-76q-27 -10 -51 -15t-44 -5zM150 -219q14 64 17.5 103.5t3.5 59.5h70q0 -35 -9 -76.5t-24 -86.5
h-58z" />
    <glyph glyph-name="uni0237" unicode="&#x237;" horiz-adv-x="245" 
d="M31 -175q-15 0 -33 3.5t-38 9.5l-6 70q72 -19 104.5 -4.5t32.5 81.5v529h74v-514q0 -42 -8 -75t-24.5 -55t-41.5 -33.5t-60 -11.5z" />
    <glyph glyph-name="circumflex" unicode="&#x2c6;" horiz-adv-x="324" 
d="M20 579v70l143 101l141 -101v-70l-141 102z" />
    <glyph glyph-name="caron" unicode="&#x2c7;" horiz-adv-x="324" 
d="M20 751l143 -102l141 102v-71l-141 -101l-143 102v70z" />
    <glyph glyph-name="breve" unicode="&#x2d8;" horiz-adv-x="234" 
d="M20 713h58q-2 -25 12 -46.5t54 -21.5q39 0 52.5 20.5t12.5 47.5h57q2 -35 -11.5 -61.5t-41.5 -42t-70 -15.5q-43 0 -71 15.5t-41 42.5t-11 61z" />
    <glyph glyph-name="dotaccent" unicode="&#x2d9;" horiz-adv-x="151" 
d="M75 607q-27 0 -41 11.5t-14 33.5q0 23 14 34.5t41 11.5q28 0 42 -11.5t14 -34.5q0 -22 -14 -33.5t-42 -11.5z" />
    <glyph glyph-name="ring" unicode="&#x2da;" horiz-adv-x="208" 
d="M104 583q-35 0 -59.5 20.5t-24.5 61.5q0 40 24.5 60.5t58.5 20.5q37 0 61 -21.5t24 -60.5q0 -41 -24.5 -61t-59.5 -20zM106 622q17 0 26.5 11.5t9.5 29.5q0 21 -9.5 31.5t-27.5 10.5t-28 -10.5t-10 -29.5q0 -20 10 -31.5t29 -11.5z" />
    <glyph glyph-name="ogonek" unicode="&#x2db;" horiz-adv-x="170" 
d="M158 -177q-20 -6 -44 -6t-45.5 6.5t-35 22.5t-13.5 44q0 27 14.5 46.5t36 33.5t40.5 21v14h44v-5q-33 -16 -53.5 -42t-20.5 -49q0 -14 8 -21t19.5 -9t25 -0.5t24.5 3.5v-59z" />
    <glyph glyph-name="tilde" unicode="&#x2dc;" horiz-adv-x="322" 
d="M241 601q-19 0 -40.5 7.5t-42.5 17t-39 17t-29 7.5t-17.5 -10t-5.5 -33h-43q-6 32 -1.5 54t18.5 34.5t35 12.5q19 0 40.5 -7.5t43.5 -17t40.5 -17t28.5 -7.5q14 0 21 12.5t5 30.5h43q6 -28 1.5 -51t-19 -36.5t-39.5 -13.5z" />
    <glyph glyph-name="hungarumlaut" unicode="&#x2dd;" horiz-adv-x="300" 
d="M80 595h-60l42 130h79zM226 595h-59l42 130h78z" />
    <glyph glyph-name="gravecomb" unicode="&#x300;" 
d="M109 595l-89 148h86l70 -148h-67z" />
    <glyph glyph-name="acutecomb" unicode="&#x301;" 
d="M86 595h-66l70 148h86z" />
    <glyph glyph-name="uni0302" unicode="&#x302;" 
d="M20 579v70l143 101l141 -101v-70l-141 102z" />
    <glyph glyph-name="tildecomb" unicode="&#x303;" 
d="M241 601q-19 0 -40.5 7.5t-42.5 17t-39 17t-29 7.5t-17.5 -10t-5.5 -33h-43q-6 32 -1.5 54t18.5 34.5t35 12.5q19 0 40.5 -7.5t43.5 -17t40.5 -17t28.5 -7.5q14 0 21 12.5t5 30.5h43q6 -28 1.5 -51t-19 -36.5t-39.5 -13.5z" />
    <glyph glyph-name="uni0304" unicode="&#x304;" 
d="M20 623v61h258v-61h-258z" />
    <glyph glyph-name="uni0306" unicode="&#x306;" 
d="M20 713h58q-2 -25 12 -46.5t54 -21.5q39 0 52.5 20.5t12.5 47.5h57q2 -35 -11.5 -61.5t-41.5 -42t-70 -15.5q-43 0 -71 15.5t-41 42.5t-11 61z" />
    <glyph glyph-name="uni0307" unicode="&#x307;" 
d="M75 607q-27 0 -41 11.5t-14 33.5q0 23 14 34.5t41 11.5q28 0 42 -11.5t14 -34.5q0 -22 -14 -33.5t-42 -11.5z" />
    <glyph glyph-name="uni0308" unicode="&#x308;" 
d="M265 610q-26 0 -39 10.5t-13 34.5q0 23 13 34.5t39 11.5q25 0 38.5 -11t13.5 -35t-13 -34.5t-39 -10.5zM72 610q-25 0 -38.5 10.5t-13.5 34.5t13.5 35t38.5 11t38.5 -11t13.5 -35t-13 -34.5t-39 -10.5z" />
    <glyph glyph-name="hookabovecomb" unicode="&#x309;" 
d="M61 595q-1 19 8 30.5t21.5 19t21.5 14.5t9 19t-11 17.5t-27.5 6.5t-33.5 -1.5t-29 -7.5v51q17 8 44 11.5t55 -0.5t46.5 -19.5t18.5 -45.5q0 -22 -10 -34.5t-23 -21t-23 -16.5t-10 -23h-57z" />
    <glyph glyph-name="uni030A" unicode="&#x30a;" 
d="M104 583q-35 0 -59.5 20.5t-24.5 61.5q0 40 24.5 60.5t58.5 20.5q37 0 61 -21.5t24 -60.5q0 -41 -24.5 -61t-59.5 -20zM106 622q17 0 26.5 11.5t9.5 29.5q0 21 -9.5 31.5t-27.5 10.5t-28 -10.5t-10 -29.5q0 -20 10 -31.5t29 -11.5z" />
    <glyph glyph-name="uni030B" unicode="&#x30b;" 
d="M80 595h-60l42 130h79zM226 595h-59l42 130h78z" />
    <glyph glyph-name="uni030C" unicode="&#x30c;" 
d="M20 751l143 -102l141 102v-71l-141 -101l-143 102v70z" />
    <glyph glyph-name="uni0312" unicode="&#x312;" 
d="M111 725q-8 -29 -12.5 -53.5t-6 -42.5t-1.5 -31h-71q0 21 4.5 43.5t13 44.5t18.5 39h55z" />
    <glyph glyph-name="uni031B" unicode="&#x31b;" 
d="M81 491l-61 7l2 16q33 0 50 10.5t23 27t5.5 36t-3.5 37.5h64q6 -42 1 -73.5t-24.5 -47.5t-56.5 -13z" />
    <glyph glyph-name="dotbelowcomb" unicode="&#x323;" 
d="M75 -174q-27 0 -41 11.5t-14 33.5q0 23 14 34.5t41 11.5q28 0 42 -11.5t14 -34.5q0 -22 -14 -33.5t-42 -11.5z" />
    <glyph glyph-name="uni0326" unicode="&#x326;" 
d="M20 -219q14 64 17.5 103.5t3.5 59.5h70q0 -35 -9 -76.5t-24 -86.5h-58z" />
    <glyph glyph-name="uni0327" unicode="&#x327;" 
d="M20 -229l10 47q19 -4 45 -7t51 -1t42 13t17 33q0 10 -4.5 18.5t-17 15t-37 9t-64.5 -0.5l13 105h47l-6 -77q42 4 69.5 -3t42 -24.5t14.5 -46.5q0 -37 -22 -58t-56.5 -29t-73 -5.5t-70.5 11.5z" />
    <glyph glyph-name="uni0328" unicode="&#x328;" 
d="M158 -177q-20 -6 -44 -6t-45.5 6.5t-35 22.5t-13.5 44q0 27 14.5 46.5t36 33.5t40.5 21v14h44v-5q-33 -16 -53.5 -42t-20.5 -49q0 -14 8 -21t19.5 -9t25 -0.5t24.5 3.5v-59z" />
    <glyph glyph-name="pi" unicode="&#x3c0;" horiz-adv-x="645" 
d="M139 0v507h73v-507h-73zM433 0v507h73v-507h-73zM26 449v65h592v-65h-592z" />
    <glyph glyph-name="uni0E3F" unicode="&#xe3f;" horiz-adv-x="632" 
d="M268 648l-17 133h84l-17 -133h-50zM251 -124l17 132h49l18 -132h-84zM87 6v647h227q53 0 96 -10t74 -30t47.5 -52t16.5 -76q0 -38 -14.5 -66t-46.5 -47t-82 -27v-11q88 -8 128 -49t40 -107q0 -55 -24.5 -93.5t-77 -58.5t-135.5 -20h-249zM158 70h190q35 0 63.5 6t48.5 19
t31 34t11 51q0 27 -10 48.5t-28 36.5t-44 25t-59.5 14.5t-73.5 4.5h-129v-239zM158 368h115q47 0 84.5 6t64 19.5t40 34.5t13.5 51t-12 50.5t-34.5 33.5t-55 19.5t-72.5 6.5h-143v-221z" />
    <glyph glyph-name="Wgrave" unicode="&#x1e80;" horiz-adv-x="924" 
d="M207 0l-171 660h79l144 -590h8l144 590h103l140 -590h8l148 590h78l-175 -660h-109l-138 588h-8l-142 -588h-109zM441 741l-89 147h86l70 -147h-67z" />
    <glyph glyph-name="wgrave" unicode="&#x1e81;" horiz-adv-x="788" 
d="M168 0l-141 514h76l111 -449h14l117 449h99l116 -449h13l113 449h75l-142 -514h-104l-116 448h-9l-117 -448h-105zM376 595l-90 148h86l70 -148h-66z" />
    <glyph glyph-name="Wacute" unicode="&#x1e82;" horiz-adv-x="924" 
d="M207 0l-171 660h79l144 -590h8l144 590h103l140 -590h8l148 590h78l-175 -660h-109l-138 588h-8l-142 -588h-109zM484 741h-66l70 148h86z" />
    <glyph glyph-name="wacute" unicode="&#x1e83;" horiz-adv-x="788" 
d="M168 0l-141 514h76l111 -449h14l117 449h99l116 -449h13l113 449h75l-142 -514h-104l-116 448h-9l-117 -448h-105zM418 595h-66l70 148h86z" />
    <glyph glyph-name="Wdieresis" unicode="&#x1e84;" horiz-adv-x="924" 
d="M207 0l-171 660h79l144 -590h8l144 590h103l140 -590h8l148 590h78l-175 -660h-109l-138 588h-8l-142 -588h-109zM559 756q-26 0 -39 10.5t-13 34.5q0 23 13 34.5t39 11.5q25 0 38.5 -11t13.5 -35t-13 -34.5t-39 -10.5zM366 756q-25 0 -38.5 10.5t-13.5 34.5t13.5 35
t38.5 11t38.5 -11t13.5 -35t-13 -34.5t-39 -10.5z" />
    <glyph glyph-name="wdieresis" unicode="&#x1e85;" horiz-adv-x="788" 
d="M168 0l-141 514h76l111 -449h14l117 449h99l116 -449h13l113 449h75l-142 -514h-104l-116 448h-9l-117 -448h-105zM494 610q-26 0 -39 10.5t-13 34.5q0 23 13 34.5t39 11.5q25 0 38.5 -11t13.5 -35t-13 -34.5t-39 -10.5zM301 610q-25 0 -38.5 10.5t-13.5 34.5t13.5 35
t38.5 11t38.5 -11t13.5 -35t-13 -34.5t-39 -10.5z" />
    <glyph glyph-name="uni1E9E" unicode="&#x1e9e;" horiz-adv-x="653" 
d="M398 -13q-50 0 -87.5 16.5t-60 45t-29.5 64.5l64 26q3 -24 15.5 -41t29.5 -27t36 -14t35 -4q32 0 61.5 14t48.5 42.5t19 69.5q0 40 -18 66t-49 41.5t-71 21.5t-85 5v69l167 127q-1 47 -41.5 72t-105.5 25q-47 0 -78 -12t-49.5 -31.5t-27.5 -43t-11.5 -46.5t-2.5 -42v-431
h-74v428q0 28 3.5 60t16 64.5t39 60t71 43.5t113.5 16q72 0 121.5 -19.5t75.5 -59t26 -99.5l-174 -133v-8q78 1 128.5 -21t75 -61t24.5 -92q0 -55 -24.5 -98.5t-71 -68.5t-110.5 -25z" />
    <glyph glyph-name="uni1EA0" unicode="&#x1ea0;" horiz-adv-x="640" 
d="M32 0l234 660h108l234 -660h-79l-204 595h-10l-203 -595h-80zM136 154v61h376v-61h-376zM323 -174q-27 0 -41 11.5t-14 33.5q0 23 14 34.5t41 11.5q28 0 42 -11.5t14 -34.5q0 -22 -14 -33.5t-42 -11.5z" />
    <glyph glyph-name="uni1EA1" unicode="&#x1ea1;" horiz-adv-x="543" 
d="M199 -12q-42 0 -76 15.5t-54 47t-20 80.5q0 50 21 81t55.5 48.5t75 26t81.5 14.5q44 6 68 11.5t34 16.5t10 33q0 29 -12.5 51.5t-37.5 35.5t-64 13q-31 0 -63 -10t-55.5 -35t-29.5 -70l-69 23q6 36 23.5 64.5t45 49.5t64.5 32t81 11q63 0 101 -18.5t57 -48.5t26 -65
t7 -68v-118q0 -31 1 -67.5t4 -73.5t6 -68h-70q-3 35 -4 68t-2 67h-11q-14 -39 -39.5 -72.5t-63 -54t-90.5 -20.5zM215 51q23 0 47.5 8t49 25.5t45.5 45.5t38 68v98l28 -3q-15 -17 -42.5 -25.5t-61.5 -13.5t-68.5 -11t-63.5 -17.5t-46.5 -32.5t-17.5 -57q0 -42 25.5 -63.5
t66.5 -21.5zM286 -174q-27 0 -41 11.5t-14 33.5q0 23 14 34.5t41 11.5q28 0 42 -11.5t14 -34.5q0 -22 -14 -33.5t-42 -11.5z" />
    <glyph glyph-name="uni1EA2" unicode="&#x1ea2;" horiz-adv-x="640" 
d="M32 0l234 660h108l234 -660h-79l-204 595h-10l-203 -595h-80zM136 154v61h376v-61h-376zM287 741q-1 19 8 30.5t21.5 19t21.5 14.5t9 19t-11 17.5t-27.5 6.5t-33.5 -1.5t-29 -7.5v51q17 8 44 11.5t55 -0.5t46.5 -19.5t18.5 -45.5q0 -22 -10 -34.5t-23 -21t-23 -16.5
t-10 -23h-57z" />
    <glyph glyph-name="uni1EA3" unicode="&#x1ea3;" horiz-adv-x="543" 
d="M199 -12q-42 0 -76 15.5t-54 47t-20 80.5q0 50 21 81t55.5 48.5t75 26t81.5 14.5q44 6 68 11.5t34 16.5t10 33q0 29 -12.5 51.5t-37.5 35.5t-64 13q-31 0 -63 -10t-55.5 -35t-29.5 -70l-69 23q6 36 23.5 64.5t45 49.5t64.5 32t81 11q63 0 101 -18.5t57 -48.5t26 -65
t7 -68v-118q0 -31 1 -67.5t4 -73.5t6 -68h-70q-3 35 -4 68t-2 67h-11q-14 -39 -39.5 -72.5t-63 -54t-90.5 -20.5zM215 51q23 0 47.5 8t49 25.5t45.5 45.5t38 68v98l28 -3q-15 -17 -42.5 -25.5t-61.5 -13.5t-68.5 -11t-63.5 -17.5t-46.5 -32.5t-17.5 -57q0 -42 25.5 -63.5
t66.5 -21.5zM243 595q-1 19 8 30.5t21.5 19t21.5 14.5t9 19t-11 17.5t-27.5 6.5t-33.5 -1.5t-29 -7.5v51q17 8 44 11.5t55 -0.5t46.5 -19.5t18.5 -45.5q0 -22 -10 -34.5t-23 -21t-23 -16.5t-10 -23h-57z" />
    <glyph glyph-name="uni1EA4" unicode="&#x1ea4;" horiz-adv-x="640" 
d="M32 0l234 660h108l234 -660h-79l-204 595h-10l-203 -595h-80zM136 154v61h376v-61h-376zM177 725v70l143 101l141 -101v-70l-141 102zM340 957h-66l70 148h86z" />
    <glyph glyph-name="uni1EA5" unicode="&#x1ea5;" horiz-adv-x="543" 
d="M199 -12q-42 0 -76 15.5t-54 47t-20 80.5q0 50 21 81t55.5 48.5t75 26t81.5 14.5q44 6 68 11.5t34 16.5t10 33q0 29 -12.5 51.5t-37.5 35.5t-64 13q-31 0 -63 -10t-55.5 -35t-29.5 -70l-69 23q6 36 23.5 64.5t45 49.5t64.5 32t81 11q63 0 101 -18.5t57 -48.5t26 -65
t7 -68v-118q0 -31 1 -67.5t4 -73.5t6 -68h-70q-3 35 -4 68t-2 67h-11q-14 -39 -39.5 -72.5t-63 -54t-90.5 -20.5zM215 51q23 0 47.5 8t49 25.5t45.5 45.5t38 68v98l28 -3q-15 -17 -42.5 -25.5t-61.5 -13.5t-68.5 -11t-63.5 -17.5t-46.5 -32.5t-17.5 -57q0 -42 25.5 -63.5
t66.5 -21.5zM133 579v70l143 101l141 -101v-70l-141 102zM296 811h-66l70 148h86z" />
    <glyph glyph-name="uni1EA6" unicode="&#x1ea6;" horiz-adv-x="640" 
d="M32 0l234 660h108l234 -660h-79l-204 595h-10l-203 -595h-80zM136 154v61h376v-61h-376zM177 725v70l143 101l141 -101v-70l-141 101zM298 957l-89 148h86l69 -148h-66z" />
    <glyph glyph-name="uni1EA7" unicode="&#x1ea7;" horiz-adv-x="543" 
d="M199 -12q-42 0 -76 15.5t-54 47t-20 80.5q0 50 21 81t55.5 48.5t75 26t81.5 14.5q44 6 68 11.5t34 16.5t10 33q0 29 -12.5 51.5t-37.5 35.5t-64 13q-31 0 -63 -10t-55.5 -35t-29.5 -70l-69 23q6 36 23.5 64.5t45 49.5t64.5 32t81 11q63 0 101 -18.5t57 -48.5t26 -65
t7 -68v-118q0 -31 1 -67.5t4 -73.5t6 -68h-70q-3 35 -4 68t-2 67h-11q-14 -39 -39.5 -72.5t-63 -54t-90.5 -20.5zM215 51q23 0 47.5 8t49 25.5t45.5 45.5t38 68v98l28 -3q-15 -17 -42.5 -25.5t-61.5 -13.5t-68.5 -11t-63.5 -17.5t-46.5 -32.5t-17.5 -57q0 -42 25.5 -63.5
t66.5 -21.5zM133 579v70l143 101l141 -101v-70l-141 102zM254 811l-89 148h85l70 -148h-66z" />
    <glyph glyph-name="uni1EA8" unicode="&#x1ea8;" horiz-adv-x="640" 
d="M32 0l234 660h108l234 -660h-79l-204 595h-10l-203 -595h-80zM136 154v61h376v-61h-376zM177 725v70l143 101l141 -101v-70l-141 102zM286 957q-1 19 8 30.5t21.5 19t21.5 14.5t9 19t-11 17.5t-27.5 6.5t-33.5 -1.5t-29 -7.5v51q17 8 44 11.5t55 -0.5t46.5 -19.5
t18.5 -45.5q0 -22 -10 -34.5t-23 -21t-23 -16.5t-10 -23h-57z" />
    <glyph glyph-name="uni1EA9" unicode="&#x1ea9;" horiz-adv-x="543" 
d="M199 -12q-42 0 -76 15.5t-54 47t-20 80.5q0 50 21 81t55.5 48.5t75 26t81.5 14.5q44 6 68 11.5t34 16.5t10 33q0 29 -12.5 51.5t-37.5 35.5t-64 13q-31 0 -63 -10t-55.5 -35t-29.5 -70l-69 23q6 36 23.5 64.5t45 49.5t64.5 32t81 11q63 0 101 -18.5t57 -48.5t26 -65
t7 -68v-118q0 -31 1 -67.5t4 -73.5t6 -68h-70q-3 35 -4 68t-2 67h-11q-14 -39 -39.5 -72.5t-63 -54t-90.5 -20.5zM215 51q23 0 47.5 8t49 25.5t45.5 45.5t38 68v98l28 -3q-15 -17 -42.5 -25.5t-61.5 -13.5t-68.5 -11t-63.5 -17.5t-46.5 -32.5t-17.5 -57q0 -42 25.5 -63.5
t66.5 -21.5zM133 579v70l143 101l141 -101v-70l-141 102zM242 811q-1 19 8 30.5t21.5 19t21.5 14.5t9 19t-11 17.5t-27.5 6.5t-33.5 -1.5t-29 -7.5v51q17 8 44 11.5t55 -0.5t46.5 -19.5t18.5 -45.5q0 -22 -10 -34.5t-23 -21t-23 -16.5t-10 -23h-57z" />
    <glyph glyph-name="uni1EAA" unicode="&#x1eaa;" horiz-adv-x="640" 
d="M32 0l234 660h108l234 -660h-79l-204 595h-10l-203 -595h-80zM136 154v61h376v-61h-376zM177 725v70l143 101l141 -101v-70l-141 102zM400 963q-19 0 -40.5 7.5t-42.5 17t-39 17t-29 7.5t-17.5 -10t-5.5 -33h-43q-6 32 -1.5 54t18.5 34.5t35 12.5q19 0 40.5 -7.5
t43.5 -17t40.5 -17t28.5 -7.5q14 0 21 12.5t5 30.5h43q6 -28 1.5 -51t-19 -36.5t-39.5 -13.5z" />
    <glyph glyph-name="uni1EAB" unicode="&#x1eab;" horiz-adv-x="543" 
d="M199 -12q-42 0 -76 15.5t-54 47t-20 80.5q0 50 21 81t55.5 48.5t75 26t81.5 14.5q44 6 68 11.5t34 16.5t10 33q0 29 -12.5 51.5t-37.5 35.5t-64 13q-31 0 -63 -10t-55.5 -35t-29.5 -70l-69 23q6 36 23.5 64.5t45 49.5t64.5 32t81 11q63 0 101 -18.5t57 -48.5t26 -65
t7 -68v-118q0 -31 1 -67.5t4 -73.5t6 -68h-70q-3 35 -4 68t-2 67h-11q-14 -39 -39.5 -72.5t-63 -54t-90.5 -20.5zM215 51q23 0 47.5 8t49 25.5t45.5 45.5t38 68v98l28 -3q-15 -17 -42.5 -25.5t-61.5 -13.5t-68.5 -11t-63.5 -17.5t-46.5 -32.5t-17.5 -57q0 -42 25.5 -63.5
t66.5 -21.5zM133 579v70l143 101l141 -101v-70l-141 102zM356 817q-19 0 -40.5 7.5t-42.5 17t-39 17t-29 7.5t-17.5 -10t-5.5 -33h-43q-6 32 -1.5 54t18.5 34.5t35 12.5q19 0 40.5 -7.5t43.5 -17t40.5 -17t28.5 -7.5q14 0 21 12.5t5 30.5h43q6 -28 1.5 -51t-19 -36.5
t-39.5 -13.5z" />
    <glyph glyph-name="uni1EAC" unicode="&#x1eac;" horiz-adv-x="640" 
d="M32 0l234 660h108l234 -660h-79l-204 595h-10l-203 -595h-80zM136 154v61h376v-61h-376zM323 -174q-27 0 -41 11.5t-14 33.5q0 23 14 34.5t41 11.5q28 0 42 -11.5t14 -34.5q0 -22 -14 -33.5t-42 -11.5zM177 725v70l143 101l141 -101v-70l-141 102z" />
    <glyph glyph-name="uni1EAD" unicode="&#x1ead;" horiz-adv-x="543" 
d="M199 -12q-42 0 -76 15.5t-54 47t-20 80.5q0 50 21 81t55.5 48.5t75 26t81.5 14.5q44 6 68 11.5t34 16.5t10 33q0 29 -12.5 51.5t-37.5 35.5t-64 13q-31 0 -63 -10t-55.5 -35t-29.5 -70l-69 23q6 36 23.5 64.5t45 49.5t64.5 32t81 11q63 0 101 -18.5t57 -48.5t26 -65
t7 -68v-118q0 -31 1 -67.5t4 -73.5t6 -68h-70q-3 35 -4 68t-2 67h-11q-14 -39 -39.5 -72.5t-63 -54t-90.5 -20.5zM215 51q23 0 47.5 8t49 25.5t45.5 45.5t38 68v98l28 -3q-15 -17 -42.5 -25.5t-61.5 -13.5t-68.5 -11t-63.5 -17.5t-46.5 -32.5t-17.5 -57q0 -42 25.5 -63.5
t66.5 -21.5zM286 -174q-27 0 -41 11.5t-14 33.5q0 23 14 34.5t41 11.5q28 0 42 -11.5t14 -34.5q0 -22 -14 -33.5t-42 -11.5zM133 579v70l143 101l141 -101v-70l-141 102z" />
    <glyph glyph-name="uni1EAE" unicode="&#x1eae;" horiz-adv-x="640" 
d="M32 0l234 660h108l234 -660h-79l-204 595h-10l-203 -595h-80zM136 154v61h376v-61h-376zM196 859h58q-2 -25 12 -46.5t54 -21.5q39 0 52.5 20.5t12.5 47.5h57q2 -35 -11.5 -61.5t-41.5 -42t-70 -15.5q-43 0 -71 15.5t-41 42.5t-11 61zM341 916h-66l70 148h86z" />
    <glyph glyph-name="uni1EAF" unicode="&#x1eaf;" horiz-adv-x="543" 
d="M199 -12q-42 0 -76 15.5t-54 47t-20 80.5q0 50 21 81t55.5 48.5t75 26t81.5 14.5q44 6 68 11.5t34 16.5t10 33q0 29 -12.5 51.5t-37.5 35.5t-64 13q-31 0 -63 -10t-55.5 -35t-29.5 -70l-69 23q6 36 23.5 64.5t45 49.5t64.5 32t81 11q63 0 101 -18.5t57 -48.5t26 -65
t7 -68v-118q0 -31 1 -67.5t4 -73.5t6 -68h-70q-3 35 -4 68t-2 67h-11q-14 -39 -39.5 -72.5t-63 -54t-90.5 -20.5zM215 51q23 0 47.5 8t49 25.5t45.5 45.5t38 68v98l28 -3q-15 -17 -42.5 -25.5t-61.5 -13.5t-68.5 -11t-63.5 -17.5t-46.5 -32.5t-17.5 -57q0 -42 25.5 -63.5
t66.5 -21.5zM152 713h58q-2 -25 12 -46.5t54 -21.5q39 0 52.5 20.5t12.5 47.5h57q2 -35 -11.5 -61.5t-41.5 -42t-70 -15.5q-43 0 -71 15.5t-41 42.5t-11 61zM297 771h-66l70 148h86z" />
    <glyph glyph-name="uni1EB0" unicode="&#x1eb0;" horiz-adv-x="640" 
d="M32 0l234 660h108l234 -660h-79l-204 595h-10l-203 -595h-80zM136 154v61h376v-61h-376zM196 859h58q-1 -26 12.5 -47t53.5 -21q39 0 52.5 20.5t12.5 47.5h57q2 -35 -11.5 -62t-41.5 -42.5t-70 -15.5t-70 16t-41.5 43t-11.5 61zM298 917l-89 147h86l70 -147h-67z" />
    <glyph glyph-name="uni1EB1" unicode="&#x1eb1;" horiz-adv-x="543" 
d="M199 -12q-42 0 -76 15.5t-54 47t-20 80.5q0 50 21 81t55.5 48.5t75 26t81.5 14.5q44 6 68 11.5t34 16.5t10 33q0 29 -12.5 51.5t-37.5 35.5t-64 13q-31 0 -63 -10t-55.5 -35t-29.5 -70l-69 23q6 36 23.5 64.5t45 49.5t64.5 32t81 11q63 0 101 -18.5t57 -48.5t26 -65
t7 -68v-118q0 -31 1 -67.5t4 -73.5t6 -68h-70q-3 35 -4 68t-2 67h-11q-14 -39 -39.5 -72.5t-63 -54t-90.5 -20.5zM215 51q23 0 47.5 8t49 25.5t45.5 45.5t38 68v98l28 -3q-15 -17 -42.5 -25.5t-61.5 -13.5t-68.5 -11t-63.5 -17.5t-46.5 -32.5t-17.5 -57q0 -42 25.5 -63.5
t66.5 -21.5zM152 713h58q-2 -25 12 -46.5t54 -21.5q39 0 52.5 20.5t12.5 47.5h57q2 -35 -11.5 -62t-41.5 -42t-70 -15t-70 15.5t-41.5 42.5t-11.5 61zM254 771l-89 148h86l70 -148h-67z" />
    <glyph glyph-name="uni1EB2" unicode="&#x1eb2;" horiz-adv-x="640" 
d="M32 0l234 660h108l234 -660h-79l-204 595h-10l-203 -595h-80zM136 154v61h376v-61h-376zM196 859h58q-2 -25 12 -46.5t54 -21.5q39 0 52.5 20.5t12.5 47.5h57q2 -35 -11.5 -61.5t-41.5 -42t-70 -15.5q-43 0 -71 15.5t-41 42.5t-11 61zM287 916q-1 19 8 30.5t21.5 19
t21.5 14.5t9 19t-11 17.5t-27.5 6.5t-33.5 -1.5t-29 -7.5v51q17 8 44 11.5t55 -0.5t46.5 -19.5t18.5 -45.5q0 -22 -10 -34.5t-23 -21t-23 -16.5t-10 -23h-57z" />
    <glyph glyph-name="uni1EB3" unicode="&#x1eb3;" horiz-adv-x="543" 
d="M199 -12q-42 0 -76 15.5t-54 47t-20 80.5q0 50 21 81t55.5 48.5t75 26t81.5 14.5q44 6 68 11.5t34 16.5t10 33q0 29 -12.5 51.5t-37.5 35.5t-64 13q-31 0 -63 -10t-55.5 -35t-29.5 -70l-69 23q6 36 23.5 64.5t45 49.5t64.5 32t81 11q63 0 101 -18.5t57 -48.5t26 -65
t7 -68v-118q0 -31 1 -67.5t4 -73.5t6 -68h-70q-3 35 -4 68t-2 67h-11q-14 -39 -39.5 -72.5t-63 -54t-90.5 -20.5zM215 51q23 0 47.5 8t49 25.5t45.5 45.5t38 68v98l28 -3q-15 -17 -42.5 -25.5t-61.5 -13.5t-68.5 -11t-63.5 -17.5t-46.5 -32.5t-17.5 -57q0 -42 25.5 -63.5
t66.5 -21.5zM152 713h58q-2 -25 12 -46.5t54 -21.5q39 0 52.5 20.5t12.5 47.5h57q2 -35 -11.5 -61.5t-41.5 -42t-70 -15.5q-43 0 -71 15.5t-41 42.5t-11 61zM243 771q-1 19 8 30.5t21.5 19t21.5 14.5t9 19t-11 17.5t-27.5 6.5t-33.5 -1.5t-29 -7.5v51q17 8 44 11.5t55 -0.5
t46.5 -19.5t18.5 -45.5q0 -22 -10 -34.5t-23 -21t-23 -16.5t-10 -23h-57z" />
    <glyph glyph-name="uni1EB4" unicode="&#x1eb4;" horiz-adv-x="640" 
d="M32 0l234 660h108l234 -660h-79l-204 595h-10l-203 -595h-80zM136 154v61h376v-61h-376zM196 859h58q-2 -25 12 -46.5t54 -21.5q39 0 52.5 20.5t12.5 47.5h57q2 -35 -11.5 -61.5t-41.5 -42t-70 -15.5q-43 0 -71 15.5t-41 42.5t-11 61zM383 914q-25 0 -46.5 12t-38.5 24
t-31 12q-12 0 -17 -10.5t-4 -25.5h-43q-6 28 -3 49t16 33t36 12q25 0 46 -12.5t39.5 -24.5t33.5 -12q13 0 18 10.5t3 26.5h44q7 -24 3.5 -46t-17 -35t-39.5 -13z" />
    <glyph glyph-name="uni1EB5" unicode="&#x1eb5;" horiz-adv-x="543" 
d="M199 -12q-42 0 -76 15.5t-54 47t-20 80.5q0 50 21 81t55.5 48.5t75 26t81.5 14.5q44 6 68 11.5t34 16.5t10 33q0 29 -12.5 51.5t-37.5 35.5t-64 13q-31 0 -63 -10t-55.5 -35t-29.5 -70l-69 23q6 36 23.5 64.5t45 49.5t64.5 32t81 11q63 0 101 -18.5t57 -48.5t26 -65
t7 -68v-118q0 -31 1 -67.5t4 -73.5t6 -68h-70q-3 35 -4 68t-2 67h-11q-14 -39 -39.5 -72.5t-63 -54t-90.5 -20.5zM215 51q23 0 47.5 8t49 25.5t45.5 45.5t38 68v98l28 -3q-15 -17 -42.5 -25.5t-61.5 -13.5t-68.5 -11t-63.5 -17.5t-46.5 -32.5t-17.5 -57q0 -42 25.5 -63.5
t66.5 -21.5zM152 713h58q-2 -25 12 -46.5t54 -21.5q39 0 52.5 20.5t12.5 47.5h57q2 -35 -11.5 -61.5t-41.5 -42t-70 -15.5q-43 0 -71 15.5t-41 42.5t-11 61zM339 768q-25 0 -46.5 12t-38.5 24t-31 12q-12 0 -17 -10.5t-4 -25.5h-43q-6 28 -3 49t16 33t36 12q25 0 46 -12.5
t39.5 -24.5t33.5 -12q13 0 18 10.5t3 26.5h44q7 -24 3.5 -46t-17 -35t-39.5 -13z" />
    <glyph glyph-name="uni1EB6" unicode="&#x1eb6;" horiz-adv-x="640" 
d="M32 0l234 660h108l234 -660h-79l-204 595h-10l-203 -595h-80zM136 154v61h376v-61h-376zM323 -174q-27 0 -41 11.5t-14 33.5q0 23 14 34.5t41 11.5q28 0 42 -11.5t14 -34.5q0 -22 -14 -33.5t-42 -11.5zM196 859h58q-2 -25 12 -46.5t54 -21.5q39 0 52.5 20.5t12.5 47.5h57
q2 -35 -11.5 -61.5t-41.5 -42t-70 -15.5q-43 0 -71 15.5t-41 42.5t-11 61z" />
    <glyph glyph-name="uni1EB7" unicode="&#x1eb7;" horiz-adv-x="543" 
d="M199 -12q-42 0 -76 15.5t-54 47t-20 80.5q0 50 21 81t55.5 48.5t75 26t81.5 14.5q44 6 68 11.5t34 16.5t10 33q0 29 -12.5 51.5t-37.5 35.5t-64 13q-31 0 -63 -10t-55.5 -35t-29.5 -70l-69 23q6 36 23.5 64.5t45 49.5t64.5 32t81 11q63 0 101 -18.5t57 -48.5t26 -65
t7 -68v-118q0 -31 1 -67.5t4 -73.5t6 -68h-70q-3 35 -4 68t-2 67h-11q-14 -39 -39.5 -72.5t-63 -54t-90.5 -20.5zM215 51q23 0 47.5 8t49 25.5t45.5 45.5t38 68v98l28 -3q-15 -17 -42.5 -25.5t-61.5 -13.5t-68.5 -11t-63.5 -17.5t-46.5 -32.5t-17.5 -57q0 -42 25.5 -63.5
t66.5 -21.5zM286 -174q-27 0 -41 11.5t-14 33.5q0 23 14 34.5t41 11.5q28 0 42 -11.5t14 -34.5q0 -22 -14 -33.5t-42 -11.5zM152 713h58q-2 -25 12 -46.5t54 -21.5q39 0 52.5 20.5t12.5 47.5h57q2 -35 -11.5 -61.5t-41.5 -42t-70 -15.5q-43 0 -71 15.5t-41 42.5t-11 61z" />
    <glyph glyph-name="uni1EB8" unicode="&#x1eb8;" horiz-adv-x="572" 
d="M87 0v660h75v-660h-75zM117 0v66h418v-66h-418zM117 306v64h371v-64h-371zM117 594v66h417v-66h-417zM292 -174q-27 0 -41 11.5t-14 33.5q0 23 14 34.5t41 11.5q28 0 42 -11.5t14 -34.5q0 -22 -14 -33.5t-42 -11.5z" />
    <glyph glyph-name="uni1EB9" unicode="&#x1eb9;" horiz-adv-x="555" 
d="M297 -12q-60 0 -105.5 18.5t-76 53.5t-46 83t-15.5 106q0 60 15.5 110.5t45.5 88.5t74 58.5t100 20.5q48 0 88.5 -16.5t69.5 -50.5t43.5 -86t12.5 -123l-404 -4v57l357 3l-24 -42q4 65 -13 108.5t-50.5 65.5t-79.5 22q-50 0 -86.5 -25t-56.5 -72.5t-20 -113.5
q0 -95 43 -146.5t129 -51.5q34 0 59 8t43 22.5t29 34t17 42.5l65 -15q-9 -37 -27 -66t-45.5 -49t-62.5 -30.5t-79 -10.5zM291 -174q-27 0 -41 11.5t-14 33.5q0 23 14 34.5t41 11.5q28 0 42 -11.5t14 -34.5q0 -22 -14 -33.5t-42 -11.5z" />
    <glyph glyph-name="uni1EBA" unicode="&#x1eba;" horiz-adv-x="572" 
d="M87 0v660h75v-660h-75zM117 0v66h418v-66h-418zM117 306v64h371v-64h-371zM117 594v66h417v-66h-417zM258 741q-1 19 8 30.5t21.5 19t21.5 14.5t9 19t-11 17.5t-27.5 6.5t-33.5 -1.5t-29 -7.5v51q17 8 44 11.5t55 -0.5t46.5 -19.5t18.5 -45.5q0 -22 -10 -34.5t-23 -21
t-23 -16.5t-10 -23h-57z" />
    <glyph glyph-name="uni1EBB" unicode="&#x1ebb;" horiz-adv-x="555" 
d="M297 -12q-60 0 -105.5 18.5t-76 53.5t-46 83t-15.5 106q0 60 15.5 110.5t45.5 88.5t74 58.5t100 20.5q48 0 88.5 -16.5t69.5 -50.5t43.5 -86t12.5 -123l-404 -4v57l357 3l-24 -42q4 65 -13 108.5t-50.5 65.5t-79.5 22q-50 0 -86.5 -25t-56.5 -72.5t-20 -113.5
q0 -95 43 -146.5t129 -51.5q34 0 59 8t43 22.5t29 34t17 42.5l65 -15q-9 -37 -27 -66t-45.5 -49t-62.5 -30.5t-79 -10.5zM251 595q-1 19 8 30.5t21.5 19t21.5 14.5t9 19t-11 17.5t-27.5 6.5t-33.5 -1.5t-29 -7.5v51q17 8 44 11.5t55 -0.5t46.5 -19.5t18.5 -45.5
q0 -22 -10 -34.5t-23 -21t-23 -16.5t-10 -23h-57z" />
    <glyph glyph-name="uni1EBC" unicode="&#x1ebc;" horiz-adv-x="572" 
d="M87 0v660h75v-660h-75zM117 0v66h418v-66h-418zM117 306v64h371v-64h-371zM117 594v66h417v-66h-417zM371 747q-19 0 -40.5 7.5t-42.5 17t-39 17t-29 7.5t-17.5 -10t-5.5 -33h-43q-6 32 -1.5 54t18.5 34.5t35 12.5q19 0 40.5 -7.5t43.5 -17t40.5 -17t28.5 -7.5
q14 0 21 12.5t5 30.5h43q6 -28 1.5 -51t-19 -36.5t-39.5 -13.5z" />
    <glyph glyph-name="uni1EBD" unicode="&#x1ebd;" horiz-adv-x="555" 
d="M297 -12q-60 0 -105.5 18.5t-76 53.5t-46 83t-15.5 106q0 60 15.5 110.5t45.5 88.5t74 58.5t100 20.5q48 0 88.5 -16.5t69.5 -50.5t43.5 -86t12.5 -123l-404 -4v57l357 3l-24 -42q4 65 -13 108.5t-50.5 65.5t-79.5 22q-50 0 -86.5 -25t-56.5 -72.5t-20 -113.5
q0 -95 43 -146.5t129 -51.5q34 0 59 8t43 22.5t29 34t17 42.5l65 -15q-9 -37 -27 -66t-45.5 -49t-62.5 -30.5t-79 -10.5zM364 601q-19 0 -40.5 7.5t-42.5 17t-39 17t-29 7.5t-17.5 -10t-5.5 -33h-43q-6 32 -1.5 54t18.5 34.5t35 12.5q19 0 40.5 -7.5t43.5 -17t40.5 -17
t28.5 -7.5q14 0 21 12.5t5 30.5h43q6 -28 1.5 -51t-19 -36.5t-39.5 -13.5z" />
    <glyph glyph-name="uni1EBE" unicode="&#x1ebe;" horiz-adv-x="572" 
d="M87 0v660h75v-660h-75zM117 0v66h418v-66h-418zM117 306v64h371v-64h-371zM117 594v66h417v-66h-417zM148 725v70l143 101l141 -101v-70l-141 102zM311 957h-66l70 148h86z" />
    <glyph glyph-name="uni1EBF" unicode="&#x1ebf;" horiz-adv-x="555" 
d="M297 -12q-60 0 -105.5 18.5t-76 53.5t-46 83t-15.5 106q0 60 15.5 110.5t45.5 88.5t74 58.5t100 20.5q48 0 88.5 -16.5t69.5 -50.5t43.5 -86t12.5 -123l-404 -4v57l357 3l-24 -42q4 65 -13 108.5t-50.5 65.5t-79.5 22q-50 0 -86.5 -25t-56.5 -72.5t-20 -113.5
q0 -95 43 -146.5t129 -51.5q34 0 59 8t43 22.5t29 34t17 42.5l65 -15q-9 -37 -27 -66t-45.5 -49t-62.5 -30.5t-79 -10.5zM141 579v70l143 101l141 -101v-70l-141 102zM305 811h-66l70 148h86z" />
    <glyph glyph-name="uni1EC0" unicode="&#x1ec0;" horiz-adv-x="572" 
d="M87 0v660h75v-660h-75zM117 0v66h418v-66h-418zM117 306v64h371v-64h-371zM117 594v66h417v-66h-417zM148 725v70l142 101l142 -101v-70l-142 102zM269 957l-90 148h86l70 -148h-66z" />
    <glyph glyph-name="uni1EC1" unicode="&#x1ec1;" horiz-adv-x="555" 
d="M297 -12q-60 0 -105.5 18.5t-76 53.5t-46 83t-15.5 106q0 60 15.5 110.5t45.5 88.5t74 58.5t100 20.5q48 0 88.5 -16.5t69.5 -50.5t43.5 -86t12.5 -123l-404 -4v57l357 3l-24 -42q4 65 -13 108.5t-50.5 65.5t-79.5 22q-50 0 -86.5 -25t-56.5 -72.5t-20 -113.5
q0 -95 43 -146.5t129 -51.5q34 0 59 8t43 22.5t29 34t17 42.5l65 -15q-9 -37 -27 -66t-45.5 -49t-62.5 -30.5t-79 -10.5zM141 579v70l143 101l141 -101v-70l-141 102zM262 812l-89 147h86l69 -147h-66z" />
    <glyph glyph-name="uni1EC2" unicode="&#x1ec2;" horiz-adv-x="572" 
d="M87 0v660h75v-660h-75zM117 0v66h418v-66h-418zM117 306v64h371v-64h-371zM117 594v66h417v-66h-417zM148 725v70l143 101l141 -101v-70l-141 102zM257 957q-1 19 8 30.5t21.5 19t21.5 14.5t9 19t-11 17.5t-27.5 6.5t-33.5 -1.5t-29 -7.5v51q17 8 44 11.5t55 -0.5
t46.5 -19.5t18.5 -45.5q0 -22 -10 -34.5t-23 -21t-23 -16.5t-10 -23h-57z" />
    <glyph glyph-name="uni1EC3" unicode="&#x1ec3;" horiz-adv-x="555" 
d="M297 -12q-60 0 -105.5 18.5t-76 53.5t-46 83t-15.5 106q0 60 15.5 110.5t45.5 88.5t74 58.5t100 20.5q48 0 88.5 -16.5t69.5 -50.5t43.5 -86t12.5 -123l-404 -4v57l357 3l-24 -42q4 65 -13 108.5t-50.5 65.5t-79.5 22q-50 0 -86.5 -25t-56.5 -72.5t-20 -113.5
q0 -95 43 -146.5t129 -51.5q34 0 59 8t43 22.5t29 34t17 42.5l65 -15q-9 -37 -27 -66t-45.5 -49t-62.5 -30.5t-79 -10.5zM141 579v70l143 101l141 -101v-70l-141 102zM251 811q-1 19 8 30.5t21.5 19t21.5 14.5t9 19t-11 17.5t-27.5 6.5t-33.5 -1.5t-29 -7.5v51q17 8 44 11.5
t55 -0.5t46.5 -19.5t18.5 -45.5q0 -22 -10 -34.5t-23 -21t-23 -16.5t-10 -23h-57z" />
    <glyph glyph-name="uni1EC4" unicode="&#x1ec4;" horiz-adv-x="572" 
d="M87 0v660h75v-660h-75zM117 0v66h418v-66h-418zM117 306v64h371v-64h-371zM117 594v66h417v-66h-417zM148 725v70l143 101l141 -101v-70l-141 102zM370 963q-19 0 -40.5 7.5t-42.5 17t-39 17t-29 7.5t-17.5 -10t-5.5 -33h-43q-6 32 -1.5 54t18.5 34.5t35 12.5
q19 0 40.5 -7.5t43.5 -17t40.5 -17t28.5 -7.5q14 0 21 12.5t5 30.5h43q6 -28 1.5 -51t-19 -36.5t-39.5 -13.5z" />
    <glyph glyph-name="uni1EC5" unicode="&#x1ec5;" horiz-adv-x="555" 
d="M297 -12q-60 0 -105.5 18.5t-76 53.5t-46 83t-15.5 106q0 60 15.5 110.5t45.5 88.5t74 58.5t100 20.5q48 0 88.5 -16.5t69.5 -50.5t43.5 -86t12.5 -123l-404 -4v57l357 3l-24 -42q4 65 -13 108.5t-50.5 65.5t-79.5 22q-50 0 -86.5 -25t-56.5 -72.5t-20 -113.5
q0 -95 43 -146.5t129 -51.5q34 0 59 8t43 22.5t29 34t17 42.5l65 -15q-9 -37 -27 -66t-45.5 -49t-62.5 -30.5t-79 -10.5zM141 579v70l143 101l141 -101v-70l-141 102zM364 818q-19 0 -40.5 7.5t-42.5 17t-39 17t-29 7.5t-17.5 -10t-5.5 -33h-43q-6 32 -1.5 54t18.5 34.5
t35 12.5q19 0 40.5 -7.5t43.5 -17t40.5 -17t28.5 -7.5q14 0 21 12.5t5 30.5h43q6 -28 1.5 -51t-19 -36.5t-39.5 -13.5z" />
    <glyph glyph-name="uni1EC6" unicode="&#x1ec6;" horiz-adv-x="572" 
d="M87 0v660h75v-660h-75zM117 0v66h418v-66h-418zM117 306v64h371v-64h-371zM117 594v66h417v-66h-417zM292 -174q-27 0 -41 11.5t-14 33.5q0 23 14 34.5t41 11.5q28 0 42 -11.5t14 -34.5q0 -22 -14 -33.5t-42 -11.5zM148 725v70l143 101l141 -101v-70l-141 102z" />
    <glyph glyph-name="uni1EC7" unicode="&#x1ec7;" horiz-adv-x="555" 
d="M297 -12q-60 0 -105.5 18.5t-76 53.5t-46 83t-15.5 106q0 60 15.5 110.5t45.5 88.5t74 58.5t100 20.5q48 0 88.5 -16.5t69.5 -50.5t43.5 -86t12.5 -123l-404 -4v57l357 3l-24 -42q4 65 -13 108.5t-50.5 65.5t-79.5 22q-50 0 -86.5 -25t-56.5 -72.5t-20 -113.5
q0 -95 43 -146.5t129 -51.5q34 0 59 8t43 22.5t29 34t17 42.5l65 -15q-9 -37 -27 -66t-45.5 -49t-62.5 -30.5t-79 -10.5zM291 -174q-27 0 -41 11.5t-14 33.5q0 23 14 34.5t41 11.5q28 0 42 -11.5t14 -34.5q0 -22 -14 -33.5t-42 -11.5zM141 579v70l143 101l141 -101v-70
l-141 102z" />
    <glyph glyph-name="uni1EC8" unicode="&#x1ec8;" horiz-adv-x="250" 
d="M87 0v660h76v-660h-76zM92 741q-1 19 8 30.5t21.5 19t21.5 14.5t9 19t-11 17.5t-27.5 6.5t-33.5 -1.5t-29 -7.5v51q17 8 44 11.5t55 -0.5t46.5 -19.5t18.5 -45.5q0 -22 -10 -34.5t-23 -21t-23 -16.5t-10 -23h-57z" />
    <glyph glyph-name="uni1EC9" unicode="&#x1ec9;" horiz-adv-x="234" 
d="M80 0v514h74v-514h-74zM85 595q-1 19 8 30.5t21.5 19t21.5 14.5t9 19t-11 17.5t-27.5 6.5t-33.5 -1.5t-29 -7.5v51q17 8 44 11.5t55 -0.5t46.5 -19.5t18.5 -45.5q0 -22 -10 -34.5t-23 -21t-23 -16.5t-10 -23h-57z" />
    <glyph glyph-name="uni1ECA" unicode="&#x1eca;" horiz-adv-x="250" 
d="M87 0v660h76v-660h-76zM129 -174q-27 0 -41 11.5t-14 33.5q0 23 14 34.5t41 11.5q28 0 42 -11.5t14 -34.5q0 -22 -14 -33.5t-42 -11.5z" />
    <glyph glyph-name="uni1ECB" unicode="&#x1ecb;" horiz-adv-x="235" 
d="M81 0v514h74v-514h-74zM118 607q-27 0 -41 11.5t-14 33.5q0 23 14 34.5t41 11.5q28 0 42 -11.5t14 -34.5q0 -22 -14 -33.5t-42 -11.5zM121 -174q-27 0 -41 11.5t-14 33.5q0 23 14 34.5t41 11.5q28 0 42 -11.5t14 -34.5q0 -22 -14 -33.5t-42 -11.5z" />
    <glyph glyph-name="uni1ECC" unicode="&#x1ecc;" horiz-adv-x="705" 
d="M354 -13q-72 0 -126.5 24.5t-90.5 70t-54 107.5t-18 138q0 114 37 191t102 115.5t149 38.5q66 0 118.5 -23t90.5 -68t58.5 -109t20.5 -146q0 -75 -18.5 -137.5t-54 -107.5t-89.5 -69.5t-125 -24.5zM351 54q33 0 70 11.5t70 40t53.5 82t20.5 137.5q0 101 -30 162
t-77.5 89.5t-102.5 28.5q-31 0 -68 -11t-70.5 -40t-55 -84t-21.5 -143q0 -81 19 -134t50 -83.5t68.5 -43t73.5 -12.5zM356 -174q-27 0 -41 11.5t-14 33.5q0 23 14 34.5t41 11.5q28 0 42 -11.5t14 -34.5q0 -22 -14 -33.5t-42 -11.5z" />
    <glyph glyph-name="uni1ECD" unicode="&#x1ecd;" horiz-adv-x="595" 
d="M299 -12q-72 0 -127.5 32t-86.5 93t-31 147q0 89 33 148t87.5 89t121.5 30q69 0 124.5 -31.5t88 -92t32.5 -148.5t-32 -147.5t-86.5 -89.5t-123.5 -30zM302 52q27 0 56 10t53.5 33t40 62t15.5 97q0 59 -15.5 98.5t-41 63.5t-56.5 34.5t-60 10.5q-27 0 -56 -9.5t-54 -32
t-40.5 -61t-15.5 -96.5q0 -59 15.5 -99t40.5 -64.5t56 -35.5t62 -11zM303 -174q-27 0 -41 11.5t-14 33.5q0 23 14 34.5t41 11.5q28 0 42 -11.5t14 -34.5q0 -22 -14 -33.5t-42 -11.5z" />
    <glyph glyph-name="uni1ECE" unicode="&#x1ece;" horiz-adv-x="705" 
d="M354 -13q-72 0 -126.5 24.5t-90.5 70t-54 107.5t-18 138q0 114 37 191t102 115.5t149 38.5q66 0 118.5 -23t90.5 -68t58.5 -109t20.5 -146q0 -75 -18.5 -137.5t-54 -107.5t-89.5 -69.5t-125 -24.5zM351 54q33 0 70 11.5t70 40t53.5 82t20.5 137.5q0 101 -30 162
t-77.5 89.5t-102.5 28.5q-31 0 -68 -11t-70.5 -40t-55 -84t-21.5 -143q0 -81 19 -134t50 -83.5t68.5 -43t73.5 -12.5zM320 741q-1 19 8 30.5t21.5 19t21.5 14.5t9 19t-11 17.5t-27.5 6.5t-33.5 -1.5t-29 -7.5v51q17 8 44 11.5t55 -0.5t46.5 -19.5t18.5 -45.5
q0 -22 -10 -34.5t-23 -21t-23 -16.5t-10 -23h-57z" />
    <glyph glyph-name="uni1ECF" unicode="&#x1ecf;" horiz-adv-x="595" 
d="M299 -12q-72 0 -127.5 32t-86.5 93t-31 147q0 89 33 148t87.5 89t121.5 30q69 0 124.5 -31.5t88 -92t32.5 -148.5t-32 -147.5t-86.5 -89.5t-123.5 -30zM302 52q27 0 56 10t53.5 33t40 62t15.5 97q0 59 -15.5 98.5t-41 63.5t-56.5 34.5t-60 10.5q-27 0 -56 -9.5t-54 -32
t-40.5 -61t-15.5 -96.5q0 -59 15.5 -99t40.5 -64.5t56 -35.5t62 -11zM265 595q-1 19 8 30.5t21.5 19t21.5 14.5t9 19t-11 17.5t-27.5 6.5t-33.5 -1.5t-29 -7.5v51q17 8 44 11.5t55 -0.5t46.5 -19.5t18.5 -45.5q0 -22 -10 -34.5t-23 -21t-23 -16.5t-10 -23h-57z" />
    <glyph glyph-name="uni1ED0" unicode="&#x1ed0;" horiz-adv-x="705" 
d="M354 -13q-72 0 -126.5 24.5t-90.5 70t-54 107.5t-18 138q0 114 37 191t102 115.5t149 38.5q66 0 118.5 -23t90.5 -68t58.5 -109t20.5 -146q0 -75 -18.5 -137.5t-54 -107.5t-89.5 -69.5t-125 -24.5zM351 54q33 0 70 11.5t70 40t53.5 82t20.5 137.5q0 101 -30 162
t-77.5 89.5t-102.5 28.5q-31 0 -68 -11t-70.5 -40t-55 -84t-21.5 -143q0 -81 19 -134t50 -83.5t68.5 -43t73.5 -12.5zM211 725v70l143 101l141 -101v-70l-141 102zM374 957h-66l70 148h86z" />
    <glyph glyph-name="uni1ED1" unicode="&#x1ed1;" horiz-adv-x="595" 
d="M299 -12q-72 0 -127.5 32t-86.5 93t-31 147q0 89 33 148t87.5 89t121.5 30q69 0 124.5 -31.5t88 -92t32.5 -148.5t-32 -147.5t-86.5 -89.5t-123.5 -30zM302 52q27 0 56 10t53.5 33t40 62t15.5 97q0 59 -15.5 98.5t-41 63.5t-56.5 34.5t-60 10.5q-27 0 -56 -9.5t-54 -32
t-40.5 -61t-15.5 -96.5q0 -59 15.5 -99t40.5 -64.5t56 -35.5t62 -11zM156 579v70l143 101l141 -101v-70l-141 102zM319 811h-66l70 148h86z" />
    <glyph glyph-name="uni1ED2" unicode="&#x1ed2;" horiz-adv-x="705" 
d="M354 -13q-72 0 -126.5 24.5t-90.5 70t-54 107.5t-18 138q0 114 37 191t102 115.5t149 38.5q66 0 118.5 -23t90.5 -68t58.5 -109t20.5 -146q0 -75 -18.5 -137.5t-54 -107.5t-89.5 -69.5t-125 -24.5zM351 54q33 0 70 11.5t70 40t53.5 82t20.5 137.5q0 101 -30 162
t-77.5 89.5t-102.5 28.5q-31 0 -68 -11t-70.5 -40t-55 -84t-21.5 -143q0 -81 19 -134t50 -83.5t68.5 -43t73.5 -12.5zM211 725v70l142 101l141 -101v-70l-141 101zM332 957l-90 148h86l70 -148h-66z" />
    <glyph glyph-name="uni1ED3" unicode="&#x1ed3;" horiz-adv-x="595" 
d="M299 -12q-72 0 -127.5 32t-86.5 93t-31 147q0 89 33 148t87.5 89t121.5 30q69 0 124.5 -31.5t88 -92t32.5 -148.5t-32 -147.5t-86.5 -89.5t-123.5 -30zM302 52q27 0 56 10t53.5 33t40 62t15.5 97q0 59 -15.5 98.5t-41 63.5t-56.5 34.5t-60 10.5q-27 0 -56 -9.5t-54 -32
t-40.5 -61t-15.5 -96.5q0 -59 15.5 -99t40.5 -64.5t56 -35.5t62 -11zM156 579v70l142 101l141 -101v-70l-141 102zM277 812l-90 147h86l70 -147h-66z" />
    <glyph glyph-name="uni1ED4" unicode="&#x1ed4;" horiz-adv-x="705" 
d="M354 -13q-72 0 -126.5 24.5t-90.5 70t-54 107.5t-18 138q0 114 37 191t102 115.5t149 38.5q66 0 118.5 -23t90.5 -68t58.5 -109t20.5 -146q0 -75 -18.5 -137.5t-54 -107.5t-89.5 -69.5t-125 -24.5zM351 54q33 0 70 11.5t70 40t53.5 82t20.5 137.5q0 101 -30 162
t-77.5 89.5t-102.5 28.5q-31 0 -68 -11t-70.5 -40t-55 -84t-21.5 -143q0 -81 19 -134t50 -83.5t68.5 -43t73.5 -12.5zM211 725v70l143 101l141 -101v-70l-141 102zM320 957q-1 19 8 30.5t21.5 19t21.5 14.5t9 19t-11 17.5t-27.5 6.5t-33.5 -1.5t-29 -7.5v51q17 8 44 11.5
t55 -0.5t46.5 -19.5t18.5 -45.5q0 -22 -10 -34.5t-23 -21t-23 -16.5t-10 -23h-57z" />
    <glyph glyph-name="uni1ED5" unicode="&#x1ed5;" horiz-adv-x="595" 
d="M299 -12q-72 0 -127.5 32t-86.5 93t-31 147q0 89 33 148t87.5 89t121.5 30q69 0 124.5 -31.5t88 -92t32.5 -148.5t-32 -147.5t-86.5 -89.5t-123.5 -30zM302 52q27 0 56 10t53.5 33t40 62t15.5 97q0 59 -15.5 98.5t-41 63.5t-56.5 34.5t-60 10.5q-27 0 -56 -9.5t-54 -32
t-40.5 -61t-15.5 -96.5q0 -59 15.5 -99t40.5 -64.5t56 -35.5t62 -11zM156 579v70l143 101l141 -101v-70l-141 102zM265 811q-1 19 8 30.5t21.5 19t21.5 14.5t9 19t-11 17.5t-27.5 6.5t-33.5 -1.5t-29 -7.5v51q17 8 44 11.5t55 -0.5t46.5 -19.5t18.5 -45.5q0 -22 -10 -34.5
t-23 -21t-23 -16.5t-10 -23h-57z" />
    <glyph glyph-name="uni1ED6" unicode="&#x1ed6;" horiz-adv-x="705" 
d="M354 -13q-72 0 -126.5 24.5t-90.5 70t-54 107.5t-18 138q0 114 37 191t102 115.5t149 38.5q66 0 118.5 -23t90.5 -68t58.5 -109t20.5 -146q0 -75 -18.5 -137.5t-54 -107.5t-89.5 -69.5t-125 -24.5zM351 54q33 0 70 11.5t70 40t53.5 82t20.5 137.5q0 101 -30 162
t-77.5 89.5t-102.5 28.5q-31 0 -68 -11t-70.5 -40t-55 -84t-21.5 -143q0 -81 19 -134t50 -83.5t68.5 -43t73.5 -12.5zM211 725v70l143 101l141 -101v-70l-141 102zM433 963q-19 0 -40.5 7.5t-42.5 17t-39 17t-29 7.5t-17.5 -10t-5.5 -33h-43q-6 32 -1.5 54t18.5 34.5
t35 12.5q19 0 40.5 -7.5t43.5 -17t40.5 -17t28.5 -7.5q14 0 21 12.5t5 30.5h43q6 -28 1.5 -51t-19 -36.5t-39.5 -13.5z" />
    <glyph glyph-name="uni1ED7" unicode="&#x1ed7;" horiz-adv-x="595" 
d="M299 -12q-72 0 -127.5 32t-86.5 93t-31 147q0 89 33 148t87.5 89t121.5 30q69 0 124.5 -31.5t88 -92t32.5 -148.5t-32 -147.5t-86.5 -89.5t-123.5 -30zM302 52q27 0 56 10t53.5 33t40 62t15.5 97q0 59 -15.5 98.5t-41 63.5t-56.5 34.5t-60 10.5q-27 0 -56 -9.5t-54 -32
t-40.5 -61t-15.5 -96.5q0 -59 15.5 -99t40.5 -64.5t56 -35.5t62 -11zM156 579v70l143 101l141 -101v-70l-141 102zM378 818q-19 0 -40.5 7.5t-42.5 17t-39 17t-29 7.5t-17.5 -10t-5.5 -33h-43q-6 32 -1.5 54t18.5 34.5t35 12.5q19 0 40.5 -7.5t43.5 -17t40.5 -17t28.5 -7.5
q14 0 21 12.5t5 30.5h43q6 -28 1.5 -51t-19 -36.5t-39.5 -13.5z" />
    <glyph glyph-name="uni1ED8" unicode="&#x1ed8;" horiz-adv-x="705" 
d="M354 -13q-72 0 -126.5 24.5t-90.5 70t-54 107.5t-18 138q0 114 37 191t102 115.5t149 38.5q66 0 118.5 -23t90.5 -68t58.5 -109t20.5 -146q0 -75 -18.5 -137.5t-54 -107.5t-89.5 -69.5t-125 -24.5zM351 54q33 0 70 11.5t70 40t53.5 82t20.5 137.5q0 101 -30 162
t-77.5 89.5t-102.5 28.5q-31 0 -68 -11t-70.5 -40t-55 -84t-21.5 -143q0 -81 19 -134t50 -83.5t68.5 -43t73.5 -12.5zM356 -174q-27 0 -41 11.5t-14 33.5q0 23 14 34.5t41 11.5q28 0 42 -11.5t14 -34.5q0 -22 -14 -33.5t-42 -11.5zM211 725v70l143 101l141 -101v-70
l-141 102z" />
    <glyph glyph-name="uni1ED9" unicode="&#x1ed9;" horiz-adv-x="595" 
d="M299 -12q-72 0 -127.5 32t-86.5 93t-31 147q0 89 33 148t87.5 89t121.5 30q69 0 124.5 -31.5t88 -92t32.5 -148.5t-32 -147.5t-86.5 -89.5t-123.5 -30zM302 52q27 0 56 10t53.5 33t40 62t15.5 97q0 59 -15.5 98.5t-41 63.5t-56.5 34.5t-60 10.5q-27 0 -56 -9.5t-54 -32
t-40.5 -61t-15.5 -96.5q0 -59 15.5 -99t40.5 -64.5t56 -35.5t62 -11zM303 -174q-27 0 -41 11.5t-14 33.5q0 23 14 34.5t41 11.5q28 0 42 -11.5t14 -34.5q0 -22 -14 -33.5t-42 -11.5zM156 579v70l143 101l141 -101v-70l-141 102z" />
    <glyph glyph-name="uni1EDA" unicode="&#x1eda;" horiz-adv-x="705" 
d="M510 632l-69 5l1 13q46 0 64.5 15t20.5 41.5t-2 59.5h62q8 -49 0.5 -79.5t-27 -44t-50.5 -10.5zM354 -13q-72 0 -126.5 24.5t-90.5 70t-54 107.5t-18 138q0 114 37 191t102 115.5t149 38.5q66 0 118.5 -23t90.5 -68t58.5 -109t20.5 -146q0 -75 -18.5 -137.5t-54 -107.5
t-89.5 -69.5t-125 -24.5zM351 54q33 0 70 11.5t70 40t53.5 82t20.5 137.5q0 101 -30 162t-77.5 89.5t-102.5 28.5q-31 0 -68 -11t-70.5 -40t-55 -84t-21.5 -143q0 -81 19 -134t50 -83.5t68.5 -43t73.5 -12.5zM374 741h-66l70 148h86z" />
    <glyph glyph-name="uni1EDB" unicode="&#x1edb;" horiz-adv-x="608" 
d="M435 492l-66 6l1 17q43 0 61.5 15t21.5 40t0 54h62q7 -42 1.5 -73t-25.5 -46.5t-56 -12.5zM299 -12q-72 0 -127.5 32t-86.5 93t-31 147q0 89 33 148t87.5 89t121.5 30q69 0 124.5 -31.5t88 -92t32.5 -148.5t-32 -147.5t-86.5 -89.5t-123.5 -30zM302 52q27 0 56 10
t53.5 33t40 62t15.5 97q0 59 -15.5 98.5t-41 63.5t-56.5 34.5t-60 10.5q-27 0 -56 -9.5t-54 -32t-40.5 -61t-15.5 -96.5q0 -59 15.5 -99t40.5 -64.5t56 -35.5t62 -11zM319 595h-66l70 148h86z" />
    <glyph glyph-name="uni1EDC" unicode="&#x1edc;" horiz-adv-x="705" 
d="M510 632l-69 5l1 13q46 0 64.5 15t20.5 41.5t-2 59.5h62q8 -49 0.5 -79.5t-27 -44t-50.5 -10.5zM354 -13q-72 0 -126.5 24.5t-90.5 70t-54 107.5t-18 138q0 114 37 191t102 115.5t149 38.5q66 0 118.5 -23t90.5 -68t58.5 -109t20.5 -146q0 -75 -18.5 -137.5t-54 -107.5
t-89.5 -69.5t-125 -24.5zM351 54q33 0 70 11.5t70 40t53.5 82t20.5 137.5q0 101 -30 162t-77.5 89.5t-102.5 28.5q-31 0 -68 -11t-70.5 -40t-55 -84t-21.5 -143q0 -81 19 -134t50 -83.5t68.5 -43t73.5 -12.5zM332 741l-89 147h86l69 -147h-66z" />
    <glyph glyph-name="uni1EDD" unicode="&#x1edd;" horiz-adv-x="608" 
d="M435 492l-66 6l1 17q43 0 61.5 15t21.5 40t0 54h62q7 -42 1.5 -73t-25.5 -46.5t-56 -12.5zM299 -12q-72 0 -127.5 32t-86.5 93t-31 147q0 89 33 148t87.5 89t121.5 30q69 0 124.5 -31.5t88 -92t32.5 -148.5t-32 -147.5t-86.5 -89.5t-123.5 -30zM302 52q27 0 56 10
t53.5 33t40 62t15.5 97q0 59 -15.5 98.5t-41 63.5t-56.5 34.5t-60 10.5q-27 0 -56 -9.5t-54 -32t-40.5 -61t-15.5 -96.5q0 -59 15.5 -99t40.5 -64.5t56 -35.5t62 -11zM277 595l-89 148h86l69 -148h-66z" />
    <glyph glyph-name="uni1EDE" unicode="&#x1ede;" horiz-adv-x="705" 
d="M510 632l-69 5l1 13q46 0 64.5 15t20.5 41.5t-2 59.5h62q8 -49 0.5 -79.5t-27 -44t-50.5 -10.5zM354 -13q-72 0 -126.5 24.5t-90.5 70t-54 107.5t-18 138q0 114 37 191t102 115.5t149 38.5q66 0 118.5 -23t90.5 -68t58.5 -109t20.5 -146q0 -75 -18.5 -137.5t-54 -107.5
t-89.5 -69.5t-125 -24.5zM351 54q33 0 70 11.5t70 40t53.5 82t20.5 137.5q0 101 -30 162t-77.5 89.5t-102.5 28.5q-31 0 -68 -11t-70.5 -40t-55 -84t-21.5 -143q0 -81 19 -134t50 -83.5t68.5 -43t73.5 -12.5zM320 741q-1 19 8 30.5t21.5 19t21.5 14.5t9 19t-11 17.5
t-27.5 6.5t-33.5 -1.5t-29 -7.5v51q17 8 44 11.5t55 -0.5t46.5 -19.5t18.5 -45.5q0 -22 -10 -34.5t-23 -21t-23 -16.5t-10 -23h-57z" />
    <glyph glyph-name="uni1EDF" unicode="&#x1edf;" horiz-adv-x="608" 
d="M435 492l-66 6l1 17q43 0 61.5 15t21.5 40t0 54h62q7 -42 1.5 -73t-25.5 -46.5t-56 -12.5zM299 -12q-72 0 -127.5 32t-86.5 93t-31 147q0 89 33 148t87.5 89t121.5 30q69 0 124.5 -31.5t88 -92t32.5 -148.5t-32 -147.5t-86.5 -89.5t-123.5 -30zM302 52q27 0 56 10
t53.5 33t40 62t15.5 97q0 59 -15.5 98.5t-41 63.5t-56.5 34.5t-60 10.5q-27 0 -56 -9.5t-54 -32t-40.5 -61t-15.5 -96.5q0 -59 15.5 -99t40.5 -64.5t56 -35.5t62 -11zM265 595q-1 19 8 30.5t21.5 19t21.5 14.5t9 19t-11 17.5t-27.5 6.5t-33.5 -1.5t-29 -7.5v51q17 8 44 11.5
t55 -0.5t46.5 -19.5t18.5 -45.5q0 -22 -10 -34.5t-23 -21t-23 -16.5t-10 -23h-57z" />
    <glyph glyph-name="uni1EE0" unicode="&#x1ee0;" horiz-adv-x="705" 
d="M510 632l-69 5l1 13q46 0 64.5 15t20.5 41.5t-2 59.5h62q8 -49 0.5 -79.5t-27 -44t-50.5 -10.5zM354 -13q-72 0 -126.5 24.5t-90.5 70t-54 107.5t-18 138q0 114 37 191t102 115.5t149 38.5q66 0 118.5 -23t90.5 -68t58.5 -109t20.5 -146q0 -75 -18.5 -137.5t-54 -107.5
t-89.5 -69.5t-125 -24.5zM351 54q33 0 70 11.5t70 40t53.5 82t20.5 137.5q0 101 -30 162t-77.5 89.5t-102.5 28.5q-31 0 -68 -11t-70.5 -40t-55 -84t-21.5 -143q0 -81 19 -134t50 -83.5t68.5 -43t73.5 -12.5zM416 738q-25 0 -46.5 12t-38.5 24t-31 12q-12 0 -17 -10.5
t-4 -25.5h-43q-6 28 -3 49t16 33t36 12q25 0 46 -12.5t39.5 -24.5t33.5 -12q13 0 18 10.5t3 26.5h44q7 -24 3.5 -46t-17 -35t-39.5 -13z" />
    <glyph glyph-name="uni1EE1" unicode="&#x1ee1;" horiz-adv-x="608" 
d="M435 492l-66 6l1 17q43 0 61.5 15t21.5 40t0 54h62q7 -42 1.5 -73t-25.5 -46.5t-56 -12.5zM299 -12q-72 0 -127.5 32t-86.5 93t-31 147q0 89 33 148t87.5 89t121.5 30q69 0 124.5 -31.5t88 -92t32.5 -148.5t-32 -147.5t-86.5 -89.5t-123.5 -30zM302 52q27 0 56 10
t53.5 33t40 62t15.5 97q0 59 -15.5 98.5t-41 63.5t-56.5 34.5t-60 10.5q-27 0 -56 -9.5t-54 -32t-40.5 -61t-15.5 -96.5q0 -59 15.5 -99t40.5 -64.5t56 -35.5t62 -11zM361 592q-25 0 -46.5 12t-38.5 24t-31 12q-12 0 -17 -10.5t-4 -25.5h-43q-6 28 -3 49t16 33t36 12
q25 0 46 -12.5t39.5 -24.5t33.5 -12q13 0 18 10.5t3 26.5h44q7 -24 3.5 -46t-17 -35t-39.5 -13z" />
    <glyph glyph-name="uni1EE2" unicode="&#x1ee2;" horiz-adv-x="705" 
d="M510 632l-69 5l1 13q46 0 64.5 15t20.5 41.5t-2 59.5h62q8 -49 0.5 -79.5t-27 -44t-50.5 -10.5zM354 -13q-72 0 -126.5 24.5t-90.5 70t-54 107.5t-18 138q0 114 37 191t102 115.5t149 38.5q66 0 118.5 -23t90.5 -68t58.5 -109t20.5 -146q0 -75 -18.5 -137.5t-54 -107.5
t-89.5 -69.5t-125 -24.5zM351 54q33 0 70 11.5t70 40t53.5 82t20.5 137.5q0 101 -30 162t-77.5 89.5t-102.5 28.5q-31 0 -68 -11t-70.5 -40t-55 -84t-21.5 -143q0 -81 19 -134t50 -83.5t68.5 -43t73.5 -12.5zM356 -174q-27 0 -41 11.5t-14 33.5q0 23 14 34.5t41 11.5
q28 0 42 -11.5t14 -34.5q0 -22 -14 -33.5t-42 -11.5z" />
    <glyph glyph-name="uni1EE3" unicode="&#x1ee3;" horiz-adv-x="608" 
d="M435 492l-66 6l1 17q43 0 61.5 15t21.5 40t0 54h62q7 -42 1.5 -73t-25.5 -46.5t-56 -12.5zM299 -12q-72 0 -127.5 32t-86.5 93t-31 147q0 89 33 148t87.5 89t121.5 30q69 0 124.5 -31.5t88 -92t32.5 -148.5t-32 -147.5t-86.5 -89.5t-123.5 -30zM302 52q27 0 56 10
t53.5 33t40 62t15.5 97q0 59 -15.5 98.5t-41 63.5t-56.5 34.5t-60 10.5q-27 0 -56 -9.5t-54 -32t-40.5 -61t-15.5 -96.5q0 -59 15.5 -99t40.5 -64.5t56 -35.5t62 -11zM303 -174q-27 0 -41 11.5t-14 33.5q0 23 14 34.5t41 11.5q28 0 42 -11.5t14 -34.5q0 -22 -14 -33.5
t-42 -11.5z" />
    <glyph glyph-name="uni1EE4" unicode="&#x1ee4;" horiz-adv-x="701" 
d="M351 -13q-51 0 -93.5 11.5t-75 33.5t-55 53.5t-34 72.5t-11.5 90v412h75v-408q0 -53 18 -97.5t60.5 -71t114.5 -26.5q76 0 118 27t59 71.5t17 96.5v408h75v-412q0 -64 -18.5 -112.5t-53.5 -82t-84.5 -50t-111.5 -16.5zM354 -174q-27 0 -41 11.5t-14 33.5q0 23 14 34.5
t41 11.5q28 0 42 -11.5t14 -34.5q0 -22 -14 -33.5t-42 -11.5z" />
    <glyph glyph-name="uni1EE5" unicode="&#x1ee5;" horiz-adv-x="570" 
d="M244 -12q-39 0 -68 12t-49 33.5t-32 52t-17.5 66.5t-5.5 77v285h75v-268q0 -33 3 -67t14 -62t34 -45t63 -17q33 0 59 16t46 46t32.5 71t18.5 91v235h73v-293v-221h-69l11 172h-14q-12 -65 -36 -105.5t-59 -59.5t-79 -19zM302 -174q-27 0 -41 11.5t-14 33.5q0 23 14 34.5
t41 11.5q28 0 42 -11.5t14 -34.5q0 -22 -14 -33.5t-42 -11.5z" />
    <glyph glyph-name="uni1EE6" unicode="&#x1ee6;" horiz-adv-x="701" 
d="M351 -13q-51 0 -93.5 11.5t-75 33.5t-55 53.5t-34 72.5t-11.5 90v412h75v-408q0 -53 18 -97.5t60.5 -71t114.5 -26.5q76 0 118 27t59 71.5t17 96.5v408h75v-412q0 -64 -18.5 -112.5t-53.5 -82t-84.5 -50t-111.5 -16.5zM318 741q-1 19 8 30.5t21.5 19t21.5 14.5t9 19
t-11 17.5t-27.5 6.5t-33.5 -1.5t-29 -7.5v51q17 8 44 11.5t55 -0.5t46.5 -19.5t18.5 -45.5q0 -22 -10 -34.5t-23 -21t-23 -16.5t-10 -23h-57z" />
    <glyph glyph-name="uni1EE7" unicode="&#x1ee7;" horiz-adv-x="570" 
d="M244 -12q-39 0 -68 12t-49 33.5t-32 52t-17.5 66.5t-5.5 77v285h75v-268q0 -33 3 -67t14 -62t34 -45t63 -17q33 0 59 16t46 46t32.5 71t18.5 91v235h73v-293v-221h-69l11 172h-14q-12 -65 -36 -105.5t-59 -59.5t-79 -19zM249 595q-1 19 8 30.5t21.5 19t21.5 14.5t9 19
t-11 17.5t-27.5 6.5t-33.5 -1.5t-29 -7.5v51q17 8 44 11.5t55 -0.5t46.5 -19.5t18.5 -45.5q0 -22 -10 -34.5t-23 -21t-23 -16.5t-10 -23h-57z" />
    <glyph glyph-name="uni1EE8" unicode="&#x1ee8;" horiz-adv-x="701" 
d="M351 -13q-51 0 -93.5 11.5t-75 33.5t-55 53.5t-34 72.5t-11.5 90v412h75v-408q0 -53 18 -97.5t60.5 -71t114.5 -26.5q76 0 118 27t59 71.5t17 96.5v408h75v-412q0 -64 -18.5 -112.5t-53.5 -82t-84.5 -50t-111.5 -16.5zM632 637l-61 7l2 16q33 0 50 10.5t23 27t5.5 36
t-3.5 37.5h64q6 -42 1 -73.5t-24.5 -47.5t-56.5 -13zM372 741h-66l70 148h86z" />
    <glyph glyph-name="uni1EE9" unicode="&#x1ee9;" horiz-adv-x="612" 
d="M244 -12q-39 0 -68 12t-49 33.5t-32 52t-17.5 66.5t-5.5 77v285h75v-268q0 -33 3 -67t14 -62t34 -45t63 -17q33 0 59 16t46 46t32.5 71t18.5 91v235h73v-293v-221h-69l11 172h-14q-12 -65 -36 -105.5t-59 -59.5t-79 -19zM504 491l-61 7l2 16q33 0 50 10.5t23 27t5.5 36
t-3.5 37.5h64q6 -42 1 -73.5t-24.5 -47.5t-56.5 -13zM303 595h-66l70 148h86z" />
    <glyph glyph-name="uni1EEA" unicode="&#x1eea;" horiz-adv-x="701" 
d="M351 -13q-51 0 -93.5 11.5t-75 33.5t-55 53.5t-34 72.5t-11.5 90v412h75v-408q0 -53 18 -97.5t60.5 -71t114.5 -26.5q76 0 118 27t59 71.5t17 96.5v408h75v-412q0 -64 -18.5 -112.5t-53.5 -82t-84.5 -50t-111.5 -16.5zM633 637l-62 7l2 16q33 0 50 10.5t23 27t5.5 35.5
t-3.5 37h64q7 -41 1.5 -72.5t-24.5 -48t-56 -12.5zM329 741l-89 147h86l70 -147h-67z" />
    <glyph glyph-name="uni1EEB" unicode="&#x1eeb;" horiz-adv-x="612" 
d="M244 -12q-39 0 -68 12t-49 33.5t-32 52t-17.5 66.5t-5.5 77v285h75v-268q0 -33 3 -67t14 -62t34 -45t63 -17q33 0 59 16t46 46t32.5 71t18.5 91v235h73v-293v-221h-69l11 172h-14q-12 -65 -36 -105.5t-59 -59.5t-79 -19zM504 492l-61 6l2 16q33 0 50 10.5t23 27t5 36
t-3 37.5h64q6 -41 1 -73t-24.5 -48t-56.5 -12zM260 595l-89 148h86l70 -148h-67z" />
    <glyph glyph-name="uni1EEC" unicode="&#x1eec;" horiz-adv-x="701" 
d="M351 -13q-51 0 -93.5 11.5t-75 33.5t-55 53.5t-34 72.5t-11.5 90v412h75v-408q0 -53 18 -97.5t60.5 -71t114.5 -26.5q76 0 118 27t59 71.5t17 96.5v408h75v-412q0 -64 -18.5 -112.5t-53.5 -82t-84.5 -50t-111.5 -16.5zM632 637l-61 7l2 16q33 0 50 10.5t23 27t5.5 36
t-3.5 37.5h64q6 -42 1 -73.5t-24.5 -47.5t-56.5 -13zM318 741q-1 19 8 30.5t21.5 19t21.5 14.5t9 19t-11 17.5t-27.5 6.5t-33.5 -1.5t-29 -7.5v51q17 8 44 11.5t55 -0.5t46.5 -19.5t18.5 -45.5q0 -22 -10 -34.5t-23 -21t-23 -16.5t-10 -23h-57z" />
    <glyph glyph-name="uni1EED" unicode="&#x1eed;" horiz-adv-x="612" 
d="M244 -12q-39 0 -68 12t-49 33.5t-32 52t-17.5 66.5t-5.5 77v285h75v-268q0 -33 3 -67t14 -62t34 -45t63 -17q33 0 59 16t46 46t32.5 71t18.5 91v235h73v-293v-221h-69l11 172h-14q-12 -65 -36 -105.5t-59 -59.5t-79 -19zM504 491l-61 7l2 16q33 0 50 10.5t23 27t5.5 36
t-3.5 37.5h64q6 -42 1 -73.5t-24.5 -47.5t-56.5 -13zM249 595q-1 19 8 30.5t21.5 19t21.5 14.5t9 19t-11 17.5t-27.5 6.5t-33.5 -1.5t-29 -7.5v51q17 8 44 11.5t55 -0.5t46.5 -19.5t18.5 -45.5q0 -22 -10 -34.5t-23 -21t-23 -16.5t-10 -23h-57z" />
    <glyph glyph-name="uni1EEE" unicode="&#x1eee;" horiz-adv-x="701" 
d="M351 -13q-51 0 -93.5 11.5t-75 33.5t-55 53.5t-34 72.5t-11.5 90v412h75v-408q0 -53 18 -97.5t60.5 -71t114.5 -26.5q76 0 118 27t59 71.5t17 96.5v408h75v-412q0 -64 -18.5 -112.5t-53.5 -82t-84.5 -50t-111.5 -16.5zM632 637l-61 7l2 16q33 0 50 10.5t23 27t5.5 36
t-3.5 37.5h64q6 -42 1 -73.5t-24.5 -47.5t-56.5 -13zM431 747q-19 0 -40.5 7.5t-42.5 17t-39 17t-29 7.5t-17.5 -10t-5.5 -33h-43q-6 32 -1.5 54t18.5 34.5t35 12.5q19 0 40.5 -7.5t43.5 -17t40.5 -17t28.5 -7.5q14 0 21 12.5t5 30.5h43q6 -28 1.5 -51t-19 -36.5
t-39.5 -13.5z" />
    <glyph glyph-name="uni1EEF" unicode="&#x1eef;" horiz-adv-x="612" 
d="M244 -12q-39 0 -68 12t-49 33.5t-32 52t-17.5 66.5t-5.5 77v285h75v-268q0 -33 3 -67t14 -62t34 -45t63 -17q33 0 59 16t46 46t32.5 71t18.5 91v235h73v-293v-221h-69l11 172h-14q-12 -65 -36 -105.5t-59 -59.5t-79 -19zM504 491l-61 7l2 16q33 0 50 10.5t23 27t5.5 36
t-3.5 37.5h64q6 -42 1 -73.5t-24.5 -47.5t-56.5 -13zM362 601q-19 0 -40.5 7.5t-42.5 17t-39 17t-29 7.5t-17.5 -10t-5.5 -33h-43q-6 32 -1.5 54t18.5 34.5t35 12.5q19 0 40.5 -7.5t43.5 -17t40.5 -17t28.5 -7.5q14 0 21 12.5t5 30.5h43q6 -28 1.5 -51t-19 -36.5
t-39.5 -13.5z" />
    <glyph glyph-name="uni1EF0" unicode="&#x1ef0;" horiz-adv-x="701" 
d="M351 -13q-51 0 -93.5 11.5t-75 33.5t-55 53.5t-34 72.5t-11.5 90v412h75v-408q0 -53 18 -97.5t60.5 -71t114.5 -26.5q76 0 118 27t59 71.5t17 96.5v408h75v-412q0 -64 -18.5 -112.5t-53.5 -82t-84.5 -50t-111.5 -16.5zM632 637l-61 7l2 16q33 0 50 10.5t23 27t5.5 36
t-3.5 37.5h64q6 -42 1 -73.5t-24.5 -47.5t-56.5 -13zM354 -174q-27 0 -41 11.5t-14 33.5q0 23 14 34.5t41 11.5q28 0 42 -11.5t14 -34.5q0 -22 -14 -33.5t-42 -11.5z" />
    <glyph glyph-name="uni1EF1" unicode="&#x1ef1;" horiz-adv-x="612" 
d="M244 -12q-39 0 -68 12t-49 33.5t-32 52t-17.5 66.5t-5.5 77v285h75v-268q0 -33 3 -67t14 -62t34 -45t63 -17q33 0 59 16t46 46t32.5 71t18.5 91v235h73v-293v-221h-69l11 172h-14q-12 -65 -36 -105.5t-59 -59.5t-79 -19zM504 491l-61 7l2 16q33 0 50 10.5t23 27t5.5 36
t-3.5 37.5h64q6 -42 1 -73.5t-24.5 -47.5t-56.5 -13zM302 -174q-27 0 -41 11.5t-14 33.5q0 23 14 34.5t41 11.5q28 0 42 -11.5t14 -34.5q0 -22 -14 -33.5t-42 -11.5z" />
    <glyph glyph-name="Ygrave" unicode="&#x1ef2;" horiz-adv-x="557" 
d="M241 0v216l-226 444h85l177 -368h4l175 368h86l-226 -444v-216h-75zM258 741l-90 147h86l70 -147h-66z" />
    <glyph glyph-name="ygrave" unicode="&#x1ef3;" horiz-adv-x="573" 
d="M261 -169q-40 0 -79 9.5t-70.5 30t-51.5 51.5l47 48q21 -34 61 -52.5t90 -18.5q46 0 78.5 15.5t53.5 46t31 75.5t10 103l12 108h-17q-11 -76 -35.5 -120.5t-59 -63.5t-79.5 -19q-50 0 -82.5 20t-50.5 50.5t-26.5 65t-10.5 64t-2 45.5v225h73v-204q0 -16 1 -41t6.5 -52.5
t18 -51t35 -39t57.5 -15.5q34 0 60.5 17t45.5 49.5t29.5 79.5t13.5 107v150h74v-380q0 -43 -5 -82t-15.5 -73t-28.5 -61t-44 -47t-60.5 -30t-79.5 -10zM268 595l-90 148h86l70 -148h-66z" />
    <glyph glyph-name="uni1EF4" unicode="&#x1ef4;" horiz-adv-x="557" 
d="M241 0v216l-226 444h85l177 -368h4l175 368h86l-226 -444v-216h-75zM282 -174q-27 0 -41 11.5t-14 33.5q0 23 14 34.5t41 11.5q28 0 42 -11.5t14 -34.5q0 -22 -14 -33.5t-42 -11.5z" />
    <glyph glyph-name="uni1EF5" unicode="&#x1ef5;" horiz-adv-x="573" 
d="M261 -169q-40 0 -79 9.5t-70.5 30t-51.5 51.5l47 48q21 -34 61 -52.5t90 -18.5q46 0 78.5 15.5t53.5 46t31 75.5t10 103l12 108h-17q-11 -76 -35.5 -120.5t-59 -63.5t-79.5 -19q-50 0 -82.5 20t-50.5 50.5t-26.5 65t-10.5 64t-2 45.5v225h73v-204q0 -16 1 -41t6.5 -52.5
t18 -51t35 -39t57.5 -15.5q34 0 60.5 17t45.5 49.5t29.5 79.5t13.5 107v150h74v-380q0 -43 -5 -82t-15.5 -73t-28.5 -61t-44 -47t-60.5 -30t-79.5 -10zM300 -327q-27 0 -41 11.5t-14 33.5q0 23 14 34.5t41 11.5q28 0 42 -11.5t14 -34.5q0 -22 -14 -33.5t-42 -11.5z" />
    <glyph glyph-name="uni1EF6" unicode="&#x1ef6;" horiz-adv-x="557" 
d="M241 0v216l-226 444h85l177 -368h4l175 368h86l-226 -444v-216h-75zM246 741q-1 19 8 30.5t21.5 19t21.5 14.5t9 19t-11 17.5t-27.5 6.5t-33.5 -1.5t-29 -7.5v51q17 8 44 11.5t55 -0.5t46.5 -19.5t18.5 -45.5q0 -22 -10 -34.5t-23 -21t-23 -16.5t-10 -23h-57z" />
    <glyph glyph-name="uni1EF7" unicode="&#x1ef7;" horiz-adv-x="573" 
d="M261 -169q-40 0 -79 9.5t-70.5 30t-51.5 51.5l47 48q21 -34 61 -52.5t90 -18.5q46 0 78.5 15.5t53.5 46t31 75.5t10 103l12 108h-17q-11 -76 -35.5 -120.5t-59 -63.5t-79.5 -19q-50 0 -82.5 20t-50.5 50.5t-26.5 65t-10.5 64t-2 45.5v225h73v-204q0 -16 1 -41t6.5 -52.5
t18 -51t35 -39t57.5 -15.5q34 0 60.5 17t45.5 49.5t29.5 79.5t13.5 107v150h74v-380q0 -43 -5 -82t-15.5 -73t-28.5 -61t-44 -47t-60.5 -30t-79.5 -10zM256 595q-1 19 8 30.5t21.5 19t21.5 14.5t9 19t-11 17.5t-27.5 6.5t-33.5 -1.5t-29 -7.5v51q17 8 44 11.5t55 -0.5
t46.5 -19.5t18.5 -45.5q0 -22 -10 -34.5t-23 -21t-23 -16.5t-10 -23h-57z" />
    <glyph glyph-name="uni1EF8" unicode="&#x1ef8;" horiz-adv-x="557" 
d="M241 0v216l-226 444h85l177 -368h4l175 368h86l-226 -444v-216h-75zM359 747q-19 0 -40.5 7.5t-42.5 17t-39 17t-29 7.5t-17.5 -10t-5.5 -33h-43q-6 32 -1.5 54t18.5 34.5t35 12.5q19 0 40.5 -7.5t43.5 -17t40.5 -17t28.5 -7.5q14 0 21 12.5t5 30.5h43q6 -28 1.5 -51
t-19 -36.5t-39.5 -13.5z" />
    <glyph glyph-name="uni1EF9" unicode="&#x1ef9;" horiz-adv-x="573" 
d="M261 -169q-40 0 -79 9.5t-70.5 30t-51.5 51.5l47 48q21 -34 61 -52.5t90 -18.5q46 0 78.5 15.5t53.5 46t31 75.5t10 103l12 108h-17q-11 -76 -35.5 -120.5t-59 -63.5t-79.5 -19q-50 0 -82.5 20t-50.5 50.5t-26.5 65t-10.5 64t-2 45.5v225h73v-204q0 -16 1 -41t6.5 -52.5
t18 -51t35 -39t57.5 -15.5q34 0 60.5 17t45.5 49.5t29.5 79.5t13.5 107v150h74v-380q0 -43 -5 -82t-15.5 -73t-28.5 -61t-44 -47t-60.5 -30t-79.5 -10zM369 601q-19 0 -40.5 7.5t-42.5 17t-39 17t-29 7.5t-17.5 -10t-5.5 -33h-43q-6 32 -1.5 54t18.5 34.5t35 12.5
q19 0 40.5 -7.5t43.5 -17t40.5 -17t28.5 -7.5q14 0 21 12.5t5 30.5h43q6 -28 1.5 -51t-19 -36.5t-39.5 -13.5z" />
    <glyph glyph-name="uni2000" unicode="&#x2000;" horiz-adv-x="500" 
 />
    <glyph glyph-name="uni2001" unicode="&#x2001;" horiz-adv-x="1000" 
 />
    <glyph glyph-name="uni2002" unicode="&#x2002;" horiz-adv-x="500" 
 />
    <glyph glyph-name="uni2003" unicode="&#x2003;" horiz-adv-x="1000" 
 />
    <glyph glyph-name="uni2004" unicode="&#x2004;" horiz-adv-x="300" 
 />
    <glyph glyph-name="uni2005" unicode="&#x2005;" horiz-adv-x="250" 
 />
    <glyph glyph-name="uni2006" unicode="&#x2006;" horiz-adv-x="167" 
 />
    <glyph glyph-name="uni2007" unicode="&#x2007;" horiz-adv-x="592" 
 />
    <glyph glyph-name="uni2008" unicode="&#x2008;" horiz-adv-x="157" 
 />
    <glyph glyph-name="uni2009" unicode="&#x2009;" horiz-adv-x="132" 
 />
    <glyph glyph-name="uni200A" unicode="&#x200a;" horiz-adv-x="67" 
 />
    <glyph glyph-name="uni200B" unicode="&#x200b;" 
 />
    <glyph glyph-name="endash" unicode="&#x2013;" horiz-adv-x="500" 
d="M32 232v68h436v-68h-436z" />
    <glyph glyph-name="emdash" unicode="&#x2014;" horiz-adv-x="730" 
d="M32 232v68h666v-68h-666z" />
    <glyph glyph-name="uni2016" unicode="&#x2016;" horiz-adv-x="419" 
d="M87 -153v813h67v-813h-67zM265 -153v813h67v-813h-67z" />
    <glyph glyph-name="quoteleft" unicode="&#x2018;" horiz-adv-x="145" 
d="M130 701q-18 -45 -25.5 -81.5t-9 -66.5t-1.5 -56h-72q0 46 6.5 84t17 67.5t21.5 52.5h63z" />
    <glyph glyph-name="quoteright" unicode="&#x2019;" horiz-adv-x="145" 
d="M15 490q18 46 25.5 82t9 66t1.5 56h72q0 -46 -6.5 -83.5t-17 -67.5t-21.5 -53h-63z" />
    <glyph glyph-name="quotesinglbase" unicode="&#x201a;" horiz-adv-x="132" 
d="M0 -137q18 46 25.5 82t9 66t1.5 56h72q0 -46 -6.5 -83.5t-17 -67.5t-21.5 -53h-63z" />
    <glyph glyph-name="quotedblleft" unicode="&#x201c;" horiz-adv-x="286" 
d="M271 701q-18 -45 -25.5 -81.5t-9 -66.5t-1.5 -56h-71q0 46 6.5 84t16.5 67.5t22 52.5h62zM130 701q-18 -45 -25.5 -81.5t-9 -66.5t-1.5 -56h-72q0 46 6.5 84t17 67.5t21.5 52.5h63z" />
    <glyph glyph-name="quotedblright" unicode="&#x201d;" horiz-adv-x="286" 
d="M15 490q18 46 25.5 82t9 66t1.5 56h72q0 -46 -6.5 -83.5t-17 -67.5t-21.5 -53h-63zM157 490q18 46 25.5 82t9 66t1.5 56h72q0 -46 -6.5 -83.5t-17 -67.5t-21.5 -53h-63z" />
    <glyph glyph-name="quotedblbase" unicode="&#x201e;" horiz-adv-x="274" 
d="M0 -96q18 46 25.5 82t9 66t1.5 56h72q0 -46 -6.5 -83.5t-17 -67.5t-21.5 -53h-63zM141 -96q18 46 25.5 82t9 66t1.5 56h72q0 -46 -6.5 -83.5t-17 -67.5t-21.5 -53h-63z" />
    <glyph glyph-name="dagger" unicode="&#x2020;" horiz-adv-x="342" 
d="M145 577l-119 -19v75l120 -25l4 4l-20 120h82l-21 -120l5 -4l120 25v-75l-118 20l-6 -4l18 -235h-79l19 234z" />
    <glyph glyph-name="daggerdbl" unicode="&#x2021;" horiz-adv-x="322" 
d="M132 614l-106 -21v74l108 -27l4 4l-19 88h85l-19 -88l4 -4l107 27v-74l-105 22l-6 -5l-3 -63h-40l-5 63zM132 464l5 4l5 60h40l4 -60l5 -5l105 22v-74l-107 27l-4 -4l19 -88h-85l20 88l-5 4l-108 -27v74z" />
    <glyph glyph-name="bullet" unicode="&#x2022;" horiz-adv-x="211" 
d="M105 179q-41 0 -61.5 18t-20.5 57t20.5 57t61.5 18t62 -18t21 -57t-21 -57t-62 -18z" />
    <glyph glyph-name="ellipsis" unicode="&#x2026;" horiz-adv-x="636" 
d="M78 -11q-27 0 -41 12t-14 37q0 27 14 39t41 12q28 0 41.5 -12t13.5 -39q0 -49 -55 -49zM318 -11q-27 0 -41 12t-14 37q0 27 14 39t41 12q28 0 41.5 -12t13.5 -39q0 -49 -55 -49zM557 -11q-27 0 -41 12t-14 37q0 27 14 39t41 12q28 0 41.5 -12t13.5 -39q0 -49 -55 -49z
" />
    <glyph glyph-name="uni202F" unicode="&#x202f;" horiz-adv-x="167" 
 />
    <glyph glyph-name="perthousand" unicode="&#x2030;" horiz-adv-x="1320" 
d="M211 302q-49 0 -90 21.5t-65 63.5t-24 102q0 47 14.5 82t39.5 58t57.5 34.5t67.5 11.5q48 0 88.5 -21.5t65 -63t24.5 -103.5q0 -64 -26 -105t-66 -60.5t-86 -19.5zM214 366q26 0 50.5 12.5t40.5 38.5t16 69q0 47 -18 74.5t-44.5 39t-50.5 11.5q-27 0 -51.5 -12.5
t-40.5 -39t-16 -68.5q0 -44 17 -71.5t44 -40.5t53 -13zM704 -18q-49 0 -90 21.5t-64.5 63.5t-23.5 102q0 47 14 82t39 58t57.5 34.5t66.5 11.5q50 0 90.5 -21.5t64.5 -63t24 -103.5q0 -64 -25.5 -105t-65.5 -60.5t-87 -19.5zM707 46q26 0 50.5 12.5t40.5 38t16 68.5
q0 48 -18 75t-44 39t-51 12q-27 0 -51.5 -12.5t-40.5 -39t-16 -68.5q0 -44 17.5 -71.5t44 -40.5t52.5 -13zM1110 -18q-49 0 -90 21.5t-64.5 63.5t-23.5 102q0 47 14 82t39 58t57.5 34.5t66.5 11.5q50 0 90.5 -21.5t64.5 -63t24 -103.5q0 -64 -25.5 -105t-65.5 -60.5
t-87 -19.5zM1113 46q26 0 50.5 12.5t40.5 38t16 68.5q0 48 -18 75t-44 39t-51 12q-27 0 -51.5 -12.5t-40.5 -39t-16 -68.5q0 -44 17.5 -71.5t44 -40.5t52.5 -13zM207 0l409 660h77l-408 -660h-78z" />
    <glyph glyph-name="minute" unicode="&#x2032;" horiz-adv-x="153" 
d="M33 435l27 225h73l-51 -225h-49z" />
    <glyph glyph-name="second" unicode="&#x2033;" horiz-adv-x="276" 
d="M156 435l27 225h73l-51 -225h-49zM33 435l27 225h73l-51 -225h-49z" />
    <glyph glyph-name="guilsinglleft" unicode="&#x2039;" horiz-adv-x="215" 
d="M92 80q-10 51 -24.5 97t-30.5 90q17 44 31 89t24 95h78q-14 -50 -31 -95t-36 -89q19 -44 36 -90t31 -97h-78z" />
    <glyph glyph-name="guilsinglright" unicode="&#x203a;" horiz-adv-x="191" 
d="M99 80h-78q14 51 31 97t36 90q-19 44 -36 89t-31 95h78q10 -50 24.5 -95t30.5 -89q-16 -44 -30.5 -90t-24.5 -97z" />
    <glyph glyph-name="fraction" unicode="&#x2044;" horiz-adv-x="254" 
d="M-116 0l408 660h78l-409 -660h-77z" />
    <glyph glyph-name="uni2070" unicode="&#x2070;" horiz-adv-x="433" 
d="M217 262q-52 0 -90 25.5t-58.5 72t-20.5 108.5q0 68 21.5 114.5t60 71t87.5 24.5q52 0 89.5 -26t58 -73t20.5 -110t-20.5 -109.5t-58.5 -72t-89 -25.5zM216 317q29 0 52 16t37 50t14 87q0 72 -28 112t-74 40q-27 0 -50.5 -16t-38 -49.5t-14.5 -86.5q0 -51 13.5 -85
t37 -51t51.5 -17z" />
    <glyph glyph-name="uni2074" unicode="&#x2074;" horiz-adv-x="411" 
d="M24 354v69q41 42 73 84t56 83t40 81h114v-401h-65v355h-5q-27 -58 -66 -112t-84 -100v-6h272v-53h-335z" />
    <glyph glyph-name="uni2075" unicode="&#x2075;" horiz-adv-x="400" 
d="M198 262q-45 0 -78.5 13t-51.5 37t-18 57l61 13q3 -31 23.5 -49t61.5 -18q44 0 67.5 22.5t23.5 67.5q0 23 -7 43t-23.5 32.5t-47.5 12.5q-35 0 -54 -16t-26 -36h-70l13 229h264v-56h-208l-10 -134h9q13 34 42.5 48t63.5 14q41 0 68 -17.5t40.5 -48t13.5 -70.5
q0 -51 -21 -83t-56 -46.5t-80 -14.5z" />
    <glyph glyph-name="uni2076" unicode="&#x2076;" horiz-adv-x="426" 
d="M228 262q-86 0 -133 52t-47 153q0 65 20 112.5t59 73.5t96 26q30 0 54.5 -7.5t43 -22t30.5 -35.5t15 -49l-61 -14q-3 34 -25 53t-58 19q-38 0 -63 -22t-37 -57.5t-12 -79.5q0 -21 3 -41t9 -39h7q-3 47 15 75.5t47.5 42t59.5 13.5q34 0 63.5 -14t47.5 -41t18 -67
q0 -25 -8.5 -48t-26.5 -42t-47.5 -30t-69.5 -11zM222 314q34 0 54 11.5t29 29.5t9 37q0 39 -25 57t-57 18q-39 0 -63 -23t-24 -62q0 -26 11.5 -41t29.5 -21t36 -6z" />
    <glyph glyph-name="uni2077" unicode="&#x2077;" horiz-adv-x="332" 
d="M98 270q0 59 16 122t48 120t81 100v5l-213 -4v57h274v-60q-31 -28 -56 -65.5t-43 -81t-27 -92.5t-9 -101h-71z" />
    <glyph glyph-name="uni2078" unicode="&#x2078;" horiz-adv-x="419" 
d="M210 262q-49 0 -87 12.5t-59.5 38t-21.5 61.5q0 41 27 65t71 30v5l69 10l70 -10v-5q28 -2 50 -14t35 -33t13 -50q0 -36 -21 -60.5t-58.5 -37t-87.5 -12.5zM210 315q20 0 43.5 6.5t40.5 20.5t17 38q0 23 -15.5 38.5t-38.5 24t-48 8.5q-23 0 -46.5 -8.5t-38.5 -23.5
t-15 -38t16.5 -37.5t40 -21.5t44.5 -7zM209 496q20 0 40 7.5t33.5 22.5t13.5 37t-14 35t-34.5 19t-40.5 6q-19 0 -39 -6t-33.5 -19t-13.5 -34t12.5 -36.5t33 -23.5t42.5 -8zM209 456l-69 12v10q-37 6 -60.5 28.5t-23.5 60.5q0 28 11 49t31.5 35t49 21t61.5 7
q70 0 111.5 -29.5t41.5 -81.5q0 -38 -22 -60t-61 -30v-10z" />
    <glyph glyph-name="uni2079" unicode="&#x2079;" horiz-adv-x="423" 
d="M199 262q-31 0 -57 6.5t-45 21t-31.5 35t-15.5 48.5l61 15q5 -30 19.5 -45t33 -21t35.5 -6q31 0 53 11t35.5 31t19.5 46.5t6 57.5q0 22 -3.5 46.5t-8.5 48.5h-8q4 -47 -13.5 -75.5t-47 -42t-59.5 -13.5q-50 0 -88 32t-38 90q0 25 8.5 48.5t26.5 42t46.5 29.5t66.5 11
q57 0 97.5 -25t62 -73t21.5 -118q0 -63 -19.5 -108.5t-58.5 -69t-99 -23.5zM194 471q36 0 59.5 24.5t23.5 62.5q0 27 -11 41t-28.5 20t-37.5 6q-30 0 -50 -11t-29 -28.5t-9 -38.5q0 -37 25 -56.5t57 -19.5z" />
    <glyph glyph-name="uni2080" unicode="&#x2080;" horiz-adv-x="433" 
d="M217 -218q-52 0 -90 25.5t-58.5 72t-20.5 108.5q0 68 21.5 114.5t60 71t87.5 24.5q52 0 89.5 -26t58 -73t20.5 -110t-20.5 -109.5t-58.5 -72t-89 -25.5zM216 -163q29 0 52 16t37 50t14 87q0 72 -28 112t-74 40q-27 0 -50.5 -16t-38 -49.5t-14.5 -86.5q0 -51 13.5 -85
t37 -51t51.5 -17z" />
    <glyph glyph-name="uni2081" unicode="&#x2081;" horiz-adv-x="232" 
d="M96 -210v297h-56v57q26 0 44 9.5t23 36.5h53v-400h-64z" />
    <glyph glyph-name="uni2082" unicode="&#x2082;" horiz-adv-x="387" 
d="M39 -210v72l149 108q17 13 35.5 29.5t31.5 36.5t13 43q0 28 -20.5 45.5t-59.5 17.5q-29 0 -47.5 -11.5t-26.5 -33.5t-8 -54l-63 13q-1 62 34.5 102.5t112.5 40.5q43 0 75.5 -13.5t50.5 -39.5t18 -62q0 -25 -9 -47.5t-24.5 -41.5t-34.5 -36t-40 -31l-114 -83v-5l231 8v-58
h-304z" />
    <glyph glyph-name="uni2083" unicode="&#x2083;" horiz-adv-x="396" 
d="M180 -218q-79 0 -116.5 32t-40.5 84l60 14q1 -26 13.5 -44t34 -26t49.5 -8q41 0 69.5 17t28.5 55q0 27 -16.5 46t-53 29t-96.5 8v38l142 105v5l-214 -2v55h280v-66l-135 -97v-7q78 2 118.5 -28.5t40.5 -86.5t-42 -89.5t-122 -33.5z" />
    <glyph glyph-name="uni2084" unicode="&#x2084;" horiz-adv-x="411" 
d="M24 -126v69q41 42 73 84t56 83t40 81h114v-401h-65v355h-5q-27 -58 -66 -112t-84 -100v-6h272v-53h-335z" />
    <glyph glyph-name="uni2085" unicode="&#x2085;" horiz-adv-x="400" 
d="M198 -218q-45 0 -78.5 13t-51.5 37t-18 57l61 13q3 -31 23.5 -49t61.5 -18q44 0 67.5 22.5t23.5 67.5q0 23 -7 43t-23.5 32.5t-47.5 12.5q-35 0 -54 -16t-26 -36h-70l13 229h264v-56h-208l-10 -134h9q13 34 42.5 48t63.5 14q41 0 68 -17.5t40.5 -48t13.5 -70.5
q0 -51 -21 -83t-56 -46.5t-80 -14.5z" />
    <glyph glyph-name="uni2086" unicode="&#x2086;" horiz-adv-x="426" 
d="M228 -218q-86 0 -133 52t-47 153q0 65 20 112.5t59 73.5t96 26q30 0 54.5 -7.5t43 -22t30.5 -35.5t15 -49l-61 -14q-3 34 -25 53t-58 19q-38 0 -63 -22t-37 -57.5t-12 -79.5q0 -21 3 -41t9 -39h7q-3 47 15 75.5t47.5 42t59.5 13.5q34 0 63.5 -14t47.5 -41t18 -67
q0 -25 -8.5 -48t-26.5 -42t-47.5 -30t-69.5 -11zM222 -166q34 0 54 11.5t29 29.5t9 37q0 39 -25 57t-57 18q-39 0 -63 -23t-24 -62q0 -26 11.5 -41t29.5 -21t36 -6z" />
    <glyph glyph-name="uni2087" unicode="&#x2087;" horiz-adv-x="332" 
d="M98 -210q0 59 16 122t48 120t81 100v5l-213 -4v57h274v-60q-31 -28 -56 -65.5t-43 -81t-27 -92.5t-9 -101h-71z" />
    <glyph glyph-name="uni2088" unicode="&#x2088;" horiz-adv-x="419" 
d="M210 -218q-49 0 -87 12.5t-59.5 38t-21.5 61.5q0 41 27 65t71 30v5l69 10l70 -10v-5q28 -2 50 -14t35 -33t13 -50q0 -36 -21 -60.5t-58.5 -37t-87.5 -12.5zM210 -165q20 0 43.5 6.5t40.5 20.5t17 38q0 23 -15.5 38.5t-38.5 24t-48 8.5q-23 0 -46.5 -8.5t-38.5 -23.5
t-15 -38t16.5 -37.5t40 -21.5t44.5 -7zM209 16q20 0 40 7.5t33.5 22.5t13.5 37t-14 35t-34.5 19t-40.5 6q-19 0 -39 -6t-33.5 -19t-13.5 -34t12.5 -36.5t33 -23.5t42.5 -8zM209 -24l-69 12v10q-37 6 -60.5 28.5t-23.5 60.5q0 28 11 49t31.5 35t49 21t61.5 7
q70 0 111.5 -29.5t41.5 -81.5q0 -38 -22 -60t-61 -30v-10z" />
    <glyph glyph-name="uni2089" unicode="&#x2089;" horiz-adv-x="423" 
d="M199 -218q-31 0 -57 6.5t-45 21t-31.5 35t-15.5 48.5l61 15q5 -30 19.5 -45t33 -21t35.5 -6q31 0 53 11t35.5 31t19.5 46.5t6 57.5q0 22 -3.5 46.5t-8.5 48.5h-8q4 -47 -13.5 -75.5t-47 -42t-59.5 -13.5q-50 0 -88 32t-38 90q0 25 8.5 48.5t26.5 42t46.5 29.5t66.5 11
q57 0 97.5 -25t62 -73t21.5 -118q0 -63 -19.5 -108.5t-58.5 -69t-99 -23.5zM194 -9q36 0 59.5 24.5t23.5 62.5q0 27 -11 41t-28.5 20t-37.5 6q-30 0 -50 -11t-29 -28.5t-9 -38.5q0 -37 25 -56.5t57 -19.5z" />
    <glyph glyph-name="colonmonetary" unicode="&#x20a1;" horiz-adv-x="646" 
d="M466 617l-58 20l27 137h68zM166 -96l34 138l56 -20l-22 -118h-68zM309 -96l34 138l55 -20l-20 -118h-69zM323 617l-58 20l26 137h69zM353 -5q-68 0 -122 22t-91 64.5t-56 103t-19 138.5t19.5 141.5t56.5 108.5t89.5 69t118.5 24q50 0 92.5 -14.5t73.5 -41.5t48.5 -65.5
t17.5 -85.5l-70 -17q2 52 -20.5 87t-60 53t-82.5 18q-42 0 -80 -16.5t-67 -50t-46 -85.5t-17 -124q0 -92 27.5 -149.5t76 -84.5t114.5 -27q62 0 101 22.5t58 64t22 99.5l67 -13q-1 -49 -16 -93t-45.5 -77t-77.5 -52t-112 -19z" />
    <glyph glyph-name="lira" unicode="&#x20a4;" horiz-adv-x="714" 
d="M177 -13q-67 0 -106 36t-39 92q0 35 15.5 63t45.5 44.5t74 16.5q33 0 60 -11.5t46 -40.5l14 2l-1 -57q-20 29 -48 40t-56 11q-41 0 -61.5 -20t-20.5 -48q0 -32 22.5 -51t58.5 -19t59 18t34 48t11 66q0 42 -11.5 72.5t-28 56t-33.5 51t-28 56.5t-11 73q0 65 28.5 106
t75.5 60.5t101 19.5q46 0 85.5 -14t68 -40t43 -64t12.5 -87l-71 -8q1 46 -13 78.5t-44 50.5t-79 18q-70 0 -101 -34.5t-31 -86.5q0 -35 10.5 -63t25.5 -54t30.5 -54t26 -61t10.5 -76q0 -42 -11.5 -76.5t-34 -60t-54.5 -39.5t-74 -14zM512 -13q-49 0 -85 18t-61 44.5
t-40 50.5l-14 12l17 52q11 -12 28 -31t40 -37.5t50 -31.5t56 -13q34 0 54 18.5t28.5 48.5t8.5 63q0 17 -2.5 36t-6.5 37t-11 34l74 5q11 -28 15.5 -59.5t4.5 -58.5q0 -37 -8.5 -71t-27.5 -60t-48.5 -41.5t-71.5 -15.5zM85 287v46l183 1v-40zM85 390v46l142 1v-40zM282 295
v40l178 10v-47zM241 398v40l219 9v-45z" />
    <glyph glyph-name="uni20A6" unicode="&#x20a6;" horiz-adv-x="835" 
d="M635 379v58h160v-58h-160zM40 237v58h161v-58h-161zM40 379v58h161v-58h-161zM635 237v58h160v-58h-160zM151 7v647h100l355 -552h6l-5 552h71v-647h-92l-362 561h-7l6 -561h-72z" />
    <glyph glyph-name="uni20A8" unicode="&#x20a8;" horiz-adv-x="1157" 
d="M87 0v660h217q48 0 88.5 -8t72.5 -23.5t54 -38.5t34 -54t12 -68q0 -35 -10.5 -64t-30.5 -51t-51 -36t-72 -19v-12q30 -5 56 -17t47 -39.5t35 -76.5l43 -153h-79l-35 136q-10 44 -34.5 70.5t-56.5 38.5t-69 12h-147v-257h-74zM161 321h116q21 0 48.5 1.5t56.5 7.5t53 20.5
t39 40.5t15 67t-15 67t-38 40.5t-50.5 21t-52 7.5t-42.5 1h-130v-274zM902 -12q-54 0 -95 11.5t-68.5 34t-41.5 54t-12 69.5l66 12q-4 -38 14.5 -64.5t54.5 -40t86 -13.5q64 0 99 22t35 60q0 31 -19 48t-53 27t-77 18q-37 8 -72 18t-63.5 26t-45.5 42t-17 65q0 46 24 79.5
t69 52t106 18.5q63 0 107 -20t68.5 -56.5t25.5 -85.5l-67 -14q0 38 -17 63t-48 37t-73 12q-57 0 -90.5 -22t-33.5 -60q0 -30 20 -47t53 -26.5t73 -18.5q39 -7 75 -17t64.5 -26t45 -42t16.5 -67q0 -50 -26.5 -83t-73.5 -49.5t-109 -16.5z" />
    <glyph glyph-name="uni20A9" unicode="&#x20a9;" horiz-adv-x="990" 
d="M792 379v58h159v-58h-159zM39 237v58h161v-58h-161zM39 379v58h161v-58h-161zM792 237v58h159v-58h-159zM247 7l-167 647h77l141 -578h8l141 578h101l138 -578h7l145 578h77l-172 -647h-106l-136 577h-7l-140 -577h-107z" />
    <glyph glyph-name="dong" unicode="&#x20ab;" horiz-adv-x="580" 
d="M108 -113v48h397v-48h-397zM261 -12q-65 0 -111.5 34t-70.5 95t-24 140q0 78 24 139t69.5 96t111.5 35q56 0 91.5 -24.5t56.5 -62.5t31 -80h15q-4 30 -8 62.5t-6.5 63.5t-2.5 56v152h74v-441v-253h-69l7 139h-14q-12 -43 -34 -77t-56 -54t-84 -20zM272 54q39 0 69.5 18.5
t52 48t32.5 63.5t11 65v10q0 20 -5.5 46t-18 53t-31.5 50t-45.5 37t-60.5 14q-48 0 -80 -27t-48.5 -73t-16.5 -106t16.5 -104.5t48.5 -69.5t76 -25zM227 635h356v-43h-356v43z" />
    <glyph glyph-name="Euro" unicode="&#x20ac;" horiz-adv-x="726" 
d="M48 364l24 50h367l-24 -50h-367zM34 227l23 50h348l-24 -50h-347zM427 -12q-69 0 -124 22t-93 65.5t-57.5 105.5t-19.5 141q0 80 20 144.5t58 110.5t91.5 70.5t120.5 24.5q51 0 94.5 -14.5t75 -42t49.5 -67t18 -87.5l-71 -17q1 54 -21.5 89.5t-61 53.5t-84.5 18
q-43 0 -81.5 -17t-68 -51t-47 -87t-17.5 -127q0 -93 27.5 -152t77.5 -86.5t118 -27.5q63 0 102.5 23t59 65.5t22.5 101.5l68 -13q-1 -51 -16 -95.5t-46 -78.5t-79 -53t-115 -19z" />
    <glyph glyph-name="uni20AD" unicode="&#x20ad;" horiz-adv-x="697" 
d="M558 0l-259 305v56l258 299h98l-300 -322v-7l300 -331h-97zM128 0v660h75v-660h-75zM27 305v56h583v-56h-583z" />
    <glyph glyph-name="uni20AE" unicode="&#x20ae;" horiz-adv-x="522" 
d="M53 328l404 90v-57l-404 -90v57zM53 199l404 90v-57l-404 -90v57zM225 7v647h73v-647h-73zM26 589v65h470v-65h-470z" />
    <glyph glyph-name="uni20B1" unicode="&#x20b1;" horiz-adv-x="761" 
d="M36 336v58h159v-58h-159zM573 336v58h153v-58h-153zM36 478v58h159v-58h-159zM573 478v58h153v-58h-153zM184 209v66h158q21 0 49 1.5t56.5 9t53 25t40 48t15.5 79.5q0 47 -15.5 76.5t-39 46t-50.5 24t-51 9t-39 1.5h-177v65h186q56 0 104 -13.5t83.5 -41t55.5 -70
t20 -100.5q0 -72 -33 -122.5t-99 -77t-166 -26.5h-151zM152 0v660h75v-660h-75z" />
    <glyph glyph-name="uni20B2" unicode="&#x20b2;" horiz-adv-x="647" 
d="M283 648l-17 133h84l-17 -133h-50zM266 -124l17 132h49l18 -132h-84zM309 -7q-79 0 -140.5 36.5t-96.5 110.5t-35 186q0 78 19 141t55.5 106.5t90 67t124.5 23.5q50 0 92.5 -13.5t74.5 -39t51.5 -63.5t25.5 -86l-71 -19q-4 44 -20 73.5t-40.5 47.5t-54 26t-60.5 8
q-44 0 -83 -15t-67.5 -47t-44.5 -83.5t-16 -125.5q0 -77 17 -128.5t46.5 -81.5t66 -43t75.5 -13q54 0 94 21t63.5 64t30.5 109h-154v62h226v-91v-221h-65l23 180h-12q-13 -64 -40 -107t-70.5 -64t-104.5 -21z" />
    <glyph glyph-name="uni20B4" unicode="&#x20b4;" horiz-adv-x="684" 
d="M340 -12q-85 0 -142.5 22.5t-86.5 64t-29 97.5q0 48 19.5 79t49.5 51h157q-15 -7 -35.5 -14t-41 -16.5t-38 -22.5t-28.5 -31.5t-11 -45.5q0 -35 22 -62t62.5 -41.5t99.5 -14.5q57 0 98.5 15t65 46t24.5 78l69 -14q-1 -46 -18 -82t-49.5 -60t-80 -36.5t-107.5 -12.5z
M55 254v48h573v-48h-573zM55 378v49h573v-49h-573zM390 378q16 6 33 13.5t32.5 16.5t28 21t19.5 26.5t7 33.5q0 36 -20.5 62.5t-56 41.5t-81.5 15q-47 0 -84 -14t-60.5 -41.5t-29.5 -68.5l-70 19q9 57 42.5 94.5t85.5 56t114 18.5q70 0 122 -23t81 -65t29 -100
q0 -35 -11 -60.5t-29 -45.5h-152z" />
    <glyph glyph-name="uni20B5" unicode="&#x20b5;" horiz-adv-x="646" 
d="M309 648l-16 133h83l-17 -133h-50zM292 -124l17 132h50l17 -132h-84zM353 -5q-68 0 -122 22t-91 64.5t-56 103t-19 138.5t19.5 141.5t56.5 108.5t89.5 69t118.5 24q50 0 92.5 -14.5t73.5 -41.5t48.5 -65.5t17.5 -85.5l-70 -17q2 52 -20.5 87t-60 53t-82.5 18
q-42 0 -80 -16.5t-67 -50t-46 -85.5t-17 -124q0 -92 27.5 -149.5t76 -84.5t114.5 -27q62 0 101 22.5t58 64t22 99.5l67 -13q-1 -49 -16 -93t-45.5 -77t-77.5 -52t-112 -19z" />
    <glyph glyph-name="uni20B8" unicode="&#x20b8;" horiz-adv-x="532" 
d="M229 7v520h75v-520h-75zM26 461v66h480v-66h-480zM26 595v56h480v-56h-480z" />
    <glyph glyph-name="uni20B9" unicode="&#x20b9;" horiz-adv-x="597" 
d="M408 -1l-24 90q-11 40 -31 74t-55.5 54.5t-93.5 20.5h-163v63h133q30 0 66.5 3t70 15.5t55.5 43t22 86.5q0 44 -14 72t-36.5 43.5t-48 22t-48 8t-37.5 1.5v27h170v-38q31 -12 51 -32.5t29.5 -46.5t9.5 -57t-9 -60.5t-29.5 -53.5t-53 -39t-80.5 -18v-12q46 -4 76.5 -23
t51.5 -54t37 -87l31 -103h-80zM41 420v56h518v-56h-518zM41 596v64h518v-64h-518z" />
    <glyph glyph-name="uni20BA" unicode="&#x20ba;" horiz-adv-x="646" 
d="M616 239v-19q0 -57 -18.5 -98.5t-52 -68.5t-80.5 -40t-104 -13h-158v64h149q15 0 38.5 2t49.5 9t49 24t38 47t15 76v22zM172 660h73v-660h-73v660zM45 400l407 90v-57l-407 -90v57zM45 271l407 90v-57l-407 -90v57z" />
    <glyph glyph-name="uni20BC" unicode="&#x20bc;" horiz-adv-x="657" 
d="M70 0v305q0 50 11 91t32 72.5t52 53t72.5 33t91.5 11.5q49 0 89.5 -11t72 -32t53 -52.5t32.5 -72.5t11 -93v-305h-73v301q0 40 -8.5 75t-29 61.5t-56.5 42t-91 15.5q-72 0 -112 -26t-57 -70t-17 -98v-301h-73zM296 0v660h66v-660h-66z" />
    <glyph glyph-name="uni20BD" unicode="&#x20bd;" horiz-adv-x="661" 
d="M43 76v56h383v-56h-383zM44 212v57h144v-57h-144zM180 212v65h156q20 0 47 1.5t55.5 8.5t52.5 24t39 47t15 78q0 46 -15 75t-38.5 45.5t-49.5 23.5t-49.5 8.5t-38.5 1.5h-174v64h182q56 0 103 -13.5t82 -40.5t54 -68.5t19 -98.5q0 -70 -32 -119.5t-97 -75.5t-162 -26
h-149zM149 7v647h73v-647h-73z" />
    <glyph glyph-name="uni20BE" unicode="&#x20be;" horiz-adv-x="657" 
d="M232 51v29q-39 13 -70 37.5t-54 59.5t-34.5 79t-11.5 95q0 66 20 124t59 102.5t95 70t128 25.5q74 0 129 -26.5t86.5 -76.5t35.5 -118l-68 -16q-5 55 -28 93t-62.5 57.5t-93.5 19.5q-66 0 -117 -31t-80 -89t-29 -140q0 -61 17 -112.5t48 -89.5t74 -58.5t96 -20.5l-3 -14
h-137zM73 0v65h531v-65h-531zM264 372v347l47 24v-348zM392 381v368l47 22v-367z" />
    <glyph glyph-name="uni20BF" unicode="&#x20bf;" horiz-adv-x="632" 
d="M186 632l-8 142h67l-8 -142h-51zM371 632l-8 142h68l-8 -142h-52zM186 24h51l8 -132h-67zM371 24h52l8 -132h-68zM87 7v647h227q53 0 96 -10t74 -30t47.5 -52t16.5 -76q0 -38 -14.5 -66t-46.5 -47t-82 -27v-11q88 -8 128 -49t40 -107q0 -55 -24.5 -93.5t-77 -58.5
t-135.5 -20h-249zM158 71h190q35 0 63.5 6t48.5 19t31 34t11 51q0 27 -10 48.5t-28 36.5t-44 25t-59.5 14.5t-73.5 4.5h-129v-239zM158 369h115q47 0 84.5 6t64 19.5t40 34.5t13.5 51t-12 50.5t-34.5 33.5t-55 19.5t-72.5 6.5h-143v-221z" />
    <glyph glyph-name="uni2113" unicode="&#x2113;" horiz-adv-x="478" 
d="M316 -14q-56 0 -99 27.5t-72 78.5t-43.5 120.5t-14.5 153.5q0 108 22.5 175.5t63 99t92.5 31.5t86 -26t50.5 -68.5t16.5 -94.5q0 -74 -32 -130t-87.5 -95.5t-127 -62.5t-149.5 -30v41q85 15 147.5 41t103 61.5t60.5 79t20 92.5q0 58 -23.5 92.5t-62.5 34.5
q-33 0 -57.5 -27t-37 -81.5t-12.5 -133.5q0 -68 9.5 -125.5t29.5 -100t50.5 -66.5t70.5 -24q19 0 39 5.5t46 17.5l23 -60q-27 -13 -56 -19.5t-56 -6.5z" />
    <glyph glyph-name="uni2116" unicode="&#x2116;" horiz-adv-x="1016" 
d="M727 347h232v-56h-232v56zM87 0v660h101l363 -564h6l-5 564h72v-660h-93l-369 573h-7l5 -573h-73zM846 400q-39 0 -70 17.5t-48 47.5t-17 70q0 31 10 55.5t29 42.5t43.5 27.5t53.5 9.5q41 0 71.5 -17.5t48 -47.5t17.5 -72q0 -40 -18 -70t-49.5 -46.5t-70.5 -16.5z
M849 457q34 0 54 22t20 56t-21 56t-55 22t-54.5 -21.5t-20.5 -54.5q0 -35 21 -57.5t56 -22.5z" />
    <glyph glyph-name="trademark" unicode="&#x2122;" horiz-adv-x="895" 
d="M126 328v328h62v-328h-62zM9 599v57h295v-57h-295zM356 328v328h94l123 -252l122 252h92v-328h-59v259l-128 -259h-58l-127 259v-259h-59z" />
    <glyph glyph-name="uni2126" unicode="&#x2126;" horiz-adv-x="760" 
d="M38 0v66h210v11q-61 14 -104 53t-65.5 97t-22.5 126q0 50 12 96.5t37 87t63 71t91 48t120 17.5q68 0 120.5 -17.5t91 -48t64 -71t37.5 -88t12 -97.5q0 -69 -22.5 -126.5t-65.5 -95.5t-104 -52v-11h211v-66h-301v78q45 6 82.5 26.5t65.5 54.5t43.5 80.5t15.5 105.5
q0 93 -35.5 150t-92 84t-122.5 27q-68 0 -124 -27.5t-89.5 -84t-33.5 -146.5q0 -63 16.5 -111t45.5 -81.5t66.5 -53t78.5 -24.5v-78h-301z" />
    <glyph glyph-name="estimated" unicode="&#x212e;" horiz-adv-x="850" 
d="M430 -5q-110 0 -195 42t-133 119t-48 182q0 103 48 180.5t133 120.5t195 43q111 0 193.5 -40.5t130 -119.5t52.5 -193h-598q-7 0 -11 -2.5t-4 -15.5v-168q0 -13 17 -33.5t48.5 -40.5t75 -33.5t96.5 -13.5q71 0 134.5 31.5t103.5 77.5h70q-44 -49 -88 -79t-96.5 -43.5
t-123.5 -13.5v0zM208 350v0h442q11 0 13.5 3.5t2.5 12.5v165q0 20 -21.5 42.5t-57 41.5t-77 31t-81.5 12q-51 0 -94 -14t-75 -34.5t-49.5 -40.5t-17.5 -31v-179q0 -9 15 -9z" />
    <glyph glyph-name="uni2153" unicode="&#x2153;" horiz-adv-x="856" 
d="M96 300v297h-56v57q26 0 44 9.5t23 36.5h53v-400h-64zM100 0l408 660h78l-409 -660h-77zM641 -48q-79 0 -116.5 32t-40.5 84l60 14q1 -26 13.5 -44t34 -26t49.5 -8q41 0 69.5 17t28.5 55q0 27 -16.5 46t-53 29t-96.5 8v38l142 105v5l-214 -2v55h280v-66l-135 -97v-7
q78 2 118.5 -28.5t40.5 -86.5t-42 -89.5t-122 -33.5z" />
    <glyph glyph-name="uni2154" unicode="&#x2154;" horiz-adv-x="1016" 
d="M39 300v72l149 108q17 13 35.5 29.5t31.5 36.5t13 43q0 28 -20.5 45.5t-59.5 17.5q-29 0 -47.5 -11.5t-26.5 -33.5t-8 -54l-63 13q-1 62 34.5 102.5t112.5 40.5q43 0 75.5 -13.5t50.5 -39.5t18 -62q0 -25 -9 -47.5t-24.5 -41.5t-34.5 -36t-40 -31l-114 -83v-5l231 8v-58
h-304zM260 0l408 660h78l-409 -660h-77zM801 -48q-79 0 -116.5 32t-40.5 84l60 14q1 -26 13.5 -44t34 -26t49.5 -8q41 0 69.5 17t28.5 55q0 27 -16.5 46t-53 29t-96.5 8v38l142 105v5l-214 -2v55h280v-66l-135 -97v-7q78 2 118.5 -28.5t40.5 -86.5t-42 -89.5t-122 -33.5z
" />
    <glyph glyph-name="oneeighth" unicode="&#x215b;" horiz-adv-x="864" 
d="M96 300v297h-56v57q26 0 44 9.5t23 36.5h53v-400h-64zM100 0l408 660h78l-409 -660h-77zM655 -48q-49 0 -87 12.5t-59.5 38t-21.5 61.5q0 41 27 65t71 30v5l69 10l70 -10v-5q28 -2 50 -14t35 -33t13 -50q0 -36 -21 -60.5t-58.5 -37t-87.5 -12.5zM655 5q20 0 43.5 6.5
t40.5 20.5t17 38q0 23 -15.5 38.5t-38.5 24t-48 8.5q-23 0 -46.5 -8.5t-38.5 -23.5t-15 -38t16.5 -37.5t40 -21.5t44.5 -7zM654 186q20 0 40 7.5t33.5 22.5t13.5 37t-14 35t-34.5 19t-40.5 6q-19 0 -39 -6t-33.5 -19t-13.5 -34t12.5 -36.5t33 -23.5t42.5 -8zM654 146l-69 12
v10q-37 6 -60.5 28.5t-23.5 60.5q0 28 11 49t31.5 35t49 21t61.5 7q70 0 111.5 -29.5t41.5 -81.5q0 -38 -22 -60t-61 -30v-10z" />
    <glyph glyph-name="threeeighths" unicode="&#x215c;" horiz-adv-x="1017" 
d="M180 292q-79 0 -116.5 32t-40.5 84l60 14q1 -26 13.5 -44t34 -26t49.5 -8q41 0 69.5 17t28.5 55q0 27 -16.5 46t-53 29t-96.5 8v38l142 105v5l-214 -2v55h280v-66l-135 -97v-7q78 2 118.5 -28.5t40.5 -86.5t-42 -89.5t-122 -33.5zM253 0l408 660h78l-409 -660h-77z
M808 -48q-49 0 -87 12.5t-59.5 38t-21.5 61.5q0 41 27 65t71 30v5l69 10l70 -10v-5q28 -2 50 -14t35 -33t13 -50q0 -36 -21 -60.5t-58.5 -37t-87.5 -12.5zM808 5q20 0 43.5 6.5t40.5 20.5t17 38q0 23 -15.5 38.5t-38.5 24t-48 8.5q-23 0 -46.5 -8.5t-38.5 -23.5t-15 -38
t16.5 -37.5t40 -21.5t44.5 -7zM807 186q20 0 40 7.5t33.5 22.5t13.5 37t-14 35t-34.5 19t-40.5 6q-19 0 -39 -6t-33.5 -19t-13.5 -34t12.5 -36.5t33 -23.5t42.5 -8zM807 146l-69 12v10q-37 6 -60.5 28.5t-23.5 60.5q0 28 11 49t31.5 35t49 21t61.5 7q70 0 111.5 -29.5
t41.5 -81.5q0 -38 -22 -60t-61 -30v-10z" />
    <glyph glyph-name="fiveeighths" unicode="&#x215d;" horiz-adv-x="1026" 
d="M198 292q-45 0 -78.5 13t-51.5 37t-18 57l61 13q3 -31 23.5 -49t61.5 -18q44 0 67.5 22.5t23.5 67.5q0 23 -7 43t-23.5 32.5t-47.5 12.5q-35 0 -54 -16t-26 -36h-70l13 229h264v-56h-208l-10 -134h9q13 34 42.5 48t63.5 14q41 0 68 -17.5t40.5 -48t13.5 -70.5
q0 -51 -21 -83t-56 -46.5t-80 -14.5zM262 0l408 660h78l-409 -660h-77zM817 -48q-49 0 -87 12.5t-59.5 38t-21.5 61.5q0 41 27 65t71 30v5l69 10l70 -10v-5q28 -2 50 -14t35 -33t13 -50q0 -36 -21 -60.5t-58.5 -37t-87.5 -12.5zM817 5q20 0 43.5 6.5t40.5 20.5t17 38
q0 23 -15.5 38.5t-38.5 24t-48 8.5q-23 0 -46.5 -8.5t-38.5 -23.5t-15 -38t16.5 -37.5t40 -21.5t44.5 -7zM816 186q20 0 40 7.5t33.5 22.5t13.5 37t-14 35t-34.5 19t-40.5 6q-19 0 -39 -6t-33.5 -19t-13.5 -34t12.5 -36.5t33 -23.5t42.5 -8zM816 146l-69 12v10
q-37 6 -60.5 28.5t-23.5 60.5q0 28 11 49t31.5 35t49 21t61.5 7q70 0 111.5 -29.5t41.5 -81.5q0 -38 -22 -60t-61 -30v-10z" />
    <glyph glyph-name="seveneighths" unicode="&#x215e;" horiz-adv-x="910" 
d="M98 300q0 59 16 122t48 120t81 100v5l-213 -4v57h274v-60q-31 -28 -56 -65.5t-43 -81t-27 -92.5t-9 -101h-71zM146 0l408 660h78l-409 -660h-77zM701 -48q-49 0 -87 12.5t-59.5 38t-21.5 61.5q0 41 27 65t71 30v5l69 10l70 -10v-5q28 -2 50 -14t35 -33t13 -50
q0 -36 -21 -60.5t-58.5 -37t-87.5 -12.5zM701 5q20 0 43.5 6.5t40.5 20.5t17 38q0 23 -15.5 38.5t-38.5 24t-48 8.5q-23 0 -46.5 -8.5t-38.5 -23.5t-15 -38t16.5 -37.5t40 -21.5t44.5 -7zM700 186q20 0 40 7.5t33.5 22.5t13.5 37t-14 35t-34.5 19t-40.5 6q-19 0 -39 -6
t-33.5 -19t-13.5 -34t12.5 -36.5t33 -23.5t42.5 -8zM700 146l-69 12v10q-37 6 -60.5 28.5t-23.5 60.5q0 28 11 49t31.5 35t49 21t61.5 7q70 0 111.5 -29.5t41.5 -81.5q0 -38 -22 -60t-61 -30v-10z" />
    <glyph glyph-name="arrowleft" unicode="&#x2190;" horiz-adv-x="592" 
d="M211 52h-75q-9 63 -35.5 108.5t-73.5 82.5v45q32 24 54 54t36 64.5t19 72.5h76q-6 -31 -19.5 -65t-37 -64.5t-59.5 -53.5v-4l475 8v-69l-475 7v-4q35 -18 58.5 -49.5t37.5 -66.5t19 -66z" />
    <glyph glyph-name="arrowup" unicode="&#x2191;" horiz-adv-x="476" 
d="M451 476q-30 6 -65.5 20t-66.5 37.5t-50 57.5h-4l7 -591h-69l8 591h-4q-22 -36 -53 -59t-64.5 -36.5t-64.5 -20.5v76q37 5 71.5 18.5t64.5 36t54 54.5h46q24 -31 52 -53t62.5 -36t75.5 -20v-75z" />
    <glyph glyph-name="arrowright" unicode="&#x2192;" horiz-adv-x="592" 
d="M381 52q6 31 20 66t37.5 66.5t57.5 49.5v4l-475 -7v69l475 -8v4q-36 23 -59 53.5t-36.5 64.5t-21.5 65h77q5 -38 18.5 -72.5t36 -64.5t54.5 -54v-46q-46 -36 -73.5 -81.5t-35.5 -108.5h-75z" />
    <glyph glyph-name="arrowdown" unicode="&#x2193;" horiz-adv-x="479" 
d="M26 184q31 -5 66.5 -19t67 -37.5t49.5 -58.5h4l-8 591h69l-7 -591h4q23 36 53.5 59t64 37t64.5 20v-76q-37 -5 -71.5 -18.5t-64.5 -36t-54 -54.5h-46q-24 31 -52.5 53t-62 36.5t-76.5 19.5v75z" />
    <glyph glyph-name="partialdiff" unicode="&#x2202;" horiz-adv-x="601" 
d="M463 196q-6 37 -21.5 74.5t-40 68t-57 49t-70.5 18.5q-40 0 -72.5 -21t-51.5 -60t-19 -95q0 -51 17.5 -91t51.5 -63t81 -23q50 0 85.5 24t58.5 62t34 82.5t11 85.5q-1 30 -9 68t-28.5 77t-58 72t-95.5 53t-142 19l-6 68q92 4 160.5 -16.5t115.5 -58.5t75.5 -87t41.5 -103
t13 -105q0 -50 -11 -95.5t-32 -84t-52 -67t-71.5 -44.5t-89.5 -16q-46 0 -87 15t-72.5 44.5t-49 75t-17.5 107.5q0 79 28.5 132.5t75 80.5t99.5 27q39 0 77 -16t70 -53.5t51 -103.5h23z" />
    <glyph glyph-name="emptyset" unicode="&#x2205;" horiz-adv-x="744" 
d="M372 -14q-72 0 -128.5 23.5t-96.5 65.5t-60.5 97.5t-20.5 118.5q0 70 24 126.5t66.5 96.5t98 61.5t118.5 21.5q66 0 122 -23t97 -64t64 -97t23 -124q0 -62 -21 -117.5t-61 -97t-97 -65t-128 -23.5zM372 54q33 0 73 10t76 35t59 70.5t23 115.5q0 62 -19.5 107.5t-52 75.5
t-73.5 45.5t-84 15.5q-24 0 -55 -6t-62 -21t-57 -42t-42 -68.5t-16 -100.5q0 -68 21 -113.5t56 -73t75 -39t78 -11.5zM91 -22l476 623h71l-476 -623h-71z" />
    <glyph glyph-name="uni2206" unicode="&#x2206;" horiz-adv-x="660" 
d="M32 0l244 660h108l244 -660h-80l-213 595h-9l-214 -595h-80zM86 0v64h495v-64h-495z" />
    <glyph glyph-name="product" unicode="&#x220f;" horiz-adv-x="688" 
d="M526 -159v819h75v-819h-75zM87 -159v819h74v-819h-74zM121 594v66h436v-66h-436z" />
    <glyph glyph-name="summation" unicode="&#x2211;" horiz-adv-x="570" 
d="M57 -159v73l196 334l-196 335v73h478v-67h-394v-11l192 -330l-192 -329v-11h394v-67h-478z" />
    <glyph glyph-name="minus" unicode="&#x2212;" horiz-adv-x="502" 
d="M61 266v67h380v-67h-380z" />
    <glyph glyph-name="radical" unicode="&#x221a;" horiz-adv-x="630" 
d="M260 0l-120 348h76l94 -280h8l202 592h78l-232 -660h-106zM26 282v66h177l-1 -66h-176z" />
    <glyph glyph-name="infinity" unicode="&#x221e;" horiz-adv-x="949" 
d="M433 261q-15 32 -36.5 62.5t-53.5 50.5t-80 20q-45 0 -75.5 -19t-45 -48.5t-14.5 -63.5q0 -32 14.5 -63t44.5 -50.5t77 -19.5q48 0 80 20t53 50.5t36 60.5zM496 261l-19 -51h-9q-19 -45 -51 -78t-73 -51.5t-89 -18.5q-59 0 -104 26.5t-70.5 72t-25.5 103.5
q0 57 25.5 101.5t71 70t104.5 25.5q48 0 90 -18t73.5 -50.5t48.5 -78.5h9zM516 261q17 -33 38.5 -63.5t53 -49t77.5 -18.5q49 0 79 20t43.5 51t13.5 62q0 34 -14.5 63.5t-44 48.5t-77.5 19q-45 0 -76.5 -18.5t-53.5 -48.5t-39 -66zM454 261l18 53h9q20 46 51.5 78.5
t72.5 50.5t90 18q59 0 104 -25.5t70.5 -70t25.5 -101.5q0 -58 -26 -103.5t-71 -72t-103 -26.5q-48 0 -89.5 18.5t-73 51.5t-51.5 78h-9z" />
    <glyph glyph-name="integral" unicode="&#x222b;" horiz-adv-x="421" 
d="M109 -171q-19 0 -41.5 6.5t-52.5 21.5l17 59q27 -13 49 -18t37 7.5t20 51.5l80 594q8 60 32 89.5t64 29.5q20 0 42.5 -7t50.5 -22l-16 -58q-27 13 -48.5 18t-35.5 -8t-19 -52l-81 -593q-8 -61 -32.5 -90t-65.5 -29z" />
    <glyph glyph-name="approxequal" unicode="&#x2248;" horiz-adv-x="502" 
d="M373 339q-33 0 -66 5.5t-63 12t-55.5 11.5t-43.5 5q-12 0 -18.5 -8t-5.5 -29h-61q-8 31 -4 55t21.5 37.5t46.5 13.5q32 0 64 -5t63 -11.5t58 -11.5t47 -5q15 0 21.5 7.5t3.5 30.5h60q9 -31 5 -55.5t-22 -38.5t-51 -14zM373 143q-33 0 -66 5.5t-63 12t-55.5 11.5t-43.5 5
q-12 0 -18.5 -8t-5.5 -29h-61q-8 31 -4 55t21.5 37.5t46.5 13.5q32 0 64 -5t63 -11.5t58 -11.5t47 -5q15 0 21.5 7.5t3.5 30.5h60q9 -31 5 -55.5t-22 -38.5t-51 -14z" />
    <glyph glyph-name="notequal" unicode="&#x2260;" horiz-adv-x="502" 
d="M180 77h-64l207 441h64zM61 351v67h380v-67h-380zM61 177v67h380v-67h-380z" />
    <glyph glyph-name="lessequal" unicode="&#x2264;" horiz-adv-x="502" 
d="M441 245l-380 123v93l380 131v-80l-314 -93v-12l314 -83v-79zM441 112h-380v67h380v-67z" />
    <glyph glyph-name="greaterequal" unicode="&#x2265;" horiz-adv-x="502" 
d="M61 245v79l314 84v11l-314 93v80l380 -131v-93zM61 112v67h380v-67h-380z" />
    <glyph glyph-name="uni27E8" unicode="&#x27e8;" horiz-adv-x="289" 
d="M96 273l151 -406h-75l-150 406l148 387h75z" />
    <glyph glyph-name="uni27E9" unicode="&#x27e9;" horiz-adv-x="289" 
d="M193 273l-149 387h75l148 -387l-149 -406h-76z" />
    <glyph glyph-name="i.loclTRK" horiz-adv-x="234" 
d="M80 0v514h74v-514h-74zM117 607q-27 0 -41 11.5t-14 33.5q0 23 14 34.5t41 11.5q28 0 42 -11.5t14 -34.5q0 -22 -14 -33.5t-42 -11.5z" />
    <glyph glyph-name="zero.osf" horiz-adv-x="632" 
d="M317 -11q-59 0 -106 19t-80 54t-50.5 84.5t-17.5 109.5q0 85 32 145.5t89.5 93t133.5 32.5q79 0 135 -34t86 -95t30 -142q0 -60 -17 -108.5t-50 -84t-79.5 -55t-105.5 -19.5zM316 54q40 0 73 13t56.5 38t37 63t13.5 90q0 64 -22.5 109.5t-62 70t-94.5 24.5
q-49 0 -90.5 -21t-66 -66t-24.5 -117q0 -67 22.5 -112.5t63.5 -68.5t94 -23z" />
    <glyph glyph-name="one.osf" horiz-adv-x="287" 
d="M138 0v379h-94v67q29 0 52.5 5t39 20t21.5 43h54v-514h-73z" />
    <glyph glyph-name="two.osf" horiz-adv-x="512" 
d="M57 0v79l197 142q26 20 54.5 43.5t47.5 52t19 61.5q0 38 -28.5 61t-83.5 23q-26 0 -49.5 -6t-42.5 -20.5t-29 -40.5t-8 -66l-70 12q-2 55 19.5 97t67 65.5t114.5 23.5q58 0 99.5 -18t63 -51t21.5 -78q0 -35 -14 -64.5t-35.5 -55t-47 -46t-49.5 -36.5l-164 -116v-7l323 14
v-69h-405z" />
    <glyph glyph-name="three.osf" horiz-adv-x="581" 
d="M276 -171q-59 0 -103 15t-73 42.5t-45 64.5t-17 80l70 20q1 -46 16.5 -75.5t41 -47.5t55 -25.5t58.5 -7.5q46 0 84.5 15.5t62.5 47.5t24 82q0 58 -34 91.5t-94.5 47t-142.5 13.5v52l231 200v7l-346 -2v65h425v-82l-218 -187v-7q88 -1 144 -26.5t82.5 -69t26.5 -101.5
q0 -61 -28 -109t-83 -75.5t-137 -27.5z" />
    <glyph glyph-name="four.osf" horiz-adv-x="595" 
d="M39 0v91q49 44 94.5 96t84.5 107.5t70.5 111.5t51.5 108h131v-673h-73v612h-8q-34 -78 -78 -146.5t-94 -126t-104 -105.5v-8h447v-67h-522z" />
    <glyph glyph-name="five.osf" horiz-adv-x="592" 
d="M291 -172q-68 0 -118.5 23t-77.5 65.5t-28 98.5l69 19q3 -62 40 -100.5t113 -38.5q81 0 123.5 45.5t42.5 128.5q0 32 -6.5 61t-21.5 52t-41.5 37t-66.5 14q-36 0 -62.5 -9.5t-43.5 -25t-27 -33.5t-14 -36h-89l18 385h399v-66h-332l-15 -262h11q21 62 68 87t102 25
q68 0 111.5 -28.5t64.5 -80t21 -119.5q0 -62 -18 -107.5t-50.5 -75.5t-76 -44.5t-95.5 -14.5z" />
    <glyph glyph-name="six.osf" horiz-adv-x="632" 
d="M338 -14q-127 0 -200 84.5t-73 251.5q0 105 29.5 184t88.5 123.5t148 44.5q45 0 82.5 -12.5t66 -37t46.5 -60t22 -82.5l-71 -17q-4 49 -24 80t-51.5 46t-71.5 15q-52 0 -89.5 -24t-60 -65.5t-33.5 -93.5t-11 -109q0 -37 5.5 -77t16.5 -75h9q-5 65 10 111t43.5 75t66.5 43
t79 14q54 0 100 -23t74.5 -68t28.5 -113q0 -44 -13.5 -83t-42 -69t-72.5 -46.5t-103 -16.5zM331 51q47 0 78 13.5t50 35t27 48t8 54.5q0 50 -21 81t-53 45.5t-68 14.5q-48 0 -83 -20.5t-54 -58t-19 -87.5q0 -39 12 -63.5t32 -38t43.5 -19t47.5 -5.5z" />
    <glyph glyph-name="seven.osf" horiz-adv-x="485" 
d="M154 -159q0 78 13 161t40.5 163.5t71 151.5t102.5 126v8l-343 -3v66h415v-76q-54 -53 -95 -117t-69 -138t-42.5 -159.5t-14.5 -182.5h-78z" />
    <glyph glyph-name="eight.osf" horiz-adv-x="630" 
d="M315 -14q-75 0 -133 20t-90.5 59.5t-32.5 97.5q0 49 22 83t57.5 55t79.5 28v6l97 10l96 -8v-7q42 -4 78.5 -24.5t59 -56t22.5 -86.5q0 -58 -32 -97.5t-90 -59.5t-134 -20zM316 55q27 0 58 5t59 17t45.5 34t17.5 55q0 42 -27 72.5t-68.5 47t-85.5 16.5q-43 0 -84.5 -16
t-68.5 -45.5t-27 -72.5q0 -33 17.5 -54.5t45 -34.5t59 -18.5t59.5 -5.5zM314 368q37 0 73 14.5t60.5 42.5t24.5 69q0 31 -15.5 52t-39.5 34.5t-52 19t-55 5.5q-35 0 -70.5 -10.5t-59.5 -34t-24 -63.5q0 -41 23 -70t59.5 -44t75.5 -15zM315 315l-97 12v15q-38 8 -69 27
t-50 51t-19 78q0 57 30.5 96t83 59.5t121.5 20.5q72 0 124 -21.5t79.5 -61.5t27.5 -94q0 -63 -36 -102t-99 -53v-14z" />
    <glyph glyph-name="nine.osf" horiz-adv-x="629" 
d="M306 -172q-50 0 -91 13t-71 38t-47.5 60.5t-21.5 80.5l69 17q4 -41 19 -68t37 -43t49 -23t54 -7q56 0 93.5 22t58.5 60t30.5 85.5t9.5 99.5q0 33 -3 65.5t-8 62.5t-11 56h-12q7 -64 -6.5 -110.5t-41.5 -76.5t-65.5 -44.5t-77.5 -14.5q-55 0 -100.5 25t-73 72t-27.5 113
q0 45 14 84t42 69t70 46.5t97 16.5q85 0 146.5 -41.5t94.5 -122t33 -199.5q0 -99 -26.5 -174.5t-83.5 -118.5t-150 -43zM285 162q43 0 76.5 21t52.5 59.5t19 90.5q0 53 -19 81t-49 38t-64 10q-45 0 -75 -12.5t-48 -34.5t-26 -49t-8 -55q0 -49 19.5 -82t51.5 -50t70 -17z" />
    <glyph glyph-name="zero.tf" horiz-adv-x="592" 
d="M296 -14q-55 0 -100 24.5t-76.5 70t-48 108t-16.5 137.5q0 108 30.5 185.5t85.5 119.5t126 42q76 0 129.5 -44.5t82.5 -122t29 -180.5q0 -74 -17 -136t-48 -108t-75.5 -71t-101.5 -25zM296 53q38 0 68.5 18t53 53.5t35 87.5t12.5 120q0 84 -21 146t-58.5 95.5t-88.5 33.5
q-34 0 -65 -17t-55 -51t-37 -86.5t-13 -122.5q0 -67 12 -118t35 -87t54 -54t68 -18z" />
    <glyph glyph-name="one.tf" horiz-adv-x="592" 
d="M262 0v525h-124v66q44 0 73.5 5.5t47 20.5t23.5 43h56v-660h-76zM44 0v67h505v-67h-505z" />
    <glyph glyph-name="two.tf" horiz-adv-x="592" 
d="M53 0v94l239 183q27 21 53.5 44t49 49t36 55.5t13.5 62.5q0 35 -17 61.5t-50.5 41.5t-84.5 15q-31 0 -59.5 -8t-51 -28t-35 -56.5t-9.5 -92.5l-73 15q-3 71 21 124.5t76 83.5t133 30q69 0 119.5 -22t78 -62.5t27.5 -95.5q0 -43 -16.5 -81.5t-43 -71.5t-57 -60.5
t-59.5 -48.5l-210 -162v-7l406 3v-66h-486z" />
    <glyph glyph-name="three.tf" horiz-adv-x="592" 
d="M278 -14q-61 0 -105 14t-74 39.5t-45 61t-16 78.5l71 19q1 -45 17 -74t41.5 -44.5t55 -21.5t55.5 -6q51 0 93 13t67.5 42t25.5 78q0 60 -35.5 93.5t-98.5 47t-146 12.5v53l242 198v7l-363 -2v66h438v-85l-224 -184v-7q70 -1 120 -16t81 -41t46 -61.5t15 -78.5
q0 -60 -29.5 -105.5t-87 -70.5t-144.5 -25z" />
    <glyph glyph-name="four.tf" horiz-adv-x="592" 
d="M21 149v91q48 44 94.5 95t87.5 106t74.5 111t55.5 109h132v-661h-74v599h-9q-37 -78 -83.5 -146t-98 -125t-104.5 -105v-9h454v-65h-529z" />
    <glyph glyph-name="five.tf" horiz-adv-x="592" 
d="M292 -14q-70 0 -121 20.5t-78.5 60.5t-27.5 97l68 19q3 -62 41 -96t115 -34q82 0 127 41.5t45 130.5q0 30 -6.5 59t-22 52t-42.5 37t-68 14q-38 0 -65 -9.5t-44.5 -25t-27.5 -33.5t-14 -36h-91l21 377h404v-66h-338l-16 -253h11q15 41 41.5 65.5t61 35t71.5 10.5
q69 0 113.5 -28.5t66.5 -79.5t22 -118q0 -86 -33 -139t-88 -77t-125 -24z" />
    <glyph glyph-name="six.tf" horiz-adv-x="592" 
d="M311 -14q-119 0 -187.5 84.5t-68.5 251.5q0 105 28 184t83.5 123.5t137.5 44.5q42 0 77.5 -12.5t62.5 -37t43.5 -60.5t20.5 -84l-69 -16q-5 49 -23.5 80.5t-47.5 46.5t-65 15q-48 0 -82 -24t-55 -65.5t-30.5 -93.5t-9.5 -109q0 -36 4.5 -76.5t13.5 -75.5h9q-4 64 10 110
t40.5 74.5t61.5 42.5t73 14q50 0 93.5 -23t70 -68t26.5 -112q0 -44 -13 -82.5t-39.5 -68.5t-67.5 -46.5t-97 -16.5zM305 51q42 0 70.5 13.5t45.5 35t25 48t8 53.5q0 49 -19 80t-49 45.5t-63 14.5q-65 0 -104 -45t-39 -119q0 -51 19 -78.5t48 -37.5t58 -10z" />
    <glyph glyph-name="seven.tf" horiz-adv-x="592" 
d="M199 0q0 73 15.5 153.5t49 160t85.5 150t124 125.5v7l-429 -3v67h505v-76q-66 -53 -116.5 -117t-84.5 -137t-51 -156t-17 -174h-81z" />
    <glyph glyph-name="eight.tf" horiz-adv-x="592" 
d="M296 -14q-71 0 -125 20t-84.5 59.5t-30.5 97.5q0 48 19.5 82t53 55.5t74.5 28.5v6l93 10l92 -8v-7q39 -4 73 -24.5t55 -56t21 -86.5q0 -58 -30.5 -97.5t-84.5 -59.5t-126 -20zM296 55q25 0 53.5 5t54.5 17t42.5 34t16.5 55q0 42 -24.5 72.5t-63 47t-79.5 16.5
q-40 0 -78.5 -16t-63 -45.5t-24.5 -72.5q0 -33 16 -54.5t41.5 -34.5t54.5 -18.5t54 -5.5zM295 368q34 0 67.5 14.5t56 42.5t22.5 69q0 31 -14.5 52t-37 34.5t-48.5 19t-49 5.5q-32 0 -65 -10.5t-55.5 -34t-22.5 -63.5q0 -41 22 -70t55.5 -44t68.5 -15zM296 315l-93 12v15
q-35 8 -64 27t-46.5 51t-17.5 78q0 57 28.5 96t78 59.5t114.5 20.5q68 0 116.5 -21.5t75 -61.5t26.5 -94q0 -63 -33.5 -102t-92.5 -53v-14z" />
    <glyph glyph-name="nine.tf" horiz-adv-x="592" 
d="M289 -14q-46 0 -84.5 11.5t-67 35.5t-45.5 60t-22 84l68 18q5 -44 19.5 -72.5t36.5 -43t46 -20t46 -5.5q53 0 87.5 20.5t55 57.5t30 85.5t9.5 104.5q0 31 -3 61t-7.5 59t-10.5 55h-11q7 -62 -6.5 -107t-40.5 -74.5t-62 -44t-74 -14.5q-51 0 -94 24.5t-68.5 70.5
t-25.5 109q0 44 13 82.5t39.5 67.5t66 46t93.5 17q82 0 140 -41t89.5 -120.5t31.5 -196.5q0 -99 -26 -173.5t-81 -115.5t-142 -41zM270 318q41 0 72 20.5t49 58t18 86.5q0 51 -18 78t-46 37.5t-58 10.5q-42 0 -70.5 -13t-46 -35t-25 -48t-7.5 -52q0 -47 18.5 -79t49 -48
t64.5 -16z" />
    <glyph glyph-name="zero.tosf" horiz-adv-x="576" 
d="M288 -11q-53 0 -96.5 19t-73.5 54t-46.5 84.5t-16.5 109.5q0 85 29.5 145.5t82.5 93t122 32.5q73 0 124.5 -34t79.5 -95t28 -142q0 -60 -16 -108.5t-46.5 -84t-73 -55t-97.5 -19.5zM288 54q35 0 64.5 13t51 38t33.5 63t12 90q0 64 -20.5 109.5t-56 70t-83.5 24.5
q-44 0 -81 -21t-59.5 -66t-22.5 -117q0 -67 20.5 -112.5t57.5 -68.5t84 -23z" />
    </font>
</defs>
</svg>
