<svg width="864" height="570" viewBox="0 0 864 570" fill="none" xmlns="http://www.w3.org/2000/svg">
<g id="Layer_3" clip-path="url(#clip0_700_333)">
<path id="Vector" d="M855.59 49.94C835.12 49.94 818.47 31.98 818.47 9.93L818.56 4.62C818.6 2.08 816.71 0 814.36 0H49.6398C47.2898 0 45.3998 2.08 45.4398 4.61L45.5098 9.22L45.5298 9.91C45.5298 31.98 28.8798 49.94 8.40977 49.94H4.20977C1.88977 49.94 0.00976562 51.97 0.00976562 54.47V516.37C0.00976562 518.87 1.88977 520.9 4.20977 520.9H8.40977C28.9098 520.9 45.5298 538.82 45.5298 560.93V565.46C45.5298 567.96 47.4098 569.99 49.7298 569.99H814.26C816.58 569.99 818.46 567.96 818.46 565.46C818.46 540.85 836.96 520.9 859.79 520.9C862.11 520.9 863.99 518.87 863.99 516.37V54.47C863.99 51.97 862.11 49.94 859.79 49.94H855.59Z" fill="white"/>
</g>
<defs>
<clipPath id="clip0_700_333">
<rect width="864" height="570" fill="white"/>
</clipPath>
</defs>
</svg>
