<svg width="41" height="40" viewBox="0 0 41 40" fill="none" xmlns="http://www.w3.org/2000/svg">
<path d="M20.5 3.33333C29.69 3.33333 37.1667 10.81 37.1667 20C37.1667 29.19 29.69 36.6667 20.5 36.6667C11.31 36.6667 3.83333 29.19 3.83333 20C3.83333 10.81 11.31 3.33333 20.5 3.33333ZM20.5 0C9.455 0 0.5 8.955 0.5 20C0.5 31.045 9.455 40 20.5 40C31.545 40 40.5 31.045 40.5 20C40.5 8.955 31.545 0 20.5 0ZM17.1667 16.6667H13.8333V20H17.1667V30H22.1667V20H25.2L25.5 16.6667H22.1667V15.2783C22.1667 14.4817 22.3267 14.1667 23.0967 14.1667H25.5V10H21.4933C18.4967 10 17.1667 11.32 17.1667 13.8467V16.6667Z" fill="#3E2724"/>
</svg>
