<svg width="41" height="40" viewBox="0 0 41 40" fill="none" xmlns="http://www.w3.org/2000/svg">
<path d="M20.5 3.33333C29.69 3.33333 37.1667 10.81 37.1667 20C37.1667 29.19 29.69 36.6667 20.5 36.6667C11.31 36.6667 3.83333 29.19 3.83333 20C3.83333 10.81 11.31 3.33333 20.5 3.33333ZM20.5 0C9.455 0 0.5 8.955 0.5 20C0.5 31.045 9.455 40 20.5 40C31.545 40 40.5 31.045 40.5 20C40.5 8.955 31.545 0 20.5 0ZM20.5 11.8033C23.17 11.8033 23.4867 11.8133 24.5417 11.8617C27.2533 11.985 28.5167 13.27 28.6417 15.96C28.6883 17.015 28.6983 17.33 28.6983 20C28.6983 22.67 28.6883 22.9867 28.6417 24.04C28.5167 26.7283 27.255 28.0167 24.5417 28.14C23.4867 28.1867 23.1717 28.1983 20.5 28.1983C17.83 28.1983 17.5133 28.1883 16.46 28.14C13.7433 28.015 12.485 26.725 12.36 24.04C12.3133 22.9867 12.3017 22.67 12.3017 20C12.3017 17.33 12.3133 17.0133 12.36 15.96C12.4833 13.2683 13.7467 11.9833 16.46 11.86C17.5133 11.8117 17.83 11.8033 20.5 11.8033ZM20.5 10C17.7833 10 17.445 10.0117 16.3767 10.0617C12.7433 10.2283 10.7267 12.2433 10.56 15.8767C10.5117 16.945 10.5 17.285 10.5 20C10.5 22.7167 10.5117 23.0567 10.56 24.1233C10.7267 27.755 12.7433 29.7733 16.3767 29.94C17.445 29.9883 17.7833 30 20.5 30C23.2167 30 23.5567 29.9883 24.625 29.94C28.2517 29.7733 30.2767 27.7583 30.44 24.1233C30.4883 23.0567 30.5 22.7167 30.5 20C30.5 17.285 30.4883 16.945 30.44 15.8767C30.2767 12.2483 28.2583 10.2267 24.625 10.0617C23.5567 10.0117 23.2167 10 20.5 10ZM20.5 14.865C17.665 14.865 15.365 17.1633 15.365 20C15.365 22.8367 17.665 25.135 20.5 25.135C23.335 25.135 25.635 22.8367 25.635 20C25.635 17.165 23.335 14.865 20.5 14.865ZM20.5 23.3333C18.6583 23.3333 17.1667 21.8417 17.1667 20C17.1667 18.16 18.6583 16.6667 20.5 16.6667C22.34 16.6667 23.835 18.1583 23.835 20C23.835 21.8417 22.34 23.3333 20.5 23.3333ZM25.8367 13.4633C25.175 13.4633 24.6367 14 24.6367 14.6633C24.6367 15.325 25.1733 15.8633 25.8367 15.8633C26.5 15.8633 27.0383 15.3267 27.0383 14.6633C27.0383 14 26.5017 13.4633 25.8367 13.4633Z" fill="#3E2724"/>
</svg>
