<svg width="41" height="30" viewBox="0 0 41 30" fill="none" xmlns="http://www.w3.org/2000/svg">
<path id="Vector" d="M20.6324 10.7894C20.6324 8.07966 21.5932 5.7735 23.4962 3.8517C25.3437 1.9299 27.5424 0.968994 30.0735 0.968994C33.1959 0.968994 35.6717 2.16051 37.5193 4.58198C39.3114 6.81127 40.1982 9.54023 40.1982 12.7689C40.1982 18.7072 35.3576 24.4534 25.6394 29.969L24.2537 27.7205C27.5424 24.8954 29.1867 22.6085 29.1867 20.8789C29.1867 20.3408 28.4846 19.8027 27.1174 19.2646C25.0296 18.4766 23.6255 17.7271 22.868 17.016C21.3715 15.69 20.6139 13.6145 20.6139 10.8086L20.6324 10.7894ZM0.198242 10.7894C0.198242 8.07966 1.0666 5.7735 2.80332 3.8517C4.6509 1.9299 6.86799 0.968994 9.47307 0.968994C12.5955 0.968994 15.0712 2.16051 16.9188 4.58198C18.7664 6.81127 19.6902 9.54023 19.6902 12.7689C19.6902 18.7072 14.8495 24.4534 5.13127 29.969L3.5793 27.7205C6.97884 24.8954 8.69709 22.6085 8.69709 20.8789C8.69709 20.3408 7.93958 19.8027 6.44305 19.2646C4.42919 18.4766 3.02503 17.7271 2.286 17.016C0.900321 15.69 0.198242 13.6145 0.198242 10.8086L0.198242 10.7894Z" fill="#FFB3B8"/>
</svg>
