<svg width="43" height="45" viewBox="0 0 43 45" fill="none" xmlns="http://www.w3.org/2000/svg">
<path d="M21.5 0C9.64625 0 0 9.64625 0 21.5C0 26.5828 1.79321 31.4802 5.06428 35.351L1.24907 42.7898C1.08211 43.1175 1.1254 43.5194 1.36037 43.8039C1.53969 44.0203 1.80558 44.1378 2.07147 44.1378C2.15804 44.1378 2.25079 44.1254 2.33736 44.1007L12.571 41.0584C15.3845 42.3446 18.3835 42.9938 21.5 42.9938C33.3538 42.9938 43 33.3476 43 21.4938C43 9.64006 33.3538 0 21.5 0ZM21.5 41.1388C18.5443 41.1388 15.6999 40.4957 13.041 39.2281C12.8307 39.1291 12.5958 39.1106 12.3794 39.1786L3.88942 41.7015L6.99971 35.6355C7.17285 35.2954 7.12338 34.8811 6.86368 34.5905C3.63589 30.9855 1.85505 26.3293 1.85505 21.4938C1.85505 10.6603 10.6665 1.84886 21.5 1.84886C32.3335 1.84886 41.145 10.6603 41.145 21.4938C41.145 32.3273 32.3335 41.1388 21.5 41.1388Z" fill="#3E2724"/>
<path d="M34.0648 25.3213L29.8291 22.2295C29.2973 21.84 28.6418 21.6792 27.9864 21.7843C27.3309 21.8833 26.7559 22.2357 26.3725 22.7675L25.0616 24.5607C24.9936 24.6535 25.0183 24.5669 24.9874 24.6844C24.9812 24.6968 24.907 24.7957 24.672 24.8328C24.2763 24.8946 23.0891 24.8204 20.5229 22.7675L20.2756 22.5882C17.5734 20.7888 17.1406 19.6819 17.0787 19.2862C17.0478 19.0821 17.0973 18.9832 17.0911 18.977C17.1777 18.9214 17.1529 18.9214 17.2209 18.8348L18.5318 17.0416C18.9214 16.5098 19.0822 15.8544 18.977 15.1989C18.8719 14.5435 18.5257 13.9684 17.9939 13.5788L13.684 10.4314C12.5833 9.62759 11.0313 9.86874 10.2274 10.9694L8.90414 12.7874C7.73546 14.3889 7.4201 16.5778 8.08174 18.5071C9.10201 21.4813 11.7053 24.6411 15.8235 27.906C15.8791 27.974 15.941 28.0297 16.0152 28.0853C16.1203 28.1595 16.2254 28.2337 16.3305 28.3017C16.4295 28.3821 16.5346 28.4563 16.6335 28.5367C16.7015 28.5924 16.7819 28.6356 16.8623 28.6666C21.2278 31.5913 25.0307 33.1063 28.1781 33.1743C28.2214 33.1743 28.2585 33.1743 28.3018 33.1743C30.2557 33.1743 32.117 32.2159 33.298 30.5896L34.6213 28.7717C35.0108 28.2399 35.1716 27.5844 35.0665 26.929C34.9614 26.2735 34.5965 25.7108 34.0648 25.3213ZM33.1063 27.6834L31.7831 29.5013C30.9297 30.67 29.5879 31.344 28.1966 31.3193C26.1994 31.276 22.7181 30.4536 17.4064 26.8053C12.3174 22.8603 10.4686 19.7932 9.8193 17.9073C9.34935 16.5469 9.56577 15.001 10.3882 13.8818L11.7176 12.0639C11.8166 11.9278 11.9588 11.8413 12.1196 11.8165C12.2803 11.7918 12.4473 11.8289 12.5833 11.9278L16.8932 15.0752C17.0292 15.1742 17.1158 15.3164 17.1406 15.4772C17.1653 15.6379 17.1282 15.8049 17.0293 15.9409L15.7616 17.6785C15.4648 18 15.168 18.5875 15.2175 19.3295C15.3164 20.8197 16.6335 22.3841 19.2182 24.1031L19.4037 24.233C21.8524 26.1932 23.7507 26.9723 25.1976 26.6075C25.9211 26.4281 26.3911 25.9706 26.6075 25.5872L27.8751 23.8496C28.073 23.5714 28.4625 23.5157 28.7408 23.7136L32.9765 26.8053C33.1125 26.9043 33.1991 27.0465 33.2238 27.2073C33.2424 27.3866 33.2053 27.5535 33.1063 27.6834Z" fill="#3E2724"/>
</svg>
