<svg width="653" height="431" viewBox="0 0 653 431" fill="none" xmlns="http://www.w3.org/2000/svg">
<path d="M637.807 40.7985C622.715 40.7985 610.439 27.5646 610.439 11.317L610.505 7.40427C610.535 5.53266 609.141 4 607.409 4H43.5915C41.8589 4 40.4654 5.53266 40.4949 7.3969L40.5465 10.7938L40.5612 11.3022C40.5612 27.5646 28.2854 40.7985 13.1932 40.7985H10.0966C8.3861 40.7985 7 42.2944 7 44.1365V384.49C7 386.332 8.3861 387.828 10.0966 387.828H13.1932C28.3076 387.828 40.5612 401.032 40.5612 417.324V420.662C40.5612 422.504 41.9473 424 43.6578 424H607.335C609.045 424 610.431 422.504 610.431 420.662C610.431 402.528 624.071 387.828 640.903 387.828C642.614 387.828 644 386.332 644 384.49V44.1365C644 42.2944 642.614 40.7985 640.903 40.7985H637.807Z" fill="white"/>
<g clip-path="url(#clip0_950_407)">
<path d="M630.047 17.5576H22.4198C20.9653 17.5576 19.7861 18.7391 19.7861 20.1965V410.441C19.7861 411.898 20.9653 413.08 22.4198 413.08H630.047C631.502 413.08 632.681 411.898 632.681 410.441V20.1965C632.681 18.7391 631.502 17.5576 630.047 17.5576Z" stroke="#5F352F" stroke-width="2" stroke-linecap="round" stroke-linejoin="round"/>
<path d="M641.646 6.04907H635.201C633.809 6.04907 632.681 7.17978 632.681 8.57458V15.032C632.681 16.4268 633.809 17.5575 635.201 17.5575H641.646C643.038 17.5575 644.166 16.4268 644.166 15.032V8.57458C644.166 7.17978 643.038 6.04907 641.646 6.04907Z" stroke="#5F352F" stroke-width="2" stroke-linecap="round" stroke-linejoin="round"/>
<path d="M17.2658 6.04907H10.8212C9.42923 6.04907 8.30078 7.17978 8.30078 8.57458V15.032C8.30078 16.4268 9.42923 17.5575 10.8212 17.5575H17.2658C18.6578 17.5575 19.7862 16.4268 19.7862 15.032V8.57458C19.7862 7.17978 18.6578 6.04907 17.2658 6.04907Z" stroke="#5F352F" stroke-width="2" stroke-linecap="round" stroke-linejoin="round"/>
<path d="M641.646 413.08H635.201C633.809 413.08 632.681 414.21 632.681 415.605V422.063C632.681 423.457 633.809 424.588 635.201 424.588H641.646C643.038 424.588 644.166 423.457 644.166 422.063V415.605C644.166 414.21 643.038 413.08 641.646 413.08Z" stroke="#5F352F" stroke-width="2" stroke-linecap="round" stroke-linejoin="round"/>
<path d="M17.2658 413.08H10.8212C9.42923 413.08 8.30078 414.21 8.30078 415.605V422.063C8.30078 423.457 9.42923 424.588 10.8212 424.588H17.2658C18.6578 424.588 19.7862 423.457 19.7862 422.063V415.605C19.7862 414.21 18.6578 413.08 17.2658 413.08Z" stroke="#5F352F" stroke-width="2" stroke-linecap="round" stroke-linejoin="round"/>
<path opacity="0.98" d="M644.167 389.458V41.7843C624.803 41.7843 609.107 26.0565 609.107 6.65398C609.107 6.44983 609.122 6.25323 609.122 6.04907H43.3458C43.3458 6.25323 43.3609 6.44983 43.3609 6.65398C43.3609 26.0565 27.6646 41.7843 8.30078 41.7843V389.458C27.6646 389.458 43.3609 405.185 43.3609 424.588H609.107C609.107 405.185 624.803 389.458 644.167 389.458Z" stroke="#5F352F" stroke-width="2" stroke-linecap="round" stroke-linejoin="round"/>
</g>
<defs>
<clipPath id="clip0_950_407">
<rect width="637.375" height="420.051" fill="white" transform="translate(7.5459 5.29297)"/>
</clipPath>
</defs>
</svg>
