<svg width="1105" height="157" viewBox="0 0 1105 157" fill="none" xmlns="http://www.w3.org/2000/svg">
<g clip-path="url(#clip0_950_327)">
<path d="M50.5926 97.6547C48.6212 98.3607 46.8453 98.5824 45.2622 98.3251C43.679 98.0679 42.1977 97.7395 40.8211 97.3372C39.5435 96.9487 38.2853 96.6449 37.049 96.4287C35.81 96.2125 34.4581 96.3685 32.9906 96.8912C31.4818 97.4303 30.3337 97.9584 29.5517 98.4729C28.767 98.9874 27.9025 99.8385 26.9608 101.023L24.3672 99.5511C24.5269 98.5523 24.8545 97.5644 25.3529 96.5874C25.8512 95.6105 26.5616 94.6965 27.4867 93.8481C23.7202 94.8169 20.2069 94.7922 16.9498 93.7687C13.6926 92.7453 10.7933 90.8543 8.25475 88.0904C5.71619 85.3292 3.67873 81.8209 2.13962 77.5737C0.402273 72.7847 -0.277798 68.4281 0.102161 64.5038C0.482119 60.5823 1.80096 57.2026 4.06695 54.3703C6.33293 51.5379 9.4139 49.4226 13.3099 48.0297C17.3738 46.5765 21.2036 46.2646 24.7967 47.0965C28.3871 47.9284 31.5837 49.7619 34.3866 52.597C37.1867 55.4321 39.4114 59.1183 41.0551 63.6582C43.1063 69.3229 43.6542 74.3993 42.6961 78.8818C41.7379 83.3643 39.5298 86.9766 36.0743 89.7186C37.3794 89.5325 38.7203 89.4778 40.0969 89.5517C41.4736 89.6256 42.7567 89.7405 43.9516 89.902C45.1465 90.0634 46.0964 90.2057 46.804 90.3289C47.4951 90.4082 48.2027 90.4028 48.9269 90.3097C49.6482 90.2167 50.3889 90.0333 51.1433 89.7651C51.8123 89.5243 52.4759 89.2288 53.1312 88.8785C53.7837 88.5255 54.4032 88.1068 54.9814 87.6169C55.2815 87.7921 55.6174 88.0958 55.9864 88.5282C56.3553 88.9606 56.6004 89.3437 56.7215 89.6776C56.9638 90.3426 56.9583 91.18 56.7078 92.187C56.4572 93.1941 55.846 94.1902 54.8768 95.1726C53.9076 96.155 52.4786 96.9815 50.5926 97.6574V97.6547ZM28.0787 88.6267C29.0424 88.2819 29.8959 87.6936 30.6365 86.8644C31.3772 86.0352 31.892 84.8393 32.1784 83.2767C32.4647 81.7169 32.3959 79.659 31.9691 77.1058C31.5424 74.5525 30.642 71.3808 29.2709 67.5907C27.5666 62.8838 25.9146 59.37 24.3176 57.0467C22.718 54.7233 21.1623 53.2702 19.648 52.6818C18.1337 52.0935 16.6414 52.0634 15.1766 52.5861C14.2129 52.9309 13.3594 53.5192 12.6188 54.3484C11.8781 55.1776 11.3633 56.3735 11.0769 57.9361C10.7906 59.4986 10.8566 61.5429 11.2752 64.0769C11.6937 66.611 12.5912 69.7717 13.9624 73.5619C15.6667 78.2715 17.3214 81.7962 18.9266 84.1387C20.5318 86.484 22.104 87.9426 23.6376 88.5227C25.1739 89.1029 26.6525 89.1385 28.0787 88.6295V88.6267Z" fill="#5F352F"/>
<path d="M72.2257 79.492C66.7521 81.0792 61.975 80.8494 57.8946 78.8024C53.8142 76.7582 50.926 72.8449 49.2299 67.0625L43.2056 46.5327C42.8697 45.3861 42.3301 44.6554 41.5867 44.338C40.8433 44.0233 39.7447 44.0753 38.2937 44.4967C37.8201 42.8821 37.9193 41.4017 38.5911 40.0525L54.6292 35.4031C55.9232 36.1803 56.8098 37.3762 57.2834 38.9935C55.8296 39.4149 54.8742 39.9567 54.4199 40.619C53.9629 41.2812 53.9051 42.187 54.241 43.3337L60.6562 65.2016C61.4932 68.0504 62.8148 70.2725 64.6293 71.8679C66.4437 73.4634 68.762 73.852 71.5841 73.0337C73.5087 72.4755 74.9047 71.6216 75.7747 70.4695C76.642 69.3174 77.1211 67.982 77.2064 66.4577C77.2918 64.9335 77.0936 63.3435 76.6062 61.6851L69.8909 38.7964C69.5549 37.6498 68.9602 36.9328 68.1122 36.6482C67.2642 36.3636 66.0252 36.4567 64.4007 36.9274C64.175 36.1611 64.0786 35.3949 64.1089 34.6259C64.1364 33.8569 64.3126 33.1481 64.6348 32.5023L78.7455 28.4111C79.9983 29.202 80.8629 30.4034 81.3364 32.0179C79.712 32.4886 78.6189 33.0715 78.0545 33.7639C77.4928 34.4562 77.3799 35.3785 77.7158 36.5251L83.5528 56.4172C85.2737 62.2817 85.2159 67.1884 83.3821 71.1318C81.5457 75.0779 77.8287 77.861 72.2257 79.4838V79.492Z" fill="#5F352F"/>
<path d="M128.936 65.3522C128.655 65.3248 128.305 65.2947 127.884 65.2564C127.462 65.2181 126.821 65.1168 125.959 64.9554L95.8405 71.9747C95.2734 71.5149 94.7667 70.9621 94.3179 70.3163C93.8664 69.6705 93.558 68.9809 93.3846 68.2502C94.8163 67.9163 95.8268 67.4073 96.4215 66.7232C97.0162 66.039 97.1704 65.0949 96.8841 63.8854L89.7309 33.5614C89.4473 32.3545 88.8967 31.5856 88.0872 31.249C87.2749 30.9151 86.1543 30.9151 84.7254 31.249C84.5519 30.5156 84.5216 29.7603 84.6373 28.9831C84.7501 28.2059 84.9594 27.4889 85.2595 26.8267L110.499 20.943C111.199 20.4176 112.003 19.9442 112.911 19.5282C113.82 19.1123 114.684 18.8085 115.51 18.6169C116.064 19.2163 116.744 20.1138 117.553 21.3125C118.363 22.5111 119.114 23.7097 119.811 24.9138C120.508 26.1152 120.94 27.0839 121.113 27.8173C120.846 28.2442 120.375 28.7176 119.698 29.2376C119.021 29.7603 118.321 30.2392 117.603 30.6798C116.884 31.1204 116.278 31.4652 115.788 31.7169C114.976 30.4061 113.825 29.265 112.338 28.2907C110.849 27.3192 109.238 27.0346 107.506 27.4397L100.155 29.1528L103.374 42.7946L108.057 41.7027C109.271 41.4208 110.196 40.8297 110.83 39.9321C111.463 39.0345 111.579 37.7237 111.171 35.9997C113.123 35.5454 114.987 35.5892 116.76 36.1283L119.596 48.1555C118.335 49.4034 116.705 50.26 114.712 50.7252C114.304 49.0011 113.608 47.8436 112.625 47.2552C111.639 46.6668 110.538 46.5136 109.326 46.7954L104.577 47.901L108.162 63.0945L116.033 61.261C117.941 60.8177 119.37 59.6546 120.323 57.7718C121.276 55.8918 121.647 53.8367 121.444 51.6091L128.404 49.9863C128.556 50.6321 128.696 51.6583 128.82 53.0622C128.944 54.4661 129.051 55.9876 129.142 57.6268C129.23 59.266 129.26 60.7958 129.227 62.2106C129.194 63.6281 129.098 64.6735 128.938 65.3467L128.936 65.3522Z" fill="#5F352F"/>
<path d="M167.234 58.2179C163.501 58.8418 159.88 58.549 156.381 57.3394C152.878 56.1299 149.858 53.9078 147.325 50.6704C144.789 47.4358 143.068 43.1339 142.16 37.762C141.287 32.6118 141.427 28.1648 142.578 24.4239C143.729 20.6858 145.703 17.6728 148.503 15.385C151.301 13.1 154.742 11.614 158.828 10.9326C159.795 10.7712 160.915 10.7192 162.19 10.7739C163.465 10.8314 164.599 11.001 165.596 11.2829C165.998 10.9928 166.557 10.6836 167.27 10.3634C167.983 10.0432 168.71 9.73126 169.448 9.4275C170.186 9.12648 170.775 8.93492 171.216 8.86377C172.022 10.1664 172.719 11.7426 173.305 13.598C173.889 15.4534 174.385 17.3006 174.787 19.1423C175.189 20.9841 175.5 22.5576 175.723 23.8684L168.278 25.1135C167.446 22.3359 166.273 20.1521 164.765 18.5622C163.253 16.975 161.532 16.3428 159.599 16.6657C157.053 17.0926 155.158 18.6443 153.917 21.3207C152.675 23.997 152.518 28.0663 153.44 33.523C154.2 38.0192 155.423 41.5084 157.108 43.9877C158.793 46.467 160.742 48.1172 162.958 48.9354C165.175 49.7537 167.446 49.9698 169.776 49.5813C171.797 49.2447 173.443 48.5769 174.721 47.5753C175.995 46.5765 176.849 45.616 177.281 44.6883C177.917 44.9865 178.471 45.512 178.936 46.2645C179.401 47.0171 179.688 47.6985 179.789 48.3115C179.96 49.3158 179.608 50.509 178.735 51.8882C177.862 53.2702 176.474 54.5454 174.572 55.7167C172.669 56.8879 170.224 57.7226 167.237 58.2234L167.234 58.2179Z" fill="#5F352F"/>
<path d="M185.081 54.3128C183.983 53.3249 183.333 51.9703 183.138 50.2545C184.6 50.0903 185.599 49.7318 186.141 49.179C186.684 48.629 186.885 47.7368 186.744 46.5054L183.198 15.4918C183.058 14.2603 182.659 13.4257 182.003 12.9878C181.348 12.55 180.291 12.4131 178.829 12.5773C178.639 10.9053 178.966 9.46583 179.814 8.25627L196.015 6.4255C196.516 6.9044 196.946 7.50097 197.295 8.22069C197.648 8.93767 197.865 9.67108 197.95 10.4182C196.488 10.5824 195.489 10.9518 194.949 11.5265C194.41 12.1012 194.211 13.0042 194.352 14.2329L195.762 26.5722L210.236 24.9384L208.826 12.5992C208.686 11.3678 208.275 10.5331 207.598 10.098C206.921 9.66287 205.875 9.5233 204.457 9.68476C204.267 8.01271 204.594 6.57327 205.442 5.36371L221.709 3.52747C222.807 4.51811 223.455 5.84808 223.645 7.52013C222.227 7.67885 221.227 8.05102 220.643 8.62844C220.06 9.20586 219.837 10.1117 219.98 11.3431L223.526 42.3567C223.667 43.5882 224.085 44.4119 224.782 44.8224C225.478 45.2356 226.535 45.3587 227.951 45.2C228.146 46.9159 227.821 48.3799 226.973 49.5868L210.707 51.423C209.608 50.4351 208.958 49.0805 208.763 47.3647C210.178 47.2059 211.169 46.8474 211.734 46.2947C212.298 45.7419 212.51 44.8497 212.37 43.6155L210.869 30.4827L196.395 32.1165L197.895 45.2465C198.036 46.478 198.432 47.3017 199.085 47.7177C199.737 48.1336 200.795 48.2595 202.254 48.0953C202.345 48.8862 202.301 49.6716 202.119 50.4488C201.94 51.226 201.656 51.9046 201.277 52.482L185.076 54.3101L185.081 54.3128Z" fill="#5F352F"/>
<path d="M266.56 48.3361C266.287 48.2622 265.949 48.1719 265.541 48.0625C265.134 47.953 264.52 47.7423 263.699 47.4358L232.813 49.1927C232.333 48.6453 231.929 48.0132 231.598 47.299C231.265 46.5874 231.081 45.854 231.037 45.1015C232.504 45.0194 233.589 44.691 234.294 44.1191C234.996 43.5471 235.313 42.6413 235.241 41.4044L233.451 10.3087C233.38 9.07174 232.972 8.21793 232.234 7.74998C231.494 7.28202 230.39 7.09046 228.922 7.17256C228.878 6.42274 228.98 5.67292 229.228 4.92583C229.475 4.17875 229.803 3.50829 230.216 2.90624L256.1 1.43396C256.879 1.03443 257.755 0.708773 258.721 0.454271C259.688 0.19977 260.594 0.0492583 261.439 0C261.879 0.684144 262.394 1.68573 262.983 3.00476C263.573 4.32379 264.104 5.63461 264.583 6.93722C265.059 8.23983 265.318 9.26878 265.362 10.0186C265.026 10.3935 264.479 10.7794 263.721 11.1762C262.964 11.5757 262.19 11.9287 261.406 12.238C260.621 12.5499 259.966 12.7853 259.44 12.9495C258.867 11.5182 257.931 10.1992 256.634 8.98417C255.337 7.77187 253.798 7.21635 252.02 7.3176L244.481 7.74724L245.285 21.7366L250.087 21.463C251.331 21.3918 252.345 20.9676 253.127 20.1932C253.906 19.416 254.247 18.1462 254.145 16.3757C256.147 16.2607 257.975 16.6247 259.63 17.4621L260.34 29.7958C258.881 30.8111 257.13 31.3748 255.084 31.4925C254.982 29.7247 254.498 28.4658 253.628 27.716C252.758 26.9662 251.7 26.6296 250.456 26.698L245.585 26.9744L246.483 42.5565L254.556 42.0967C256.513 41.9845 258.121 41.0842 259.385 39.393C260.649 37.7018 261.373 35.7451 261.557 33.5148L268.694 33.1098C268.732 33.7721 268.694 34.8065 268.57 36.2104C268.449 37.6142 268.292 39.1303 268.096 40.7613C267.901 42.3923 267.664 43.9029 267.386 45.293C267.108 46.6832 266.833 47.6958 266.557 48.3334L266.56 48.3361Z" fill="#5F352F"/>
<path d="M273.526 47.1868C272.527 46.0976 272.014 44.6883 271.987 42.9615C273.457 42.9369 274.49 42.6797 275.082 42.1816C275.676 41.6863 275.963 40.816 275.941 39.5764L275.431 8.36849C275.412 7.12882 275.095 6.25859 274.487 5.76054C273.878 5.26248 272.838 5.0244 271.367 5.04629C271.34 3.3633 271.808 1.96217 272.769 0.840175L289.002 0.5802C289.457 1.10289 289.823 1.74051 290.104 2.48759C290.385 3.23741 290.531 3.98723 290.542 4.73979C289.071 4.76442 288.042 5.03534 287.447 5.55256C286.855 6.0725 286.568 6.95094 286.588 8.19061L287.097 39.3985C287.116 40.6382 287.433 41.4975 288.042 41.9736C288.65 42.4525 289.691 42.6769 291.161 42.655C291.175 43.4514 291.054 44.2286 290.798 44.9866C290.542 45.7446 290.197 46.3905 289.76 46.9296L273.526 47.1895V47.1868Z" fill="#5F352F"/>
<path d="M330.68 48.1336C327.83 48.057 325.661 47.5233 324.174 46.53C322.684 45.5393 321.605 44.2367 320.939 42.6221C320.27 41.0103 319.694 39.2452 319.212 37.3269C318.934 36.0352 318.582 34.697 318.152 33.3123C317.723 31.9276 317.211 30.6961 316.616 29.6179C316.021 28.5397 315.283 27.8337 314.399 27.4998L309.991 27.3821L309.661 39.5298C309.628 40.7695 310.049 41.6561 310.925 42.187C311.8 42.7206 312.885 43.0025 314.176 43.0381C314.132 44.6308 313.604 46.0127 312.593 47.1813L295.828 46.7325C294.837 45.4654 294.364 44.0588 294.405 42.5099C295.919 42.551 297.026 42.3266 297.731 41.834C298.436 41.3441 298.805 40.4794 298.838 39.2397L299.686 8.03731C299.719 6.79764 299.386 5.91372 298.689 5.38557C297.99 4.85741 296.883 4.5728 295.371 4.53175C295.391 3.7792 295.523 3.02938 295.768 2.28229C296.01 1.53521 296.362 0.903057 296.822 0.383108C298.736 0.435103 300.52 0.448786 302.169 0.426894C303.818 0.405001 305.333 0.391318 306.715 0.383108C307.921 0.32564 309.135 0.292801 310.36 0.281855C311.586 0.270909 312.888 0.281855 314.27 0.320167C318.901 0.443313 322.604 1.07546 325.382 2.21388C328.158 3.35229 330.143 4.89025 331.341 6.825C332.536 8.7625 333.097 11.0366 333.026 13.6473C332.94 16.8327 332.024 19.3996 330.275 21.348C328.53 23.2937 325.864 24.5963 322.282 25.2531C324.226 25.836 326.093 27.2481 327.882 29.4893C329.669 31.7306 330.991 34.3905 331.845 37.4692C332.291 39.1193 332.891 40.3781 333.648 41.2374C334.405 42.0994 335.405 42.6358 336.646 42.8465L336.555 46.166C335.952 46.9924 335.115 47.5343 334.039 47.7915C332.962 48.0515 331.845 48.1637 330.688 48.1336H330.68ZM313.05 22.8805C315.765 22.9544 317.893 22.169 319.43 20.527C320.966 18.8851 321.773 16.715 321.847 14.014C321.922 11.2692 321.332 9.16204 320.08 7.68702C318.827 6.21475 316.754 5.43756 313.86 5.36094C313.414 5.34999 312.847 5.35546 312.156 5.38283C311.464 5.40746 310.939 5.46219 310.581 5.53881L310.115 22.667C310.424 22.719 310.914 22.7655 311.583 22.8066C312.249 22.8476 312.739 22.8723 313.05 22.8805Z" fill="#5F352F"/>
<path d="M338.986 48.254C338.089 47.08 337.7 45.6324 337.824 43.9111C339.292 44.0151 340.341 43.8454 340.977 43.4021C341.61 42.9587 341.974 42.1186 342.062 40.8817L344.3 9.74767C344.388 8.51074 344.151 7.61861 343.59 7.06856C343.025 6.51851 342.012 6.19012 340.545 6.08613C340.666 4.40861 341.252 3.05127 342.312 2.01685L358.507 3.16621C358.912 3.7272 359.223 4.39493 359.435 5.16391C359.647 5.93562 359.727 6.69365 359.672 7.44347C358.204 7.33948 357.155 7.5201 356.517 7.98531C355.881 8.45053 355.517 9.30161 355.429 10.5385L353.191 41.6725C353.102 42.9095 353.339 43.7906 353.904 44.3188C354.468 44.847 355.484 45.1644 356.952 45.2684C356.894 46.062 356.707 46.8282 356.384 47.5589C356.062 48.2923 355.66 48.9053 355.178 49.4034L338.983 48.254H338.986Z" fill="#5F352F"/>
<path d="M398.095 54.477C395.796 54.2033 394.185 53.697 393.265 52.9636C392.346 52.2302 391.539 51.1958 390.848 49.8658L375.661 19.624L372.783 43.4267C372.635 44.6581 372.96 45.5776 373.761 46.1852C374.562 46.7954 375.713 47.1867 377.219 47.3674C377.032 48.9053 376.357 50.2298 375.19 51.3381L361.39 49.6907C360.561 48.3881 360.242 46.9459 360.432 45.3614C361.935 45.5421 363.106 45.4244 363.94 45.0112C364.774 44.5979 365.267 43.777 365.416 42.5455L369.163 11.5538C369.312 10.3251 368.984 9.40285 368.185 8.79533C367.384 8.18782 366.231 7.79375 364.727 7.61313C364.928 5.94382 365.584 4.61659 366.69 3.63416L375.911 4.73426C377.194 4.88751 378.428 5.53607 379.612 6.6827C380.796 7.82659 381.836 9.34539 382.728 11.2364L394.926 36.7057L397.558 14.9472C397.707 13.7184 397.404 12.7989 396.647 12.1969C395.889 11.5949 394.758 11.2008 393.254 11.0229C393.345 10.2758 393.568 9.54516 393.923 8.82817C394.279 8.11393 394.73 7.52009 395.284 7.05214L409.414 8.7406C410.292 10.0049 410.633 11.4498 410.438 13.0781C408.979 12.9029 407.82 13.0233 406.963 13.4311C406.107 13.8416 405.603 14.6626 405.454 15.894L400.749 54.7972L398.095 54.4797V54.477Z" fill="#5F352F"/>
<path d="M408.389 55.4868C407.632 54.2198 407.417 52.7365 407.74 51.0399C409.185 51.3108 410.248 51.2643 410.928 50.8948C411.611 50.5281 412.068 49.7345 412.299 48.5167L418.131 17.8452C418.362 16.6274 418.23 15.7134 417.734 15.1004C417.238 14.4902 416.269 14.0469 414.824 13.7759C415.138 12.123 415.878 10.8423 417.051 9.93652L433.07 12.9468C433.409 13.5515 433.637 14.2494 433.761 15.0375C433.882 15.8256 433.874 16.5919 433.734 17.3307C432.288 17.0598 431.223 17.12 430.537 17.5086C429.851 17.8972 429.392 18.7018 429.16 19.9195L426.839 32.1219L441.151 34.8092L443.472 22.6069C443.703 21.3891 443.56 20.4723 443.043 19.8566C442.525 19.2409 441.567 18.803 440.165 18.5403C440.479 16.8874 441.22 15.6067 442.39 14.7009L458.475 17.7221C459.229 18.9891 459.452 20.4504 459.139 22.1033C457.737 21.8406 456.672 21.9008 455.942 22.2812C455.212 22.6616 454.731 23.4634 454.499 24.6812L448.668 55.3527C448.436 56.5705 448.591 57.479 449.136 58.0756C449.678 58.6749 450.65 59.1046 452.052 59.3673C451.729 61.0639 450.983 62.3666 449.813 63.2724L433.728 60.2512C432.971 58.9841 432.756 57.5009 433.078 55.8042C434.48 56.067 435.532 56.0177 436.234 55.6537C436.939 55.2898 437.404 54.4989 437.638 53.2811L440.108 40.2961L425.796 37.6088L423.326 50.5965C423.095 51.8143 423.23 52.7174 423.728 53.3085C424.226 53.8996 425.201 54.3292 426.644 54.6002C426.495 55.3828 426.22 56.1217 425.815 56.8113C425.413 57.5009 424.94 58.0674 424.405 58.5052L408.384 55.4977L408.389 55.4868Z" fill="#5F352F"/>
<path d="M473.637 70.1357C469.452 69.063 466.124 67.1802 463.648 64.4874C461.173 61.7946 459.59 58.4971 458.902 54.5947C458.213 50.6923 458.469 46.426 459.67 41.7957C460.95 36.8672 462.855 32.8855 465.391 29.8533C467.924 26.8239 470.931 24.7688 474.408 23.696C477.883 22.6206 481.628 22.5987 485.639 23.6276C489.821 24.7004 493.164 26.5859 495.661 29.2841C498.159 31.9824 499.761 35.2854 500.474 39.1933C501.184 43.1038 500.934 47.3948 499.72 52.0661C498.45 56.9536 496.537 60.9107 493.982 63.9346C491.424 66.9613 488.409 69.011 484.932 70.0837C481.454 71.1592 477.69 71.1756 473.635 70.1357H473.637ZM474.857 65.4397C475.848 65.6942 476.886 65.686 477.968 65.4151C479.05 65.1442 480.152 64.4436 481.275 63.3134C482.396 62.1832 483.503 60.4455 484.596 58.0948C485.689 55.7468 486.741 52.6216 487.754 48.7193C489.012 43.8755 489.637 40.0471 489.632 37.2311C489.626 34.4179 489.163 32.3436 488.244 31.0109C487.324 29.6782 486.11 28.8189 484.601 28.4303C483.607 28.1758 482.572 28.184 481.49 28.4549C480.408 28.7259 479.307 29.4264 478.183 30.5566C477.063 31.6868 475.959 33.4164 474.871 35.7424C473.783 38.0685 472.734 41.1855 471.721 45.0851C470.463 49.9288 469.835 53.7683 469.835 56.6033C469.835 59.4384 470.306 61.5237 471.248 62.8646C472.186 64.2028 473.392 65.0594 474.857 65.437V65.4397Z" fill="#5F352F"/>
<path d="M525.211 85.3291C524.236 85.0116 523.157 84.5902 521.97 84.0648C520.783 83.5394 519.255 82.9127 517.386 82.1875C515.516 81.4623 513.036 80.5975 509.944 79.5905C509.398 78.11 509.379 76.6104 509.877 75.097C511.273 75.5513 512.358 75.6361 513.132 75.3543C513.906 75.0697 514.487 74.339 514.875 73.1595L524.646 43.4951C525.021 42.3594 524.979 41.4481 524.525 40.7667C524.071 40.0826 523.146 39.5134 521.747 39.0591C522.273 37.4609 523.176 36.2869 524.454 35.5371C528.644 36.8999 532.232 37.9289 535.214 38.6185C538.195 39.3081 540.153 39.8062 541.086 40.1099C544.77 41.3085 547.755 42.9204 550.04 44.9455C552.325 46.9705 554.008 49.2638 555.084 51.8279C556.161 54.3921 556.69 57.1259 556.67 60.0322C556.651 62.9384 556.15 65.883 555.164 68.8713C554.096 72.1114 552.67 75.0231 550.88 77.6092C549.09 80.1953 546.94 82.2778 544.426 83.8595C541.912 85.4413 539.054 86.3991 535.852 86.7302C532.65 87.0613 529.101 86.5934 525.205 85.3263L525.211 85.3291ZM526.428 79.9243C528.754 80.6824 530.954 80.7672 533.022 80.1843C535.09 79.5987 537.012 78.1757 538.787 75.9098C540.563 73.6466 542.152 70.3901 543.553 66.1402C545.577 59.9966 545.976 55.1529 544.754 51.6117C543.531 48.0679 541.119 45.7117 537.521 44.5404C537.224 44.4447 536.948 44.3544 536.695 44.2723C536.442 44.1902 536.194 44.1573 535.954 44.171L524.437 79.1362C524.762 79.2895 525.101 79.4345 525.453 79.5713C525.805 79.7109 526.13 79.8258 526.428 79.9243Z" fill="#5F352F"/>
<path d="M583.636 103.801C583.407 103.64 583.118 103.437 582.774 103.196C582.43 102.953 581.926 102.548 581.26 101.978L551.648 93.0791C551.389 92.4004 551.226 91.6697 551.163 90.8871C551.097 90.1044 551.177 89.3546 551.394 88.6321C552.801 89.0563 553.933 89.1193 554.792 88.821C555.651 88.5227 556.26 87.7811 556.62 86.5961L565.69 56.7812C566.05 55.5962 565.962 54.6548 565.431 53.9625C564.897 53.2701 563.928 52.7119 562.518 52.2904C562.738 51.5707 563.091 50.903 563.581 50.2845C564.071 49.6688 564.613 49.1488 565.205 48.7274L590.021 56.1846C590.891 56.0751 591.824 56.0669 592.821 56.16C593.818 56.2503 594.721 56.4172 595.53 56.6607C595.706 57.4544 595.844 58.5709 595.943 60.0103C596.04 61.4497 596.086 62.8646 596.084 64.2493C596.081 65.634 595.968 66.6903 595.75 67.41C595.304 67.6481 594.657 67.8232 593.809 67.9354C592.959 68.0504 592.113 68.1188 591.268 68.1434C590.423 68.1653 589.726 68.1653 589.176 68.1379C589.132 66.5972 588.71 65.0374 587.912 63.4557C587.113 61.8739 585.861 60.8285 584.156 60.3141L576.929 58.1412L572.848 71.5532L577.455 72.9379C578.647 73.2964 579.745 73.2444 580.748 72.7819C581.75 72.3194 582.507 71.2412 583.025 69.5445C584.944 70.122 586.535 71.0852 587.799 72.4371L584.203 84.2618C582.482 84.7161 580.64 84.6477 578.68 84.0593C579.195 82.3654 579.175 81.0163 578.619 80.0174C578.063 79.0186 577.188 78.3372 575.993 77.9787L571.323 76.5748L566.78 91.5138L574.52 93.8398C576.395 94.4036 578.217 94.108 579.99 92.9505C581.761 91.7956 583.118 90.2029 584.063 88.1724L590.907 90.2276C590.715 90.8624 590.318 91.8203 589.721 93.0982C589.123 94.3762 588.449 95.7472 587.703 97.2086C586.954 98.6726 586.21 100.011 585.47 101.22C584.729 102.433 584.118 103.287 583.641 103.793L583.636 103.801Z" fill="#5F352F"/>
<path d="M619.633 113.196C617.61 112.656 615.288 111.948 612.667 111.067C610.046 110.185 606.756 109.217 602.797 108.163C602.161 106.756 602.05 105.284 602.466 103.743C603.928 104.132 605.027 104.162 605.762 103.831C606.497 103.5 607.026 102.736 607.348 101.538L615.473 71.3862C615.795 70.1903 615.721 69.2654 615.253 68.6113C614.782 67.96 613.815 67.4373 612.353 67.0487C612.769 65.5108 613.603 64.2875 614.862 63.3872C617.915 64.2 620.357 64.8157 622.18 65.2317C624.006 65.6476 625.556 66.0061 626.839 66.2989C628.119 66.5945 629.405 66.9147 630.696 67.2567C634.441 68.2528 637.425 69.4049 639.658 70.7075C641.888 72.0129 643.54 73.3675 644.614 74.7768C645.688 76.1862 646.321 77.5928 646.519 78.9966C646.718 80.4005 646.649 81.725 646.316 82.9647C645.671 85.3592 644.493 87.2474 642.783 88.6239C641.073 90.0031 638.568 90.9171 635.267 91.3659C638.758 93.1201 641.137 95.0384 642.398 97.1155C643.659 99.1925 643.829 101.943 642.907 105.364C642.458 107.03 641.742 108.571 640.762 109.983C639.782 111.395 638.403 112.531 636.629 113.384C634.854 114.241 632.577 114.69 629.798 114.728C627.02 114.766 623.631 114.255 619.63 113.19L619.633 113.196ZM619.862 108.237C625.886 109.841 629.595 108.056 630.991 102.879C631.775 99.9725 631.621 97.5916 630.528 95.7417C629.435 93.8945 627.166 92.5098 623.725 91.5931C623.381 91.5 623.001 91.4125 622.588 91.3249C622.172 91.2373 621.836 91.1607 621.577 91.0895L617.205 107.32C617.494 107.443 617.868 107.588 618.331 107.758C618.793 107.928 619.303 108.086 619.862 108.234V108.237ZM624.774 86.9245C627.915 87.7619 630.324 87.6688 632.007 86.6508C633.686 85.6328 634.84 83.969 635.462 81.6593C636.084 79.3496 635.944 77.341 635.046 75.6361C634.146 73.9285 632.318 72.7107 629.564 71.9773C629.135 71.8624 628.664 71.7611 628.16 71.6708C627.654 71.5805 627.216 71.534 626.85 71.5285L622.874 86.2841C623.163 86.4073 623.477 86.5249 623.816 86.6371C624.154 86.7521 624.474 86.8479 624.776 86.9272L624.774 86.9245Z" fill="#5F352F"/>
<path d="M662.923 124.418C658.719 123.428 655.354 121.608 652.827 118.964C650.299 116.321 648.653 113.053 647.887 109.165C647.122 105.276 647.295 101.004 648.405 96.352C649.589 91.3988 651.417 87.3815 653.892 84.3029C656.367 81.2242 659.33 79.1143 662.785 77.9705C666.238 76.8293 669.983 76.7335 674.013 77.6859C678.218 78.6765 681.593 80.499 684.143 83.1481C686.692 85.7971 688.361 89.07 689.146 92.9641C689.933 96.8583 689.765 101.155 688.645 105.848C687.472 110.76 685.635 114.753 683.141 117.826C680.643 120.902 677.667 123.009 674.214 124.15C670.759 125.291 666.995 125.382 662.92 124.421L662.923 124.418ZM664.049 119.7C665.046 119.936 666.081 119.908 667.16 119.616C668.237 119.323 669.324 118.603 670.426 117.451C671.524 116.299 672.598 114.539 673.644 112.169C674.691 109.8 675.682 106.655 676.618 102.734C677.78 97.8653 678.331 94.0259 678.27 91.2127C678.209 88.3995 677.706 86.3362 676.761 85.0199C675.814 83.7036 674.586 82.8689 673.069 82.5104C672.072 82.2751 671.034 82.3025 669.958 82.5953C668.881 82.8881 667.794 83.6105 666.692 84.7599C665.594 85.912 664.523 87.6607 663.482 90.0086C662.441 92.3566 661.45 95.4927 660.514 99.4115C659.352 104.28 658.799 108.13 658.854 110.965C658.909 113.8 659.421 115.877 660.387 117.197C661.354 118.516 662.573 119.35 664.046 119.698L664.049 119.7Z" fill="#5F352F"/>
<path d="M687.811 129.265C687.034 127.976 686.822 126.485 687.175 124.793C688.656 125.1 689.755 125.078 690.465 124.728C691.175 124.377 691.657 123.595 691.911 122.38L698.298 91.8176C698.552 90.6053 698.425 89.6858 697.918 89.0591C697.412 88.4352 696.418 87.97 694.934 87.6635C695.088 86.9273 695.371 86.2158 695.787 85.5344C696.203 84.8503 696.704 84.3002 697.293 83.8788L714.105 87.3515C714.477 87.97 714.705 88.6733 714.791 89.4614C714.876 90.2495 714.843 91.0103 714.689 91.7464C712.943 91.3852 711.627 91.3743 710.738 91.7109C709.848 92.0475 709.276 92.8219 709.022 94.0369L702.241 126.485L706.297 127.322C708.739 127.825 710.873 127.147 712.693 125.286C714.515 123.425 715.807 120.672 716.569 117.03L721.148 117.976C721.633 118.483 721.938 119.304 722.068 120.439C722.194 121.575 722.214 122.787 722.125 124.079C722.037 125.373 721.883 126.539 721.666 127.579C721.123 130.179 720.237 132.125 719.014 133.408C717.789 134.691 716.043 135.102 713.777 134.631L687.805 129.268L687.811 129.265Z" fill="#5F352F"/>
<path d="M741.611 140.654C737.354 139.907 733.89 138.287 731.211 135.794C728.532 133.301 726.699 130.135 725.707 126.296C724.716 122.459 724.639 118.184 725.476 113.475C726.368 108.461 727.957 104.346 730.248 101.127C732.538 97.9119 735.374 95.6323 738.755 94.2914C742.137 92.9532 745.867 92.6413 749.948 93.3555C754.202 94.1026 757.679 95.7254 760.38 98.2211C763.078 100.717 764.937 103.889 765.95 107.731C766.963 111.573 767.049 115.872 766.203 120.623C765.32 125.592 763.723 129.686 761.41 132.899C759.097 136.112 756.25 138.389 752.869 139.729C749.485 141.07 745.732 141.377 741.611 140.654ZM742.459 135.879C743.466 136.057 744.502 135.967 745.559 135.614C746.616 135.261 747.66 134.478 748.689 133.263C749.719 132.051 750.686 130.231 751.594 127.803C752.5 125.379 753.307 122.18 754.012 118.215C754.887 113.289 755.212 109.422 754.986 106.617C754.761 103.812 754.138 101.781 753.117 100.523C752.095 99.2638 750.818 98.5003 749.284 98.2321C748.274 98.0542 747.241 98.1445 746.184 98.4975C745.127 98.8505 744.083 99.6359 743.051 100.848C742.021 102.061 741.054 103.869 740.151 106.275C739.248 108.68 738.444 111.866 737.739 115.834C736.864 120.762 736.536 124.637 736.759 127.464C736.98 130.291 737.613 132.335 738.654 133.597C739.694 134.858 740.964 135.622 742.453 135.882L742.459 135.879Z" fill="#5F352F"/>
<path d="M776.03 145.553C775.157 144.327 774.83 142.855 775.05 141.142C776.242 141.295 777.404 141.084 778.533 140.515C779.662 139.946 780.562 138.966 781.237 137.579L796.223 107.085C794.53 106.289 792.335 105.719 789.64 105.375C789.885 103.486 790.617 101.973 791.842 100.835L810.001 103.152L817.512 142.009C817.809 143.52 818.439 144.729 819.4 145.632C820.361 146.535 821.416 147.061 822.567 147.209C822.346 148.922 821.655 150.263 820.499 151.229L802.539 148.935C801.663 147.709 801.339 146.237 801.559 144.524C802.707 144.672 803.657 144.535 804.409 144.116C805.157 143.7 805.603 142.942 805.747 141.842C805.799 141.448 805.824 140.98 805.826 140.446C805.826 139.91 805.78 139.325 805.683 138.687L805.466 137.253L790.62 135.359L790.044 136.692C789.794 137.239 789.582 137.748 789.408 138.219C789.235 138.69 789.125 139.119 789.072 139.516C788.918 140.701 789.183 141.607 789.868 142.228C790.551 142.852 791.556 143.246 792.88 143.416C792.66 145.129 791.969 146.47 790.813 147.436L776.033 145.55L776.03 145.553ZM792.74 130.411L804.67 131.933L802.074 114.996C801.845 113.628 801.482 112.443 800.983 111.442L792.74 130.409V130.411Z" fill="#5F352F"/>
<path d="M826.933 152.772C826.46 151.573 826.08 149.929 825.799 147.838C825.518 145.747 825.331 143.563 825.245 141.289C825.157 139.015 825.193 136.996 825.35 135.231L832.005 135.819C832.379 139.631 833.525 142.688 835.444 144.989C837.36 147.293 839.72 148.569 842.514 148.815C843.888 148.935 844.989 148.757 845.815 148.273C846.641 147.791 847.266 147.167 847.693 146.407C848.12 145.643 848.365 144.91 848.428 144.204C848.558 142.748 848.183 141.448 847.302 140.304C846.421 139.16 845.276 138.09 843.866 137.1C842.456 136.109 841.027 135.195 839.585 134.355C835.848 132.114 832.96 129.67 830.917 127.021C828.874 124.375 828.018 121.197 828.348 117.492C828.588 114.802 829.458 112.58 830.959 110.82C832.456 109.063 834.373 107.777 836.705 106.962C839.034 106.146 841.6 105.862 844.395 106.108C845.681 106.223 847.189 106.488 848.918 106.907C850.648 107.326 852.038 107.895 853.092 108.609L858.905 107.389C859.433 108.459 859.747 109.83 859.844 111.504C859.94 113.179 859.943 114.903 859.852 116.671C859.761 118.442 859.651 120.053 859.519 121.509L859.431 122.503L853.908 122.013C853.31 118.182 852.231 115.519 850.664 114.025C849.097 112.531 847.338 111.696 845.386 111.524C843.566 111.362 842.178 111.762 841.22 112.722C840.262 113.683 839.714 114.933 839.576 116.477C839.45 117.889 839.731 119.112 840.422 120.152C841.11 121.192 842.043 122.128 843.222 122.965C844.398 123.803 845.642 124.637 846.955 125.464C848.401 126.304 849.904 127.248 851.465 128.296C853.026 129.344 854.453 130.526 855.744 131.843C857.035 133.156 858.04 134.67 858.759 136.377C859.477 138.085 859.739 140.041 859.541 142.247C859.323 144.674 858.503 146.834 857.082 148.73C855.659 150.626 853.74 152.08 851.325 153.089C848.907 154.096 846.06 154.458 842.776 154.168C841.267 154.034 839.629 153.724 837.861 153.232C836.093 152.739 834.227 151.989 832.261 150.969L826.936 152.764L826.933 152.772Z" fill="#5F352F"/>
<path d="M867.328 156.105C866.804 154.928 866.361 153.3 865.998 151.22C865.632 149.141 865.359 146.968 865.183 144.699C865.004 142.43 864.96 140.411 865.048 138.643L871.722 138.969C872.248 142.762 873.514 145.772 875.524 147.997C877.531 150.221 879.938 151.404 882.741 151.541C884.12 151.606 885.213 151.385 886.02 150.87C886.824 150.356 887.427 149.707 887.821 148.93C888.214 148.153 888.429 147.408 888.465 146.7C888.536 145.241 888.11 143.955 887.182 142.846C886.254 141.738 885.067 140.715 883.619 139.781C882.171 138.846 880.706 137.989 879.23 137.206C875.409 135.116 872.424 132.787 870.276 130.22C868.129 127.656 867.146 124.514 867.33 120.801C867.463 118.102 868.244 115.847 869.671 114.033C871.1 112.219 872.961 110.859 875.257 109.95C877.553 109.042 880.103 108.656 882.906 108.792C884.197 108.855 885.714 109.063 887.457 109.414C889.2 109.764 890.615 110.276 891.697 110.949L897.454 109.501C898.027 110.549 898.396 111.907 898.559 113.579C898.721 115.248 898.793 116.969 898.773 118.743C898.754 120.516 898.707 122.131 898.636 123.589L898.586 124.585L893.046 124.314C892.297 120.51 891.111 117.894 889.486 116.46C887.862 115.029 886.069 114.266 884.115 114.17C882.289 114.08 880.918 114.537 880.001 115.533C879.082 116.529 878.586 117.801 878.509 119.35C878.44 120.765 878.768 121.977 879.5 122.99C880.23 124.002 881.202 124.903 882.41 125.691C883.619 126.482 884.897 127.264 886.243 128.039C887.719 128.821 889.261 129.705 890.86 130.691C892.46 131.678 893.933 132.8 895.277 134.065C896.62 135.326 897.683 136.799 898.47 138.476C899.258 140.154 899.597 142.099 899.486 144.31C899.365 146.743 898.633 148.935 897.289 150.886C895.943 152.838 894.084 154.365 891.711 155.47C889.338 156.573 886.505 157.044 883.212 156.885C881.697 156.811 880.051 156.565 878.264 156.146C876.48 155.727 874.583 155.046 872.578 154.107L867.328 156.113V156.105Z" fill="#5F352F"/>
<path d="M901.914 156.847C900.893 155.738 900.386 154.318 900.392 152.591C901.595 152.594 902.721 152.247 903.77 151.541C904.819 150.837 905.59 149.754 906.086 148.295L917.154 116.189C915.373 115.609 913.126 115.311 910.408 115.303C910.414 113.401 910.956 111.808 912.027 110.527L930.337 110.59L942.636 148.221C943.12 149.682 943.897 150.804 944.963 151.582C946.028 152.361 947.14 152.75 948.299 152.756C948.294 154.482 947.776 155.897 946.749 157L928.641 156.937C927.619 155.829 927.113 154.408 927.118 152.682C928.275 152.687 929.2 152.435 929.894 151.926C930.585 151.42 930.934 150.613 930.937 149.504C930.937 149.105 930.907 148.64 930.841 148.109C930.775 147.578 930.653 147.003 930.48 146.382L930.084 144.986L915.116 144.934L914.712 146.327C914.53 146.902 914.384 147.433 914.271 147.92C914.158 148.407 914.1 148.848 914.1 149.247C914.098 150.443 914.472 151.308 915.227 151.842C915.981 152.375 917.027 152.643 918.365 152.649C918.36 154.376 917.842 155.79 916.815 156.893L901.914 156.841V156.847ZM916.606 139.762L928.633 139.803L923.946 123.318C923.55 121.988 923.04 120.858 922.421 119.925L916.606 139.762Z" fill="#5F352F"/>
<path d="M988.862 155.336C986.549 155.457 984.875 155.232 983.843 154.663C982.81 154.097 981.838 153.215 980.927 152.019L960.77 124.799L962.023 148.741C962.086 149.981 962.568 150.832 963.46 151.294C964.355 151.759 965.558 151.951 967.069 151.872C967.149 153.421 966.712 154.838 965.753 156.13L951.874 156.847C950.833 155.703 950.271 154.335 950.189 152.745C951.7 152.665 952.832 152.353 953.586 151.803C954.338 151.256 954.682 150.361 954.616 149.124L952.986 117.952C952.923 116.715 952.441 115.864 951.549 115.399C950.654 114.936 949.451 114.742 947.939 114.821C947.851 113.141 948.267 111.723 949.189 110.569L958.465 110.09C959.754 110.024 961.081 110.454 962.447 111.381C963.81 112.309 965.095 113.628 966.301 115.338L982.692 138.367L981.549 116.48C981.483 115.243 981.026 114.389 980.178 113.924C979.327 113.458 978.146 113.264 976.634 113.343C976.596 112.591 976.69 111.833 976.918 111.067C977.147 110.303 977.491 109.641 977.951 109.085L992.163 108.352C993.245 109.449 993.832 110.815 993.917 112.451C992.45 112.528 991.329 112.84 990.555 113.39C989.782 113.94 989.426 114.835 989.49 116.072L991.535 155.202L988.867 155.339L988.862 155.336Z" fill="#5F352F"/>
<path d="M1017.9 152.92C1016.88 153.032 1015.72 153.095 1014.42 153.106C1013.12 153.117 1011.47 153.177 1009.47 153.289C1007.46 153.401 1004.84 153.637 1001.61 153.998C1000.5 152.876 999.853 151.521 999.674 149.937C1001.14 149.773 1002.16 149.403 1002.74 148.826C1003.32 148.248 1003.55 147.345 1003.41 146.111L999.913 115.092C999.779 113.904 999.363 113.094 998.664 112.659C997.964 112.224 996.885 112.087 995.423 112.252C995.236 110.58 995.566 109.14 996.414 107.93C1000.8 107.443 1004.49 106.896 1007.49 106.297C1010.49 105.695 1012.48 105.339 1013.45 105.232C1017.31 104.803 1020.69 105.038 1023.62 105.938C1026.55 106.839 1029.03 108.232 1031.08 110.12C1033.14 112.008 1034.76 114.277 1035.95 116.928C1037.15 119.58 1037.92 122.467 1038.27 125.592C1038.66 128.98 1038.57 132.22 1038.03 135.31C1037.48 138.402 1036.39 141.183 1034.77 143.659C1033.14 146.136 1030.94 148.186 1028.16 149.808C1025.39 151.431 1021.96 152.471 1017.89 152.925L1017.9 152.92ZM1016.75 147.501C1019.18 147.23 1021.22 146.401 1022.86 145.017C1024.49 143.632 1025.65 141.544 1026.32 138.75C1026.99 135.958 1027.08 132.341 1026.57 127.894C1025.85 121.471 1024.19 116.898 1021.6 114.181C1019.01 111.463 1015.83 110.314 1012.07 110.733C1011.76 110.768 1011.47 110.798 1011.2 110.829C1010.94 110.859 1010.7 110.93 1010.49 111.042L1014.61 147.605C1014.97 147.611 1015.34 147.605 1015.72 147.583C1016.09 147.564 1016.44 147.537 1016.75 147.501Z" fill="#5F352F"/>
<path d="M1067.69 146.034C1063.44 146.779 1059.62 146.434 1056.25 145.003C1052.87 143.572 1050.06 141.221 1047.8 137.951C1045.55 134.68 1044.01 130.691 1043.17 125.981C1042.28 120.967 1042.36 116.559 1043.41 112.758C1044.45 108.957 1046.34 105.851 1049.05 103.442C1051.77 101.034 1055.17 99.4717 1059.25 98.7602C1063.5 98.0158 1067.33 98.3579 1070.73 99.7864C1074.12 101.215 1076.96 103.563 1079.24 106.828C1081.51 110.095 1083.07 114.104 1083.91 118.855C1084.79 123.824 1084.7 128.214 1083.63 132.02C1082.56 135.827 1080.67 138.933 1077.95 141.341C1075.24 143.749 1071.82 145.315 1067.69 146.037V146.034ZM1066.85 141.259C1067.85 141.081 1068.8 140.649 1069.67 139.957C1070.54 139.264 1071.25 138.175 1071.8 136.684C1072.35 135.195 1072.64 133.156 1072.65 130.567C1072.67 127.979 1072.33 124.703 1071.62 120.735C1070.75 115.809 1069.73 112.065 1068.55 109.507C1067.37 106.948 1066.09 105.251 1064.7 104.417C1063.3 103.582 1061.84 103.297 1060.31 103.566C1059.29 103.743 1058.36 104.176 1057.48 104.868C1056.61 105.561 1055.9 106.652 1055.35 108.141C1054.8 109.633 1054.51 111.658 1054.49 114.225C1054.47 116.791 1054.81 120.059 1055.52 124.027C1056.39 128.956 1057.42 132.707 1058.6 135.288C1059.78 137.869 1061.08 139.576 1062.49 140.405C1063.9 141.237 1065.35 141.522 1066.85 141.262V141.259Z" fill="#5F352F"/>
<path d="M1092.25 119.509L1083.38 94.8688C1083.28 94.6198 1083.2 94.3762 1083.15 94.1381C1083.09 93.9 1083.05 93.6948 1083.01 93.5224C1082.66 91.9653 1082.8 90.7557 1083.43 89.891C1084.06 89.0262 1085.11 88.4296 1086.59 88.104L1089.39 87.4828C1090.87 87.1544 1092.09 87.2502 1093.05 87.7619C1094.01 88.2764 1094.66 89.3108 1095.01 90.8652C1095.05 91.0376 1095.08 91.2456 1095.11 91.4891C1095.14 91.7327 1095.17 91.9872 1095.18 92.2554L1097.6 118.324L1092.25 119.506V119.509ZM1099.58 139.727C1097.63 140.159 1095.92 139.913 1094.46 138.991C1093 138.066 1092.05 136.654 1091.63 134.752C1091.19 132.806 1091.44 131.12 1092.38 129.686C1093.31 128.255 1094.76 127.322 1096.71 126.889C1098.76 126.438 1100.51 126.662 1101.96 127.565C1103.42 128.468 1104.37 129.891 1104.8 131.837C1105.23 133.739 1104.98 135.417 1104.05 136.87C1103.12 138.323 1101.63 139.275 1099.59 139.727H1099.58Z" fill="#5F352F"/>
</g>
<defs>
<clipPath id="clip0_950_327">
<rect width="1105" height="157" fill="white"/>
</clipPath>
</defs>
</svg>
