<?xml version="1.0" encoding="UTF-8"?>
<svg id="Layer_1" xmlns="http://www.w3.org/2000/svg" viewBox="0 0 80 80">
  <defs>
    <style>
      .cls-1 {
        opacity: .98;
      }

      .cls-1, .cls-2, .cls-3 {
        fill: none;
        stroke: #000;
        stroke-linecap: round;
        stroke-linejoin: round;
      }

      .cls-1, .cls-3 {
        stroke-width: 1.2px;
      }

      .cls-2 {
        stroke-width: 1.5px;
      }
    </style>
  </defs>
  <g>
    <rect class="cls-3" x="10.79" y="10.84" width="58.42" height="58.31" rx="3.49" ry="3.49"/>
    <path class="cls-1" d="M73.08,60.9V19.31c-6.52,0-11.8-5.5-11.8-12.28,0-.07,0-.07,0-.14l-42.56-.07c0,.07,0,.07,0,.14,0,6.78-5.28,12.35-11.8,12.35v41.59c6.52,0,11.8,5.5,11.8,12.28h42.55c0-6.78,5.28-12.28,11.8-12.28Z"/>
  </g>
  <rect class="cls-2" x="7" y="7" width="5" height="5" rx="1.53" ry="1.53"/>
  <rect class="cls-2" x="68" y="7" width="5" height="5" rx="1.53" ry="1.53"/>
  <rect class="cls-2" x="7" y="68" width="5" height="5" rx="1.53" ry="1.53"/>
  <rect class="cls-2" x="68" y="68" width="5" height="5" rx="1.53" ry="1.53"/>
</svg>