<svg width="845" height="556" viewBox="0 0 845 556" fill="none" xmlns="http://www.w3.org/2000/svg">
<g id="Layer_2" clip-path="url(#clip0_700_335)">
<path id="Vector" d="M824.91 16.22H19.7102C17.7827 16.22 16.2202 17.7825 16.2202 19.71V535.81C16.2202 537.737 17.7827 539.3 19.7102 539.3H824.91C826.838 539.3 828.4 537.737 828.4 535.81V19.71C828.4 17.7825 826.838 16.22 824.91 16.22Z" stroke="#5F352F" stroke-width="2" stroke-linecap="round" stroke-linejoin="round"/>
<path id="Vector_2" d="M840.28 1H831.74C829.895 1 828.4 2.49537 828.4 4.34V12.88C828.4 14.7246 829.895 16.22 831.74 16.22H840.28C842.125 16.22 843.62 14.7246 843.62 12.88V4.34C843.62 2.49537 842.125 1 840.28 1Z" stroke="#5F352F" stroke-width="2" stroke-linecap="round" stroke-linejoin="round"/>
<path id="Vector_3" d="M12.88 1H4.34C2.49537 1 1 2.49537 1 4.34V12.88C1 14.7246 2.49537 16.22 4.34 16.22H12.88C14.7246 16.22 16.22 14.7246 16.22 12.88V4.34C16.22 2.49537 14.7246 1 12.88 1Z" stroke="#5F352F" stroke-width="2" stroke-linecap="round" stroke-linejoin="round"/>
<path id="Vector_4" d="M840.28 539.3H831.74C829.895 539.3 828.4 540.795 828.4 542.64V551.18C828.4 553.025 829.895 554.52 831.74 554.52H840.28C842.125 554.52 843.62 553.025 843.62 551.18V542.64C843.62 540.795 842.125 539.3 840.28 539.3Z" stroke="#5F352F" stroke-width="2" stroke-linecap="round" stroke-linejoin="round"/>
<path id="Vector_5" d="M12.88 539.3H4.34C2.49537 539.3 1 540.795 1 542.64V551.18C1 553.025 2.49537 554.52 4.34 554.52H12.88C14.7246 554.52 16.22 553.025 16.22 551.18V542.64C16.22 540.795 14.7246 539.3 12.88 539.3Z" stroke="#5F352F" stroke-width="2" stroke-linecap="round" stroke-linejoin="round"/>
<path id="Vector_6" opacity="0.98" d="M843.62 508.06V48.26C817.96 48.26 797.16 27.46 797.16 1.8C797.16 1.53 797.18 1.27 797.18 1H47.44C47.44 1.27 47.46 1.53 47.46 1.8C47.46 27.46 26.66 48.26 1 48.26V508.06C26.66 508.06 47.46 528.86 47.46 554.52H797.16C797.16 528.86 817.96 508.06 843.62 508.06Z" stroke="#5F352F" stroke-width="2" stroke-linecap="round" stroke-linejoin="round"/>
</g>
<defs>
<clipPath id="clip0_700_335">
<rect width="844.62" height="555.52" fill="white"/>
</clipPath>
</defs>
</svg>
