<svg width="40" height="40" viewBox="0 0 40 40" fill="none" xmlns="http://www.w3.org/2000/svg">
<g clip-path="url(#clip0_424_64)">
<path fill-rule="evenodd" clip-rule="evenodd" d="M17.9985 0.78142L15.8192 2.79575C15.715 2.89125 15.5848 2.96071 15.4459 3.00412C15.307 3.03885 15.1594 3.04754 15.0205 3.00412L12.1205 2.34426C11.3999 2.17929 10.6358 2.29216 10.002 2.66551C9.3595 3.03885 8.88197 3.63794 8.66491 4.34122L7.78798 7.18038C7.74457 7.3193 7.66643 7.44085 7.57092 7.54504C7.46673 7.64923 7.34518 7.71869 7.20626 7.7621L4.3671 8.63903C3.66382 8.85609 3.06473 9.33362 2.69139 9.97612C2.31804 10.6186 2.20517 11.374 2.37014 12.0946L3.03 14.9946C3.06473 15.1335 3.05605 15.2811 3.03 15.42C2.99527 15.5589 2.92581 15.6892 2.82162 15.7934L0.807299 17.9727C0.303717 18.5196 0.0258789 19.2316 0.0258789 19.9696C0.0258789 20.7076 0.303717 21.4283 0.807299 21.9666L2.82162 24.1459C2.91713 24.2501 2.98659 24.3803 3.03 24.5192C3.06473 24.6581 3.07342 24.8057 3.03 24.9446L2.37014 27.8446C2.20517 28.5652 2.31804 29.3293 2.69139 29.9631C3.06473 30.6056 3.66382 31.0831 4.3671 31.3002L7.20626 32.1771C7.34518 32.2205 7.46673 32.2987 7.57092 32.3942C7.67511 32.4984 7.74457 32.6199 7.78798 32.7588L8.66491 35.598C8.88197 36.3013 9.3595 36.9004 10.002 37.2737C10.6445 37.6471 11.3999 37.7599 12.1205 37.595L15.0205 36.9351C15.1594 36.9004 15.307 36.9091 15.4459 36.9351C15.5848 36.9698 15.715 37.0393 15.8192 37.1435L17.9985 39.1578C18.5455 39.6614 19.2575 39.9392 19.9955 39.9392C20.7335 39.9392 21.4541 39.6614 21.9925 39.1578L24.1717 37.1435C24.2759 37.048 24.4062 36.9785 24.5451 36.9351C24.684 36.9004 24.8316 36.8917 24.9705 36.9351L27.8705 37.595C28.5911 37.7599 29.3552 37.6471 29.989 37.2737C30.6315 36.9004 31.109 36.3013 31.3261 35.598L32.203 32.7588C32.2464 32.6199 32.3246 32.4984 32.4201 32.3942C32.5243 32.29 32.6458 32.2205 32.7847 32.1771L35.6239 31.3002C36.3272 31.0831 36.9263 30.6056 37.2996 29.9631C37.6729 29.3206 37.7858 28.5652 37.6208 27.8446L36.961 24.9446C36.9263 24.8057 36.9349 24.6581 36.961 24.5192C36.9957 24.3803 37.0652 24.2501 37.1694 24.1459L39.1837 21.9666C39.6873 21.4196 39.9651 20.7076 39.9651 19.9696C39.9651 19.2316 39.6873 18.511 39.1837 17.9727L37.1694 15.7934C37.0739 15.6892 37.0044 15.5589 36.961 15.42C36.9263 15.2811 36.9176 15.1335 36.961 14.9946L37.6208 12.0946C37.7858 11.374 37.6729 10.6099 37.2996 9.97612C36.9263 9.33362 36.3272 8.85609 35.6239 8.63903L32.7847 7.7621C32.6458 7.71869 32.5243 7.64055 32.4201 7.54504C32.3159 7.44085 32.2464 7.3193 32.203 7.18038L31.3261 4.34122C31.109 3.63794 30.6315 3.03885 29.989 2.66551C29.3465 2.29216 28.5911 2.17929 27.8705 2.34426L24.9705 3.00412C24.8316 3.03885 24.684 3.03017 24.5451 3.00412C24.4062 2.96939 24.2759 2.89994 24.1717 2.79575L21.9925 0.78142C21.4455 0.277838 20.7335 0 19.9955 0C19.2575 0 18.5368 0.277838 17.9985 0.78142ZM19.1793 2.05774C19.4051 1.84936 19.6916 1.73649 19.9955 1.73649C20.2994 1.73649 20.5946 1.84936 20.8116 2.05774L22.9909 4.07206C23.3035 4.35858 23.6855 4.56696 24.0936 4.67983C24.5017 4.79271 24.9358 4.80139 25.3526 4.70588L28.2525 4.04602C28.5477 3.97656 28.8603 4.02865 29.1207 4.17625C29.3812 4.33254 29.5809 4.57565 29.6677 4.86217L30.5447 7.70132C30.6749 8.1094 30.892 8.47406 31.1958 8.77795C31.4997 9.08183 31.8644 9.29889 32.2725 9.42913L35.1116 10.3061C35.3981 10.3929 35.6499 10.5926 35.7975 10.8531C35.9451 11.1135 35.9972 11.4261 35.9278 11.7213L35.2679 14.6212C35.1724 15.038 35.1811 15.4721 35.294 15.8802C35.4068 16.2883 35.6152 16.6703 35.9017 16.9829L37.916 19.1621C38.1244 19.3879 38.2373 19.6744 38.2373 19.9783C38.2373 20.2822 38.1244 20.5774 37.916 20.7944L35.9017 22.9737C35.6152 23.2863 35.4068 23.6683 35.294 24.0764C35.1811 24.4845 35.1724 24.9186 35.2679 25.3354L35.9278 28.2353C35.9972 28.5305 35.9451 28.8431 35.7975 29.1035C35.6412 29.364 35.3981 29.5637 35.1116 29.6505L32.2725 30.5275C31.8644 30.6577 31.4997 30.8748 31.1958 31.1786C30.892 31.4825 30.6749 31.8472 30.5447 32.2553L29.6677 35.0944C29.5809 35.3809 29.3812 35.6327 29.1207 35.7803C28.8603 35.9279 28.5477 35.98 28.2525 35.9106L25.3526 35.2507C24.9358 35.1552 24.5017 35.1639 24.0936 35.2768C23.6855 35.3896 23.3035 35.598 22.9909 35.8845L20.8116 37.8989C20.5859 38.1072 20.2994 38.2201 19.9955 38.2201C19.6916 38.2201 19.3964 38.1072 19.1793 37.8989L17 35.8845C16.6875 35.598 16.3055 35.3896 15.8974 35.2768C15.4893 35.1639 15.0552 35.1552 14.6384 35.2507L11.7385 35.9106C11.4433 35.98 11.1307 35.9279 10.8702 35.7803C10.6098 35.6241 10.4101 35.3809 10.3233 35.0944L9.44633 32.2553C9.31609 31.8472 9.09903 31.4825 8.79514 31.1786C8.49126 30.8748 8.1266 30.6577 7.71852 30.5275L4.87936 29.6505C4.59284 29.5637 4.34105 29.364 4.19345 29.1035C4.04585 28.8431 3.99375 28.5305 4.06321 28.2353L4.72308 25.3354C4.81859 24.9186 4.8099 24.4845 4.69703 24.0764C4.58416 23.6683 4.37578 23.2863 4.08926 22.9737L2.07493 20.7944C1.86656 20.5687 1.75368 20.2822 1.75368 19.9783C1.75368 19.6744 1.86656 19.3792 2.07493 19.1621L4.08926 16.9829C4.37578 16.6703 4.58416 16.2883 4.69703 15.8802C4.8099 15.4721 4.81859 15.038 4.72308 14.6212L4.06321 11.7213C3.99375 11.4261 4.04585 11.1135 4.19345 10.8531C4.34973 10.5926 4.59284 10.3929 4.87936 10.3061L7.71852 9.42913C8.1266 9.29889 8.49126 9.08183 8.79514 8.77795C9.09903 8.47406 9.31609 8.1094 9.44633 7.70132L10.3233 4.86217C10.4101 4.57565 10.6098 4.32385 10.8702 4.17625C11.1307 4.02865 11.4433 3.97656 11.7385 4.04602L14.6384 4.70588C15.0552 4.80139 15.4893 4.79271 15.8974 4.67983C16.3055 4.56696 16.6875 4.35858 17 4.07206L19.1793 2.05774Z" fill="#FFB3B8"/>
<path fill-rule="evenodd" clip-rule="evenodd" d="M14.7775 10.4189C12.3725 10.4189 10.4189 12.3725 10.4189 14.7775C10.4189 17.1826 12.3725 19.1361 14.7775 19.1361C17.1826 19.1361 19.1361 17.1826 19.1361 14.7775C19.1361 12.3725 17.1826 10.4189 14.7775 10.4189ZM14.7775 12.1554C16.2275 12.1554 17.3996 13.3276 17.3996 14.7775C17.3996 16.2275 16.2275 17.3996 14.7775 17.3996C13.3276 17.3996 12.1554 16.2275 12.1554 14.7775C12.1554 13.3276 13.3276 12.1554 14.7775 12.1554Z" fill="#FFB3B8"/>
<path fill-rule="evenodd" clip-rule="evenodd" d="M25.1965 20.8379C22.7914 20.8379 20.8379 22.7914 20.8379 25.1965C20.8379 27.6015 22.7914 29.5551 25.1965 29.5551C27.6015 29.5551 29.5551 27.6015 29.5551 25.1965C29.5551 22.7914 27.6015 20.8379 25.1965 20.8379ZM25.1965 22.5744C26.6464 22.5744 27.8186 23.7465 27.8186 25.1965C27.8186 26.6464 26.6464 27.8186 25.1965 27.8186C23.7465 27.8186 22.5744 26.6464 22.5744 25.1965C22.5744 23.7465 23.7465 22.5744 25.1965 22.5744Z" fill="#FFB3B8"/>
<path fill-rule="evenodd" clip-rule="evenodd" d="M11.9035 29.2945L29.3031 11.8949C29.6417 11.5563 29.6417 11.0093 29.3031 10.6707C28.9645 10.3321 28.4175 10.3321 28.0789 10.6707L10.6793 28.0703C10.3406 28.4089 10.3406 28.9559 10.6793 29.2945C11.0179 29.6332 11.5649 29.6332 11.9035 29.2945Z" fill="#FFB3B8"/>
</g>
<defs>
<clipPath id="clip0_424_64">
<rect width="40" height="40" fill="white"/>
</clipPath>
</defs>
</svg>
