<svg width="42" height="33" viewBox="0 0 42 33" fill="none" xmlns="http://www.w3.org/2000/svg">
<path d="M42 5.14292L42 2.37734C42 1.06405 40.9301 4.25773e-08 39.6203 4.12148e-08L8.16107 8.48951e-09C6.84647 7.122e-09 5.78136 1.06885 5.78136 2.37734L5.78136 5.14292L5.78136 11.5033L5.78136 13.8039C2.37012 15.424 -1.96545e-08 18.8941 -2.38327e-08 22.9107C-2.96214e-08 28.4754 4.52913 33 10.0994 33C15.257 33 19.5175 29.1129 20.1172 24.1233L39.6155 24.1233C40.9253 24.1233 41.9952 23.0545 41.9952 21.746L41.9952 11.4985L41.9952 5.14292L42 5.14292ZM40.6854 10.19L7.09116 10.19L7.09116 6.45142L40.6854 6.45142L40.6854 10.19ZM7.09116 2.37734C7.09116 1.7878 7.57094 1.3085 8.16107 1.3085L39.6203 1.3085C40.2104 1.3085 40.6854 1.7878 40.6854 2.37734L40.6854 5.14292L7.09116 5.14292L7.09116 2.37734ZM10.0994 31.6867C5.2536 31.6867 1.3098 27.7468 1.3098 22.9059C1.3098 18.3956 4.73064 14.6763 9.11583 14.1874C9.14462 14.1826 9.17341 14.1778 9.20219 14.173C9.49486 14.1442 9.79232 14.1298 10.0946 14.1298C14.9404 14.1298 18.8842 18.0697 18.8842 22.9107C18.8842 27.7516 14.9452 31.6867 10.0994 31.6867ZM40.6854 21.7412C40.6854 22.3307 40.2056 22.81 39.6203 22.81L20.1988 22.81C20.1988 22.6471 20.1796 22.4889 20.17 22.3259C20.1604 22.163 20.1556 21.9952 20.1412 21.8322C20.122 21.6597 20.0884 21.4871 20.0644 21.3146C20.0404 21.1564 20.0212 20.9935 19.9877 20.8353C19.9541 20.6675 19.9013 20.5046 19.8581 20.3416C19.8149 20.1834 19.7814 20.0253 19.7334 19.8767C19.6806 19.7185 19.6182 19.5603 19.5607 19.407C19.5031 19.2584 19.4551 19.105 19.3927 18.9564C19.3256 18.8031 19.2488 18.6593 19.1768 18.5107C19.1049 18.3669 19.0425 18.2183 18.9657 18.0793C18.889 17.9355 18.7978 17.8013 18.7114 17.6623C18.6299 17.5233 18.5483 17.3843 18.4572 17.2549C18.366 17.1207 18.2653 16.9961 18.1645 16.8667C18.0685 16.7373 17.9774 16.6078 17.8718 16.4832C17.7663 16.3586 17.6559 16.2436 17.5456 16.1237C17.4352 16.0039 17.3345 15.8841 17.2193 15.7691C17.1042 15.654 16.9794 15.5486 16.8595 15.4431C16.7395 15.3377 16.6244 15.2227 16.5045 15.122C16.3797 15.0166 16.2454 14.9255 16.111 14.8296C15.9815 14.7338 15.8615 14.6331 15.7272 14.5468C15.5881 14.4558 15.4441 14.3743 15.3002 14.288C15.1659 14.2065 15.0363 14.1203 14.8972 14.0436C14.7485 13.9621 14.5901 13.895 14.4366 13.8231C14.2975 13.756 14.1631 13.6841 14.0192 13.6218C13.8561 13.5499 13.6833 13.4972 13.5106 13.4349C13.3715 13.3869 13.2372 13.3294 13.0932 13.2815C12.9061 13.224 12.719 13.1808 12.5271 13.1377C12.3927 13.1041 12.2632 13.061 12.1289 13.037C11.9178 12.9939 11.6971 12.9699 11.4812 12.9364C11.366 12.922 11.2509 12.8932 11.1309 12.8837C10.7951 12.8501 10.4496 12.8309 10.1042 12.8309C9.79233 12.8309 9.48047 12.8501 9.16861 12.8789C9.08705 12.8885 9.00548 12.898 8.92392 12.9076C8.68403 12.9364 8.44414 12.9699 8.20425 13.0179C8.13708 13.0322 8.06511 13.0418 7.99794 13.0562C7.69568 13.1185 7.39342 13.1952 7.09596 13.2863L7.09596 11.5176L40.6902 11.5176L40.6902 21.7412L40.6854 21.7412ZM32.7978 21.0031L37.0583 21.0031C37.8019 21.0031 38.4016 20.3991 38.4016 19.661L38.4016 15.4048C38.4016 14.6619 37.7971 14.0627 37.0583 14.0627L32.7978 14.0627C32.0541 14.0627 31.4544 14.6667 31.4544 15.4048L31.4544 19.661C31.4496 20.3991 32.0541 21.0031 32.7978 21.0031ZM32.7978 15.3664L37.0583 15.3664L37.0918 15.4L37.0583 19.6898L32.7642 19.6562L32.7978 15.3664ZM15.4058 19.5268C15.66 19.7808 15.66 20.1978 15.4058 20.4519L9.57163 26.285C9.44209 26.4144 9.27416 26.4767 9.10624 26.4767C8.93831 26.4767 8.77039 26.4144 8.64085 26.285L4.79781 22.4458C4.54352 22.1917 4.54352 21.7747 4.79781 21.5207C5.05209 21.2667 5.4695 21.2667 5.72378 21.5207L9.10144 24.895L14.475 19.5268C14.7341 19.2728 15.1467 19.2728 15.4058 19.5268Z" fill="#FFB3B8"/>
</svg>
