<svg width="50" height="50" viewBox="0 0 50 50" fill="none" xmlns="http://www.w3.org/2000/svg">
<g clip-path="url(#clip0_664_515)">
<path d="M47.8577 19.2075L46.6617 17.8151C45.9298 16.9583 45.4835 15.9051 45.3943 14.7626L45.2515 12.924C44.8945 8.53269 41.4493 5.0875 37.058 4.73048L35.2193 4.58768C34.0947 4.49842 33.0416 4.05215 32.1669 3.32027L30.7745 2.12427C27.4186 -0.731853 22.5453 -0.731853 19.1894 2.12427L17.797 3.32027C16.9402 4.05215 15.887 4.49842 14.7445 4.58768L12.9237 4.73048C8.53245 5.0875 5.08725 8.51484 4.73024 12.924L4.58743 14.7448C4.49818 15.8694 4.05191 16.9226 3.32003 17.7972L2.12403 19.1896C-0.732097 22.5455 -0.732097 27.4188 2.12403 30.7748L3.32003 32.1671C4.05191 33.024 4.49818 34.0771 4.58743 35.2196L4.73024 37.0582C5.08725 41.4495 8.53245 44.8947 12.9237 45.2517L14.7624 45.3945C15.887 45.4838 16.9402 45.9301 17.8148 46.6619L19.2072 47.8579C20.8852 49.286 22.938 50 24.9909 50C27.0437 50 29.0965 49.286 30.7745 47.8579L32.1669 46.6619C33.0237 45.9301 34.0769 45.4838 35.2193 45.3945L37.0401 45.2517C41.4314 44.8947 44.8766 41.4674 45.2336 37.0582L45.3764 35.2374C45.4657 34.1128 45.912 33.0597 46.6438 32.185L47.8398 30.7926C50.696 27.4367 50.696 22.5634 47.8398 19.2075H47.8577ZM45.1265 28.472L43.9305 29.8644C42.6988 31.3103 41.9848 33.0597 41.8241 34.9518L41.6813 36.7726C41.4671 39.4145 39.4143 41.4674 36.7724 41.6816L34.9516 41.8244C33.0594 41.9672 31.31 42.6991 29.8641 43.9308L28.4718 45.1268C26.4546 46.8404 23.5271 46.8404 21.5278 45.1268L20.1354 43.9308C18.6895 42.6991 16.9402 41.985 15.048 41.8244L13.2094 41.6816C10.5674 41.4674 8.49675 39.4145 8.30039 36.7726L8.15758 34.934C7.99693 33.0418 7.2829 31.2924 6.05119 29.8644L4.85519 28.472C3.14152 26.4549 3.14152 23.5452 4.85519 21.5281L6.05119 20.1357C7.2829 18.6898 8.01478 16.9404 8.15758 15.0482L8.30039 13.2274C8.5146 10.5855 10.5853 8.53269 13.2094 8.31849L15.0301 8.17568C16.9223 8.03287 18.6717 7.30099 20.1176 6.06929L21.51 4.87329C22.5096 4.01645 23.7592 3.58803 24.9909 3.58803C26.2226 3.58803 27.4543 4.01645 28.4718 4.87329L29.8641 6.06929C31.31 7.30099 33.0594 8.01502 34.9337 8.17568L36.7724 8.31849C39.4143 8.53269 41.485 10.6034 41.6813 13.2274L41.8241 15.0661C41.9669 16.9583 42.6988 18.7076 43.9305 20.1535L45.1265 21.5459C46.8402 23.563 46.8402 26.4727 45.1265 28.4899V28.472Z" fill="#5F352F"/>
<path d="M36.2725 23.2061H14.6195C13.6337 23.2061 12.8345 24.0053 12.8345 24.9911C12.8345 25.977 13.6337 26.7762 14.6195 26.7762H36.2725C37.2584 26.7762 38.0576 25.977 38.0576 24.9911C38.0576 24.0053 37.2584 23.2061 36.2725 23.2061Z" fill="#5F352F"/>
<path d="M34.9955 23.7395L28.293 30.442C27.5959 31.1391 27.5959 32.2693 28.293 32.9665C28.9901 33.6636 30.1204 33.6636 30.8175 32.9665L37.52 26.264C38.2171 25.5669 38.2171 24.4366 37.52 23.7395C36.8229 23.0424 35.6926 23.0424 34.9955 23.7395Z" fill="#5F352F"/>
<path d="M28.2936 19.5539L34.9961 26.2564C35.6932 26.9536 36.8234 26.9536 37.5205 26.2564C38.2177 25.5593 38.2177 24.4291 37.5205 23.732L30.818 17.0295C30.1209 16.3323 28.9907 16.3323 28.2936 17.0295C27.5965 17.7266 27.5965 18.8568 28.2936 19.5539Z" fill="#5F352F"/>
</g>
<defs>
<clipPath id="clip0_664_515">
<rect width="50" height="50" fill="white"/>
</clipPath>
</defs>
</svg>
