<svg width="41" height="40" viewBox="0 0 41 40" fill="none" xmlns="http://www.w3.org/2000/svg">
<path d="M0.600098 40L3.41676 29.7333C1.68343 26.7167 0.766764 23.3167 0.766764 19.8167C0.766764 8.88333 9.66676 0 20.5834 0C25.8834 0 30.8668 2.06667 34.6001 5.81667C38.3501 9.56667 40.4001 14.55 40.4001 19.8333C40.4001 30.7667 31.5001 39.65 20.5834 39.65C17.2668 39.65 14.0001 38.8167 11.1001 37.2333C11.1001 37.25 0.600098 40 0.600098 40ZM11.6001 33.65C14.4001 35.3167 17.0668 36.3 20.5834 36.3C29.6668 36.3 37.0668 28.9167 37.0668 19.8167C37.0668 10.7167 29.7001 3.33333 20.6001 3.33333C11.5168 3.35 4.11676 10.7333 4.11676 19.8167C4.11676 23.5167 5.2001 26.3 7.03343 29.2L5.36676 35.2833L11.6001 33.65ZM30.5668 24.55C30.4501 24.35 30.1168 24.2167 29.6168 23.9667C29.1168 23.7167 26.6834 22.5167 26.2334 22.35C25.7834 22.1833 25.4501 22.1 25.1168 22.6C24.7834 23.1 23.8334 24.2167 23.5501 24.5333C23.2668 24.85 22.9668 24.9 22.4834 24.65C21.9834 24.4 20.3834 23.8833 18.5001 22.1833C17.0334 20.8667 16.0334 19.25 15.7501 18.75C15.4668 18.25 15.7168 17.9833 15.9668 17.7333C16.1834 17.5167 16.4668 17.15 16.7168 16.8667C16.9668 16.5833 17.0501 16.3667 17.2168 16.05C17.3834 15.7167 17.3001 15.4333 17.1834 15.1833C17.0668 14.9333 16.0668 12.5 15.6501 11.5C15.2501 10.5333 14.8334 10.6667 14.5334 10.65H13.5834C13.2501 10.6333 12.7168 10.75 12.2668 11.25C11.8168 11.75 10.5334 12.95 10.5334 15.3833C10.5334 17.8167 12.3168 20.1833 12.5501 20.5C12.8001 20.8333 16.0501 25.8333 21.0168 27.9833C22.2001 28.5 23.1168 28.8 23.8334 29.0333C25.0168 29.4167 26.1001 29.35 26.9501 29.2333C27.9001 29.1 29.8834 28.0333 30.3001 26.8833C30.7168 25.7333 30.7168 24.7333 30.5834 24.5333L30.5668 24.55Z" fill="#5F352F"/>
</svg>
