<svg width="1493" height="1070" viewBox="0 0 1493 1070" fill="none" xmlns="http://www.w3.org/2000/svg">
<g clip-path="url(#clip0_594_407)">
<path d="M1479.82 1044.55C1479.82 1037.28 1485.72 1031.38 1493 1031.38V1009.2C1485.72 1009.2 1479.82 1003.3 1479.82 996.022C1479.82 988.745 1485.72 982.844 1493 982.844V960.666C1485.72 960.666 1479.82 954.766 1479.82 947.489C1479.82 940.212 1485.72 934.311 1493 934.311V912.133C1485.72 912.133 1479.82 906.233 1479.82 898.956C1479.82 891.679 1485.72 885.778 1493 885.778V863.6C1485.72 863.6 1479.82 857.699 1479.82 850.423C1479.82 843.146 1485.72 837.245 1493 837.245V815.067C1485.72 815.067 1479.82 809.167 1479.82 801.89C1479.82 794.613 1485.72 788.712 1493 788.712V766.534C1485.72 766.534 1479.82 760.634 1479.82 753.357C1479.82 746.08 1485.72 740.179 1493 740.179V718.001C1485.72 718.001 1479.82 712.101 1479.82 704.824C1479.82 697.547 1485.72 691.646 1493 691.646V669.468C1485.72 669.468 1479.82 663.568 1479.82 656.291C1479.82 649.014 1485.72 643.113 1493 643.113V620.935C1485.72 620.935 1479.82 615.035 1479.82 607.758C1479.82 600.481 1485.72 594.58 1493 594.58V572.402C1485.72 572.402 1479.82 566.502 1479.82 559.225C1479.82 551.948 1485.72 546.047 1493 546.047V523.869C1485.72 523.869 1479.82 517.969 1479.82 510.692C1479.82 503.415 1485.72 497.514 1493 497.514V475.336C1485.72 475.336 1479.82 469.436 1479.82 462.159C1479.82 454.882 1485.72 448.981 1493 448.981V426.803C1485.72 426.803 1479.82 420.903 1479.82 413.626C1479.82 406.349 1485.72 400.448 1493 400.448V378.27C1485.72 378.27 1479.82 372.37 1479.82 365.093C1479.82 357.816 1485.72 351.915 1493 351.915V329.737C1485.72 329.737 1479.82 323.837 1479.82 316.56C1479.82 309.283 1485.72 303.382 1493 303.382V281.204C1485.72 281.204 1479.82 275.304 1479.82 268.027C1479.82 260.75 1485.72 254.849 1493 254.849V232.671C1485.72 232.671 1479.82 226.771 1479.82 219.494C1479.82 212.217 1485.72 206.316 1493 206.316V184.138C1485.72 184.138 1479.82 178.238 1479.82 170.961C1479.82 163.684 1485.72 157.783 1493 157.783V135.605C1485.72 135.605 1479.82 129.705 1479.82 122.428C1479.82 115.151 1485.72 109.25 1493 109.25V87.0721C1485.72 87.0721 1479.82 81.1716 1479.82 73.8946C1479.82 66.6177 1485.72 60.7171 1493 60.7171V38.5392C1485.72 38.5392 1479.82 32.6386 1479.82 25.3616C1479.82 18.0847 1485.72 12.1841 1493 12.1841V0H0V8.67729C7.27942 8.67729 13.182 14.5779 13.182 21.8548C13.182 29.1318 7.27942 35.0204 0 35.0204V57.1983C7.27942 57.1983 13.182 63.0989 13.182 70.3758C13.182 77.6528 7.27942 83.5533 0 83.5533V105.731C7.27942 105.731 13.182 111.632 13.182 118.909C13.182 126.186 7.27942 132.086 0 132.086V154.264C7.27942 154.264 13.182 160.165 13.182 167.442C13.182 174.719 7.27942 180.619 0 180.619V202.797C7.27942 202.797 13.182 208.698 13.182 215.975C13.182 223.252 7.27942 229.152 0 229.152V251.33C7.27942 251.33 13.182 257.231 13.182 264.508C13.182 271.785 7.27942 277.685 0 277.685V299.863C7.27942 299.863 13.182 305.764 13.182 313.041C13.182 320.318 7.27942 326.218 0 326.218V348.396C7.27942 348.396 13.182 354.297 13.182 361.574C13.182 368.851 7.27942 374.751 0 374.751V396.929C7.27942 396.929 13.182 402.83 13.182 410.107C13.182 417.384 7.27942 423.284 0 423.284V445.462C7.27942 445.462 13.182 451.363 13.182 458.64C13.182 465.917 7.27942 471.817 0 471.817V493.995C7.27942 493.995 13.182 499.896 13.182 507.173C13.182 514.45 7.27942 520.35 0 520.35V542.528C7.27942 542.528 13.182 548.429 13.182 555.706C13.182 562.983 7.27942 568.883 0 568.883V591.061C7.27942 591.061 13.182 596.962 13.182 604.239C13.182 611.516 7.27942 617.416 0 617.416V639.594C7.27942 639.594 13.182 645.495 13.182 652.772C13.182 660.049 7.27942 665.949 0 665.949V688.127C7.27942 688.127 13.182 694.028 13.182 701.305C13.182 708.582 7.27942 714.482 0 714.482V736.66C7.27942 736.66 13.182 742.561 13.182 749.838C13.182 757.115 7.27942 763.015 0 763.015V785.193C7.27942 785.193 13.182 791.094 13.182 798.371C13.182 805.648 7.27942 811.548 0 811.548V833.726C7.27942 833.726 13.182 839.627 13.182 846.904C13.182 854.181 7.27942 860.081 0 860.081V882.259C7.27942 882.259 13.182 888.16 13.182 895.437C13.182 902.714 7.27942 908.614 0 908.614V930.792C7.27942 930.792 13.182 936.693 13.182 943.97C13.182 951.247 7.27942 957.147 0 957.147V979.325C7.27942 979.325 13.182 985.226 13.182 992.503C13.182 999.78 7.27942 1005.68 0 1005.68V1027.86C7.27942 1027.86 13.182 1033.76 13.182 1041.04C13.182 1048.31 7.27942 1054.21 0 1054.21V1070.07H1493V1057.8C1485.72 1057.8 1479.82 1051.9 1479.82 1044.63V1044.55Z" fill="#F3E9E7"/>
</g>
<defs>
<clipPath id="clip0_594_407">
<rect width="1493" height="1070" fill="white"/>
</clipPath>
</defs>
</svg>
