<svg width="1495" height="213" viewBox="0 0 1495 213" fill="none" xmlns="http://www.w3.org/2000/svg">
<g clip-path="url(#clip0_313_151)">
<path d="M68.4483 132.487C65.7812 133.445 63.3785 133.745 61.2366 133.396C59.0947 133.047 57.0906 132.602 55.228 132.056C53.4996 131.529 51.7972 131.117 50.1247 130.824C48.4484 130.53 46.6194 130.742 44.6339 131.451C42.5925 132.182 41.0392 132.899 39.9812 133.597C38.9196 134.295 37.7499 135.45 36.4759 137.057L32.9669 135.06C33.183 133.705 33.6263 132.364 34.3005 131.039C34.9747 129.713 35.9358 128.473 37.1874 127.322C32.0915 128.637 27.3383 128.603 22.9315 127.215C18.5248 125.826 14.6022 123.261 11.1677 119.511C7.73318 115.765 4.97662 111.005 2.89429 105.243C0.543763 98.746 -0.376333 92.8354 0.137729 87.5114C0.651791 82.1912 2.43611 77.606 5.50185 73.7634C8.5676 69.9208 12.736 67.0509 18.007 65.1611C23.5052 63.1897 28.6868 62.7665 33.548 63.8951C38.4055 65.0238 42.7304 67.5113 46.5225 71.3576C50.3109 75.2039 53.3208 80.2049 55.5447 86.3642C58.3198 94.0495 59.0611 100.936 57.7648 107.018C56.4685 113.099 53.481 118 48.806 121.72C50.5717 121.468 52.3858 121.393 54.2483 121.494C56.1109 121.594 57.8468 121.75 59.4634 121.969C61.0801 122.188 62.3653 122.381 63.3226 122.548C64.2576 122.656 65.215 122.648 66.1947 122.522C67.1706 122.396 68.1727 122.147 69.1934 121.783C70.0986 121.456 70.9963 121.055 71.8829 120.58C72.7657 120.101 73.6039 119.533 74.3861 118.869C74.7922 119.106 75.2466 119.518 75.7458 120.105C76.245 120.692 76.5765 121.211 76.7404 121.664C77.0682 122.567 77.0608 123.703 76.7218 125.069C76.3828 126.435 75.5558 127.787 74.2446 129.119C72.9333 130.452 71 131.573 68.4483 132.491V132.487ZM37.9883 120.239C39.2921 119.771 40.4469 118.973 41.4489 117.848C42.451 116.723 43.1476 115.1 43.535 112.98C43.9224 110.864 43.8293 108.072 43.2519 104.608C42.6745 101.144 41.4564 96.8414 39.6013 91.6993C37.2955 85.3135 35.0604 80.5465 32.8999 77.3944C30.7356 74.2423 28.6309 72.2709 26.5821 71.4727C24.5333 70.6744 22.5143 70.6336 20.5326 71.3427C19.2288 71.8105 18.074 72.6088 17.072 73.7337C16.0699 74.8586 15.3733 76.4811 14.9859 78.601C14.5985 80.721 14.6879 83.4943 15.2541 86.9323C15.8203 90.3702 17.0347 94.6583 18.8898 99.8004C21.1956 106.19 23.4344 110.972 25.6061 114.15C27.7779 117.332 29.9049 119.311 31.9798 120.098C34.0584 120.885 36.0587 120.933 37.9883 120.242V120.239Z" fill="#5F352F"/>
<path d="M97.7165 107.846C90.311 109.999 83.848 109.687 78.3274 106.91C72.8068 104.137 68.8992 98.8277 66.6045 90.9828L58.4541 63.1303C57.9996 61.5747 57.2695 60.5834 56.2637 60.1527C55.2579 59.7257 53.7716 59.7963 51.8085 60.368C51.1678 58.1776 51.3019 56.169 52.2108 54.3387L73.9094 48.0308C75.6602 49.0852 76.8597 50.7077 77.5004 52.9018C75.5336 53.4736 74.241 54.2087 73.6263 55.1072C73.008 56.0056 72.9297 57.2345 73.3842 58.7902L82.0636 88.4582C83.1961 92.3231 84.9841 95.3377 87.4389 97.5022C89.8938 99.6667 93.0303 100.194 96.8485 99.0838C99.4523 98.3265 101.341 97.1681 102.518 95.6051C103.691 94.042 104.34 92.2302 104.455 90.1623C104.571 88.0943 104.302 85.9372 103.643 83.6874L94.5576 52.6345C94.1031 51.0789 93.2985 50.1062 92.1512 49.7201C91.0039 49.334 89.3276 49.4602 87.1298 50.0988C86.8243 49.0592 86.6939 48.0197 86.7349 46.9764C86.7722 45.9331 87.0106 44.9716 87.4464 44.0954L106.537 38.5449C108.232 39.6179 109.402 41.2478 110.043 43.4382C107.845 44.0768 106.366 44.8676 105.602 45.8069C104.843 46.7462 104.69 47.9974 105.144 49.553L113.041 76.5405C115.37 84.4967 115.291 91.1536 112.811 96.5035C110.326 101.857 105.297 105.633 97.7165 107.835V107.846Z" fill="#5F352F"/>
<path d="M174.442 88.6624C174.062 88.6253 173.589 88.5845 173.019 88.5325C172.449 88.4805 171.581 88.3431 170.415 88.1241L129.667 97.6471C128.899 97.0234 128.214 96.2734 127.607 95.3972C126.996 94.521 126.579 93.5854 126.344 92.5941C128.281 92.1412 129.648 91.4506 130.453 90.5225C131.257 89.5943 131.466 88.3134 131.078 86.6724L121.401 45.5323C121.017 43.895 120.272 42.8517 119.177 42.395C118.078 41.9421 116.562 41.9421 114.628 42.395C114.394 41.4 114.353 40.3753 114.509 39.3209C114.662 38.2665 114.945 37.2938 115.351 36.3954L149.499 28.4131C150.445 27.7003 151.533 27.058 152.762 26.4936C153.991 25.9293 155.161 25.5172 156.279 25.2573C157.027 26.0704 157.947 27.2882 159.043 28.9143C160.138 30.5405 161.155 32.1666 162.097 33.8002C163.04 35.4301 163.625 36.7443 163.859 37.7393C163.498 38.3185 162.861 38.9608 161.944 39.6662C161.028 40.3753 160.082 41.0251 159.11 41.6228C158.137 42.2205 157.318 42.6883 156.655 43.0299C155.556 41.2515 153.999 39.7033 151.987 38.3816C149.972 37.0636 147.793 36.6775 145.45 37.227L135.504 39.5511L139.858 58.0588L146.195 56.5775C147.838 56.1951 149.089 55.3931 149.946 54.1754C150.803 52.9576 150.959 51.1792 150.408 48.8402C153.049 48.2239 155.571 48.2833 157.97 49.0147L161.807 65.332C160.101 67.0249 157.895 68.187 155.198 68.8182C154.647 66.4792 153.705 64.9087 152.375 64.1105C151.041 63.3123 149.551 63.1044 147.912 63.4868L141.486 64.9867L146.336 85.5995L156.986 83.112C159.568 82.5105 161.501 80.9326 162.79 78.3783C164.079 75.8277 164.582 73.0395 164.306 70.0174L173.723 67.8157C173.928 68.6919 174.118 70.0842 174.286 71.9888C174.453 73.8934 174.599 75.9576 174.722 78.1815C174.841 80.4054 174.882 82.4808 174.837 84.4003C174.792 86.3234 174.662 87.7417 174.446 88.655L174.442 88.6624Z" fill="#5F352F"/>
<path d="M226.258 78.9835C221.207 79.83 216.308 79.4328 211.574 77.7918C206.835 76.1507 202.749 73.1361 199.322 68.744C195.891 64.3556 193.563 58.5192 192.334 51.2313C191.153 44.244 191.343 38.2109 192.9 33.1357C194.457 28.0642 197.128 23.9765 200.916 20.8727C204.701 17.7726 209.357 15.7566 214.885 14.8322C216.193 14.6131 217.709 14.5426 219.434 14.6168C221.158 14.6948 222.693 14.925 224.041 15.3074C224.585 14.9139 225.342 14.4943 226.306 14.0599C227.271 13.6256 228.255 13.2023 229.253 12.7902C230.251 12.3818 231.048 12.1219 231.644 12.0254C232.736 13.7926 233.678 15.9311 234.472 18.4483C235.261 20.9655 235.932 23.4716 236.476 25.9702C237.02 28.4688 237.441 30.6036 237.742 32.382L227.67 34.0713C226.545 30.3029 224.958 27.3402 222.916 25.1831C220.871 23.0298 218.543 22.1721 215.928 22.6102C212.482 23.1894 209.92 25.2945 208.24 28.9255C206.56 32.5565 206.347 38.0772 207.595 45.4803C208.623 51.5803 210.277 56.3139 212.557 59.6776C214.837 63.0413 217.474 65.28 220.473 66.3901C223.471 67.5002 226.545 67.7935 229.696 67.2663C232.43 66.8097 234.658 65.9038 236.386 64.5449C238.111 63.1898 239.266 61.8866 239.851 60.628C240.711 61.0327 241.46 61.7456 242.089 62.7665C242.719 63.7875 243.106 64.712 243.244 65.5436C243.475 66.9062 242.998 68.5249 241.818 70.3961C240.637 72.271 238.759 74.0011 236.185 75.5901C233.611 77.1792 230.303 78.3115 226.262 78.9909L226.258 78.9835Z" fill="#5F352F"/>
<path d="M250.404 73.6855C248.918 72.3452 248.039 70.5075 247.774 68.1796C249.752 67.9568 251.104 67.4705 251.838 66.7205C252.572 65.9743 252.844 64.7639 252.654 63.0932L247.856 21.0175C247.666 19.3468 247.126 18.2144 246.239 17.6204C245.353 17.0263 243.922 16.8407 241.944 17.0635C241.687 14.795 242.131 12.8422 243.278 11.2011L265.196 8.71737C265.874 9.36709 266.455 10.1765 266.928 11.1529C267.405 12.1256 267.7 13.1206 267.815 14.1342C265.837 14.3569 264.485 14.8581 263.755 15.6378C263.025 16.4175 262.756 17.6426 262.946 19.3096L264.854 36.0501L284.436 33.8336L282.529 17.0932C282.339 15.4225 281.784 14.2901 280.868 13.6998C279.951 13.1095 278.536 12.9201 276.617 13.1392C276.36 10.8707 276.804 8.91785 277.951 7.27685L299.959 4.78564C301.445 6.12963 302.32 7.93399 302.577 10.2024C300.659 10.4178 299.307 10.9227 298.517 11.7061C297.727 12.4894 297.426 13.7183 297.619 15.3891L302.417 57.4648C302.607 59.1355 303.174 60.253 304.116 60.8099C305.058 61.3706 306.489 61.5376 308.404 61.3223C308.668 63.6501 308.228 65.6364 307.081 67.2737L285.073 69.7649C283.587 68.4246 282.708 66.5869 282.443 64.259C284.358 64.0437 285.699 63.5573 286.463 62.8074C287.226 62.0574 287.513 60.8471 287.323 59.1727L285.293 41.3555L265.71 43.572L267.74 61.3854C267.93 63.0561 268.467 64.1736 269.35 64.738C270.233 65.3023 271.663 65.4731 273.637 65.2503C273.76 66.3233 273.701 67.3888 273.455 68.4432C273.213 69.4976 272.829 70.4184 272.315 71.2017L250.396 73.6818L250.404 73.6855Z" fill="#5F352F"/>
<path d="M360.641 65.577C360.272 65.4768 359.814 65.3543 359.262 65.2057C358.711 65.0572 357.88 64.7714 356.77 64.3555L314.982 66.7391C314.334 65.9965 313.786 65.1389 313.339 64.1699C312.889 63.2046 312.639 62.2096 312.579 61.1886C314.565 61.0772 316.033 60.6317 316.986 59.8558C317.936 59.0798 318.365 57.8509 318.268 56.1728L315.846 13.9857C315.749 12.3075 315.198 11.1492 314.2 10.5143C313.198 9.87943 311.704 9.61955 309.719 9.73093C309.659 8.71365 309.797 7.69638 310.132 6.68282C310.467 5.66926 310.911 4.75965 311.469 3.94286L346.489 1.94544C347.543 1.40339 348.728 0.961583 350.035 0.616304C351.343 0.271025 352.568 0.0668282 353.712 0C354.308 0.928169 355.004 2.28701 355.802 4.07652C356.599 5.86603 357.318 7.6444 357.966 9.41164C358.61 11.1789 358.96 12.5748 359.02 13.5921C358.566 14.1007 357.824 14.6242 356.8 15.1626C355.776 15.7046 354.729 16.1836 353.667 16.6031C352.605 17.0263 351.719 17.3456 351.007 17.5684C350.233 15.6267 348.966 13.8371 347.212 12.1887C345.457 10.544 343.375 9.79033 340.968 9.9277L330.769 10.5106L331.857 29.4898L338.353 29.1185C340.037 29.022 341.408 28.4465 342.466 27.3958C343.52 26.3414 343.982 24.6188 343.844 22.2167C346.552 22.0607 349.026 22.5545 351.264 23.6906L352.226 40.4236C350.251 41.801 347.882 42.5658 345.114 42.7255C344.977 40.3271 344.321 38.6193 343.144 37.602C341.967 36.5847 340.536 36.1281 338.852 36.2209L332.263 36.5959L333.477 57.7358L344.399 57.1121C347.048 56.9599 349.223 55.7384 350.933 53.444C352.643 51.1496 353.622 48.495 353.872 45.4692L363.527 44.9197C363.58 45.8181 363.527 47.2215 363.36 49.1261C363.196 51.0308 362.984 53.0876 362.719 55.3003C362.455 57.5131 362.134 59.5625 361.758 61.4485C361.382 63.3346 361.009 64.7082 360.637 65.5733L360.641 65.577Z" fill="#5F352F"/>
<path d="M370.065 64.0177C368.713 62.5401 368.02 60.628 367.983 58.2853C369.972 58.2519 371.369 57.9029 372.17 57.2272C372.974 56.5552 373.362 55.3746 373.332 53.6928L372.643 11.3534C372.617 9.67155 372.188 8.49091 371.365 7.81521C370.542 7.1395 369.134 6.8165 367.145 6.8462C367.107 4.5629 367.741 2.66201 369.041 1.13981L391.004 0.787109C391.618 1.49623 392.114 2.36128 392.494 3.37485C392.874 4.39212 393.071 5.40939 393.086 6.43038C391.097 6.46379 389.704 6.83135 388.899 7.53304C388.098 8.23845 387.711 9.43022 387.737 11.1121L388.426 53.4514C388.452 55.1333 388.881 56.2991 389.704 56.9451C390.527 57.5948 391.935 57.8992 393.924 57.8695C393.943 58.9499 393.779 60.0043 393.433 61.0327C393.086 62.0611 392.621 62.9373 392.028 63.6687L370.065 64.0214V64.0177Z" fill="#5F352F"/>
<path d="M447.39 65.3023C443.535 65.1983 440.6 64.4743 438.588 63.1267C436.573 61.7827 435.113 60.0154 434.211 57.8249C433.306 55.6382 432.527 53.2435 431.875 50.6409C431.499 48.8885 431.022 47.073 430.441 45.1944C429.86 43.3158 429.167 41.6451 428.363 40.1823C427.558 38.7195 426.56 37.7616 425.364 37.3087L419.4 37.1491L418.953 53.6296C418.908 55.3115 419.478 56.5144 420.663 57.2346C421.848 57.9586 423.315 58.341 425.062 58.3893C425.003 60.5501 424.287 62.425 422.92 64.0103L400.238 63.4014C398.897 61.6824 398.257 59.7741 398.312 57.6727C400.361 57.7284 401.859 57.424 402.812 56.7557C403.766 56.0911 404.265 54.9179 404.31 53.2361L405.457 10.9041C405.502 9.2223 405.051 8.0231 404.109 7.30655C403.162 6.59001 401.665 6.20389 399.62 6.1482C399.646 5.12721 399.825 4.10994 400.156 3.09638C400.484 2.08282 400.961 1.22519 401.583 0.51978C404.172 0.590321 406.586 0.608885 408.817 0.579183C411.048 0.549482 413.097 0.530918 414.967 0.51978C416.599 0.441814 418.242 0.397262 419.899 0.382411C421.557 0.367561 423.319 0.382411 425.189 0.434389C431.455 0.601459 436.465 1.45909 440.223 3.00356C443.978 4.54803 446.664 6.63456 448.284 9.25942C449.901 11.888 450.661 14.9732 450.564 18.5151C450.449 22.8367 449.208 26.3192 446.843 28.9626C444.481 31.6023 440.875 33.3695 436.029 34.2606C438.659 35.0514 441.184 36.9671 443.606 40.0078C446.023 43.0485 447.811 46.6572 448.966 50.834C449.57 53.0727 450.382 54.7806 451.406 55.9463C452.431 57.1158 453.783 57.8435 455.463 58.1294L455.34 62.6329C454.524 63.7541 453.392 64.4892 451.935 64.8382C450.479 65.1909 448.966 65.3431 447.402 65.3023H447.39ZM423.539 31.0417C427.212 31.1419 430.091 30.0764 432.17 27.8488C434.248 25.6212 435.34 22.677 435.44 19.0126C435.541 15.2888 434.744 12.43 433.049 10.4289C431.354 8.43149 428.549 7.37709 424.634 7.27314C424.03 7.25829 423.263 7.26571 422.328 7.30284C421.393 7.33626 420.682 7.41051 420.197 7.51446L419.568 30.7521C419.985 30.8227 420.648 30.8858 421.553 30.9415C422.455 30.9971 423.118 31.0306 423.539 31.0417Z" fill="#5F352F"/>
<path d="M458.629 65.4657C457.414 63.873 456.889 61.909 457.057 59.5737C459.042 59.7148 460.462 59.4846 461.322 58.8831C462.179 58.2817 462.671 57.1419 462.79 55.4638L465.818 13.2246C465.937 11.5465 465.617 10.3362 464.857 9.58993C464.094 8.84368 462.723 8.39816 460.737 8.25708C460.901 5.98121 461.695 4.13972 463.129 2.73633L485.04 4.29565C485.587 5.05675 486.008 5.96264 486.295 7.00591C486.582 8.05288 486.69 9.08129 486.615 10.0986C484.63 9.95749 483.211 10.2025 482.346 10.8337C481.486 11.4648 480.994 12.6195 480.875 14.2976L477.847 56.5367C477.727 58.2149 478.048 59.4103 478.811 60.1269C479.575 60.8434 480.949 61.2741 482.935 61.4152C482.857 62.4919 482.603 63.5314 482.168 64.5227C481.732 65.5177 481.188 66.3493 480.536 67.025L458.625 65.4657H458.629Z" fill="#5F352F"/>
<path d="M538.599 73.9083C535.489 73.537 533.31 72.8501 532.065 71.8551C530.821 70.8601 529.73 69.4568 528.795 67.6524L508.247 26.6236L504.354 58.9165C504.153 60.5872 504.593 61.8346 505.677 62.6588C506.761 63.4868 508.318 64.0177 510.356 64.2627C510.102 66.3492 509.19 68.1462 507.61 69.6498L488.94 67.4148C487.819 65.6475 487.387 63.691 487.644 61.5413C489.678 61.7864 491.261 61.6267 492.389 61.0661C493.518 60.5055 494.185 59.3917 494.386 57.721L499.456 15.6749C499.657 14.0079 499.214 12.7567 498.134 11.9325C497.05 11.1083 495.489 10.5737 493.455 10.3287C493.727 8.06392 494.613 6.26327 496.111 4.93042L508.586 6.42292C510.322 6.63083 511.991 7.51073 513.593 9.06634C515.194 10.6182 516.603 12.6788 517.809 15.2442L534.312 49.7981L537.873 20.2786C538.074 18.6116 537.664 17.3642 536.64 16.5474C535.615 15.7306 534.084 15.196 532.05 14.9546C532.173 13.9411 532.475 12.9498 532.956 11.9771C533.436 11.0081 534.047 10.2024 534.796 9.56755L553.913 11.8583C555.101 13.5735 555.563 15.5338 555.299 17.7429C553.324 17.5053 551.756 17.6686 550.598 18.2218C549.439 18.7787 548.757 19.8925 548.556 21.5632L542.19 74.3426L538.599 73.912V73.9083Z" fill="#5F352F"/>
<path d="M552.527 75.2782C551.503 73.5593 551.212 71.547 551.648 69.2451C553.604 69.6127 555.042 69.5496 555.962 69.0484C556.886 68.5508 557.504 67.4742 557.817 65.822L565.707 24.2103C566.019 22.5582 565.841 21.3182 565.17 20.4865C564.5 19.6586 563.188 19.0572 561.233 18.6896C561.657 16.4471 562.659 14.7096 564.246 13.4807L585.919 17.5647C586.377 18.3852 586.686 19.3319 586.854 20.4011C587.018 21.4704 587.007 22.5099 586.817 23.5124C584.861 23.1448 583.419 23.2265 582.492 23.7537C581.564 24.2809 580.942 25.3724 580.629 27.0246L577.489 43.5794L596.852 47.2252L599.992 30.6704C600.305 29.0183 600.111 27.7745 599.411 26.9392C598.711 26.1038 597.414 25.5098 595.518 25.1534C595.943 22.9109 596.945 21.1734 598.528 19.9445L620.29 24.0433C621.311 25.7622 621.613 27.7448 621.188 29.9873C619.292 29.6309 617.85 29.7125 616.863 30.2286C615.876 30.7447 615.224 31.8325 614.911 33.4846L607.021 75.0963C606.709 76.7484 606.917 77.9811 607.655 78.7904C608.389 79.6035 609.704 80.1864 611.6 80.5428C611.164 82.8447 610.154 84.6119 608.571 85.8408L586.809 81.742C585.785 80.023 585.494 78.0107 585.93 75.7089C587.826 76.0653 589.249 75.9985 590.199 75.5047C591.153 75.0109 591.782 73.9379 592.099 72.2858L595.44 54.6692L576.077 51.0233L572.736 68.6437C572.423 70.2958 572.605 71.521 573.28 72.3229C573.954 73.1249 575.273 73.7078 577.225 74.0753C577.023 75.1371 576.651 76.1396 576.103 77.0752C575.559 78.0108 574.919 78.7793 574.196 79.3733L552.52 75.2931L552.527 75.2782Z" fill="#5F352F"/>
<path d="M640.804 95.1522C635.142 93.6968 630.638 91.1425 627.29 87.4892C623.941 83.8359 621.799 79.3622 620.867 74.0679C619.936 68.7736 620.283 62.9856 621.907 56.7037C623.639 50.0172 626.217 44.6152 629.648 40.5016C633.075 36.3917 637.142 33.6034 641.847 32.1481C646.548 30.689 651.614 30.6593 657.042 32.0552C662.7 33.5106 667.222 36.0687 670.601 39.7294C673.98 43.3901 676.148 47.8713 677.113 53.173C678.074 58.4784 677.735 64.2998 676.092 70.6374C674.375 77.2682 671.786 82.6368 668.329 86.7393C664.868 90.8455 660.789 93.6263 656.084 95.0816C651.38 96.5407 646.287 96.563 640.8 95.1522H640.804ZM642.454 88.7812C643.795 89.1265 645.2 89.1154 646.664 88.7478C648.128 88.3803 649.618 87.4298 651.138 85.8965C652.654 84.3632 654.151 82.0056 655.63 78.8164C657.109 75.6309 658.532 71.3911 659.903 66.0968C661.605 59.5253 662.451 54.3313 662.443 50.511C662.436 46.6943 661.81 43.8801 660.566 42.072C659.322 40.264 657.679 39.0982 655.637 38.571C654.293 38.2257 652.892 38.2369 651.428 38.6044C649.964 38.972 648.474 39.9224 646.954 41.4557C645.438 42.9891 643.944 45.3355 642.473 48.4913C641.002 51.647 639.582 55.8758 638.211 61.1663C636.509 67.7378 635.66 72.9467 635.66 76.793C635.66 80.6393 636.297 83.4684 637.571 85.2876C638.841 87.1031 640.473 88.2652 642.454 88.7775V88.7812Z" fill="#5F352F"/>
<path d="M710.579 115.765C709.26 115.334 707.8 114.763 706.194 114.05C704.589 113.337 702.521 112.487 699.992 111.503C697.463 110.519 694.106 109.346 689.923 107.98C689.186 105.971 689.16 103.936 689.834 101.883C691.722 102.5 693.19 102.615 694.237 102.232C695.284 101.846 696.07 100.855 696.595 99.2548L709.815 59.0094C710.322 57.4686 710.266 56.2323 709.651 55.3078C709.037 54.3796 707.785 53.6074 705.893 52.9911C706.604 50.8229 707.826 49.2302 709.554 48.2129C715.224 50.0618 720.078 51.4578 724.112 52.3934C728.146 53.329 730.795 54.0047 732.058 54.4168C737.042 56.0429 741.08 58.2297 744.172 60.9771C747.263 63.7245 749.539 66.8357 750.996 70.3145C752.452 73.7932 753.168 77.5022 753.142 81.4451C753.116 85.3879 752.438 89.3828 751.104 93.437C749.659 97.8328 747.729 101.783 745.308 105.292C742.886 108.8 739.977 111.625 736.576 113.771C733.175 115.917 729.308 117.217 724.976 117.666C720.644 118.115 715.842 117.48 710.571 115.761L710.579 115.765ZM712.225 108.433C715.373 109.461 718.349 109.576 721.147 108.785C723.944 107.991 726.544 106.06 728.947 102.986C731.35 99.9156 733.499 95.4975 735.395 89.7318C738.133 81.3968 738.673 74.8254 737.019 70.0212C735.366 65.2132 732.102 62.0166 727.234 60.4276C726.831 60.2977 726.459 60.1751 726.116 60.0638C725.773 59.9524 725.438 59.9078 725.114 59.9264L709.532 107.363C709.972 107.571 710.43 107.768 710.907 107.954C711.383 108.143 711.823 108.299 712.225 108.433Z" fill="#5F352F"/>
<path d="M789.625 140.826C789.316 140.606 788.925 140.332 788.459 140.005C787.994 139.675 787.312 139.125 786.411 138.353L746.347 126.279C745.997 125.359 745.777 124.367 745.692 123.305C745.602 122.244 745.71 121.226 746.005 120.246C747.908 120.822 749.439 120.907 750.601 120.502C751.763 120.098 752.587 119.092 753.075 117.484L765.345 77.0343C765.833 75.4267 765.714 74.1496 764.995 73.2103C764.272 72.271 762.961 71.5136 761.054 70.9418C761.352 69.9654 761.829 69.0595 762.492 68.2204C763.155 67.3851 763.889 66.6797 764.69 66.1079L798.264 76.225C799.441 76.0764 800.704 76.0653 802.052 76.1915C803.401 76.3141 804.622 76.5405 805.718 76.871C805.956 77.9476 806.142 79.4624 806.276 81.4153C806.407 83.3681 806.47 85.2876 806.466 87.1662C806.463 89.0448 806.31 90.4779 806.016 91.4544C805.412 91.7774 804.537 92.015 803.389 92.1672C802.238 92.3231 801.095 92.4159 799.951 92.4494C798.808 92.4791 797.865 92.4791 797.12 92.4419C797.061 90.3517 796.491 88.2355 795.41 86.0895C794.33 83.9436 792.635 82.5254 790.329 81.8274L780.551 78.8795L775.03 97.0754L781.262 98.954C782.875 99.4403 784.362 99.3698 785.718 98.7423C787.074 98.1149 788.098 96.6521 788.798 94.3502C791.395 95.1336 793.548 96.4405 795.258 98.2746L790.393 114.317C788.064 114.933 785.572 114.841 782.92 114.042C783.617 111.744 783.591 109.914 782.838 108.559C782.086 107.204 780.901 106.279 779.284 105.793L772.967 103.888L766.82 124.156L777.291 127.311C779.828 128.076 782.294 127.675 784.693 126.105C787.088 124.538 788.925 122.377 790.203 119.622L799.463 122.411C799.202 123.272 798.666 124.571 797.858 126.305C797.049 128.039 796.137 129.899 795.127 131.882C794.114 133.868 793.108 135.683 792.106 137.324C791.104 138.969 790.277 140.128 789.633 140.814L789.625 140.826Z" fill="#5F352F"/>
<path d="M838.327 153.571C835.589 152.84 832.449 151.878 828.903 150.683C825.356 149.487 820.905 148.173 815.548 146.744C814.688 144.835 814.539 142.838 815.101 140.748C817.079 141.275 818.565 141.316 819.56 140.866C820.555 140.417 821.27 139.381 821.706 137.755L832.698 96.849C833.134 95.2265 833.034 93.9717 832.4 93.0843C831.763 92.2007 830.456 91.4916 828.478 90.9644C829.04 88.8779 830.169 87.2183 831.871 85.9968C836.003 87.0995 839.307 87.9348 841.773 88.4992C844.242 89.0635 846.34 89.5499 848.076 89.9471C849.808 90.3481 851.547 90.7825 853.294 91.2466C858.361 92.598 862.399 94.161 865.42 95.9282C868.437 97.6992 870.672 99.537 872.125 101.449C873.577 103.361 874.434 105.269 874.702 107.174C874.971 109.079 874.878 110.875 874.427 112.557C873.555 115.806 871.961 118.368 869.648 120.235C867.334 122.106 863.944 123.346 859.478 123.955C864.201 126.335 867.42 128.938 869.126 131.756C870.832 134.573 871.063 138.305 869.815 142.946C869.208 145.207 868.239 147.297 866.913 149.213C865.587 151.128 863.721 152.669 861.322 153.827C858.919 154.989 855.839 155.598 852.08 155.65C848.321 155.702 843.736 155.008 838.323 153.564L838.327 153.571ZM838.636 146.844C846.787 149.02 851.804 146.599 853.693 139.574C854.755 135.632 854.546 132.402 853.067 129.892C851.588 127.386 848.519 125.507 843.863 124.263C843.397 124.137 842.883 124.018 842.324 123.9C841.762 123.781 841.307 123.677 840.957 123.58L835.041 145.6C835.433 145.767 835.939 145.964 836.565 146.194C837.191 146.424 837.88 146.64 838.636 146.84V146.844ZM845.282 117.93C849.532 119.066 852.792 118.939 855.068 117.558C857.34 116.177 858.901 113.92 859.743 110.786C860.584 107.653 860.394 104.928 859.18 102.615C857.962 100.298 855.489 98.6459 851.763 97.6509C851.182 97.495 850.545 97.3576 849.864 97.2351C849.178 97.1126 848.586 97.0495 848.09 97.042L842.711 117.061C843.103 117.228 843.527 117.388 843.985 117.54C844.444 117.696 844.876 117.826 845.285 117.933L845.282 117.93Z" fill="#5F352F"/>
<path d="M896.897 168.797C891.208 167.453 886.656 164.984 883.237 161.397C879.817 157.811 877.589 153.378 876.554 148.102C875.518 142.827 875.753 137.031 877.254 130.72C878.856 124 881.329 118.549 884.678 114.373C888.027 110.196 892.035 107.333 896.71 105.782C901.382 104.233 906.448 104.103 911.901 105.395C917.589 106.739 922.156 109.212 925.606 112.806C929.055 116.4 931.313 120.84 932.374 126.123C933.44 131.406 933.212 137.235 931.696 143.603C930.109 150.267 927.625 155.684 924.25 159.853C920.871 164.026 916.844 166.885 912.173 168.433C907.498 169.981 902.406 170.104 896.893 168.801L896.897 168.797ZM898.42 162.396C899.769 162.715 901.169 162.678 902.629 162.281C904.086 161.884 905.557 160.907 907.047 159.344C908.534 157.781 909.986 155.394 911.402 152.179C912.818 148.964 914.159 144.698 915.425 139.378C916.997 132.773 917.742 127.564 917.66 123.747C917.578 119.931 916.896 117.131 915.619 115.345C914.337 113.56 912.676 112.427 910.623 111.941C909.275 111.622 907.871 111.659 906.414 112.056C904.958 112.453 903.486 113.433 901.996 114.993C900.51 116.556 899.061 118.928 897.653 122.114C896.245 125.299 894.904 129.554 893.637 134.87C892.065 141.475 891.316 146.699 891.391 150.545C891.465 154.392 892.158 157.21 893.466 158.999C894.773 160.789 896.423 161.921 898.416 162.392L898.42 162.396Z" fill="#5F352F"/>
<path d="M930.568 175.372C929.517 173.623 929.23 171.6 929.707 169.306C931.711 169.721 933.198 169.692 934.159 169.216C935.12 168.741 935.772 167.679 936.114 166.031L944.756 124.568C945.099 122.923 944.928 121.676 944.242 120.825C943.557 119.979 942.212 119.348 940.204 118.932C940.413 117.933 940.797 116.968 941.359 116.044C941.922 115.115 942.6 114.369 943.397 113.797L966.142 118.509C966.645 119.348 966.954 120.302 967.07 121.371C967.185 122.44 967.141 123.473 966.932 124.471C964.57 123.981 962.79 123.966 961.586 124.423C960.383 124.88 959.608 125.93 959.266 127.579L950.091 171.6L955.578 172.736C958.882 173.419 961.769 172.499 964.231 169.974C966.697 167.449 968.444 163.714 969.476 158.773L975.671 160.057C976.327 160.744 976.74 161.858 976.915 163.399C977.087 164.939 977.113 166.584 976.993 168.337C976.874 170.093 976.666 171.674 976.371 173.085C975.637 176.612 974.438 179.252 972.784 180.993C971.126 182.734 968.765 183.291 965.699 182.653L930.56 175.376L930.568 175.372Z" fill="#5F352F"/>
<path d="M1003.36 190.824C997.597 189.811 992.911 187.613 989.286 184.23C985.662 180.848 983.181 176.553 981.84 171.344C980.499 166.139 980.394 160.339 981.527 153.95C982.734 147.148 984.883 141.564 987.982 137.198C991.082 132.836 994.918 129.743 999.493 127.924C1004.07 126.108 1009.11 125.685 1014.64 126.654C1020.39 127.668 1025.1 129.869 1028.75 133.255C1032.4 136.641 1034.91 140.944 1036.29 146.157C1037.66 151.37 1037.77 157.202 1036.63 163.647C1035.43 170.39 1033.27 175.944 1030.14 180.302C1027.01 184.661 1023.16 187.75 1018.59 189.569C1014.01 191.388 1008.93 191.804 1003.36 190.824ZM1004.5 184.346C1005.87 184.587 1007.27 184.464 1008.7 183.985C1010.13 183.506 1011.54 182.445 1012.93 180.796C1014.33 179.152 1015.63 176.683 1016.86 173.389C1018.09 170.1 1019.18 165.76 1020.13 160.38C1021.32 153.697 1021.76 148.451 1021.45 144.646C1021.15 140.84 1020.3 138.086 1018.92 136.378C1017.54 134.67 1015.81 133.634 1013.74 133.27C1012.37 133.029 1010.97 133.151 1009.54 133.63C1008.11 134.109 1006.7 135.175 1005.3 136.82C1003.91 138.464 1002.6 140.918 1001.38 144.182C1000.16 147.445 999.072 151.767 998.118 157.15C996.934 163.837 996.49 169.094 996.792 172.929C997.09 176.764 997.947 179.538 999.355 181.249C1000.76 182.961 1002.48 183.997 1004.5 184.349L1004.5 184.346Z" fill="#5F352F"/>
<path d="M1049.92 197.47C1048.74 195.807 1048.3 193.809 1048.6 191.485C1050.21 191.693 1051.78 191.407 1053.31 190.635C1054.84 189.863 1056.05 188.533 1056.97 186.651L1077.24 145.281C1074.95 144.2 1071.98 143.428 1068.34 142.96C1068.67 140.399 1069.66 138.345 1071.32 136.801L1095.88 139.946L1106.04 192.662C1106.45 194.711 1107.3 196.352 1108.6 197.578C1109.9 198.803 1111.33 199.516 1112.88 199.716C1112.59 202.04 1111.65 203.859 1110.09 205.17L1085.79 202.059C1084.6 200.395 1084.16 198.398 1084.46 196.074C1086.02 196.274 1087.3 196.089 1088.32 195.521C1089.33 194.956 1089.93 193.928 1090.13 192.435C1090.2 191.901 1090.23 191.266 1090.24 190.542C1090.24 189.814 1090.17 189.02 1090.04 188.155L1089.75 186.209L1069.66 183.64L1068.88 185.448C1068.54 186.191 1068.26 186.881 1068.02 187.52C1067.79 188.158 1067.64 188.741 1067.57 189.28C1067.36 190.887 1067.72 192.116 1068.65 192.959C1069.57 193.805 1070.93 194.34 1072.72 194.57C1072.42 196.894 1071.49 198.714 1069.92 200.024L1049.93 197.466L1049.92 197.47ZM1072.53 176.928L1088.67 178.992L1085.16 156.014C1084.85 154.158 1084.36 152.55 1083.68 151.191L1072.53 176.924V176.928Z" fill="#5F352F"/>
<path d="M1118.79 207.264C1118.15 205.638 1117.64 203.406 1117.26 200.57C1116.88 197.733 1116.62 194.771 1116.51 191.686C1116.39 188.6 1116.44 185.86 1116.65 183.466L1125.65 184.264C1126.16 189.436 1127.71 193.583 1130.31 196.705C1132.9 199.831 1136.09 201.561 1139.87 201.895C1141.73 202.059 1143.22 201.817 1144.34 201.16C1145.46 200.507 1146.3 199.66 1146.88 198.628C1147.46 197.592 1147.79 196.597 1147.87 195.64C1148.05 193.664 1147.54 191.901 1146.35 190.349C1145.16 188.797 1143.61 187.345 1141.7 186.001C1139.79 184.657 1137.86 183.417 1135.91 182.278C1130.85 179.237 1126.95 175.922 1124.18 172.328C1121.42 168.737 1120.26 164.427 1120.71 159.4C1121.03 155.751 1122.21 152.736 1124.24 150.349C1126.27 147.965 1128.86 146.22 1132.01 145.114C1135.16 144.007 1138.64 143.621 1142.42 143.955C1144.16 144.111 1146.2 144.471 1148.54 145.039C1150.88 145.608 1152.76 146.38 1154.18 147.349L1162.05 145.693C1162.76 147.145 1163.19 149.005 1163.32 151.277C1163.45 153.549 1163.45 155.888 1163.33 158.286C1163.21 160.688 1163.06 162.875 1162.88 164.85L1162.76 166.198L1155.29 165.533C1154.48 160.336 1153.02 156.723 1150.9 154.696C1148.78 152.669 1146.4 151.537 1143.76 151.303C1141.3 151.084 1139.42 151.626 1138.12 152.929C1136.83 154.232 1136.08 155.929 1135.9 158.023C1135.73 159.938 1136.11 161.598 1137.04 163.009C1137.97 164.42 1139.24 165.689 1140.83 166.825C1142.42 167.962 1144.1 169.094 1145.88 170.215C1147.84 171.355 1149.87 172.636 1151.98 174.058C1154.1 175.48 1156.02 177.084 1157.77 178.869C1159.52 180.651 1160.88 182.705 1161.85 185.021C1162.82 187.338 1163.18 189.993 1162.91 192.985C1162.61 196.278 1161.5 199.207 1159.58 201.78C1157.66 204.353 1155.06 206.325 1151.79 207.695C1148.52 209.061 1144.67 209.551 1140.23 209.157C1138.19 208.975 1135.97 208.556 1133.58 207.888C1131.19 207.219 1128.66 206.202 1126 204.817L1118.8 207.253L1118.79 207.264Z" fill="#5F352F"/>
<path d="M1173.44 211.786C1172.74 210.19 1172.14 207.98 1171.64 205.159C1171.15 202.337 1170.78 199.389 1170.54 196.312C1170.3 193.234 1170.24 190.494 1170.36 188.095L1179.39 188.537C1180.1 193.683 1181.81 197.767 1184.53 200.785C1187.25 203.804 1190.5 205.408 1194.3 205.593C1196.16 205.682 1197.64 205.382 1198.73 204.684C1199.82 203.986 1200.64 203.106 1201.17 202.051C1201.7 200.997 1201.99 199.987 1202.04 199.025C1202.14 197.047 1201.56 195.302 1200.3 193.798C1199.05 192.294 1197.44 190.906 1195.48 189.64C1193.53 188.37 1191.54 187.208 1189.55 186.146C1184.38 183.31 1180.34 180.15 1177.43 176.668C1174.53 173.189 1173.2 168.927 1173.45 163.889C1173.63 160.228 1174.68 157.169 1176.61 154.707C1178.55 152.246 1181.06 150.401 1184.17 149.168C1187.28 147.935 1190.73 147.412 1194.52 147.597C1196.27 147.683 1198.32 147.965 1200.68 148.44C1203.04 148.915 1204.95 149.61 1206.41 150.523L1214.2 148.559C1214.98 149.981 1215.48 151.823 1215.7 154.091C1215.92 156.356 1216.01 158.691 1215.99 161.097C1215.96 163.503 1215.9 165.693 1215.8 167.672L1215.73 169.023L1208.24 168.656C1207.23 163.495 1205.62 159.946 1203.42 158C1201.22 156.059 1198.8 155.023 1196.16 154.893C1193.69 154.77 1191.83 155.39 1190.59 156.742C1189.35 158.093 1188.67 159.82 1188.57 161.921C1188.48 163.84 1188.92 165.485 1189.91 166.859C1190.9 168.233 1192.21 169.454 1193.85 170.523C1195.48 171.596 1197.21 172.658 1199.03 173.709C1201.03 174.771 1203.12 175.97 1205.28 177.306C1207.45 178.647 1209.44 180.169 1211.26 181.884C1213.07 183.596 1214.51 185.593 1215.58 187.869C1216.64 190.145 1217.1 192.784 1216.95 195.784C1216.79 199.085 1215.8 202.059 1213.98 204.706C1212.16 207.353 1209.64 209.425 1206.43 210.925C1203.22 212.421 1199.39 213.059 1194.93 212.844C1192.88 212.744 1190.66 212.41 1188.24 211.842C1185.83 211.274 1183.26 210.349 1180.55 209.076L1173.44 211.797V211.786Z" fill="#5F352F"/>
<path d="M1220.24 212.792C1218.86 211.289 1218.17 209.362 1218.18 207.019C1219.81 207.023 1221.33 206.551 1222.75 205.593C1224.17 204.639 1225.21 203.169 1225.88 201.19L1240.86 157.633C1238.45 156.846 1235.41 156.441 1231.73 156.43C1231.74 153.85 1232.47 151.689 1233.92 149.951L1258.69 150.037L1275.33 201.09C1275.99 203.072 1277.04 204.595 1278.48 205.649C1279.92 206.707 1281.43 207.234 1282.99 207.242C1282.99 209.584 1282.29 211.504 1280.9 213L1256.4 212.915C1255.02 211.411 1254.33 209.484 1254.34 207.141C1255.9 207.149 1257.15 206.807 1258.09 206.117C1259.03 205.43 1259.5 204.335 1259.5 202.831C1259.5 202.289 1259.46 201.658 1259.37 200.938C1259.28 200.217 1259.12 199.438 1258.89 198.595L1258.35 196.701L1238.1 196.631L1237.55 198.521C1237.31 199.3 1237.11 200.021 1236.96 200.681C1236.8 201.342 1236.73 201.94 1236.73 202.482C1236.72 204.105 1237.23 205.278 1238.25 206.002C1239.27 206.726 1240.68 207.09 1242.5 207.097C1242.49 209.44 1241.79 211.359 1240.4 212.855L1220.24 212.785V212.792ZM1240.11 189.614L1256.39 189.67L1250.05 167.304C1249.51 165.5 1248.82 163.967 1247.98 162.701L1240.11 189.614Z" fill="#5F352F"/>
<path d="M1337.87 210.743C1334.74 210.906 1332.48 210.602 1331.08 209.829C1329.68 209.061 1328.37 207.865 1327.14 206.243L1299.86 169.313L1301.56 201.795C1301.65 203.477 1302.3 204.632 1303.5 205.259C1304.71 205.89 1306.34 206.15 1308.39 206.042C1308.5 208.144 1307.9 210.067 1306.61 211.819L1287.83 212.792C1286.42 211.24 1285.66 209.384 1285.55 207.227C1287.59 207.119 1289.13 206.696 1290.15 205.95C1291.16 205.207 1291.63 203.993 1291.54 202.315L1289.33 160.024C1289.25 158.346 1288.6 157.191 1287.39 156.56C1286.18 155.932 1284.55 155.669 1282.51 155.777C1282.39 153.497 1282.95 151.574 1284.2 150.007L1296.75 149.357C1298.49 149.268 1300.29 149.851 1302.13 151.11C1303.98 152.368 1305.72 154.158 1307.35 156.478L1329.52 187.72L1327.98 158.026C1327.89 156.348 1327.27 155.19 1326.12 154.559C1324.97 153.928 1323.37 153.664 1321.33 153.772C1321.28 152.751 1321.4 151.722 1321.71 150.683C1322.02 149.647 1322.49 148.748 1323.11 147.995L1342.34 147C1343.8 148.489 1344.6 150.341 1344.71 152.561C1342.73 152.665 1341.21 153.089 1340.16 153.835C1339.12 154.581 1338.64 155.795 1338.72 157.473L1341.49 210.561L1337.88 210.746L1337.87 210.743Z" fill="#5F352F"/>
<path d="M1377.16 207.464C1375.78 207.617 1374.21 207.702 1372.46 207.717C1370.7 207.732 1368.46 207.813 1365.75 207.966C1363.04 208.118 1359.5 208.437 1355.12 208.927C1353.62 207.405 1352.74 205.567 1352.5 203.418C1354.48 203.195 1355.86 202.694 1356.65 201.91C1357.44 201.127 1357.74 199.902 1357.56 198.227L1352.82 156.144C1352.64 154.533 1352.08 153.434 1351.13 152.844C1350.19 152.253 1348.73 152.068 1346.75 152.29C1346.5 150.022 1346.94 148.069 1348.09 146.428C1354.02 145.767 1359.02 145.025 1363.08 144.212C1367.14 143.395 1369.83 142.912 1371.14 142.767C1376.36 142.184 1380.94 142.504 1384.9 143.725C1388.86 144.947 1392.22 146.836 1395 149.398C1397.77 151.96 1399.97 155.038 1401.58 158.635C1403.2 162.233 1404.25 166.15 1404.72 170.39C1405.24 174.986 1405.13 179.382 1404.39 183.573C1403.65 187.769 1402.17 191.541 1399.98 194.901C1397.78 198.261 1394.8 201.041 1391.04 203.243C1387.29 205.445 1382.65 206.856 1377.15 207.472L1377.16 207.464ZM1375.6 200.113C1378.9 199.746 1381.65 198.621 1383.87 196.742C1386.08 194.864 1387.64 192.031 1388.55 188.24C1389.46 184.453 1389.57 179.545 1388.89 173.512C1387.91 164.798 1385.67 158.594 1382.16 154.908C1378.65 151.221 1374.36 149.662 1369.27 150.23C1368.85 150.278 1368.46 150.319 1368.1 150.36C1367.74 150.401 1367.42 150.497 1367.13 150.649L1372.71 200.254C1373.19 200.262 1373.69 200.254 1374.21 200.225C1374.72 200.199 1375.18 200.162 1375.6 200.113Z" fill="#5F352F"/>
<path d="M1444.53 198.123C1438.77 199.133 1433.61 198.665 1429.04 196.723C1424.47 194.782 1420.67 191.593 1417.62 187.156C1414.57 182.719 1412.48 177.306 1411.35 170.917C1410.15 164.115 1410.26 158.134 1411.67 152.977C1413.09 147.82 1415.63 143.606 1419.31 140.339C1422.99 137.072 1427.58 134.952 1433.1 133.987C1438.86 132.977 1444.04 133.441 1448.63 135.379C1453.23 137.317 1457.06 140.502 1460.14 144.932C1463.22 149.365 1465.33 154.804 1466.47 161.249C1467.66 167.991 1467.54 173.946 1466.09 179.111C1464.64 184.275 1462.09 188.489 1458.41 191.756C1454.73 195.023 1450.11 197.147 1444.53 198.127V198.123ZM1443.38 191.645C1444.75 191.403 1446.02 190.817 1447.2 189.877C1448.38 188.938 1449.34 187.46 1450.09 185.437C1450.83 183.417 1451.22 180.651 1451.24 177.139C1451.26 173.627 1450.79 169.183 1449.84 163.799C1448.66 157.117 1447.28 152.038 1445.68 148.566C1444.09 145.095 1442.35 142.793 1440.47 141.661C1438.59 140.528 1436.61 140.142 1434.53 140.506C1433.16 140.747 1431.89 141.334 1430.71 142.273C1429.53 143.213 1428.57 144.694 1427.83 146.714C1427.08 148.737 1426.69 151.485 1426.67 154.967C1426.64 158.45 1427.1 162.882 1428.05 168.266C1429.23 174.952 1430.62 180.042 1432.22 183.543C1433.82 187.045 1435.57 189.361 1437.48 190.486C1439.4 191.615 1441.36 192.001 1443.38 191.648V191.645Z" fill="#5F352F"/>
<path d="M1477.75 162.136L1465.75 128.707C1465.61 128.369 1465.5 128.039 1465.43 127.716C1465.36 127.393 1465.3 127.115 1465.25 126.881C1464.77 124.768 1464.96 123.127 1465.81 121.954C1466.66 120.781 1468.09 119.971 1470.09 119.53L1473.88 118.687C1475.88 118.241 1477.53 118.371 1478.83 119.066C1480.13 119.764 1481.01 121.167 1481.48 123.276C1481.53 123.51 1481.58 123.792 1481.62 124.122C1481.66 124.453 1481.7 124.798 1481.72 125.162L1484.98 160.529L1477.75 162.133V162.136ZM1487.67 189.566C1485.02 190.152 1482.71 189.818 1480.74 188.567C1478.76 187.312 1477.48 185.396 1476.91 182.816C1476.32 180.176 1476.65 177.889 1477.92 175.944C1479.18 174.002 1481.14 172.736 1483.79 172.149C1486.55 171.537 1488.92 171.841 1490.89 173.066C1492.86 174.292 1494.14 176.222 1494.73 178.862C1495.31 181.442 1494.97 183.718 1493.71 185.69C1492.45 187.661 1490.44 188.953 1487.68 189.566H1487.67Z" fill="#5F352F"/>
</g>
<defs>
<clipPath id="clip0_313_151">
<rect width="1495" height="213" fill="white"/>
</clipPath>
</defs>
</svg>
